<?xml version="1.0" encoding="utf-8"?>
<!-- Generator: Adobe Illustrator 23.0.4, SVG Export Plug-In . SVG Version: 6.00 Build 0)  -->
<svg version="1.1" id="Logo" xmlns="http://www.w3.org/2000/svg" xmlns:xlink="http://www.w3.org/1999/xlink" x="0px" y="0px"
	 viewBox="0 0 100 60" style="enable-background:new 0 0 100 60;" xml:space="preserve">
<g>
	<path d="M46.8,41.4c-1.9,0-3.5,1.6-3.5,3.5s1.6,3.5,3.5,3.5s3.5-1.6,3.5-3.5S48.7,41.4,46.8,41.4z M46.8,46.4
		c-0.8,0-1.6-0.6-1.6-1.6c0-0.8,0.6-1.6,1.6-1.6c0.9,0,1.6,0.6,1.6,1.6S47.6,46.4,46.8,46.4z"/>
	<path d="M45.9,25h14c0.6,0,1-0.5,1-1c0-0.6-0.5-1-1-1h-14c-0.6,0-1,0.5-1,1S45.4,25,45.9,25z"/>
	<path d="M59.1,28.1H46.7c-0.6,0-1,0.5-1,1c0,0.6,0.5,1,1,1h12.4c0.6,0,1-0.5,1-1C60.1,28.5,59.6,28.1,59.1,28.1z"/>
	<path d="M68.3,18H37.5l0,0l-0.6-3c-0.1-0.6-0.6-1.1-1.1-1.4l-4.3-1.8c-0.5-0.2-1.1,0-1.3,0.5c-0.2,0.5,0,1.1,0.5,1.3l4.3,1.8l0,0
		l4.7,22.8c0.2,0.9,1,1.6,1.9,1.6h23.2c0.6,0,1-0.5,1-0.9c0-0.5-0.5-1-1-1H41.6l0,0L41,35.1l0,0h24c0.9,0,1.8-0.6,1.9-1.6l1.8-9.2
		l0,0l0.9-4.5C70,18.9,69.3,18,68.3,18z M40.7,33.1L38,19.9l0,0c0.2,0,6,0,6,0h23.9l0,0l-1.5,7.4l0,0l-1.2,5.8l0,0H40.7L40.7,33.1z"
		/>
	<path d="M59,41.4c-1.9,0-3.5,1.6-3.5,3.5s1.6,3.5,3.5,3.5s3.5-1.6,3.5-3.5S60.9,41.4,59,41.4z M59,46.4c-0.8,0-1.6-0.6-1.6-1.6
		c0-0.8,0.6-1.6,1.6-1.6s1.6,0.6,1.6,1.6S59.8,46.4,59,46.4z"/>
</g>
</svg>
