<?xml version="1.0" encoding="utf-8"?>
<!-- Generator: Adobe Illustrator 23.0.3, SVG Export Plug-In . SVG Version: 6.00 Build 0)  -->
<svg version="1.1" id="Logo" xmlns="http://www.w3.org/2000/svg" xmlns:xlink="http://www.w3.org/1999/xlink" x="0px" y="0px"
	 viewBox="0 0 512 512" style="enable-background:new 0 0 512 512;" xml:space="preserve">
<g>
	<path d="M252.32,278.03c66.61,0,120.64-54.03,120.64-120.64S318.93,37.11,252.32,37.11S131.67,91.14,131.67,157.38
		S185.7,278.03,252.32,278.03z M252.32,68.57c48.85,0,88.82,39.97,88.82,88.82s-39.97,88.82-88.82,88.82s-88.82-39.97-88.82-88.82
		S203.47,68.57,252.32,68.57z"/>
	<path d="M43.59,466.39h418.92c8.88,0,15.91-7.03,15.91-15.91c0-83.27-67.72-151.36-151.36-151.36H179.04
		c-83.27,0-151.36,67.72-151.36,151.36C27.68,459.36,34.71,466.39,43.59,466.39z M179.04,330.95h148.03
		c60.69,0,110.65,45.15,118.42,103.62H60.62C68.39,376.47,118.35,330.95,179.04,330.95z"/>
</g>
</svg>
