<?xml version="1.0" encoding="utf-8"?>
<!-- Generator: Adobe Illustrator 23.0.3, SVG Export Plug-In . SVG Version: 6.00 Build 0)  -->
<svg version="1.1" id="Logo" xmlns="http://www.w3.org/2000/svg" xmlns:xlink="http://www.w3.org/1999/xlink" x="0px" y="0px"
	 viewBox="0 0 512 512" style="enable-background:new 0 0 512 512;" xml:space="preserve">
<g>
	<path d="M215.81,391.14c-22.07,0-40.04,17.97-40.04,40.04s17.97,40.04,40.04,40.04s40.04-17.97,40.04-40.04
		S237.88,391.14,215.81,391.14z M215.81,448.89c-9.79,0-17.71-7.92-17.71-17.71c0-9.79,7.92-17.71,17.71-17.71
		s17.71,7.92,17.71,17.71S225.6,448.89,215.81,448.89z"/>
	<path d="M205.93,202.59h160.26c6.14,0,11.21-4.98,11.21-11.21c0-6.14-4.98-11.21-11.21-11.21H205.93
		c-6.14,0-11.21,4.98-11.21,11.21C194.72,197.6,199.7,202.59,205.93,202.59z"/>
	<path d="M357.47,238.27H214.65c-6.14,0-11.21,4.98-11.21,11.21c0,6.14,4.98,11.21,11.21,11.21h142.82
		c6.14,0,11.21-4.98,11.21-11.21C368.68,243.34,363.7,238.27,357.47,238.27z"/>
	<path d="M463.71,122.15H109.56l0,0l-7.03-34.17c-1.51-7.12-6.32-13.08-12.99-16.02L40.43,50.7c-5.69-2.49-12.28,0.18-14.68,5.78
		c-2.49,5.69,0.09,12.28,5.78,14.68l49.12,21.27l0,0l54.1,262.76c2.14,10.32,11.39,17.89,21.89,17.89H424.2
		c6.14,0,11.48-4.8,11.57-11.03s-4.98-11.39-11.21-11.39H156.64l0,0l-6.58-31.86l0,0h276.55c10.59,0,19.75-7.47,21.89-17.89
		l21.71-105.53l0,0l10.68-51.97C483.29,132.38,474.92,122.15,463.71,122.15z M145.42,296.37l-31.23-151.8l0,0
		c1.78,0,68.69,0,68.69,0h275.04l0,0l-17.44,84.71l0,0l-13.79,67.09l0,0H145.42L145.42,296.37z"/>
	<path d="M356.31,391.14c-22.07,0-40.04,17.97-40.04,40.04s17.97,40.04,40.04,40.04c22.07,0,40.04-17.97,40.04-40.04
		C396.44,409.11,378.47,391.14,356.31,391.14z M356.31,448.89c-9.79,0-17.71-7.92-17.71-17.71c0-9.79,7.92-17.71,17.71-17.71
		c9.79,0,17.71,7.92,17.71,17.71S366.1,448.89,356.31,448.89z"/>
</g>
</svg>
