<?xml version="1.0" encoding="utf-8"?>
<!-- Generator: Adobe Illustrator 23.0.3, SVG Export Plug-In . SVG Version: 6.00 Build 0)  -->
<svg version="1.1" id="Logo" xmlns="http://www.w3.org/2000/svg" xmlns:xlink="http://www.w3.org/1999/xlink" x="0px" y="0px"
	 viewBox="0 0 25 25" style="enable-background:new 0 0 25 25;" xml:space="preserve">
<g>
	<path d="M12.5,13.6c2.6,0,4.8-2.2,4.8-4.8S15.1,4,12.5,4S7.7,6.1,7.7,8.7S9.9,13.6,12.5,13.6z M12.5,5.2c2,0,3.6,1.6,3.6,3.6
		s-1.6,3.6-3.6,3.6s-3.6-1.6-3.6-3.6S10.5,5.2,12.5,5.2z"/>
	<path d="M4.2,21h16.7c0.4,0,0.6-0.2,0.6-0.6c0-3.3-2.7-6.1-6.1-6.1H9.6c-3.3,0-6.1,2.7-6.1,6.1C3.6,20.7,3.8,21,4.2,21z M9.6,15.6
		h5.9c2.4,0,4.5,1.8,4.7,4.2H4.8C5.1,17.5,7.1,15.6,9.6,15.6z"/>
</g>
</svg>
