<?xml version="1.0" encoding="utf-8"?>
<!-- Generator: Adobe Illustrator 23.0.3, SVG Export Plug-In . SVG Version: 6.00 Build 0)  -->
<svg version="1.1" id="Camada_1" xmlns="http://www.w3.org/2000/svg" xmlns:xlink="http://www.w3.org/1999/xlink" x="0px" y="0px"
	 viewBox="0 0 200 50" style="enable-background:new 0 0 200 50;" xml:space="preserve">
<style type="text/css">
	.st0{fill-rule:evenodd;clip-rule:evenodd;fill:#9B1419;}
	.st1{fill-rule:evenodd;clip-rule:evenodd;fill:#BF0911;}
	.st2{fill-rule:evenodd;clip-rule:evenodd;fill:#010202;}
</style>
<polygon class="st0" points="46,5.6 55.6,20.5 39.5,44.8 29.7,30.1 38.8,16.4 "/>
<polygon class="st1" points="40.6,45.8 54.3,45.8 82.3,5 67.7,5 "/>
<polygon class="st1" points="30.8,5.1 3.3,45.9 17.4,45.9 44.5,5.1 "/>
<g>
	<path class="st2" d="M94,35.7l2.5,7.8l2.7-7.8h3.2v10h-2.1v-7.5l-2.7,7.5h-2.2l-2.5-7.5v7.5h-2.1v-10H94z M109,35.7
		c1,0,1.9,0.2,2.7,0.5c0.9,0.4,1.6,1.1,1.9,2c0.3,0.8,0.4,1.6,0.4,2.6s-0.2,1.9-0.5,2.6c-0.4,0.9-1.1,1.5-2,1.9
		c-0.7,0.3-1.5,0.4-2.3,0.4c-1.2,0-2.2-0.2-3-0.6c-0.7-0.3-1.3-0.9-1.6-1.7c-0.4-0.8-0.6-1.7-0.6-2.7c0-1.9,0.5-3.2,1.4-4.1
		C106.2,36,107.4,35.7,109,35.7z M109,37.3c-1,0-1.7,0.3-2.1,1c-0.3,0.5-0.5,1.3-0.5,2.4c0,1.2,0.2,2,0.6,2.6c0.4,0.5,1.1,0.8,2,0.8
		c0.9,0,1.6-0.3,2-0.8s0.6-1.4,0.6-2.5c0-1-0.2-1.8-0.5-2.4C110.7,37.7,110,37.3,109,37.3z M117.7,37.5h-3.2v-1.8h8.8v1.8h-3.4v8.2
		h-2.2L117.7,37.5L117.7,37.5z M128.7,35.7c1,0,1.9,0.2,2.7,0.5c0.9,0.4,1.6,1.1,1.9,2c0.3,0.8,0.4,1.6,0.4,2.6s-0.2,1.9-0.5,2.6
		c-0.4,0.9-1.1,1.5-2,1.9c-0.7,0.3-1.5,0.4-2.3,0.4c-1.2,0-2.2-0.2-3-0.6c-0.7-0.3-1.3-0.9-1.6-1.7c-0.4-0.8-0.6-1.7-0.6-2.7
		c0-1.9,0.5-3.2,1.4-4.1C125.9,36,127.1,35.7,128.7,35.7z M128.7,37.3c-1,0-1.7,0.3-2.1,1c-0.3,0.5-0.5,1.3-0.5,2.4
		c0,1.2,0.2,2,0.6,2.6c0.4,0.5,1.1,0.8,2,0.8c0.9,0,1.6-0.3,2-0.8c0.4-0.5,0.6-1.4,0.6-2.5c0-1-0.2-1.8-0.5-2.4
		C130.4,37.7,129.7,37.3,128.7,37.3z M146.8,43.9v1.8h-3.6c-0.7,0-1.2,0-1.6-0.1c-1.2-0.2-2.1-0.9-2.7-2c-0.4-0.8-0.5-1.7-0.5-2.8
		c0-1.3,0.3-2.4,0.8-3.3c0.4-0.6,0.9-1,1.5-1.3c0.6-0.3,1.5-0.4,2.5-0.4h3.4v1.8h-3.2c-1,0-1.7,0.2-2.1,0.8
		c-0.4,0.4-0.6,1.2-0.6,2.3c0,1.5,0.3,2.5,0.9,2.9c0.4,0.3,1,0.5,1.9,0.5H146.8z M156,35.7v1.8h-2.8c-0.7,0-1.3,0-1.6,0.2
		c-0.3,0.1-0.6,0.3-0.8,0.6c-0.1,0.2-0.2,0.4-0.3,0.6c-0.1,0.2-0.1,0.5-0.1,1h5.7v1.8h-5.7c0.1,0.9,0.3,1.5,0.8,1.8s1.2,0.5,2.2,0.5
		h2.7v1.8h-2.8c-0.8,0-1.4,0-2-0.1c-0.9-0.1-1.6-0.5-2.2-1.2c-0.8-0.9-1.2-2.2-1.2-3.7c0-1.7,0.6-3.1,1.6-4c0.4-0.3,0.8-0.6,1.2-0.7
		c0.4-0.1,1-0.2,1.7-0.2C152.4,35.7,156,35.7,156,35.7z M159.8,38.4v7.3h-2.1v-10h2.8l4.1,7.4v-7.4h2.1v10H164L159.8,38.4z
		 M171,37.5h-3.2v-1.8h8.8v1.8h-3.4v8.2H171L171,37.5L171,37.5z M185.4,35.7v1.8h-2.8c-0.7,0-1.3,0-1.6,0.2
		c-0.3,0.1-0.6,0.3-0.8,0.6c-0.1,0.2-0.2,0.4-0.3,0.6c-0.1,0.2-0.1,0.5-0.1,1h5.7v1.8h-5.7c0.1,0.9,0.3,1.5,0.8,1.8s1.2,0.5,2.2,0.5
		h2.7v1.8h-2.8c-0.8,0-1.4,0-2-0.1c-0.9-0.1-1.6-0.5-2.2-1.2c-0.8-0.9-1.2-2.2-1.2-3.7c0-1.7,0.6-3.1,1.6-4c0.4-0.3,0.8-0.6,1.2-0.7
		c0.4-0.1,1-0.2,1.7-0.2C181.7,35.7,185.4,35.7,185.4,35.7z M189.2,41.9v3.8h-2.2v-10h5c1.4,0,2.4,0.2,3,0.5
		c0.4,0.2,0.7,0.5,0.9,0.9s0.3,0.8,0.3,1.3c0,1-0.2,1.7-0.7,2.2c-0.3,0.3-0.7,0.5-1.2,0.7c0.4,0.1,0.7,0.3,0.9,0.4
		c0.2,0.2,0.4,0.4,0.6,0.7c0.1,0.2,0.2,0.5,0.3,0.7c0.1,0.2,0.1,0.5,0.1,1c0.1,0.7,0.1,1.2,0.2,1.5H194c-0.1-0.2-0.1-0.7-0.2-1.4
		c-0.1-0.6-0.2-1-0.3-1.3s-0.4-0.5-0.7-0.7c-0.4-0.2-1-0.3-1.7-0.3L189.2,41.9L189.2,41.9z M189.2,40.1h3.1c0.5,0,0.9-0.1,1.1-0.2
		c0.3-0.2,0.5-0.6,0.5-1.2c0-0.6-0.2-1-0.7-1.2c-0.2-0.1-0.4-0.1-0.8-0.1h-3.1L189.2,40.1L189.2,40.1z"/>
	<path class="st2" d="M96.3,12.1v19.1H91V5.2h7.1l10.4,19.5V5.2h5.3v26.1h-6.8L96.3,12.1z M130.5,5c2.6,0,4.9,0.4,6.9,1.3
		c2.3,1.1,4,2.8,4.9,5.3c0.7,2,1.1,4.3,1.1,6.9c0,2.6-0.4,5-1.4,6.9c-1.1,2.3-2.8,4-5.1,4.9c-1.7,0.7-3.7,1-6,1
		c-2.9,0-5.5-0.5-7.7-1.6c-1.8-0.9-3.2-2.4-4.2-4.3c-1-2-1.4-4.3-1.4-7.1c0-5,1.2-8.5,3.7-10.6C123.4,5.9,126.5,5,130.5,5z
		 M130.5,9.4c-2.6,0-4.4,0.8-5.5,2.5c-0.9,1.3-1.3,3.4-1.3,6.3c0,3.1,0.6,5.3,1.6,6.8c1.1,1.4,2.8,2.1,5.2,2.1c2.3,0,4-0.7,5.1-2.1
		c1.1-1.4,1.6-3.7,1.6-6.7c0-2.7-0.4-4.8-1.3-6.2C134.9,10.2,133.1,9.4,130.5,9.4z M171.5,5.2l-11.4,26.1h-5.6l-11-26.1h6.2
		l7.7,19.7l7.8-19.7C165.2,5.1,171.5,5.1,171.5,5.2z M168.6,31.3l10.8-26.1h6.4l10.8,26.1H190l-2.5-6h-9.9l-2.5,6H168.6z
		 M182.6,11.4l-3.7,9.2h7.4L182.6,11.4z"/>
	<path class="st2" d="M195.1,5.2c0.2,0,0.5,0.1,0.7,0.2s0.4,0.3,0.6,0.6s0.2,0.5,0.2,0.8c0,0.3-0.1,0.5-0.2,0.8
		c-0.1,0.2-0.3,0.4-0.6,0.6c-0.2,0.1-0.5,0.2-0.8,0.2s-0.5-0.1-0.8-0.2s-0.4-0.3-0.6-0.6c-0.1-0.2-0.2-0.5-0.2-0.8s0.1-0.5,0.2-0.8
		c0.1-0.2,0.3-0.4,0.6-0.6C194.6,5.2,194.8,5.2,195.1,5.2z M195.1,5.4c-0.2,0-0.4,0.1-0.6,0.2S194.1,5.8,194,6
		c-0.1,0.2-0.2,0.4-0.2,0.6c0,0.2,0.1,0.4,0.2,0.6s0.3,0.3,0.5,0.5s0.4,0.2,0.6,0.2c0.2,0,0.4-0.1,0.6-0.2s0.4-0.3,0.5-0.5
		s0.2-0.4,0.2-0.6c0-0.2-0.1-0.4-0.2-0.6c-0.1-0.2-0.3-0.4-0.5-0.5C195.5,5.4,195.3,5.4,195.1,5.4z M194.4,7.5V5.9h0.6
		c0.2,0,0.3,0,0.4,0c0.1,0,0.1,0.1,0.2,0.2c0.1,0.1,0.1,0.2,0.1,0.2c0,0.1,0,0.2-0.1,0.3c-0.1,0.1-0.2,0.1-0.3,0.2
		c0.1,0,0.1,0.1,0.1,0.1c0.1,0.1,0.1,0.2,0.2,0.3l0.2,0.3h-0.3l-0.1-0.3c-0.1-0.2-0.2-0.3-0.3-0.4c-0.1,0-0.1-0.1-0.2-0.1h-0.1v0.7
		H194.4z M194.7,6.6h0.3c0.1,0,0.2,0,0.3-0.1c0.1,0,0.1-0.1,0.1-0.2c0-0.1,0-0.1,0-0.1s-0.1-0.1-0.1-0.1c-0.1,0-0.1,0-0.3,0h-0.3
		L194.7,6.6L194.7,6.6z"/>
</g>
</svg>
