<?xml version="1.0" encoding="utf-8"?>
<!-- Generator: Adobe Illustrator 23.0.3, SVG Export Plug-In . SVG Version: 6.00 Build 0)  -->
<svg version="1.1" id="Camada_1" xmlns="http://www.w3.org/2000/svg" xmlns:xlink="http://www.w3.org/1999/xlink" x="0px" y="0px"
	 viewBox="0 0 200 50" style="enable-background:new 0 0 200 50;" xml:space="preserve">
<style type="text/css">
	.st0{fill-rule:evenodd;clip-rule:evenodd;fill:#010202;}
</style>
<g>
	<g>
		<polygon class="st0" points="45.96,5.55 55.62,20.46 39.45,44.78 29.66,30.06 38.75,16.39 		"/>
		<polygon class="st0" points="40.59,45.75 54.27,45.75 82.31,4.99 67.69,4.99 		"/>
		<polygon class="st0" points="30.78,5.14 3.34,45.89 17.35,45.89 44.45,5.14 		"/>
	</g>
	<g>
		<path class="st0" d="M93.99,35.72l2.54,7.78l2.68-7.78h3.17v9.97h-2.07v-7.48l-2.67,7.48h-2.24l-2.52-7.48v7.48h-2.07v-9.97H93.99
			z M108.96,35.66c1.02,0,1.92,0.17,2.69,0.51c0.91,0.4,1.55,1.08,1.91,2.04c0.29,0.75,0.43,1.63,0.43,2.64
			c0,1.01-0.18,1.89-0.53,2.63c-0.43,0.89-1.1,1.52-2.01,1.87c-0.68,0.26-1.46,0.39-2.34,0.39c-1.15,0-2.15-0.21-3-0.63
			c-0.71-0.35-1.26-0.9-1.63-1.65c-0.38-0.75-0.56-1.65-0.56-2.72c0-1.9,0.48-3.25,1.45-4.06
			C106.19,36.02,107.38,35.67,108.96,35.66z M108.97,37.33c-1,0-1.71,0.32-2.14,0.96c-0.34,0.5-0.51,1.29-0.51,2.4
			c0,1.17,0.21,2.03,0.64,2.58c0.42,0.54,1.09,0.81,2.02,0.81c0.89,0,1.55-0.27,1.98-0.82s0.64-1.39,0.64-2.55
			c0-1.04-0.17-1.84-0.51-2.39C110.68,37.67,109.97,37.34,108.97,37.33z M117.65,37.48h-3.25v-1.76h8.81v1.76h-3.38v8.2h-2.17V37.48
			z M128.66,35.66c1.02,0,1.92,0.17,2.69,0.51c0.91,0.4,1.55,1.08,1.91,2.04c0.29,0.75,0.43,1.63,0.43,2.64
			c0,1.01-0.18,1.89-0.53,2.63c-0.43,0.89-1.1,1.52-2.01,1.87c-0.68,0.26-1.46,0.39-2.34,0.39c-1.15,0-2.15-0.21-3-0.63
			c-0.71-0.35-1.26-0.9-1.63-1.65c-0.38-0.75-0.56-1.65-0.56-2.72c0-1.9,0.48-3.25,1.45-4.06
			C125.89,36.02,127.09,35.67,128.66,35.66z M128.68,37.33c-1,0-1.71,0.32-2.14,0.96c-0.34,0.5-0.51,1.29-0.51,2.4
			c0,1.17,0.21,2.03,0.64,2.58c0.42,0.54,1.09,0.81,2.02,0.81c0.89,0,1.55-0.27,1.98-0.82c0.42-0.55,0.64-1.39,0.64-2.55
			c0-1.04-0.17-1.84-0.51-2.39C130.38,37.67,129.68,37.34,128.68,37.33z M146.83,43.92v1.76h-3.56c-0.68,0-1.19-0.03-1.55-0.1
			c-1.25-0.24-2.14-0.92-2.66-2.05c-0.35-0.75-0.52-1.69-0.52-2.8c0-1.34,0.27-2.43,0.8-3.27c0.38-0.61,0.9-1.04,1.54-1.32
			c0.65-0.28,1.48-0.42,2.51-0.42h3.45v1.76h-3.21c-0.97,0-1.68,0.25-2.13,0.76c-0.37,0.42-0.56,1.18-0.56,2.29
			c0,1.47,0.29,2.45,0.87,2.91c0.41,0.32,1.04,0.48,1.9,0.48H146.83z M156.02,35.72v1.76h-2.83c-0.74,0-1.28,0.05-1.62,0.15
			c-0.33,0.1-0.62,0.29-0.84,0.58c-0.15,0.2-0.25,0.4-0.31,0.6c-0.06,0.2-0.1,0.54-0.14,1.03h5.74v1.76h-5.74
			c0.07,0.87,0.33,1.47,0.77,1.81c0.44,0.34,1.18,0.51,2.24,0.51h2.74v1.76h-2.83c-0.77,0-1.44-0.05-2.03-0.14
			c-0.92-0.14-1.65-0.54-2.19-1.18c-0.77-0.91-1.16-2.16-1.16-3.72c0-1.74,0.55-3.09,1.64-4.05c0.38-0.33,0.77-0.56,1.2-0.68
			c0.42-0.13,0.99-0.19,1.7-0.19H156.02z M159.81,38.38v7.3h-2.07v-9.97h2.78l4.07,7.43v-7.43h2.07v9.97h-2.67L159.81,38.38z
			 M171.02,37.48h-3.25v-1.76h8.81v1.76h-3.38v8.2h-2.17V37.48z M185.35,35.72v1.76h-2.83c-0.74,0-1.28,0.05-1.62,0.15
			c-0.33,0.1-0.61,0.29-0.84,0.58c-0.15,0.2-0.25,0.4-0.31,0.6c-0.06,0.2-0.1,0.54-0.14,1.03h5.74v1.76h-5.74
			c0.07,0.87,0.33,1.47,0.77,1.81c0.44,0.34,1.18,0.51,2.24,0.51h2.74v1.76h-2.83c-0.77,0-1.44-0.05-2.03-0.14
			c-0.92-0.14-1.65-0.54-2.19-1.18c-0.77-0.91-1.16-2.16-1.16-3.72c0-1.74,0.55-3.09,1.64-4.05c0.38-0.33,0.77-0.56,1.2-0.68
			c0.42-0.13,0.99-0.19,1.71-0.19H185.35z M189.24,41.89v3.8h-2.17v-9.97h4.99c1.43,0,2.43,0.18,3,0.53
			c0.38,0.24,0.68,0.55,0.89,0.94c0.21,0.39,0.32,0.82,0.32,1.3c0,0.95-0.25,1.68-0.74,2.19c-0.31,0.31-0.71,0.55-1.22,0.71
			c0.4,0.13,0.7,0.27,0.91,0.43c0.2,0.16,0.39,0.39,0.55,0.69c0.13,0.23,0.21,0.46,0.27,0.68c0.05,0.22,0.09,0.55,0.13,0.98
			c0.06,0.71,0.14,1.22,0.25,1.5h-2.44c-0.07-0.23-0.15-0.71-0.22-1.42c-0.06-0.59-0.17-1.03-0.33-1.34
			c-0.16-0.31-0.4-0.55-0.71-0.73c-0.39-0.21-0.97-0.31-1.72-0.31H189.24z M189.24,40.13h3.05c0.51,0,0.87-0.07,1.09-0.22
			c0.32-0.22,0.49-0.61,0.49-1.16c0-0.61-0.25-1-0.73-1.18c-0.17-0.06-0.45-0.09-0.84-0.09h-3.05V40.13z"/>
		<path class="st0" d="M96.26,12.13v19.15h-5.29V5.15h7.11l10.4,19.47V5.15h5.29v26.13h-6.84L96.26,12.13z M130.49,4.99
			c2.61,0,4.91,0.44,6.88,1.34c2.34,1.06,3.97,2.84,4.9,5.34c0.74,1.97,1.11,4.27,1.11,6.93c0,2.65-0.45,4.96-1.36,6.91
			c-1.11,2.34-2.82,3.98-5.14,4.9c-1.73,0.69-3.73,1.03-5.98,1.03c-2.94,0-5.49-0.55-7.67-1.65c-1.82-0.92-3.21-2.36-4.18-4.32
			c-0.96-1.96-1.44-4.34-1.44-7.12c0-4.97,1.23-8.53,3.71-10.64C123.4,5.93,126.46,5.02,130.49,4.99z M130.53,9.38
			c-2.55,0-4.38,0.84-5.48,2.51c-0.86,1.3-1.29,3.39-1.29,6.28c0,3.06,0.55,5.31,1.64,6.76c1.08,1.42,2.79,2.12,5.16,2.12
			c2.29,0,3.97-0.72,5.05-2.15c1.08-1.44,1.63-3.66,1.63-6.67c0-2.73-0.44-4.81-1.31-6.25C134.88,10.25,133.09,9.39,130.53,9.38z
			 M171.48,5.15l-11.42,26.13h-5.57L143.48,5.15h6.25l7.68,19.66l7.81-19.66H171.48z M168.55,31.28l10.81-26.13h6.4l10.8,26.13
			h-6.52l-2.52-6.03h-9.93l-2.53,6.03H168.55z M182.58,11.44l-3.73,9.18h7.44L182.58,11.44z"/>
		<path class="st0" d="M195.07,5.15c0.25,0,0.5,0.06,0.74,0.19c0.24,0.13,0.43,0.32,0.56,0.56c0.13,0.24,0.2,0.49,0.2,0.76
			c0,0.26-0.07,0.51-0.2,0.75c-0.13,0.24-0.32,0.43-0.56,0.56c-0.24,0.13-0.49,0.2-0.75,0.2c-0.26,0-0.51-0.07-0.75-0.2
			c-0.24-0.13-0.42-0.32-0.56-0.56c-0.13-0.24-0.2-0.49-0.2-0.75c0-0.26,0.07-0.51,0.2-0.76c0.13-0.24,0.32-0.43,0.56-0.56
			C194.57,5.21,194.82,5.15,195.07,5.15z M195.07,5.4c-0.21,0-0.42,0.05-0.62,0.16s-0.36,0.26-0.47,0.46
			c-0.11,0.2-0.17,0.41-0.17,0.63c0,0.22,0.06,0.42,0.17,0.62s0.27,0.35,0.47,0.47s0.41,0.17,0.62,0.17c0.22,0,0.42-0.06,0.62-0.17
			c0.2-0.11,0.35-0.27,0.46-0.47c0.11-0.2,0.17-0.41,0.17-0.62c0-0.22-0.06-0.43-0.17-0.63c-0.11-0.2-0.27-0.36-0.47-0.46
			C195.49,5.45,195.28,5.4,195.07,5.4z M194.41,7.49V5.87h0.56c0.19,0,0.33,0.01,0.41,0.04c0.09,0.03,0.15,0.08,0.2,0.16
			c0.05,0.07,0.08,0.15,0.08,0.24c0,0.12-0.04,0.22-0.13,0.31c-0.08,0.09-0.2,0.14-0.34,0.15c0.06,0.02,0.1,0.05,0.14,0.09
			c0.07,0.06,0.15,0.17,0.24,0.32l0.2,0.32h-0.32l-0.14-0.26c-0.11-0.2-0.2-0.33-0.27-0.38c-0.05-0.04-0.12-0.06-0.21-0.06h-0.15
			v0.69H194.41z M194.67,6.58h0.32c0.15,0,0.25-0.02,0.31-0.07c0.06-0.04,0.08-0.1,0.08-0.18c0-0.05-0.01-0.09-0.04-0.13
			c-0.03-0.04-0.06-0.07-0.11-0.08c-0.05-0.02-0.13-0.03-0.26-0.03h-0.3V6.58z"/>
	</g>
</g>
</svg>
