<?xml version="1.0" encoding="utf-8"?>
<!-- Generator: Adobe Illustrator 23.0.3, SVG Export Plug-In . SVG Version: 6.00 Build 0)  -->
<svg version="1.1" id="Ebene_1" xmlns="http://www.w3.org/2000/svg" xmlns:xlink="http://www.w3.org/1999/xlink" x="0px" y="0px"
	 viewBox="0 0 25 25" style="enable-background:new 0 0 25 25;" xml:space="preserve">
<style type="text/css">
	.st0{fill:#FFFFFF;}
</style>
<g>
	<path class="st0" d="M12.5,3.48c2.94,0,3.29,0.01,4.44,0.06c1.07,0.05,1.65,0.23,2.04,0.38c0.51,0.2,0.88,0.44,1.26,0.82
		c0.38,0.38,0.62,0.75,0.82,1.26c0.15,0.39,0.33,0.97,0.38,2.04c0.05,1.16,0.06,1.51,0.06,4.44s-0.01,3.29-0.06,4.44
		c-0.05,1.07-0.23,1.65-0.38,2.04c-0.2,0.51-0.44,0.88-0.82,1.26c-0.38,0.38-0.75,0.62-1.26,0.82c-0.39,0.15-0.97,0.33-2.04,0.38
		c-1.16,0.05-1.51,0.06-4.44,0.06s-3.29-0.01-4.44-0.06c-1.07-0.05-1.65-0.23-2.04-0.38c-0.51-0.2-0.88-0.44-1.26-0.82
		c-0.38-0.38-0.62-0.75-0.82-1.26c-0.15-0.39-0.33-0.97-0.38-2.04c-0.05-1.16-0.06-1.51-0.06-4.44s0.01-3.29,0.06-4.44
		C3.6,6.98,3.77,6.4,3.92,6.01c0.2-0.51,0.44-0.88,0.82-1.26C5.13,4.36,5.5,4.12,6.01,3.92C6.4,3.77,6.98,3.6,8.06,3.55
		C9.21,3.49,9.56,3.48,12.5,3.48 M12.5,1.5c-2.99,0-3.36,0.01-4.54,0.07C6.79,1.62,5.99,1.81,5.29,2.08
		C4.57,2.36,3.96,2.73,3.35,3.35C2.73,3.96,2.36,4.57,2.08,5.29c-0.27,0.7-0.46,1.5-0.51,2.67C1.51,9.14,1.5,9.51,1.5,12.5
		c0,2.99,0.01,3.36,0.07,4.54c0.05,1.17,0.24,1.97,0.51,2.67c0.28,0.72,0.66,1.34,1.27,1.95c0.61,0.61,1.22,0.99,1.95,1.27
		c0.7,0.27,1.5,0.46,2.67,0.51c1.17,0.05,1.55,0.07,4.54,0.07s3.36-0.01,4.54-0.07c1.17-0.05,1.97-0.24,2.67-0.51
		c0.72-0.28,1.34-0.66,1.95-1.27c0.61-0.61,0.99-1.22,1.27-1.95c0.27-0.7,0.46-1.5,0.51-2.67c0.05-1.17,0.07-1.55,0.07-4.54
		s-0.01-3.36-0.07-4.54c-0.05-1.17-0.24-1.97-0.51-2.67c-0.28-0.72-0.66-1.34-1.27-1.95c-0.61-0.61-1.22-0.99-1.95-1.27
		c-0.7-0.27-1.5-0.46-2.67-0.51C15.86,1.51,15.49,1.5,12.5,1.5L12.5,1.5z"/>
	<path class="st0" d="M12.5,6.85c-3.12,0-5.65,2.53-5.65,5.65s2.53,5.65,5.65,5.65s5.65-2.53,5.65-5.65S15.62,6.85,12.5,6.85z
		 M12.5,16.17c-2.03,0-3.67-1.64-3.67-3.67c0-2.03,1.64-3.67,3.67-3.67c2.03,0,3.67,1.64,3.67,3.67
		C16.17,14.53,14.53,16.17,12.5,16.17z"/>
	<circle class="st0" cx="18.37" cy="6.63" r="1.32"/>
</g>
</svg>
