<?xml version="1.0" encoding="utf-8"?>
<!-- Generator: Adobe Illustrator 23.0.3, SVG Export Plug-In . SVG Version: 6.00 Build 0)  -->
<svg version="1.1" id="Layer_1" xmlns="http://www.w3.org/2000/svg" xmlns:xlink="http://www.w3.org/1999/xlink" x="0px" y="0px"
	 viewBox="0 0 1037 382" style="enable-background:new 0 0 1037 382;" xml:space="preserve">
<style type="text/css">
	.st0{fill:#FFFFFF;stroke:#9D9D9C;stroke-miterlimit:10;}
	.st1{fill:#444444;}
	.st2{fill:#E62A44;}
	.st3{fill:none;stroke:#E62A44;stroke-miterlimit:10;}
	.st4{fill:none;stroke:#444444;stroke-miterlimit:10;}
</style>
<rect x="1.8" y="2.2" class="st0" width="1033.4" height="377.8"/>
<g>
	<g>
		<path class="st1" d="M92,202.8l-5.2-14.9h-0.1c0.1,2.2,0.2,4.3,0.2,6.2v8.7h-2.7v-17.9h4.1l5,14.2h0.1l5.1-14.2h4.1v17.9h-2.8V194
			c0-0.9,0-2,0.1-3.5s0.1-2.3,0.1-2.6h-0.1l-5.4,14.9L92,202.8L92,202.8z"/>
		<path class="st1" d="M112.9,203c-2.1,0-3.7-0.6-4.9-1.8c-1.2-1.2-1.8-2.9-1.8-5.1s0.5-3.9,1.7-5.2c1.1-1.3,2.6-1.9,4.5-1.9
			c1.8,0,3.2,0.5,4.2,1.6s1.6,2.6,1.6,4.5v1.6h-9c0,1.3,0.4,2.3,1.1,3s1.6,1.1,2.8,1.1c0.8,0,1.5-0.1,2.2-0.2
			c0.7-0.2,1.4-0.4,2.2-0.8v2.3c-0.7,0.3-1.4,0.6-2.1,0.7S113.9,203,112.9,203z M112.4,191.2c-0.9,0-1.6,0.3-2.2,0.9s-0.9,1.4-1,2.5
			h6.1c0-1.1-0.3-2-0.8-2.5S113.3,191.2,112.4,191.2z"/>
		<path class="st1" d="M126,203c-1.7,0-3-0.6-4-1.8c-0.9-1.2-1.4-2.9-1.4-5.2c0-2.2,0.5-3.9,1.4-5.2c1-1.2,2.3-1.9,4-1.9
			c1.8,0,3.1,0.7,4.1,2h0.1c-0.1-1-0.2-1.7-0.2-2.3v-4.9h2.9v19h-2.3l-0.5-1.8H130C129.2,202.4,127.8,203,126,203z M126.8,200.7
			c1.2,0,2-0.3,2.6-1c0.5-0.7,0.8-1.7,0.8-3.2v-0.4c0-1.7-0.3-2.9-0.8-3.6c-0.6-0.7-1.4-1.1-2.6-1.1c-1,0-1.8,0.4-2.3,1.2
			s-0.8,2-0.8,3.5s0.3,2.6,0.8,3.4C124.9,200.3,125.7,200.7,126.8,200.7z"/>
		<path class="st1" d="M136.9,185.7c0-0.5,0.1-0.9,0.4-1.2c0.3-0.3,0.7-0.4,1.2-0.4s0.9,0.1,1.2,0.4c0.3,0.3,0.4,0.7,0.4,1.2
			s-0.1,0.9-0.4,1.2s-0.7,0.4-1.2,0.4s-0.9-0.1-1.2-0.4S136.9,186.2,136.9,185.7z M140,202.8h-2.9v-13.5h2.9V202.8z"/>
		<path class="st1" d="M148.6,203c-1.7,0-3-0.6-4-1.8c-0.9-1.2-1.4-2.9-1.4-5.2c0-2.2,0.5-3.9,1.4-5.2c1-1.2,2.3-1.9,4-1.9
			c1.8,0,3.1,0.7,4.1,2h0.1c-0.1-1-0.2-1.7-0.2-2.3v-4.9h2.9v19h-2.3l-0.5-1.8h-0.1C151.8,202.4,150.4,203,148.6,203z M149.4,200.7
			c1.2,0,2-0.3,2.6-1c0.5-0.7,0.8-1.7,0.8-3.2v-0.4c0-1.7-0.3-2.9-0.8-3.6c-0.6-0.7-1.4-1.1-2.6-1.1c-1,0-1.8,0.4-2.3,1.2
			s-0.8,2-0.8,3.5s0.3,2.6,0.8,3.4C147.5,200.3,148.3,200.7,149.4,200.7z"/>
		<path class="st1" d="M168.1,202.8l-0.6-1.9h-0.1c-0.7,0.8-1.3,1.4-2,1.7s-1.5,0.4-2.5,0.4c-1.3,0-2.4-0.4-3.1-1.1
			c-0.7-0.7-1.1-1.7-1.1-3c0-1.4,0.5-2.4,1.6-3.2c1-0.7,2.6-1.1,4.7-1.2l2.3-0.1v-0.7c0-0.9-0.2-1.5-0.6-1.9c-0.4-0.4-1-0.6-1.9-0.6
			c-0.7,0-1.4,0.1-2,0.3s-1.2,0.4-1.8,0.7l-0.9-2.1c0.7-0.4,1.5-0.7,2.4-0.9s1.7-0.3,2.5-0.3c1.7,0,3,0.4,3.9,1.1
			c0.9,0.8,1.3,1.9,1.3,3.5v9.1h-2.1L168.1,202.8L168.1,202.8z M163.9,200.8c1,0,1.9-0.3,2.5-0.9s0.9-1.4,0.9-2.5v-1.2l-1.7,0.1
			c-1.4,0-2.3,0.3-3,0.7c-0.6,0.4-0.9,1-0.9,1.9c0,0.6,0.2,1.1,0.5,1.4C162.6,200.7,163.1,200.8,163.9,200.8z"/>
		<path class="st1" d="M186.6,203c-2.1,0-3.7-0.6-4.9-1.8s-1.8-2.9-1.8-5.1s0.5-3.9,1.7-5.2c1.1-1.3,2.6-1.9,4.5-1.9
			c1.8,0,3.2,0.5,4.2,1.6s1.6,2.6,1.6,4.5v1.6h-9c0,1.3,0.4,2.3,1.1,3c0.7,0.7,1.6,1.1,2.8,1.1c0.8,0,1.5-0.1,2.2-0.2
			c0.7-0.2,1.4-0.4,2.2-0.8v2.3c-0.7,0.3-1.4,0.6-2.1,0.7S187.5,203,186.6,203z M186.1,191.2c-0.9,0-1.6,0.3-2.2,0.9s-0.9,1.4-1,2.5
			h6.1c0-1.1-0.3-2-0.8-2.5S187,191.2,186.1,191.2z"/>
		<path class="st1" d="M206.6,202.8h-2.9v-8.3c0-1-0.2-1.8-0.6-2.3s-1-0.8-1.8-0.8c-1.1,0-1.9,0.4-2.4,1.1s-0.8,1.9-0.8,3.6v6.7
			h-2.9v-13.5h2.2l0.4,1.8h0.1c0.4-0.6,0.9-1.1,1.6-1.5c0.7-0.4,1.5-0.5,2.4-0.5c2.1,0,3.5,0.7,4.1,2.1h0.2c0.4-0.7,1-1.2,1.7-1.6
			s1.6-0.6,2.5-0.6c1.6,0,2.8,0.4,3.5,1.2s1.1,2.1,1.1,3.7v8.8h-2.9v-8.2c0-1-0.2-1.8-0.6-2.3s-1-0.8-1.8-0.8c-1.1,0-1.9,0.3-2.5,1
			s-0.8,1.8-0.8,3.2v7.2L206.6,202.8L206.6,202.8z"/>
		<path class="st1" d="M231.1,203c-2,0-3.6-0.6-4.7-1.8c-1.1-1.2-1.6-2.9-1.6-5.1c0-2.3,0.6-4,1.7-5.2s2.7-1.8,4.8-1.8
			c1.4,0,2.7,0.3,3.9,0.8l-0.9,2.3c-1.2-0.5-2.2-0.7-3-0.7c-2.3,0-3.5,1.6-3.5,4.7c0,1.5,0.3,2.7,0.9,3.4s1.4,1.1,2.6,1.1
			c1.3,0,2.5-0.3,3.6-1v2.5c-0.5,0.3-1.1,0.5-1.6,0.6C232.6,203,231.9,203,231.1,203z"/>
		<path class="st1" d="M249.4,202.8h-2.9v-8.3c0-1-0.2-1.8-0.6-2.3s-1-0.8-1.8-0.8c-1.1,0-1.9,0.4-2.4,1.1s-0.8,1.9-0.8,3.6v6.7H238
			v-13.5h2.2l0.4,1.8h0.1c0.4-0.6,0.9-1.1,1.6-1.5c0.7-0.4,1.5-0.5,2.4-0.5c2.1,0,3.5,0.7,4.1,2.1h0.2c0.4-0.7,1-1.2,1.7-1.6
			s1.6-0.6,2.5-0.6c1.6,0,2.8,0.4,3.5,1.2s1.1,2.1,1.1,3.7v8.8h-2.9v-8.2c0-1-0.2-1.8-0.6-2.3s-1-0.8-1.8-0.8c-1.1,0-1.9,0.3-2.5,1
			s-0.8,1.8-0.8,3.2v7.2L249.4,202.8L249.4,202.8z"/>
	</g>
	<g>
		<path class="st1" d="M306.9,191c2.1,0,3.7,0.6,5,1.7c1.2,1.1,1.8,2.6,1.8,4.5c0,2.2-0.7,3.9-2.1,5.2c-1.4,1.2-3.4,1.9-5.9,1.9
			c-2.3,0-4.1-0.4-5.5-1.1v-3c0.8,0.4,1.6,0.8,2.6,1s1.9,0.4,2.8,0.4c1.5,0,2.6-0.3,3.4-1s1.2-1.7,1.2-3c0-2.5-1.6-3.7-4.7-3.7
			c-0.4,0-1,0-1.6,0.1c-0.7,0.1-1.2,0.2-1.7,0.3l-1.5-0.9l0.8-10.1h10.8v3h-7.8l-0.5,5.1c0.3-0.1,0.7-0.1,1.2-0.2
			C305.6,191,306.2,191,306.9,191z"/>
		<path class="st1" d="M329.8,188c0,1.3-0.4,2.4-1.1,3.3c-0.8,0.9-1.8,1.5-3.2,1.8v0.1c1.7,0.2,2.9,0.7,3.7,1.6
			c0.8,0.8,1.2,1.9,1.2,3.3c0,2-0.7,3.5-2.1,4.6s-3.4,1.6-6,1.6c-2.3,0-4.2-0.4-5.8-1.1v-3c0.9,0.4,1.8,0.8,2.8,1s1.9,0.4,2.8,0.4
			c1.6,0,2.8-0.3,3.6-0.9c0.8-0.6,1.2-1.5,1.2-2.8c0-1.1-0.4-1.9-1.3-2.4s-2.3-0.8-4.1-0.8h-1.8V192h1.8c3.3,0,5-1.1,5-3.4
			c0-0.9-0.3-1.6-0.9-2.1s-1.4-0.7-2.6-0.7c-0.8,0-1.5,0.1-2.3,0.3c-0.7,0.2-1.6,0.7-2.6,1.3l-1.6-2.3c1.9-1.4,4.1-2.1,6.6-2.1
			c2.1,0,3.7,0.4,4.9,1.3C329.2,185.2,329.8,186.4,329.8,188z"/>
		<path class="st1" d="M332.8,197.6v-2.8h7.3v2.8H332.8z"/>
		<path class="st1" d="M349.4,191c2.1,0,3.7,0.6,5,1.7c1.2,1.1,1.8,2.6,1.8,4.5c0,2.2-0.7,3.9-2.1,5.2c-1.4,1.2-3.4,1.9-5.9,1.9
			c-2.3,0-4.1-0.4-5.5-1.1v-3c0.8,0.4,1.6,0.8,2.6,1s1.9,0.4,2.8,0.4c1.5,0,2.6-0.3,3.4-1s1.2-1.7,1.2-3c0-2.5-1.6-3.7-4.7-3.7
			c-0.4,0-1,0-1.6,0.1c-0.7,0.1-1.2,0.2-1.7,0.3l-1.5-0.9l0.8-10.1h10.8v3H347l-0.5,5.1c0.3-0.1,0.7-0.1,1.2-0.2
			C348.2,191,348.8,191,349.4,191z"/>
		<path class="st1" d="M373.8,199.4H371v4.5h-3.2v-4.5h-9.5v-2.6l9.5-13.7h3.2v13.5h2.8V199.4z M367.8,196.7v-5.2
			c0-1.9,0-3.4,0.1-4.6h-0.1c-0.3,0.6-0.7,1.4-1.2,2.3l-5.2,7.5H367.8z"/>
	</g>
	<g>
		<path class="st1" d="M415.8,191c2.1,0,3.7,0.6,5,1.7c1.2,1.1,1.8,2.6,1.8,4.5c0,2.2-0.7,3.9-2.1,5.2c-1.4,1.2-3.4,1.9-5.9,1.9
			c-2.3,0-4.1-0.4-5.5-1.1v-3c0.8,0.4,1.6,0.8,2.6,1s1.9,0.4,2.8,0.4c1.5,0,2.6-0.3,3.4-1s1.2-1.7,1.2-3c0-2.5-1.6-3.7-4.7-3.7
			c-0.4,0-1,0-1.6,0.1c-0.7,0.1-1.2,0.2-1.7,0.3l-1.5-0.9l0.8-10.1h10.8v3h-7.8l-0.5,5.1c0.3-0.1,0.7-0.1,1.2-0.2
			C414.5,191,415.1,191,415.8,191z"/>
		<path class="st1" d="M432.4,191c2.1,0,3.7,0.6,5,1.7c1.2,1.1,1.8,2.6,1.8,4.5c0,2.2-0.7,3.9-2.1,5.2c-1.4,1.2-3.4,1.9-5.9,1.9
			c-2.3,0-4.1-0.4-5.5-1.1v-3c0.8,0.4,1.6,0.8,2.6,1s1.9,0.4,2.8,0.4c1.5,0,2.6-0.3,3.4-1s1.2-1.7,1.2-3c0-2.5-1.6-3.7-4.7-3.7
			c-0.4,0-1,0-1.6,0.1c-0.7,0.1-1.2,0.2-1.7,0.3l-1.5-0.9l0.8-10.1h10.8v3H430l-0.5,5.1c0.3-0.1,0.7-0.1,1.2-0.2
			C431.1,191,431.7,191,432.4,191z"/>
		<path class="st1" d="M441.6,197.6v-2.8h7.3v2.8H441.6z"/>
		<path class="st1" d="M458.3,191c2.1,0,3.7,0.6,5,1.7c1.2,1.1,1.8,2.6,1.8,4.5c0,2.2-0.7,3.9-2.1,5.2c-1.4,1.2-3.4,1.9-5.9,1.9
			c-2.3,0-4.1-0.4-5.5-1.1v-3c0.8,0.4,1.6,0.8,2.6,1s1.9,0.4,2.8,0.4c1.5,0,2.6-0.3,3.4-1s1.2-1.7,1.2-3c0-2.5-1.6-3.7-4.7-3.7
			c-0.4,0-1,0-1.6,0.1c-0.7,0.1-1.2,0.2-1.7,0.3l-1.5-0.9l0.8-10.1h10.8v3h-7.8l-0.5,5.1c0.3-0.1,0.7-0.1,1.2-0.2
			C457,191,457.6,191,458.3,191z"/>
		<path class="st1" d="M467.9,195.1c0-8.1,3.3-12.2,9.9-12.2c1,0,1.9,0.1,2.6,0.2v2.8c-0.7-0.2-1.6-0.3-2.5-0.3
			c-2.2,0-3.9,0.6-5,1.8s-1.7,3.1-1.8,5.7h0.2c0.4-0.8,1.1-1.4,1.9-1.8s1.8-0.6,2.8-0.6c1.9,0,3.3,0.6,4.4,1.7
			c1,1.2,1.6,2.7,1.6,4.7c0,2.2-0.6,3.9-1.8,5.2c-1.2,1.3-2.9,1.9-5,1.9c-1.5,0-2.8-0.4-3.9-1.1s-1.9-1.8-2.5-3.1
			S467.9,197,467.9,195.1z M475.1,201.5c1.1,0,2-0.4,2.6-1.1s0.9-1.8,0.9-3.2c0-1.2-0.3-2.1-0.9-2.8s-1.5-1-2.6-1
			c-0.7,0-1.4,0.2-2,0.5s-1.1,0.7-1.4,1.3c-0.3,0.5-0.5,1.1-0.5,1.6c0,1.3,0.4,2.5,1.1,3.4S474,201.5,475.1,201.5z"/>
	</g>
	<g>
		<path class="st1" d="M522.9,191c2.1,0,3.7,0.6,5,1.7c1.2,1.1,1.8,2.6,1.8,4.5c0,2.2-0.7,3.9-2.1,5.2c-1.4,1.2-3.4,1.9-5.9,1.9
			c-2.3,0-4.1-0.4-5.5-1.1v-3c0.8,0.4,1.6,0.8,2.6,1s1.9,0.4,2.8,0.4c1.5,0,2.6-0.3,3.4-1c0.8-0.7,1.2-1.7,1.2-3
			c0-2.5-1.6-3.7-4.7-3.7c-0.4,0-1,0-1.6,0.1c-0.7,0.1-1.2,0.2-1.7,0.3l-1.5-0.9l0.8-10.1h10.8v3h-7.8l-0.5,5.1
			c0.3-0.1,0.7-0.1,1.2-0.2C521.6,191,522.2,191,522.9,191z"/>
		<path class="st1" d="M534.8,204l8.2-17.8h-10.8v-2.9h14.3v2.3l-8.2,18.4H534.8z"/>
		<path class="st1" d="M548.8,197.6v-2.8h7.3v2.8H548.8z"/>
		<path class="st1" d="M565.4,191c2.1,0,3.7,0.6,5,1.7c1.2,1.1,1.8,2.6,1.8,4.5c0,2.2-0.7,3.9-2.1,5.2c-1.4,1.2-3.4,1.9-5.9,1.9
			c-2.3,0-4.1-0.4-5.5-1.1v-3c0.8,0.4,1.6,0.8,2.6,1s1.9,0.4,2.8,0.4c1.5,0,2.6-0.3,3.4-1c0.8-0.7,1.2-1.7,1.2-3
			c0-2.5-1.6-3.7-4.7-3.7c-0.4,0-1,0-1.6,0.1c-0.7,0.1-1.2,0.2-1.7,0.3l-1.5-0.9l0.8-10.1h10.8v3H563l-0.5,5.1
			c0.3-0.1,0.7-0.1,1.2-0.2C564.1,191,564.7,191,565.4,191z"/>
		<path class="st1" d="M582,182.9c2,0,3.5,0.5,4.7,1.4s1.7,2.1,1.7,3.6c0,2.1-1.3,3.8-3.8,5.1c1.6,0.8,2.8,1.7,3.5,2.6s1,1.9,1,3
			c0,1.7-0.6,3.1-1.9,4.1s-3,1.5-5.1,1.5c-2.3,0-4-0.5-5.2-1.4s-1.9-2.3-1.9-4.1c0-1.2,0.3-2.2,1-3.1c0.6-0.9,1.7-1.7,3.2-2.5
			c-1.3-0.8-2.2-1.6-2.7-2.4s-0.8-1.8-0.8-2.8c0-1.5,0.6-2.7,1.8-3.6C578.5,183.4,580.1,182.9,582,182.9z M578.1,198.6
			c0,1,0.3,1.7,1,2.3s1.6,0.8,2.8,0.8s2.2-0.3,2.8-0.8c0.7-0.6,1-1.3,1-2.3c0-0.8-0.3-1.5-0.9-2.1c-0.6-0.6-1.6-1.2-2.8-1.8
			l-0.4-0.2c-1.2,0.5-2.1,1.2-2.7,1.8C578.4,197,578.1,197.7,578.1,198.6z M581.9,185.5c-0.9,0-1.7,0.2-2.3,0.7s-0.9,1.1-0.9,1.9
			c0,0.5,0.1,0.9,0.3,1.3c0.2,0.4,0.5,0.7,0.9,1.1c0.4,0.3,1.1,0.7,2,1.1c1.1-0.5,1.9-1,2.4-1.6s0.7-1.2,0.7-1.9
			c0-0.8-0.3-1.4-0.9-1.9C583.7,185.7,582.9,185.5,581.9,185.5z"/>
	</g>
	<g>
		<path class="st1" d="M629.6,191c2.1,0,3.7,0.6,5,1.7c1.2,1.1,1.8,2.6,1.8,4.5c0,2.2-0.7,3.9-2.1,5.2c-1.4,1.2-3.4,1.9-5.9,1.9
			c-2.3,0-4.1-0.4-5.5-1.1v-3c0.8,0.4,1.6,0.8,2.6,1s1.9,0.4,2.8,0.4c1.5,0,2.6-0.3,3.4-1c0.8-0.7,1.2-1.7,1.2-3
			c0-2.5-1.6-3.7-4.7-3.7c-0.4,0-1,0-1.6,0.1c-0.7,0.1-1.2,0.2-1.7,0.3l-1.5-0.9l0.8-10.1H635v3h-7.8l-0.5,5.1
			c0.3-0.1,0.7-0.1,1.2-0.2C628.4,191,629,191,629.6,191z"/>
		<path class="st1" d="M653.2,192.1c0,4.1-0.8,7.1-2.5,9.2c-1.6,2-4.1,3-7.4,3c-1.3,0-2.2-0.1-2.7-0.2v-2.8c0.8,0.2,1.7,0.4,2.5,0.4
			c2.3,0,3.9-0.6,5-1.8s1.7-3.1,1.8-5.7h-0.2c-0.6,0.9-1.2,1.5-2,1.8c-0.8,0.4-1.7,0.6-2.8,0.6c-1.8,0-3.3-0.6-4.3-1.7
			s-1.6-2.7-1.6-4.7c0-2.2,0.6-3.9,1.8-5.2s2.9-1.9,5-1.9c1.5,0,2.8,0.4,3.9,1.1c1.1,0.7,1.9,1.8,2.5,3.1S653.2,190.1,653.2,192.1z
			 M646,185.7c-1.2,0-2,0.4-2.7,1.1c-0.6,0.8-0.9,1.8-0.9,3.2c0,1.2,0.3,2.1,0.9,2.8s1.4,1,2.6,1c1.1,0,2.1-0.3,2.8-1
			c0.8-0.7,1.1-1.5,1.1-2.4c0-0.8-0.2-1.6-0.5-2.4c-0.3-0.7-0.8-1.3-1.4-1.7C647.4,185.9,646.8,185.7,646,185.7z"/>
		<path class="st1" d="M655.5,197.6v-2.8h7.3v2.8H655.5z"/>
		<path class="st1" d="M665.2,195.1c0-8.1,3.3-12.2,9.9-12.2c1,0,1.9,0.1,2.6,0.2v2.8c-0.7-0.2-1.6-0.3-2.5-0.3
			c-2.2,0-3.9,0.6-5,1.8s-1.7,3.1-1.8,5.7h0.2c0.4-0.8,1.1-1.4,1.9-1.8c0.8-0.4,1.8-0.6,2.8-0.6c1.9,0,3.3,0.6,4.4,1.7
			c1,1.2,1.6,2.7,1.6,4.7c0,2.2-0.6,3.9-1.8,5.2s-2.9,1.9-5,1.9c-1.5,0-2.8-0.4-3.9-1.1c-1.1-0.7-1.9-1.8-2.5-3.1
			C665.5,198.7,665.2,197,665.2,195.1z M672.4,201.5c1.1,0,2-0.4,2.6-1.1s0.9-1.8,0.9-3.2c0-1.2-0.3-2.1-0.9-2.8
			c-0.6-0.7-1.5-1-2.6-1c-0.7,0-1.4,0.2-2,0.5s-1.1,0.7-1.4,1.3c-0.3,0.5-0.5,1.1-0.5,1.6c0,1.3,0.4,2.5,1.1,3.4
			S671.3,201.5,672.4,201.5z"/>
		<path class="st1" d="M695.8,193.6c0,3.6-0.6,6.3-1.7,8c-1.2,1.8-2.9,2.6-5.3,2.6c-2.3,0-4.1-0.9-5.2-2.7c-1.2-1.8-1.8-4.5-1.8-7.9
			c0-3.7,0.6-6.4,1.7-8.1c1.2-1.7,2.9-2.6,5.3-2.6c2.3,0,4.1,0.9,5.3,2.7C695.2,187.4,695.8,190.1,695.8,193.6z M685.1,193.6
			c0,2.8,0.3,4.8,0.9,6.1c0.6,1.2,1.5,1.8,2.8,1.8s2.2-0.6,2.8-1.8s0.9-3.2,0.9-6s-0.3-4.8-0.9-6c-0.6-1.2-1.5-1.9-2.8-1.9
			s-2.2,0.6-2.8,1.8S685.1,190.7,685.1,193.6z"/>
	</g>
	<g>
		<path class="st1" d="M729.2,195.1c0-8.1,3.3-12.2,9.9-12.2c1,0,1.9,0.1,2.6,0.2v2.8c-0.7-0.2-1.6-0.3-2.5-0.3
			c-2.2,0-3.9,0.6-5,1.8s-1.7,3.1-1.8,5.7h0.2c0.4-0.8,1.1-1.4,1.9-1.8c0.8-0.4,1.8-0.6,2.8-0.6c1.9,0,3.3,0.6,4.4,1.7
			c1,1.2,1.6,2.7,1.6,4.7c0,2.2-0.6,3.9-1.8,5.2s-2.9,1.9-5,1.9c-1.5,0-2.8-0.4-3.9-1.1c-1.1-0.7-1.9-1.8-2.5-3.1
			C729.5,198.7,729.2,197,729.2,195.1z M736.5,201.5c1.1,0,2-0.4,2.6-1.1s0.9-1.8,0.9-3.2c0-1.2-0.3-2.1-0.9-2.8
			c-0.6-0.7-1.5-1-2.6-1c-0.7,0-1.4,0.2-2,0.5s-1.1,0.7-1.4,1.3c-0.3,0.5-0.5,1.1-0.5,1.6c0,1.3,0.4,2.5,1.1,3.4
			S735.3,201.5,736.5,201.5z"/>
		<path class="st1" d="M755.5,204h-3.3v-13.4c0-1.6,0-2.9,0.1-3.8c-0.2,0.2-0.5,0.5-0.8,0.8s-1.4,1.1-3.2,2.6l-1.7-2.1l6.1-4.8h2.8
			L755.5,204L755.5,204z"/>
		<path class="st1" d="M762.1,197.6v-2.8h7.3v2.8H762.1z"/>
		<path class="st1" d="M771.7,195.1c0-8.1,3.3-12.2,9.9-12.2c1,0,1.9,0.1,2.6,0.2v2.8c-0.7-0.2-1.6-0.3-2.5-0.3
			c-2.2,0-3.9,0.6-5,1.8s-1.7,3.1-1.8,5.7h0.2c0.4-0.8,1.1-1.4,1.9-1.8c0.8-0.4,1.8-0.6,2.8-0.6c1.9,0,3.3,0.6,4.4,1.7
			c1,1.2,1.6,2.7,1.6,4.7c0,2.2-0.6,3.9-1.8,5.2s-2.9,1.9-5,1.9c-1.5,0-2.8-0.4-3.9-1.1c-1.1-0.7-1.9-1.8-2.5-3.1
			C772,198.7,771.7,197,771.7,195.1z M779,201.5c1.1,0,2-0.4,2.6-1.1s0.9-1.8,0.9-3.2c0-1.2-0.3-2.1-0.9-2.8c-0.6-0.7-1.5-1-2.6-1
			c-0.7,0-1.4,0.2-2,0.5s-1.1,0.7-1.4,1.3c-0.3,0.5-0.5,1.1-0.5,1.6c0,1.3,0.4,2.5,1.1,3.4S777.9,201.5,779,201.5z"/>
		<path class="st1" d="M802.3,204h-14.1v-2.5l5.3-5.4c1.6-1.6,2.6-2.8,3.1-3.4c0.5-0.7,0.9-1.3,1.1-1.9c0.2-0.6,0.4-1.2,0.4-1.9
			c0-0.9-0.3-1.7-0.8-2.2c-0.6-0.5-1.3-0.8-2.3-0.8c-0.8,0-1.6,0.1-2.3,0.4c-0.7,0.3-1.6,0.8-2.6,1.6l-1.8-2.2
			c1.2-1,2.3-1.7,3.4-2.1c1.1-0.4,2.2-0.6,3.5-0.6c1.9,0,3.5,0.5,4.6,1.5c1.2,1,1.7,2.4,1.7,4.1c0,0.9-0.2,1.8-0.5,2.7
			c-0.3,0.8-0.9,1.7-1.5,2.6s-1.9,2.1-3.5,3.6l-3.6,3.5v0.1h9.8L802.3,204L802.3,204z"/>
	</g>
	<g>
		<path class="st1" d="M864.6,195.1c0-8.1,3.3-12.2,9.9-12.2c1,0,1.9,0.1,2.6,0.2v2.8c-0.7-0.2-1.6-0.3-2.5-0.3
			c-2.2,0-3.9,0.6-5,1.8s-1.7,3.1-1.8,5.7h0.2c0.4-0.8,1.1-1.4,1.9-1.8c0.8-0.4,1.8-0.6,2.8-0.6c1.9,0,3.3,0.6,4.4,1.7
			c1,1.2,1.6,2.7,1.6,4.7c0,2.2-0.6,3.9-1.8,5.2s-2.9,1.9-5,1.9c-1.5,0-2.8-0.4-3.9-1.1c-1.1-0.7-1.9-1.8-2.5-3.1
			S864.6,197,864.6,195.1z M871.9,201.5c1.1,0,2-0.4,2.6-1.1s0.9-1.8,0.9-3.2c0-1.2-0.3-2.1-0.9-2.8c-0.6-0.7-1.5-1-2.6-1
			c-0.7,0-1.4,0.2-2,0.5s-1.1,0.7-1.4,1.3c-0.3,0.5-0.5,1.1-0.5,1.6c0,1.3,0.4,2.5,1.1,3.4S870.7,201.5,871.9,201.5z"/>
		<path class="st1" d="M894.4,188c0,1.3-0.4,2.4-1.1,3.3c-0.8,0.9-1.8,1.5-3.2,1.8v0.1c1.7,0.2,2.9,0.7,3.7,1.6
			c0.8,0.8,1.2,1.9,1.2,3.3c0,2-0.7,3.5-2.1,4.6s-3.4,1.6-6,1.6c-2.3,0-4.2-0.4-5.8-1.1v-3c0.9,0.4,1.8,0.8,2.8,1s1.9,0.4,2.8,0.4
			c1.6,0,2.8-0.3,3.6-0.9s1.2-1.5,1.2-2.8c0-1.1-0.4-1.9-1.3-2.4c-0.9-0.5-2.3-0.8-4.1-0.8h-1.8V192h1.8c3.3,0,5-1.1,5-3.4
			c0-0.9-0.3-1.6-0.9-2.1s-1.4-0.7-2.6-0.7c-0.8,0-1.5,0.1-2.3,0.3c-0.7,0.2-1.6,0.7-2.6,1.3l-1.6-2.3c1.9-1.4,4.1-2.1,6.6-2.1
			c2.1,0,3.7,0.4,4.9,1.3C893.9,185.2,894.4,186.4,894.4,188z"/>
		<path class="st1" d="M897.5,197.6v-2.8h7.3v2.8H897.5z"/>
		<path class="st1" d="M907.2,195.1c0-8.1,3.3-12.2,9.9-12.2c1,0,1.9,0.1,2.6,0.2v2.8c-0.7-0.2-1.6-0.3-2.5-0.3
			c-2.2,0-3.9,0.6-5,1.8s-1.7,3.1-1.8,5.7h0.2c0.4-0.8,1.1-1.4,1.9-1.8c0.8-0.4,1.8-0.6,2.8-0.6c1.9,0,3.3,0.6,4.4,1.7
			c1,1.2,1.6,2.7,1.6,4.7c0,2.2-0.6,3.9-1.8,5.2s-2.9,1.9-5,1.9c-1.5,0-2.8-0.4-3.9-1.1c-1.1-0.7-1.9-1.8-2.5-3.1
			C907.5,198.7,907.2,197,907.2,195.1z M914.4,201.5c1.1,0,2-0.4,2.6-1.1s0.9-1.8,0.9-3.2c0-1.2-0.3-2.1-0.9-2.8
			c-0.6-0.7-1.5-1-2.6-1c-0.7,0-1.4,0.2-2,0.5s-1.1,0.7-1.4,1.3c-0.3,0.5-0.5,1.1-0.5,1.6c0,1.3,0.4,2.5,1.1,3.4
			S913.3,201.5,914.4,201.5z"/>
		<path class="st1" d="M938.5,199.4h-2.8v4.5h-3.2v-4.5H923v-2.6l9.5-13.7h3.2v13.5h2.8V199.4z M932.4,196.7v-5.2
			c0-1.9,0-3.4,0.1-4.6h-0.1c-0.3,0.6-0.7,1.4-1.2,2.3l-5.2,7.5H932.4z"/>
	</g>
	<g>
		<path class="st1" d="M71.5,97.6H82v13.7c-1.7,0.6-3.3,0.9-4.8,1.2c-1.5,0.2-3,0.3-4.6,0.3c-4,0-7-1.2-9.1-3.5s-3.1-5.7-3.1-10.1
			c0-4.3,1.2-7.6,3.7-10c2.4-2.4,5.8-3.6,10.1-3.6c2.7,0,5.3,0.5,7.8,1.6l-1.9,4.5c-1.9-1-3.9-1.4-6-1.4c-2.4,0-4.4,0.8-5.8,2.4
			c-1.5,1.6-2.2,3.8-2.2,6.5c0,2.9,0.6,5,1.8,6.6s2.9,2.3,5.1,2.3c1.2,0,2.3-0.1,3.6-0.4v-5.5h-5L71.5,97.6L71.5,97.6z"/>
		<path class="st1" d="M109.7,86.1v17.1c0,1.9-0.4,3.7-1.3,5.1c-0.9,1.5-2.1,2.6-3.8,3.4s-3.6,1.2-5.8,1.2c-3.4,0-6-0.9-7.9-2.6
			s-2.8-4.1-2.8-7.1v-17h5.6v16.1c0,2,0.4,3.5,1.2,4.5c0.8,0.9,2.2,1.4,4.1,1.4c1.8,0,3.2-0.5,4-1.4c0.8-1,1.2-2.5,1.2-4.5V86.2
			L109.7,86.1L109.7,86.1z"/>
		<path class="st1" d="M116.1,112.4V86h5.6v26.4H116.1z"/>
		<path class="st1" d="M144.5,112.4l-1.9-6.3H133l-1.9,6.3h-6l9.3-26.5h6.8l9.3,26.5H144.5z M141.2,101.5c-1.8-5.7-2.8-8.9-3-9.6
			s-0.4-1.3-0.5-1.8c-0.4,1.5-1.5,5.3-3.4,11.4H141.2L141.2,101.5z"/>
		<path class="st1" d="M185.3,99c0,4.3-1.2,7.7-3.7,10s-6,3.5-10.7,3.5h-7.5V86.1h8.3c4.3,0,7.6,1.1,10,3.4
			C184.1,91.7,185.3,94.9,185.3,99z M179.5,99.1c0-5.7-2.5-8.5-7.5-8.5h-3v17.2h2.4C176.8,107.8,179.5,104.9,179.5,99.1z"/>
		<path class="st1" d="M205.9,112.4h-15.2V86h15.2v4.6h-9.6v5.8h8.9v4.6h-8.9v6.8h9.6V112.4z"/>
		<path class="st1" d="M231.2,112.4h-5.6V90.7h-7.2V86h19.9v4.7h-7.2v21.7H231.2z"/>
		<path class="st1" d="M258.5,112.4l-1.9-6.3H247l-1.9,6.3h-6l9.3-26.5h6.8l9.3,26.5H258.5z M255.3,101.5c-1.8-5.7-2.8-8.9-3-9.6
			s-0.4-1.3-0.5-1.8c-0.4,1.5-1.5,5.3-3.4,11.4H255.3L255.3,101.5z"/>
		<path class="st1" d="M279,112.4l-6.3-20.7h-0.2c0.2,4.2,0.3,7,0.3,8.4v12.3h-5V86h7.6l6.2,20.2h0.1l6.6-20.2h7.6v26.4h-5.2V99.9
			c0-0.6,0-1.3,0-2c0-0.8,0.1-2.8,0.2-6.1h-0.2l-6.8,20.6H279z"/>
		<path class="st1" d="M318.8,112.4l-1.9-6.3h-9.6l-1.9,6.3h-6l9.3-26.5h6.8l9.3,26.5H318.8z M315.6,101.5c-1.8-5.7-2.8-8.9-3-9.6
			s-0.4-1.3-0.5-1.8c-0.4,1.5-1.5,5.3-3.4,11.4H315.6L315.6,101.5z"/>
		<path class="st1" d="M351.5,112.4h-7.1L333,92.5h-0.2c0.2,3.5,0.3,6,0.3,7.5v12.4h-5V86h7l11.4,19.7h0.1c-0.2-3.4-0.3-5.8-0.3-7.3
			V85.9h5v26.5H351.5z"/>
		<path class="st1" d="M379.8,112.4h-5.6V101h-10.4v11.4h-5.6V86h5.6v10.3h10.4V86h5.6V112.4z"/>
		<path class="st1" d="M410.3,99.2c0,4.4-1.1,7.7-3.2,10.1s-5.3,3.5-9.3,3.5s-7.1-1.2-9.3-3.5c-2.2-2.3-3.2-5.7-3.2-10.1
			s1.1-7.7,3.3-10.1c2.2-2.3,5.3-3.5,9.3-3.5c4.1,0,7.1,1.2,9.3,3.5C409.3,91.5,410.3,94.8,410.3,99.2z M391.1,99.2
			c0,2.9,0.6,5.2,1.7,6.7s2.8,2.2,5,2.2c4.5,0,6.7-3,6.7-8.9s-2.2-8.9-6.7-8.9c-2.2,0-3.9,0.7-5,2.2S391.1,96.3,391.1,99.2z"/>
		<path class="st1" d="M431.4,105.1c0,2.4-0.9,4.3-2.6,5.6c-1.7,1.4-4.1,2.1-7.1,2.1c-2.8,0-5.3-0.5-7.5-1.6V106
			c1.8,0.8,3.3,1.4,4.5,1.7s2.4,0.5,3.4,0.5c1.2,0,2.2-0.2,2.8-0.7s1-1.2,1-2.1c0-0.5-0.1-1-0.4-1.4s-0.7-0.8-1.3-1.2
			c-0.6-0.4-1.7-1-3.4-1.8c-1.6-0.8-2.8-1.5-3.6-2.2c-0.8-0.7-1.4-1.5-1.9-2.4s-0.7-2-0.7-3.2c0-2.3,0.8-4.2,2.4-5.5
			c1.6-1.3,3.8-2,6.6-2c1.4,0,2.7,0.2,3.9,0.5c1.2,0.3,2.5,0.8,3.9,1.4l-1.8,4.3c-1.4-0.6-2.6-1-3.5-1.2c-0.9-0.2-1.8-0.3-2.7-0.3
			c-1.1,0-1.9,0.2-2.4,0.7c-0.6,0.5-0.8,1.1-0.8,1.9c0,0.5,0.1,0.9,0.3,1.3c0.2,0.4,0.6,0.7,1.1,1.1c0.5,0.3,1.7,1,3.5,1.8
			c2.5,1.2,4.2,2.4,5.1,3.5C430.9,101.9,431.4,103.4,431.4,105.1z"/>
	</g>
	<g>
		<path class="st2" d="M473.5,103.7v-1.3c0-1.2,0.2-2.2,0.7-3c0.5-0.9,1.4-1.8,2.7-2.7c1.3-0.9,2.1-1.6,2.5-2.2s0.6-1.2,0.6-1.9
			c0-0.8-0.3-1.4-0.9-1.8s-1.4-0.6-2.4-0.6c-1.8,0-3.9,0.6-6.2,1.8l-2-3.9c2.7-1.5,5.5-2.3,8.5-2.3c2.5,0,4.4,0.6,5.9,1.8
			c1.5,1.2,2.2,2.8,2.2,4.8c0,1.3-0.3,2.5-0.9,3.4c-0.6,1-1.7,2-3.4,3.2c-1.2,0.9-1.9,1.5-2.2,1.9c-0.3,0.4-0.5,1-0.5,1.7v1.1
			C478.1,103.7,473.5,103.7,473.5,103.7z M472.9,109.9c0-1,0.3-1.8,0.8-2.3s1.3-0.8,2.4-0.8c1,0,1.8,0.3,2.3,0.8s0.8,1.3,0.8,2.3
			c0,0.9-0.3,1.7-0.8,2.2s-1.3,0.8-2.3,0.8s-1.8-0.3-2.3-0.8C473.2,111.6,472.9,110.8,472.9,109.9z"/>
	</g>
	<circle class="st3" cx="476.5" cy="100.6" r="22.4"/>
	<g>
		<path class="st1" d="M112.3,272.9h-2.9v-15.4h-5.3V255h13.4v2.5h-5.3v15.4H112.3z"/>
		<path class="st1" d="M128.4,272.9l-0.6-1.9h-0.1c-0.7,0.8-1.3,1.4-2,1.7c-0.7,0.3-1.5,0.4-2.5,0.4c-1.3,0-2.4-0.4-3.1-1.1
			s-1.1-1.7-1.1-3c0-1.4,0.5-2.4,1.6-3.2c1-0.7,2.6-1.1,4.7-1.2l2.3-0.1v-0.7c0-0.9-0.2-1.5-0.6-1.9s-1-0.6-1.9-0.6
			c-0.7,0-1.4,0.1-2,0.3c-0.6,0.2-1.2,0.4-1.8,0.7l-0.9-2.1c0.7-0.4,1.5-0.7,2.4-0.9c0.9-0.2,1.7-0.3,2.5-0.3c1.7,0,3,0.4,3.9,1.1
			c0.9,0.8,1.3,1.9,1.3,3.5v9.1h-2.1V272.9z M124.1,270.9c1,0,1.9-0.3,2.5-0.9c0.6-0.6,0.9-1.4,0.9-2.5v-1.2l-1.7,0.1
			c-1.4,0-2.3,0.3-3,0.7c-0.6,0.4-0.9,1-0.9,1.9c0,0.6,0.2,1.1,0.5,1.4C122.9,270.8,123.4,270.9,124.1,270.9z"/>
		<path class="st1" d="M145.9,272.9H143v-8.3c0-1-0.2-1.8-0.6-2.3s-1-0.8-1.8-0.8c-1.1,0-1.9,0.4-2.4,1.1s-0.8,1.9-0.8,3.6v6.7h-2.9
			v-13.5h2.2l0.4,1.8h0.1c0.4-0.6,0.9-1.1,1.6-1.5c0.7-0.4,1.5-0.5,2.4-0.5c2.1,0,3.5,0.7,4.1,2.1h0.2c0.4-0.7,1-1.2,1.7-1.6
			c0.7-0.4,1.6-0.6,2.5-0.6c1.6,0,2.8,0.4,3.5,1.2c0.7,0.8,1.1,2.1,1.1,3.7v8.8h-2.9v-8.3c0-1-0.2-1.8-0.6-2.3s-1-0.8-1.8-0.8
			c-1.1,0-1.9,0.3-2.5,1c-0.6,0.7-0.8,1.8-0.8,3.2v7.3L145.9,272.9L145.9,272.9z"/>
		<path class="st1" d="M166.9,272.9l-0.6-1.9h-0.1c-0.7,0.8-1.3,1.4-2,1.7c-0.7,0.3-1.5,0.4-2.5,0.4c-1.3,0-2.4-0.4-3.1-1.1
			c-0.7-0.7-1.1-1.7-1.1-3c0-1.4,0.5-2.4,1.6-3.2c1-0.7,2.6-1.1,4.7-1.2l2.3-0.1v-0.7c0-0.9-0.2-1.5-0.6-1.9c-0.4-0.4-1-0.6-1.9-0.6
			c-0.7,0-1.4,0.1-2,0.3c-0.6,0.2-1.2,0.4-1.8,0.7l-0.9-2.1c0.7-0.4,1.5-0.7,2.4-0.9c0.9-0.2,1.7-0.3,2.5-0.3c1.7,0,3,0.4,3.9,1.1
			c0.9,0.8,1.3,1.9,1.3,3.5v9.1h-2.1L166.9,272.9L166.9,272.9z M162.6,270.9c1,0,1.9-0.3,2.5-0.9c0.6-0.6,0.9-1.4,0.9-2.5v-1.2
			l-1.7,0.1c-1.4,0-2.3,0.3-3,0.7c-0.6,0.4-0.9,1-0.9,1.9c0,0.6,0.2,1.1,0.5,1.4C161.4,270.8,161.9,270.9,162.6,270.9z"/>
		<path class="st1" d="M184.9,272.9H182v-8.3c0-1-0.2-1.8-0.6-2.3s-1.1-0.8-2-0.8c-1.2,0-2.1,0.4-2.7,1.1c-0.6,0.7-0.8,1.9-0.8,3.6
			v6.7H173v-13.5h2.2l0.4,1.8h0.1c0.4-0.6,1-1.1,1.7-1.5s1.6-0.5,2.5-0.5c3.2,0,4.9,1.7,4.9,5v8.7H184.9z"/>
		<path class="st1" d="M200.8,272.9h-2.9v-8.3c0-1-0.2-1.8-0.6-2.3s-1.1-0.8-2-0.8c-1.2,0-2.1,0.4-2.7,1.1c-0.6,0.7-0.9,1.9-0.9,3.6
			v6.7h-2.9v-19h2.9v4.8c0,0.8,0,1.6-0.1,2.5h0.2c0.4-0.7,0.9-1.2,1.6-1.5c0.7-0.4,1.5-0.5,2.4-0.5c3.3,0,4.9,1.7,4.9,5v8.7H200.8z"
			/>
		<path class="st1" d="M216.8,266.1c0,2.2-0.6,3.9-1.7,5.2c-1.1,1.2-2.7,1.9-4.7,1.9c-1.3,0-2.4-0.3-3.4-0.9c-1-0.6-1.7-1.4-2.2-2.5
			s-0.8-2.3-0.8-3.7c0-2.2,0.6-3.9,1.7-5.1c1.1-1.2,2.7-1.8,4.8-1.8c2,0,3.5,0.6,4.6,1.9C216.2,262.3,216.8,264,216.8,266.1z
			 M206.9,266.1c0,3.1,1.2,4.7,3.5,4.7s3.4-1.6,3.4-4.7c0-3.1-1.2-4.6-3.5-4.6c-1.2,0-2.1,0.4-2.6,1.2
			C207.2,263.5,206.9,264.6,206.9,266.1z"/>
		<path class="st1" d="M229.2,269.1c0,1.3-0.5,2.3-1.4,3c-1,0.7-2.3,1.1-4.1,1.1s-3.2-0.3-4.3-0.8v-2.5c1.6,0.7,3.1,1.1,4.4,1.1
			c1.8,0,2.7-0.5,2.7-1.6c0-0.3-0.1-0.6-0.3-0.9c-0.2-0.2-0.5-0.5-1-0.7c-0.4-0.2-1.1-0.5-1.9-0.8c-1.6-0.6-2.6-1.2-3.2-1.8
			c-0.6-0.6-0.8-1.4-0.8-2.3c0-1.2,0.5-2.1,1.4-2.7c0.9-0.6,2.2-1,3.8-1s3.1,0.3,4.5,1l-0.9,2.2c-1.5-0.6-2.7-0.9-3.7-0.9
			c-1.5,0-2.3,0.4-2.3,1.3c0,0.4,0.2,0.8,0.6,1.1c0.4,0.3,1.3,0.7,2.6,1.2c1.1,0.4,1.9,0.8,2.4,1.2s0.9,0.8,1.1,1.2
			C229.1,267.8,229.2,268.4,229.2,269.1z"/>
	</g>
	<g>
		<path class="st1" d="M313.1,260.3c0,1.9-0.6,3.4-1.9,4.4s-3.1,1.5-5.4,1.5h-1.9v6.9h-3v-18.4h5.3c2.3,0,4,0.5,5.2,1.4
			C312.5,257,313.1,258.4,313.1,260.3z M303.9,263.7h1.6c1.5,0,2.7-0.3,3.4-0.8c0.7-0.5,1.1-1.4,1.1-2.5s-0.3-1.8-1-2.4
			c-0.7-0.6-1.7-0.8-3-0.8h-2.1V263.7z"/>
		<path class="st1" d="M329,260.3c0,1.9-0.6,3.4-1.9,4.4s-3.1,1.5-5.4,1.5h-1.9v6.9h-3v-18.4h5.3c2.3,0,4,0.5,5.2,1.4
			C328.4,257,329,258.4,329,260.3z M319.8,263.7h1.6c1.5,0,2.7-0.3,3.4-0.8c0.7-0.5,1.1-1.4,1.1-2.5s-0.3-1.8-1-2.4
			c-0.7-0.6-1.7-0.8-3-0.8h-2.1V263.7z"/>
		<path class="st1" d="M331.1,267.5V265h6.5v2.5H331.1z"/>
		<path class="st1" d="M354.5,273.1H351l-4.6-7.5l-4.7,7.5h-3.2l6.1-9.6l-5.7-8.9h3.4l4.3,7l4.3-7h3.3l-5.8,8.9L354.5,273.1z"/>
		<path class="st1" d="M367.6,268.1c0,1.6-0.6,2.9-1.8,3.9c-1.2,0.9-2.8,1.4-4.9,1.4s-3.8-0.3-5.1-1v-2.9c0.8,0.4,1.7,0.7,2.7,0.9
			c0.9,0.2,1.8,0.3,2.6,0.3c1.2,0,2.1-0.2,2.6-0.7c0.6-0.5,0.9-1.1,0.9-1.8c0-0.7-0.3-1.3-0.8-1.8s-1.6-1-3.2-1.7
			c-1.7-0.7-2.9-1.5-3.6-2.3c-0.7-0.9-1-1.9-1-3.2c0-1.5,0.5-2.8,1.6-3.6c1.1-0.9,2.6-1.3,4.4-1.3s3.5,0.4,5.3,1.2l-1,2.5
			c-1.6-0.7-3.1-1-4.4-1c-1,0-1.7,0.2-2.2,0.6c-0.5,0.4-0.8,1-0.8,1.7c0,0.5,0.1,0.9,0.3,1.2c0.2,0.3,0.5,0.7,1,1
			c0.5,0.3,1.3,0.7,2.5,1.2c1.4,0.6,2.3,1.1,3,1.6c0.6,0.5,1.1,1,1.4,1.7C367.5,266.6,367.6,267.3,367.6,268.1z"/>
	</g>
	<g>
		<path class="st1" d="M441.4,260.3c0,1.9-0.6,3.4-1.9,4.4s-3.1,1.5-5.4,1.5h-1.9v6.9h-3v-18.4h5.3c2.3,0,4,0.5,5.2,1.4
			C440.9,257,441.4,258.4,441.4,260.3z M432.2,263.7h1.6c1.5,0,2.7-0.3,3.4-0.8c0.7-0.5,1.1-1.4,1.1-2.5s-0.3-1.8-1-2.4
			c-0.7-0.6-1.7-0.8-3-0.8h-2.1V263.7z"/>
		<path class="st1" d="M443.6,267.5V265h6.5v2.5H443.6z"/>
		<path class="st1" d="M464.1,268.1c0,1.6-0.6,2.9-1.8,3.9c-1.2,0.9-2.8,1.4-4.9,1.4s-3.8-0.3-5.1-1v-2.9c0.8,0.4,1.7,0.7,2.7,0.9
			c0.9,0.2,1.8,0.3,2.6,0.3c1.2,0,2.1-0.2,2.6-0.7c0.6-0.5,0.9-1.1,0.9-1.8c0-0.7-0.3-1.3-0.8-1.8s-1.6-1-3.2-1.7
			c-1.7-0.7-2.9-1.5-3.6-2.3c-0.7-0.9-1-1.9-1-3.2c0-1.5,0.5-2.8,1.6-3.6c1.1-0.9,2.6-1.3,4.4-1.3s3.5,0.4,5.3,1.2l-1,2.5
			c-1.6-0.7-3.1-1-4.4-1c-1,0-1.7,0.2-2.2,0.6c-0.5,0.4-0.8,1-0.8,1.7c0,0.5,0.1,0.9,0.3,1.2c0.2,0.3,0.5,0.7,1,1
			c0.5,0.3,1.3,0.7,2.5,1.2c1.4,0.6,2.3,1.1,3,1.6c0.6,0.5,1.1,1,1.4,1.7C463.9,266.6,464.1,267.3,464.1,268.1z"/>
	</g>
	<g>
		<path class="st1" d="M536.6,273.1l-5.3-15.4h-0.1c0.1,2.3,0.2,4.4,0.2,6.4v9h-2.7v-18.4h4.2l5.1,14.7h0.1l5.3-14.7h4.3v18.4h-2.9
			V264c0-0.9,0-2.1,0.1-3.6c0-1.5,0.1-2.4,0.1-2.7h-0.1l-5.5,15.4H536.6L536.6,273.1z"/>
		<path class="st1" d="M551,267.5V265h6.5v2.5H551z"/>
		<path class="st1" d="M568.8,273.1l-5.3-15.4h-0.1c0.1,2.3,0.2,4.4,0.2,6.4v9h-2.7v-18.4h4.2l5.1,14.7h0.1l5.3-14.7h4.3v18.4H577
			V264c0-0.9,0-2.1,0.1-3.6c0-1.5,0.1-2.4,0.1-2.7H577l-5.5,15.4H568.8L568.8,273.1z"/>
	</g>
	<g>
		<path class="st1" d="M647.2,263.1h6.8v9.3c-1.1,0.4-2.2,0.6-3.2,0.8c-1,0.2-2.1,0.2-3.3,0.2c-2.8,0-4.9-0.8-6.5-2.5
			c-1.5-1.7-2.3-4-2.3-7s0.9-5.3,2.6-7c1.7-1.7,4.1-2.5,7-2.5c1.9,0,3.8,0.4,5.5,1.1l-1.1,2.5c-1.5-0.7-3-1-4.5-1
			c-2,0-3.5,0.6-4.7,1.9c-1.1,1.2-1.7,2.9-1.7,5.1c0,2.3,0.5,4,1.5,5.1s2.5,1.8,4.4,1.8c1,0,2-0.1,3.1-0.4v-4.8H647v-2.6
			L647.2,263.1L647.2,263.1z"/>
		<path class="st1" d="M656.9,267.5V265h6.5v2.5H656.9z"/>
		<path class="st1" d="M666.8,273.1v-18.4h3v15.8h7.8v2.6L666.8,273.1L666.8,273.1z"/>
	</g>
	<g>
		<path class="st1" d="M738.5,263.1h6.8v9.3c-1.1,0.4-2.2,0.6-3.2,0.8c-1,0.2-2.1,0.2-3.3,0.2c-2.8,0-4.9-0.8-6.5-2.5
			c-1.5-1.7-2.3-4-2.3-7s0.9-5.3,2.6-7c1.7-1.7,4.1-2.5,7-2.5c1.9,0,3.8,0.4,5.5,1.1L744,258c-1.5-0.7-3-1-4.5-1
			c-2,0-3.5,0.6-4.7,1.9c-1.1,1.2-1.7,2.9-1.7,5.1c0,2.3,0.5,4,1.5,5.1s2.5,1.8,4.4,1.8c1,0,2-0.1,3.1-0.4v-4.8h-3.8v-2.6
			L738.5,263.1L738.5,263.1z"/>
		<path class="st1" d="M757.3,263.1h6.8v9.3c-1.1,0.4-2.2,0.6-3.2,0.8c-1,0.2-2.1,0.2-3.3,0.2c-2.8,0-4.9-0.8-6.5-2.5
			c-1.5-1.7-2.3-4-2.3-7s0.9-5.3,2.6-7c1.7-1.7,4.1-2.5,7-2.5c1.9,0,3.8,0.4,5.5,1.1l-1.1,2.5c-1.5-0.7-3-1-4.5-1
			c-2,0-3.5,0.6-4.7,1.9c-1.1,1.2-1.7,2.9-1.7,5.1c0,2.3,0.5,4,1.5,5.1s2.5,1.8,4.4,1.8c1,0,2-0.1,3.1-0.4v-4.8h-3.8v-2.6
			L757.3,263.1L757.3,263.1z"/>
		<path class="st1" d="M767,267.5V265h6.5v2.5H767z"/>
		<path class="st1" d="M790.4,273.1h-3.5l-4.6-7.5l-4.7,7.5h-3.2l6.1-9.6l-5.7-8.9h3.4l4.3,7l4.3-7h3.3l-5.8,8.9L790.4,273.1z"/>
		<path class="st1" d="M792.9,273.1v-18.4h3v15.8h7.8v2.6L792.9,273.1L792.9,273.1z"/>
	</g>
	<g>
		<path class="st1" d="M856.2,263.1h6.8v9.3c-1.1,0.4-2.2,0.6-3.2,0.8c-1,0.2-2.1,0.2-3.3,0.2c-2.8,0-4.9-0.8-6.5-2.5
			c-1.5-1.7-2.3-4-2.3-7s0.9-5.3,2.6-7c1.7-1.7,4.1-2.5,7-2.5c1.9,0,3.8,0.4,5.5,1.1l-1.1,2.5c-1.5-0.7-3-1-4.5-1
			c-2,0-3.5,0.6-4.7,1.9c-1.1,1.2-1.7,2.9-1.7,5.1c0,2.3,0.5,4,1.5,5.1s2.5,1.8,4.4,1.8c1,0,2-0.1,3.1-0.4v-4.8H856v-2.6
			L856.2,263.1L856.2,263.1z"/>
		<path class="st1" d="M875,263.1h6.8v9.3c-1.1,0.4-2.2,0.6-3.2,0.8c-1,0.2-2.1,0.2-3.3,0.2c-2.8,0-4.9-0.8-6.5-2.5
			c-1.5-1.7-2.3-4-2.3-7s0.9-5.3,2.6-7c1.7-1.7,4.1-2.5,7-2.5c1.9,0,3.8,0.4,5.5,1.1l-1.1,2.5c-1.5-0.7-3-1-4.5-1
			c-2,0-3.5,0.6-4.7,1.9c-1.1,1.2-1.7,2.9-1.7,5.1c0,2.3,0.5,4,1.5,5.1s2.5,1.8,4.4,1.8c1,0,2-0.1,3.1-0.4v-4.8H875V263.1z"/>
		<path class="st1" d="M893.7,263.1h6.8v9.3c-1.1,0.4-2.2,0.6-3.2,0.8c-1,0.2-2.1,0.2-3.3,0.2c-2.8,0-4.9-0.8-6.5-2.5
			c-1.5-1.7-2.3-4-2.3-7s0.9-5.3,2.6-7c1.7-1.7,4.1-2.5,7-2.5c1.9,0,3.8,0.4,5.5,1.1l-1.1,2.5c-1.5-0.7-3-1-4.5-1
			c-2,0-3.5,0.6-4.7,1.9c-1.1,1.2-1.7,2.9-1.7,5.1c0,2.3,0.5,4,1.5,5.1s2.5,1.8,4.4,1.8c1,0,2-0.1,3.1-0.4v-4.8h-3.8v-2.6
			L893.7,263.1L893.7,263.1z"/>
		<path class="st1" d="M903.4,267.5V265h6.5v2.5H903.4z"/>
		<path class="st1" d="M923.7,258.9c0,1.2-0.3,2.1-1,2.9s-1.6,1.3-2.9,1.6v0.1c1.5,0.2,2.6,0.6,3.3,1.4c0.7,0.7,1.1,1.7,1.1,2.9
			c0,1.8-0.6,3.1-1.9,4.1s-3,1.4-5.3,1.4c-2,0-3.8-0.3-5.2-1v-2.6c0.8,0.4,1.6,0.7,2.5,0.9c0.9,0.2,1.7,0.3,2.5,0.3
			c1.4,0,2.5-0.3,3.2-0.8s1.1-1.3,1.1-2.5c0-1-0.4-1.7-1.2-2.2s-2-0.7-3.7-0.7h-1.6v-2.4h1.6c2.9,0,4.4-1,4.4-3.1
			c0-0.8-0.3-1.4-0.8-1.8c-0.5-0.4-1.3-0.6-2.3-0.6c-0.7,0-1.4,0.1-2,0.3c-0.6,0.2-1.4,0.6-2.3,1.2l-1.5-2.1
			c1.7-1.2,3.7-1.9,5.9-1.9c1.9,0,3.3,0.4,4.4,1.2C923.2,256.4,923.7,257.5,923.7,258.9z"/>
		<path class="st1" d="M941.6,273.1h-3.5l-4.6-7.5l-4.7,7.5h-3.2l6.1-9.6l-5.7-8.9h3.4l4.3,7l4.3-7h3.3l-5.8,8.9L941.6,273.1z"/>
		<path class="st1" d="M944,273.1v-18.4h3v15.8h7.8v2.6L944,273.1L944,273.1z"/>
	</g>
	<rect x="59.9" y="160.5" class="st4" width="217" height="70.1"/>
	<rect x="276.9" y="160.5" class="st4" width="114.6" height="70.1"/>
	<rect x="391.5" y="160.5" class="st4" width="106.8" height="70.1"/>
	<rect x="498.3" y="160.5" class="st4" width="106.8" height="70.1"/>
	<rect x="605.1" y="160.5" class="st4" width="106.8" height="70.1"/>
	<rect x="712" y="160.5" class="st4" width="106.8" height="70.1"/>
	<rect x="818.8" y="160.5" class="st4" width="160" height="70.1"/>
	<g>
		<rect x="59.9" y="230.7" class="st4" width="217" height="70.1"/>
		<rect x="276.9" y="230.7" class="st4" width="114.6" height="70.1"/>
		<rect x="391.5" y="230.7" class="st4" width="106.8" height="70.1"/>
		<rect x="498.3" y="230.7" class="st4" width="106.8" height="70.1"/>
		<rect x="605.1" y="230.7" class="st4" width="106.8" height="70.1"/>
		<rect x="712" y="230.7" class="st4" width="106.8" height="70.1"/>
		<rect x="818.8" y="230.7" class="st4" width="160" height="70.1"/>
	</g>
</g>
</svg>
