<?xml version="1.0" encoding="utf-8"?>
<!-- Generator: Adobe Illustrator 23.0.3, SVG Export Plug-In . SVG Version: 6.00 Build 0)  -->
<svg version="1.1" id="Layer_1" xmlns="http://www.w3.org/2000/svg" xmlns:xlink="http://www.w3.org/1999/xlink" x="0px" y="0px"
	 viewBox="0 0 1037 512" style="enable-background:new 0 0 1037 512;" xml:space="preserve">
<style type="text/css">
	.st0{fill:#E62A44;}
	.st1{fill:#D5D7D8;}
	.st2{fill:#444444;}
	.st3{fill:none;stroke:#E62A44;stroke-miterlimit:10;}
	.st4{fill:none;stroke:#444444;stroke-miterlimit:10;}
</style>
<g>
	<g>
		<path class="st0" d="M411.4,305.3C411.4,305.3,411.4,305.3,411.4,305.3C411.5,305.4,411.4,305.4,411.4,305.3z"/>
		<path class="st0" d="M171.7,352.7c1.9-7.7,6.7-43.1,3.7-46.3c-3.9-2.9-9.8-8.6-16.6-19.1c-46.5-72.3-8.9-134.7,4-139.6
			c4.1-11.1,15.5-26.8,34.5-34.6c11.3-5.7,23.8-9.9,37.2-12.2c21.3-5.6,41.1-6.7,50.1-6.7c22.8,0,73.3,13.9,91.1,20.8
			c13.5,5.2,4.9,21.8-0.1,29.6c4.8,5.9,8.1,13.9,10.7,22.5c5.8,19,10.2,22,12.2,25.9c2,4,6.4,18.4,3.6,22.6
			c-4.4,6.8-3.9,14.9-1.3,18.2c2.6,3.3,12,15.1,13.7,18.5c5.4,11,15.2,18.9,12.2,24.4c-3,5.4-7,7.4-17.2,12.8c-4,2.2-2.4,7-2,9.7
			c0.4,2.8,3.3,5.7,3.8,6.1c-0.4-0.2,1.7,6.5-3.4,9.5c-4.2,2.4-5.2,4.5-5.2,4.5s6.6,6.3,5.9,7.9c-1,2.2-5.8,6.9-7.4,8.8
			c-3,3.6-5.8,5.9-2.4,9.9c3.5,4,4.6,14.7-0.4,18.7c-5,4-14.7,13.2-39,10.2c-24.3-3-47.6,4.3-52,10.7c-4.5,6.4-20.9,73.2-20.9,73.2
			H144c0,0,9.3-36.2,13.9-52.5C162.8,388.4,168.8,364.6,171.7,352.7z"/>
	</g>
</g>
<g>
	<path class="st1" d="M78.5,142.7c2.1,0.9,4.8,1.3,7.7,1.3c2.9,0,5.6-0.5,7.7-1.3c2.4-1,3.8-2.5,3.8-4.2c0-1.7-1.3-3.2-3.8-4.2
		c-2.1-0.9-4.8-1.3-7.7-1.3c-2.9,0-5.6,0.5-7.7,1.3c-2.4,1-3.8,2.5-3.8,4.2C74.7,140.2,76.1,141.7,78.5,142.7z M86.2,135.5
		c5.7,0,8.8,1.9,8.8,2.9c0,1-3.1,2.9-8.8,2.9c-5.7,0-8.8-1.9-8.8-2.9C77.4,137.5,80.5,135.5,86.2,135.5z"/>
	<path class="st1" d="M113.4,148v-9.4h0c0,0,0-0.1,0-0.1c0-3.5-3-6.6-8.4-8.9c-5-2.1-11.7-3.3-18.8-3.3c-7.1,0-13.8,1.2-18.8,3.3
		c-5.4,2.3-8.4,5.4-8.4,8.9v24.9c0,3.5,3,6.6,8.4,8.9c5,2.1,11.7,3.3,18.8,3.3h311V148H113.4z M68.4,132c4.7-2,11-3.1,17.8-3.1
		c6.7,0,13.1,1.1,17.8,3.1c4.3,1.8,6.8,4.2,6.8,6.4c0,2.3-2.5,4.6-6.8,6.4c-4.7,2-11,3.1-17.8,3.1c-6.7,0-13.1-1.1-17.8-3.1
		c-4.3-1.8-6.8-4.2-6.8-6.4C61.7,136.2,64.1,133.8,68.4,132z M110.8,143.8v4.1h-7.4c0.6-0.2,1.1-0.4,1.6-0.6
		C107.4,146.3,109.4,145.2,110.8,143.8z M394.6,172.9H86.2c-6.7,0-13.1-1.1-17.8-3.1c-4.3-1.8-6.8-4.2-6.8-6.4v-19.5c0,0,0,0,0,0
		c0,0,0.1,0.1,0.1,0.1c1.6,1.5,3.6,2.5,5.6,3.4c5,2.1,11.7,3.3,18.8,3.3h308.4V172.9z"/>
	<rect x="128.3" y="160.8" class="st1" width="2.7" height="10.1"/>
	<rect x="122.1" y="164.5" class="st1" width="2.7" height="6.4"/>
	<rect x="114.9" y="160.8" class="st1" width="2.7" height="10.1"/>
	<rect x="108.7" y="164.5" class="st1" width="2.7" height="6.4"/>
	<rect x="101.5" y="160.8" class="st1" width="2.7" height="10.1"/>
	<rect x="95.3" y="164.5" class="st1" width="2.7" height="6.4"/>
	<rect x="155.1" y="160.8" class="st1" width="2.7" height="10.1"/>
	<rect x="148.9" y="164.5" class="st1" width="2.7" height="6.4"/>
	<rect x="141.7" y="160.8" class="st1" width="2.7" height="10.1"/>
	<rect x="135.5" y="164.5" class="st1" width="2.7" height="6.4"/>
	<rect x="128.3" y="160.8" class="st1" width="2.7" height="10.1"/>
	<rect x="122.1" y="164.5" class="st1" width="2.7" height="6.4"/>
	<rect x="182" y="160.8" class="st1" width="2.7" height="10.1"/>
	<rect x="175.7" y="164.5" class="st1" width="2.7" height="6.4"/>
	<rect x="168.6" y="160.8" class="st1" width="2.7" height="10.1"/>
	<rect x="162.3" y="164.5" class="st1" width="2.7" height="6.4"/>
	<rect x="155.1" y="160.8" class="st1" width="2.7" height="10.1"/>
	<rect x="148.9" y="164.5" class="st1" width="2.7" height="6.4"/>
	<rect x="208.8" y="160.8" class="st1" width="2.7" height="10.1"/>
	<rect x="202.5" y="164.5" class="st1" width="2.7" height="6.4"/>
	<rect x="195.4" y="160.8" class="st1" width="2.7" height="10.1"/>
	<rect x="189.1" y="164.5" class="st1" width="2.7" height="6.4"/>
	<rect x="182" y="160.8" class="st1" width="2.7" height="10.1"/>
	<rect x="175.7" y="164.5" class="st1" width="2.7" height="6.4"/>
	<rect x="235.6" y="160.8" class="st1" width="2.7" height="10.1"/>
	<rect x="229.3" y="164.5" class="st1" width="2.7" height="6.4"/>
	<rect x="222.2" y="160.8" class="st1" width="2.7" height="10.1"/>
	<rect x="215.9" y="164.5" class="st1" width="2.7" height="6.4"/>
	<rect x="208.8" y="160.8" class="st1" width="2.7" height="10.1"/>
	<rect x="202.5" y="164.5" class="st1" width="2.7" height="6.4"/>
	<rect x="262.4" y="160.8" class="st1" width="2.7" height="10.1"/>
	<rect x="256.2" y="164.5" class="st1" width="2.7" height="6.4"/>
	<rect x="249" y="160.8" class="st1" width="2.7" height="10.1"/>
	<rect x="242.7" y="164.5" class="st1" width="2.7" height="6.4"/>
	<rect x="235.6" y="160.8" class="st1" width="2.7" height="10.1"/>
	<rect x="229.3" y="164.5" class="st1" width="2.7" height="6.4"/>
	<rect x="289.2" y="160.8" class="st1" width="2.7" height="10.1"/>
	<rect x="283" y="164.5" class="st1" width="2.7" height="6.4"/>
	<rect x="275.8" y="160.8" class="st1" width="2.7" height="10.1"/>
	<rect x="269.6" y="164.5" class="st1" width="2.7" height="6.4"/>
	<rect x="262.4" y="160.8" class="st1" width="2.7" height="10.1"/>
	<rect x="256.2" y="164.5" class="st1" width="2.7" height="6.4"/>
	<rect x="316" y="160.8" class="st1" width="2.7" height="10.1"/>
	<rect x="309.8" y="164.5" class="st1" width="2.7" height="6.4"/>
	<rect x="302.6" y="160.8" class="st1" width="2.7" height="10.1"/>
	<rect x="296.4" y="164.5" class="st1" width="2.7" height="6.4"/>
	<rect x="289.2" y="160.8" class="st1" width="2.7" height="10.1"/>
	<rect x="283" y="164.5" class="st1" width="2.7" height="6.4"/>
	<rect x="342.8" y="160.8" class="st1" width="2.7" height="10.1"/>
	<rect x="336.6" y="164.5" class="st1" width="2.7" height="6.4"/>
	<rect x="329.4" y="160.8" class="st1" width="2.7" height="10.1"/>
	<rect x="323.2" y="164.5" class="st1" width="2.7" height="6.4"/>
	<rect x="316" y="160.8" class="st1" width="2.7" height="10.1"/>
	<rect x="309.8" y="164.5" class="st1" width="2.7" height="6.4"/>
	<rect x="369.6" y="160.8" class="st1" width="2.7" height="10.1"/>
	<rect x="363.4" y="164.5" class="st1" width="2.7" height="6.4"/>
	<rect x="356.2" y="160.8" class="st1" width="2.7" height="10.1"/>
	<rect x="350" y="164.5" class="st1" width="2.7" height="6.4"/>
	<rect x="342.8" y="160.8" class="st1" width="2.7" height="10.1"/>
	<rect x="336.6" y="164.5" class="st1" width="2.7" height="6.4"/>
	<rect x="383" y="160.8" class="st1" width="2.7" height="10.1"/>
	<rect x="376.8" y="164.5" class="st1" width="2.7" height="6.4"/>
	<rect x="389" y="164.5" class="st1" width="2.7" height="6.4"/>
	<rect x="369.6" y="160.8" class="st1" width="2.7" height="10.1"/>
	<rect x="363.4" y="164.5" class="st1" width="2.7" height="6.4"/>
	<rect x="88.1" y="160.8" class="st1" width="2.7" height="10.1"/>
	<rect x="81.9" y="164.5" class="st1" width="2.7" height="6.4"/>
	<rect x="74.8" y="160.1" class="st1" width="2.7" height="10.1"/>
	<rect x="68.7" y="161.7" class="st1" width="2.7" height="6.4"/>
</g>
<g>
	<path class="st2" d="M477.2,159.2l-5.2-14.8H472c0.1,2.2,0.2,4.3,0.2,6.2v8.6h-2.6v-17.8h4.1l4.9,14.1h0.1l5.1-14.1h4.1v17.8H485
		v-8.8c0-0.9,0-2,0.1-3.5c0-1.4,0.1-2.3,0.1-2.6h-0.1l-5.3,14.8H477.2z"/>
	<path class="st2" d="M498.1,159.5c-2.1,0-3.7-0.6-4.9-1.8s-1.8-2.9-1.8-5c0-2.2,0.5-3.9,1.6-5.2c1.1-1.3,2.6-1.9,4.5-1.9
		c1.8,0,3.2,0.5,4.2,1.6c1,1.1,1.5,2.6,1.5,4.4v1.5h-9c0,1.3,0.4,2.3,1.1,3c0.7,0.7,1.6,1.1,2.8,1.1c0.8,0,1.5-0.1,2.2-0.2
		s1.4-0.4,2.2-0.7v2.3c-0.7,0.3-1.4,0.6-2.1,0.7S499,159.5,498.1,159.5z M497.6,147.7c-0.9,0-1.6,0.3-2.2,0.9s-0.9,1.4-1,2.5h6.1
		c0-1.1-0.3-2-0.8-2.5C499.2,148,498.5,147.7,497.6,147.7z"/>
	<path class="st2" d="M512,159.5c-2,0-3.6-0.6-4.6-1.8c-1.1-1.2-1.6-2.9-1.6-5.1c0-2.3,0.6-4,1.7-5.2s2.7-1.8,4.8-1.8
		c1.4,0,2.7,0.3,3.8,0.8l-0.9,2.3c-1.2-0.5-2.2-0.7-3-0.7c-2.3,0-3.5,1.5-3.5,4.6c0,1.5,0.3,2.6,0.9,3.4c0.6,0.8,1.4,1.1,2.5,1.1
		c1.3,0,2.5-0.3,3.6-0.9v2.5c-0.5,0.3-1.1,0.5-1.6,0.6C513.5,159.4,512.8,159.5,512,159.5z M514,162.5c0,1.8-1.2,2.7-3.7,2.7
		c-0.5,0-1-0.1-1.5-0.2v-1.7c0.4,0.1,0.9,0.2,1.5,0.2c0.4,0,0.8-0.1,1-0.2c0.3-0.1,0.4-0.4,0.4-0.7c0-0.7-0.7-1.1-2.2-1.3l1-2h1.8
		l-0.5,1.1c0.6,0.2,1.2,0.4,1.5,0.8C513.8,161.5,514,162,514,162.5z"/>
	<path class="st2" d="M527.3,159.2l-0.6-1.9h-0.1c-0.6,0.8-1.3,1.4-2,1.7c-0.7,0.3-1.5,0.4-2.5,0.4c-1.3,0-2.4-0.4-3.1-1.1
		s-1.1-1.7-1.1-3c0-1.4,0.5-2.4,1.5-3.1c1-0.7,2.6-1.1,4.7-1.2l2.3-0.1v-0.7c0-0.9-0.2-1.5-0.6-1.9c-0.4-0.4-1-0.6-1.9-0.6
		c-0.7,0-1.3,0.1-2,0.3c-0.6,0.2-1.2,0.4-1.8,0.7l-0.9-2c0.7-0.4,1.5-0.7,2.4-0.9c0.9-0.2,1.7-0.3,2.5-0.3c1.7,0,3,0.4,3.9,1.1
		c0.9,0.7,1.3,1.9,1.3,3.5v9.1H527.3z M523,157.3c1,0,1.9-0.3,2.5-0.9c0.6-0.6,0.9-1.4,0.9-2.4v-1.2l-1.7,0.1
		c-1.3,0-2.3,0.3-2.9,0.7c-0.6,0.4-0.9,1-0.9,1.8c0,0.6,0.2,1.1,0.5,1.4S522.3,157.3,523,157.3z"/>
	<path class="st2" d="M548.2,159.2l-0.6-1.9h-0.1c-0.6,0.8-1.3,1.4-2,1.7c-0.7,0.3-1.5,0.4-2.5,0.4c-1.3,0-2.4-0.4-3.1-1.1
		s-1.1-1.7-1.1-3c0-1.4,0.5-2.4,1.5-3.1c1-0.7,2.6-1.1,4.7-1.2l2.3-0.1v-0.7c0-0.9-0.2-1.5-0.6-1.9c-0.4-0.4-1-0.6-1.9-0.6
		c-0.7,0-1.3,0.1-2,0.3c-0.6,0.2-1.2,0.4-1.8,0.7l-0.9-2c0.7-0.4,1.5-0.7,2.4-0.9c0.9-0.2,1.7-0.3,2.5-0.3c1.7,0,3,0.4,3.9,1.1
		c0.9,0.7,1.3,1.9,1.3,3.5v9.1H548.2z M543.9,157.3c1,0,1.9-0.3,2.5-0.9c0.6-0.6,0.9-1.4,0.9-2.4v-1.2l-1.7,0.1
		c-1.3,0-2.3,0.3-2.9,0.7c-0.6,0.4-0.9,1-0.9,1.8c0,0.6,0.2,1.1,0.5,1.4S543.2,157.3,543.9,157.3z"/>
	<path class="st2" d="M569.7,155.4c0,1.3-0.5,2.3-1.4,3s-2.3,1.1-4.1,1.1c-1.8,0-3.2-0.3-4.3-0.8v-2.5c1.6,0.7,3.1,1.1,4.4,1.1
		c1.8,0,2.6-0.5,2.6-1.6c0-0.3-0.1-0.6-0.3-0.9c-0.2-0.2-0.5-0.5-1-0.7s-1.1-0.5-1.9-0.8c-1.5-0.6-2.6-1.2-3.1-1.8s-0.8-1.4-0.8-2.3
		c0-1.2,0.5-2,1.4-2.7c0.9-0.6,2.2-1,3.8-1c1.6,0,3.1,0.3,4.5,1l-0.9,2.2c-1.5-0.6-2.7-0.9-3.7-0.9c-1.5,0-2.3,0.4-2.3,1.3
		c0,0.4,0.2,0.8,0.6,1.1c0.4,0.3,1.2,0.7,2.6,1.2c1.1,0.4,1.9,0.8,2.4,1.2c0.5,0.4,0.9,0.8,1.1,1.2S569.7,154.8,569.7,155.4z"/>
	<path class="st2" d="M582.3,159.2l-0.4-1.8h-0.1c-0.4,0.6-1,1.1-1.7,1.5s-1.6,0.5-2.5,0.5c-1.6,0-2.8-0.4-3.6-1.2s-1.2-2-1.2-3.7
		v-8.8h2.9v8.3c0,1,0.2,1.8,0.6,2.3c0.4,0.5,1.1,0.8,2,0.8c1.2,0,2.1-0.4,2.6-1.1c0.6-0.7,0.8-1.9,0.8-3.6v-6.7h2.9v13.4H582.3z"/>
	<path class="st2" d="M597,159.2l-0.6-1.9h-0.1c-0.6,0.8-1.3,1.4-2,1.7c-0.7,0.3-1.5,0.4-2.5,0.4c-1.3,0-2.4-0.4-3.1-1.1
		s-1.1-1.7-1.1-3c0-1.4,0.5-2.4,1.5-3.1c1-0.7,2.6-1.1,4.7-1.2l2.3-0.1v-0.7c0-0.9-0.2-1.5-0.6-1.9c-0.4-0.4-1-0.6-1.9-0.6
		c-0.7,0-1.3,0.1-2,0.3c-0.6,0.2-1.2,0.4-1.8,0.7l-0.9-2c0.7-0.4,1.5-0.7,2.4-0.9c0.9-0.2,1.7-0.3,2.5-0.3c1.7,0,3,0.4,3.9,1.1
		c0.9,0.7,1.3,1.9,1.3,3.5v9.1H597z M592.8,157.3c1,0,1.9-0.3,2.5-0.9c0.6-0.6,0.9-1.4,0.9-2.4v-1.2l-1.7,0.1
		c-1.3,0-2.3,0.3-2.9,0.7c-0.6,0.4-0.9,1-0.9,1.8c0,0.6,0.2,1.1,0.5,1.4S592,157.3,592.8,157.3z"/>
	<path class="st2" d="M614.9,159.5c-2,0-3.6-0.6-4.6-1.8c-1.1-1.2-1.6-2.9-1.6-5.1c0-2.3,0.6-4,1.7-5.2s2.7-1.8,4.8-1.8
		c1.4,0,2.7,0.3,3.8,0.8l-0.9,2.3c-1.2-0.5-2.2-0.7-3-0.7c-2.3,0-3.5,1.5-3.5,4.6c0,1.5,0.3,2.6,0.9,3.4c0.6,0.8,1.4,1.1,2.5,1.1
		c1.3,0,2.5-0.3,3.6-0.9v2.5c-0.5,0.3-1.1,0.5-1.6,0.6C616.4,159.4,615.7,159.5,614.9,159.5z"/>
	<path class="st2" d="M630.2,159.2l-0.6-1.9h-0.1c-0.6,0.8-1.3,1.4-2,1.7c-0.7,0.3-1.5,0.4-2.5,0.4c-1.3,0-2.4-0.4-3.1-1.1
		s-1.1-1.7-1.1-3c0-1.4,0.5-2.4,1.5-3.1c1-0.7,2.6-1.1,4.7-1.2l2.3-0.1v-0.7c0-0.9-0.2-1.5-0.6-1.9c-0.4-0.4-1-0.6-1.9-0.6
		c-0.7,0-1.3,0.1-2,0.3c-0.6,0.2-1.2,0.4-1.8,0.7l-0.9-2c0.7-0.4,1.5-0.7,2.4-0.9c0.9-0.2,1.7-0.3,2.5-0.3c1.7,0,3,0.4,3.9,1.1
		c0.9,0.7,1.3,1.9,1.3,3.5v9.1H630.2z M626,157.3c1,0,1.9-0.3,2.5-0.9c0.6-0.6,0.9-1.4,0.9-2.4v-1.2l-1.7,0.1
		c-1.3,0-2.3,0.3-2.9,0.7c-0.6,0.4-0.9,1-0.9,1.8c0,0.6,0.2,1.1,0.5,1.4S625.3,157.3,626,157.3z"/>
	<path class="st2" d="M643.1,145.6c1.7,0,3,0.6,3.9,1.8s1.4,2.9,1.4,5.1c0,2.2-0.5,3.9-1.4,5.1c-0.9,1.2-2.3,1.8-3.9,1.8
		c-1.7,0-3-0.6-4-1.8h-0.2l-0.5,1.6h-2.1v-18.9h2.9v4.5c0,0.3,0,0.8,0,1.5s-0.1,1.1-0.1,1.3h0.1C640,146.2,641.4,145.6,643.1,145.6z
		 M642.4,147.9c-1.2,0-2,0.3-2.5,1c-0.5,0.7-0.8,1.8-0.8,3.4v0.2c0,1.6,0.3,2.8,0.8,3.6s1.4,1.1,2.5,1.1c1,0,1.8-0.4,2.3-1.2
		c0.5-0.8,0.8-2,0.8-3.5C645.5,149.4,644.5,147.9,642.4,147.9z"/>
	<path class="st2" d="M657.6,159.5c-2.1,0-3.7-0.6-4.9-1.8s-1.8-2.9-1.8-5c0-2.2,0.5-3.9,1.6-5.2c1.1-1.3,2.6-1.9,4.5-1.9
		c1.8,0,3.2,0.5,4.2,1.6c1,1.1,1.5,2.6,1.5,4.4v1.5h-9c0,1.3,0.4,2.3,1.1,3c0.7,0.7,1.6,1.1,2.8,1.1c0.8,0,1.5-0.1,2.2-0.2
		s1.4-0.4,2.2-0.7v2.3c-0.7,0.3-1.4,0.6-2.1,0.7S658.6,159.5,657.6,159.5z M657.1,147.7c-0.9,0-1.6,0.3-2.2,0.9s-0.9,1.4-1,2.5h6.1
		c0-1.1-0.3-2-0.8-2.5C658.7,148,658,147.7,657.1,147.7z"/>
	<path class="st2" d="M671.5,159.5c-2,0-3.6-0.6-4.6-1.8c-1.1-1.2-1.6-2.9-1.6-5.1c0-2.3,0.6-4,1.7-5.2s2.7-1.8,4.8-1.8
		c1.4,0,2.7,0.3,3.8,0.8l-0.9,2.3c-1.2-0.5-2.2-0.7-3-0.7c-2.3,0-3.5,1.5-3.5,4.6c0,1.5,0.3,2.6,0.9,3.4c0.6,0.8,1.4,1.1,2.5,1.1
		c1.3,0,2.5-0.3,3.6-0.9v2.5c-0.5,0.3-1.1,0.5-1.6,0.6C673.1,159.4,672.4,159.5,671.5,159.5z M673.6,162.5c0,1.8-1.2,2.7-3.7,2.7
		c-0.5,0-1-0.1-1.5-0.2v-1.7c0.4,0.1,0.9,0.2,1.5,0.2c0.4,0,0.8-0.1,1-0.2c0.3-0.1,0.4-0.4,0.4-0.7c0-0.7-0.7-1.1-2.2-1.3l1-2h1.8
		l-0.5,1.1c0.6,0.2,1.2,0.4,1.5,0.8C673.4,161.5,673.6,162,673.6,162.5z"/>
	<path class="st2" d="M686.8,159.2l-0.6-1.9h-0.1c-0.6,0.8-1.3,1.4-2,1.7c-0.7,0.3-1.5,0.4-2.5,0.4c-1.3,0-2.4-0.4-3.1-1.1
		s-1.1-1.7-1.1-3c0-1.4,0.5-2.4,1.5-3.1c1-0.7,2.6-1.1,4.7-1.2l2.3-0.1v-0.7c0-0.9-0.2-1.5-0.6-1.9c-0.4-0.4-1-0.6-1.9-0.6
		c-0.7,0-1.3,0.1-2,0.3c-0.6,0.2-1.2,0.4-1.8,0.7l-0.9-2c0.7-0.4,1.5-0.7,2.4-0.9c0.9-0.2,1.7-0.3,2.5-0.3c1.7,0,3,0.4,3.9,1.1
		c0.9,0.7,1.3,1.9,1.3,3.5v9.1H686.8z M682.6,157.3c1,0,1.9-0.3,2.5-0.9c0.6-0.6,0.9-1.4,0.9-2.4v-1.2l-1.7,0.1
		c-1.3,0-2.3,0.3-2.9,0.7c-0.6,0.4-0.9,1-0.9,1.8c0,0.6,0.2,1.1,0.5,1.4S681.9,157.3,682.6,157.3z"/>
	<path class="st2" d="M704.8,159.5c-2,0-3.6-0.6-4.6-1.8c-1.1-1.2-1.6-2.9-1.6-5.1c0-2.3,0.6-4,1.7-5.2s2.7-1.8,4.8-1.8
		c1.4,0,2.7,0.3,3.8,0.8l-0.9,2.3c-1.2-0.5-2.2-0.7-3-0.7c-2.3,0-3.5,1.5-3.5,4.6c0,1.5,0.3,2.6,0.9,3.4c0.6,0.8,1.4,1.1,2.5,1.1
		c1.3,0,2.5-0.3,3.6-0.9v2.5c-0.5,0.3-1.1,0.5-1.6,0.6C706.3,159.4,705.6,159.5,704.8,159.5z"/>
	<path class="st2" d="M723.6,152.5c0,2.2-0.6,3.9-1.7,5.1c-1.1,1.2-2.7,1.8-4.7,1.8c-1.3,0-2.4-0.3-3.3-0.9c-1-0.6-1.7-1.4-2.2-2.4
		c-0.5-1.1-0.8-2.3-0.8-3.7c0-2.2,0.6-3.9,1.7-5.1c1.1-1.2,2.7-1.8,4.7-1.8c1.9,0,3.5,0.6,4.6,1.9
		C723,148.7,723.6,150.4,723.6,152.5z M713.8,152.5c0,3.1,1.1,4.7,3.4,4.7c2.3,0,3.4-1.6,3.4-4.7c0-3.1-1.1-4.6-3.4-4.6
		c-1.2,0-2.1,0.4-2.6,1.2C714.1,149.9,713.8,151,713.8,152.5z"/>
	<path class="st2" d="M738.2,159.2h-2.9v-8.3c0-1-0.2-1.8-0.6-2.3c-0.4-0.5-1-0.8-1.8-0.8c-1.1,0-1.9,0.4-2.4,1.1
		c-0.5,0.7-0.8,1.9-0.8,3.6v6.7h-2.9v-13.4h2.2l0.4,1.8h0.1c0.4-0.6,0.9-1.1,1.6-1.5s1.5-0.5,2.3-0.5c2.1,0,3.4,0.7,4.1,2.1h0.2
		c0.4-0.7,1-1.2,1.7-1.6c0.7-0.4,1.5-0.6,2.5-0.6c1.6,0,2.8,0.4,3.5,1.2c0.7,0.8,1.1,2,1.1,3.7v8.8h-2.9v-8.3c0-1-0.2-1.8-0.6-2.3
		c-0.4-0.5-1-0.8-1.8-0.8c-1.1,0-1.9,0.3-2.4,1c-0.5,0.7-0.8,1.8-0.8,3.2V159.2z"/>
	<path class="st2" d="M766.6,159.2l-0.4-1.8H766c-0.4,0.6-1,1.1-1.7,1.5s-1.6,0.5-2.5,0.5c-1.6,0-2.8-0.4-3.6-1.2s-1.2-2-1.2-3.7
		v-8.8h2.9v8.3c0,1,0.2,1.8,0.6,2.3c0.4,0.5,1.1,0.8,2,0.8c1.2,0,2.1-0.4,2.6-1.1c0.6-0.7,0.8-1.9,0.8-3.6v-6.7h2.9v13.4H766.6z"/>
	<path class="st2" d="M784.2,159.2h-2.9v-8.3c0-1-0.2-1.8-0.6-2.3c-0.4-0.5-1-0.8-1.8-0.8c-1.1,0-1.9,0.4-2.4,1.1
		c-0.5,0.7-0.8,1.9-0.8,3.6v6.7h-2.9v-13.4h2.2l0.4,1.8h0.1c0.4-0.6,0.9-1.1,1.6-1.5s1.5-0.5,2.3-0.5c2.1,0,3.4,0.7,4.1,2.1h0.2
		c0.4-0.7,1-1.2,1.7-1.6c0.7-0.4,1.5-0.6,2.5-0.6c1.6,0,2.8,0.4,3.5,1.2c0.7,0.8,1.1,2,1.1,3.7v8.8h-2.9v-8.3c0-1-0.2-1.8-0.6-2.3
		c-0.4-0.5-1-0.8-1.8-0.8c-1.1,0-1.9,0.3-2.4,1c-0.5,0.7-0.8,1.8-0.8,3.2V159.2z"/>
	<path class="st2" d="M805.1,159.2l-0.6-1.9h-0.1c-0.6,0.8-1.3,1.4-2,1.7c-0.7,0.3-1.5,0.4-2.5,0.4c-1.3,0-2.4-0.4-3.1-1.1
		s-1.1-1.7-1.1-3c0-1.4,0.5-2.4,1.5-3.1c1-0.7,2.6-1.1,4.7-1.2l2.3-0.1v-0.7c0-0.9-0.2-1.5-0.6-1.9c-0.4-0.4-1-0.6-1.9-0.6
		c-0.7,0-1.3,0.1-2,0.3c-0.6,0.2-1.2,0.4-1.8,0.7l-0.9-2c0.7-0.4,1.5-0.7,2.4-0.9c0.9-0.2,1.7-0.3,2.5-0.3c1.7,0,3,0.4,3.9,1.1
		c0.9,0.7,1.3,1.9,1.3,3.5v9.1H805.1z M800.9,157.3c1,0,1.9-0.3,2.5-0.9c0.6-0.6,0.9-1.4,0.9-2.4v-1.2l-1.7,0.1
		c-1.3,0-2.3,0.3-2.9,0.7c-0.6,0.4-0.9,1-0.9,1.8c0,0.6,0.2,1.1,0.5,1.4S800.2,157.3,800.9,157.3z"/>
	<path class="st2" d="M824.4,148h-3.3v11.3h-2.9V148H816v-1.3l2.2-0.9v-0.9c0-1.6,0.4-2.8,1.1-3.5s1.9-1.1,3.4-1.1c1,0,2,0.2,3,0.5
		l-0.8,2.2c-0.7-0.2-1.4-0.3-2-0.3c-0.6,0-1.1,0.2-1.4,0.6c-0.3,0.4-0.4,1-0.4,1.8v0.9h3.3V148z M826.5,142.2c0-0.5,0.1-0.9,0.4-1.2
		s0.7-0.4,1.2-0.4c0.5,0,0.9,0.1,1.2,0.4c0.3,0.3,0.4,0.7,0.4,1.2c0,0.5-0.1,0.9-0.4,1.1c-0.3,0.3-0.7,0.4-1.2,0.4
		c-0.5,0-0.9-0.1-1.2-0.4S826.5,142.7,826.5,142.2z M829.5,159.2h-2.9v-13.4h2.9V159.2z"/>
	<path class="st2" d="M838.6,157.2c0.7,0,1.4-0.1,2.1-0.3v2.2c-0.3,0.1-0.7,0.3-1.2,0.3c-0.5,0.1-1,0.1-1.5,0.1
		c-2.7,0-4.1-1.4-4.1-4.3V148H832v-1.3l2-1l1-2.8h1.8v3h3.8v2.2h-3.8v7.2c0,0.7,0.2,1.2,0.5,1.5S838,157.2,838.6,157.2z"/>
	<path class="st2" d="M851.8,159.2l-0.6-1.9h-0.1c-0.6,0.8-1.3,1.4-2,1.7c-0.7,0.3-1.5,0.4-2.5,0.4c-1.3,0-2.4-0.4-3.1-1.1
		s-1.1-1.7-1.1-3c0-1.4,0.5-2.4,1.5-3.1c1-0.7,2.6-1.1,4.7-1.2l2.3-0.1v-0.7c0-0.9-0.2-1.5-0.6-1.9c-0.4-0.4-1-0.6-1.9-0.6
		c-0.7,0-1.3,0.1-2,0.3c-0.6,0.2-1.2,0.4-1.8,0.7l-0.9-2c0.7-0.4,1.5-0.7,2.4-0.9c0.9-0.2,1.7-0.3,2.5-0.3c1.7,0,3,0.4,3.9,1.1
		c0.9,0.7,1.3,1.9,1.3,3.5v9.1H851.8z M847.5,157.3c1,0,1.9-0.3,2.5-0.9c0.6-0.6,0.9-1.4,0.9-2.4v-1.2l-1.7,0.1
		c-1.3,0-2.3,0.3-2.9,0.7c-0.6,0.4-0.9,1-0.9,1.8c0,0.6,0.2,1.1,0.5,1.4S846.8,157.3,847.5,157.3z"/>
	<path class="st2" d="M875.6,159.2h-2.9v-8.3c0-1-0.2-1.8-0.6-2.3c-0.4-0.5-1-0.8-1.8-0.8c-1.1,0-1.9,0.4-2.4,1.1
		c-0.5,0.7-0.8,1.9-0.8,3.6v6.7h-2.9v-13.4h2.2l0.4,1.8h0.1c0.4-0.6,0.9-1.1,1.6-1.5s1.5-0.5,2.3-0.5c2.1,0,3.4,0.7,4.1,2.1h0.2
		c0.4-0.7,1-1.2,1.7-1.6c0.7-0.4,1.5-0.6,2.5-0.6c1.6,0,2.8,0.4,3.5,1.2c0.7,0.8,1.1,2,1.1,3.7v8.8h-2.9v-8.3c0-1-0.2-1.8-0.6-2.3
		c-0.4-0.5-1-0.8-1.8-0.8c-1.1,0-1.9,0.3-2.4,1c-0.5,0.7-0.8,1.8-0.8,3.2V159.2z"/>
	<path class="st2" d="M893.9,159.5c-2.1,0-3.7-0.6-4.9-1.8s-1.8-2.9-1.8-5c0-2.2,0.5-3.9,1.6-5.2c1.1-1.3,2.6-1.9,4.5-1.9
		c1.8,0,3.2,0.5,4.2,1.6c1,1.1,1.5,2.6,1.5,4.4v1.5h-9c0,1.3,0.4,2.3,1.1,3c0.7,0.7,1.6,1.1,2.8,1.1c0.8,0,1.5-0.1,2.2-0.2
		s1.4-0.4,2.2-0.7v2.3c-0.7,0.3-1.4,0.6-2.1,0.7S894.9,159.5,893.9,159.5z M893.4,147.7c-0.9,0-1.6,0.3-2.2,0.9s-0.9,1.4-1,2.5h6.1
		c0-1.1-0.3-2-0.8-2.5C895,148,894.3,147.7,893.4,147.7z M891.6,144.2v-0.3c0.5-0.6,0.9-1.2,1.4-1.9s0.9-1.3,1.2-1.8h3.3v0.3
		c-0.4,0.5-1.1,1.1-1.9,1.9c-0.8,0.8-1.5,1.4-2.1,1.8H891.6z"/>
	<path class="st2" d="M907.4,157.2c0.7,0,1.4-0.1,2.1-0.3v2.2c-0.3,0.1-0.7,0.3-1.2,0.3c-0.5,0.1-1,0.1-1.5,0.1
		c-2.7,0-4.1-1.4-4.1-4.3V148h-1.8v-1.3l2-1l1-2.8h1.8v3h3.8v2.2h-3.8v7.2c0,0.7,0.2,1.2,0.5,1.5S906.9,157.2,907.4,157.2z"/>
	<path class="st2" d="M919,145.6c0.6,0,1,0,1.4,0.1l-0.3,2.7c-0.4-0.1-0.8-0.1-1.3-0.1c-1.1,0-2.1,0.4-2.8,1.1
		c-0.7,0.7-1.1,1.7-1.1,2.9v7h-2.9v-13.4h2.2l0.4,2.4h0.1c0.4-0.8,1-1.4,1.7-1.9C917.4,145.8,918.2,145.6,919,145.6z"/>
	<path class="st2" d="M922.8,142.2c0-0.5,0.1-0.9,0.4-1.2s0.7-0.4,1.2-0.4c0.5,0,0.9,0.1,1.2,0.4c0.3,0.3,0.4,0.7,0.4,1.2
		c0,0.5-0.1,0.9-0.4,1.1c-0.3,0.3-0.7,0.4-1.2,0.4c-0.5,0-0.9-0.1-1.2-0.4S922.8,142.7,922.8,142.2z M925.8,159.2h-2.9v-13.4h2.9
		V159.2z"/>
	<path class="st2" d="M935.3,159.5c-2,0-3.6-0.6-4.6-1.8c-1.1-1.2-1.6-2.9-1.6-5.1c0-2.3,0.6-4,1.7-5.2s2.7-1.8,4.8-1.8
		c1.4,0,2.7,0.3,3.8,0.8l-0.9,2.3c-1.2-0.5-2.2-0.7-3-0.7c-2.3,0-3.5,1.5-3.5,4.6c0,1.5,0.3,2.6,0.9,3.4c0.6,0.8,1.4,1.1,2.5,1.1
		c1.3,0,2.5-0.3,3.6-0.9v2.5c-0.5,0.3-1.1,0.5-1.6,0.6C936.8,159.4,936.1,159.5,935.3,159.5z"/>
	<path class="st2" d="M950.6,159.2l-0.6-1.9h-0.1c-0.6,0.8-1.3,1.4-2,1.7c-0.7,0.3-1.5,0.4-2.5,0.4c-1.3,0-2.4-0.4-3.1-1.1
		s-1.1-1.7-1.1-3c0-1.4,0.5-2.4,1.5-3.1c1-0.7,2.6-1.1,4.7-1.2l2.3-0.1v-0.7c0-0.9-0.2-1.5-0.6-1.9c-0.4-0.4-1-0.6-1.9-0.6
		c-0.7,0-1.3,0.1-2,0.3c-0.6,0.2-1.2,0.4-1.8,0.7l-0.9-2c0.7-0.4,1.5-0.7,2.4-0.9c0.9-0.2,1.7-0.3,2.5-0.3c1.7,0,3,0.4,3.9,1.1
		c0.9,0.7,1.3,1.9,1.3,3.5v9.1H950.6z M946.3,157.3c1,0,1.9-0.3,2.5-0.9c0.6-0.6,0.9-1.4,0.9-2.4v-1.2l-1.7,0.1
		c-1.3,0-2.3,0.3-2.9,0.7c-0.6,0.4-0.9,1-0.9,1.8c0,0.6,0.2,1.1,0.5,1.4S945.6,157.3,946.3,157.3z"/>
	<path class="st2" d="M959.6,156.6c-0.4,1.5-1.1,3.4-2.1,5.8h-2.1c0.6-2.2,1-4.2,1.3-6.1h2.8L959.6,156.6z"/>
	<path class="st2" d="M476.1,197.1c-1.7,0-3-0.6-4-1.8h-0.2c0.1,1.1,0.2,1.8,0.2,2.1v5.5h-2.9v-19.4h2.3c0.1,0.3,0.2,0.9,0.4,1.8
		h0.1c0.9-1.4,2.2-2,4-2c1.7,0,3,0.6,3.9,1.8s1.4,2.9,1.4,5.1c0,2.2-0.5,3.9-1.4,5.1S477.7,197.1,476.1,197.1z M475.4,185.5
		c-1.1,0-2,0.3-2.5,1c-0.5,0.7-0.8,1.7-0.8,3.2v0.4c0,1.6,0.3,2.8,0.8,3.6s1.4,1.1,2.5,1.1c1,0,1.8-0.4,2.3-1.2
		c0.5-0.8,0.8-2,0.8-3.5c0-1.5-0.3-2.6-0.8-3.4C477.2,185.9,476.4,185.5,475.4,185.5z"/>
	<path class="st2" d="M493.2,196.8l-0.6-1.9h-0.1c-0.6,0.8-1.3,1.4-2,1.7c-0.7,0.3-1.5,0.4-2.5,0.4c-1.3,0-2.4-0.4-3.1-1.1
		s-1.1-1.7-1.1-3c0-1.4,0.5-2.4,1.5-3.1c1-0.7,2.6-1.1,4.7-1.2l2.3-0.1v-0.7c0-0.9-0.2-1.5-0.6-1.9c-0.4-0.4-1-0.6-1.9-0.6
		c-0.7,0-1.3,0.1-2,0.3c-0.6,0.2-1.2,0.4-1.8,0.7l-0.9-2c0.7-0.4,1.5-0.7,2.4-0.9c0.9-0.2,1.7-0.3,2.5-0.3c1.7,0,3,0.4,3.9,1.1
		c0.9,0.7,1.3,1.9,1.3,3.5v9.1H493.2z M488.9,194.9c1,0,1.9-0.3,2.5-0.9c0.6-0.6,0.9-1.4,0.9-2.4v-1.2l-1.7,0.1
		c-1.3,0-2.3,0.3-2.9,0.7c-0.6,0.4-0.9,1-0.9,1.8c0,0.6,0.2,1.1,0.5,1.4S488.2,194.9,488.9,194.9z"/>
	<path class="st2" d="M508.2,193c0,1.3-0.5,2.3-1.4,3s-2.3,1.1-4.1,1.1c-1.8,0-3.2-0.3-4.3-0.8v-2.5c1.6,0.7,3.1,1.1,4.4,1.1
		c1.8,0,2.6-0.5,2.6-1.6c0-0.3-0.1-0.6-0.3-0.9c-0.2-0.2-0.5-0.5-1-0.7s-1.1-0.5-1.9-0.8c-1.5-0.6-2.6-1.2-3.1-1.8s-0.8-1.4-0.8-2.3
		c0-1.2,0.5-2,1.4-2.7c0.9-0.6,2.2-1,3.8-1c1.6,0,3.1,0.3,4.5,1l-0.9,2.2c-1.5-0.6-2.7-0.9-3.7-0.9c-1.5,0-2.3,0.4-2.3,1.3
		c0,0.4,0.2,0.8,0.6,1.1c0.4,0.3,1.2,0.7,2.6,1.2c1.1,0.4,1.9,0.8,2.4,1.2c0.5,0.4,0.9,0.8,1.1,1.2S508.2,192.3,508.2,193z"/>
	<path class="st2" d="M520.3,193c0,1.3-0.5,2.3-1.4,3s-2.3,1.1-4.1,1.1c-1.8,0-3.2-0.3-4.3-0.8v-2.5c1.6,0.7,3.1,1.1,4.4,1.1
		c1.8,0,2.6-0.5,2.6-1.6c0-0.3-0.1-0.6-0.3-0.9c-0.2-0.2-0.5-0.5-1-0.7s-1.1-0.5-1.9-0.8c-1.5-0.6-2.6-1.2-3.1-1.8s-0.8-1.4-0.8-2.3
		c0-1.2,0.5-2,1.4-2.7c0.9-0.6,2.2-1,3.8-1c1.6,0,3.1,0.3,4.5,1l-0.9,2.2c-1.5-0.6-2.7-0.9-3.7-0.9c-1.5,0-2.3,0.4-2.3,1.3
		c0,0.4,0.2,0.8,0.6,1.1c0.4,0.3,1.2,0.7,2.6,1.2c1.1,0.4,1.9,0.8,2.4,1.2c0.5,0.4,0.9,0.8,1.1,1.2S520.3,192.3,520.3,193z"/>
	<path class="st2" d="M531.8,196.8l-0.6-1.9h-0.1c-0.6,0.8-1.3,1.4-2,1.7c-0.7,0.3-1.5,0.4-2.5,0.4c-1.3,0-2.4-0.4-3.1-1.1
		s-1.1-1.7-1.1-3c0-1.4,0.5-2.4,1.5-3.1c1-0.7,2.6-1.1,4.7-1.2l2.3-0.1v-0.7c0-0.9-0.2-1.5-0.6-1.9c-0.4-0.4-1-0.6-1.9-0.6
		c-0.7,0-1.3,0.1-2,0.3c-0.6,0.2-1.2,0.4-1.8,0.7l-0.9-2c0.7-0.4,1.5-0.7,2.4-0.9c0.9-0.2,1.7-0.3,2.5-0.3c1.7,0,3,0.4,3.9,1.1
		c0.9,0.7,1.3,1.9,1.3,3.5v9.1H531.8z M527.6,194.9c1,0,1.9-0.3,2.5-0.9c0.6-0.6,0.9-1.4,0.9-2.4v-1.2l-1.7,0.1
		c-1.3,0-2.3,0.3-2.9,0.7c-0.6,0.4-0.9,1-0.9,1.8c0,0.6,0.2,1.1,0.5,1.4S526.9,194.9,527.6,194.9z"/>
	<path class="st2" d="M549.7,196.8h-2.9v-8.3c0-1-0.2-1.8-0.6-2.3s-1.1-0.8-2-0.8c-1.2,0-2.1,0.4-2.6,1.1c-0.6,0.7-0.8,1.9-0.8,3.6
		v6.7h-2.9v-13.4h2.2l0.4,1.8h0.1c0.4-0.6,1-1.1,1.7-1.5c0.7-0.3,1.6-0.5,2.5-0.5c3.2,0,4.8,1.6,4.8,4.9V196.8z"/>
	<path class="st2" d="M558.2,197.1c-1.7,0-3-0.6-3.9-1.8c-0.9-1.2-1.4-2.9-1.4-5.1c0-2.2,0.5-3.9,1.4-5.1c1-1.2,2.3-1.8,4-1.8
		c1.8,0,3.1,0.7,4,2h0.1c-0.1-1-0.2-1.7-0.2-2.3v-4.9h2.9v18.9h-2.2l-0.5-1.8h-0.1C561.3,196.4,560,197.1,558.2,197.1z M559,194.8
		c1.2,0,2-0.3,2.6-1c0.5-0.7,0.8-1.7,0.8-3.2v-0.4c0-1.7-0.3-2.9-0.8-3.6c-0.6-0.7-1.4-1.1-2.6-1.1c-1,0-1.8,0.4-2.3,1.2
		c-0.5,0.8-0.8,2-0.8,3.5c0,1.5,0.3,2.6,0.8,3.4C557.1,194.4,557.9,194.8,559,194.8z"/>
	<path class="st2" d="M581.1,190.1c0,2.2-0.6,3.9-1.7,5.1c-1.1,1.2-2.7,1.8-4.7,1.8c-1.3,0-2.4-0.3-3.3-0.9c-1-0.6-1.7-1.4-2.2-2.4
		c-0.5-1.1-0.8-2.3-0.8-3.7c0-2.2,0.6-3.9,1.7-5.1c1.1-1.2,2.7-1.8,4.7-1.8c1.9,0,3.5,0.6,4.6,1.9
		C580.5,186.3,581.1,188,581.1,190.1z M571.3,190.1c0,3.1,1.1,4.7,3.4,4.7c2.3,0,3.4-1.6,3.4-4.7c0-3.1-1.1-4.6-3.4-4.6
		c-1.2,0-2.1,0.4-2.6,1.2C571.6,187.5,571.3,188.6,571.3,190.1z"/>
	<path class="st2" d="M599.2,196.8l-0.6-1.9h-0.1c-0.6,0.8-1.3,1.4-2,1.7c-0.7,0.3-1.5,0.4-2.5,0.4c-1.3,0-2.4-0.4-3.1-1.1
		s-1.1-1.7-1.1-3c0-1.4,0.5-2.4,1.5-3.1c1-0.7,2.6-1.1,4.7-1.2l2.3-0.1v-0.7c0-0.9-0.2-1.5-0.6-1.9c-0.4-0.4-1-0.6-1.9-0.6
		c-0.7,0-1.3,0.1-2,0.3c-0.6,0.2-1.2,0.4-1.8,0.7l-0.9-2c0.7-0.4,1.5-0.7,2.4-0.9c0.9-0.2,1.7-0.3,2.5-0.3c1.7,0,3,0.4,3.9,1.1
		c0.9,0.7,1.3,1.9,1.3,3.5v9.1H599.2z M595,194.9c1,0,1.9-0.3,2.5-0.9c0.6-0.6,0.9-1.4,0.9-2.4v-1.2l-1.7,0.1
		c-1.3,0-2.3,0.3-2.9,0.7c-0.6,0.4-0.9,1-0.9,1.8c0,0.6,0.2,1.1,0.5,1.4S594.3,194.9,595,194.9z"/>
	<path class="st2" d="M623.1,196.8h-2.9v-8.3c0-1-0.2-1.8-0.6-2.3c-0.4-0.5-1-0.8-1.8-0.8c-1.1,0-1.9,0.4-2.4,1.1
		c-0.5,0.7-0.8,1.9-0.8,3.6v6.7h-2.9v-13.4h2.2l0.4,1.8h0.1c0.4-0.6,0.9-1.1,1.6-1.5s1.5-0.5,2.3-0.5c2.1,0,3.4,0.7,4.1,2.1h0.2
		c0.4-0.7,1-1.2,1.7-1.6c0.7-0.4,1.5-0.6,2.5-0.6c1.6,0,2.8,0.4,3.5,1.2c0.7,0.8,1.1,2,1.1,3.7v8.8h-2.9v-8.3c0-1-0.2-1.8-0.6-2.3
		c-0.4-0.5-1-0.8-1.8-0.8c-1.1,0-1.9,0.3-2.4,1c-0.5,0.7-0.8,1.8-0.8,3.2V196.8z"/>
	<path class="st2" d="M641.4,197.1c-2.1,0-3.7-0.6-4.9-1.8s-1.8-2.9-1.8-5c0-2.2,0.5-3.9,1.6-5.2c1.1-1.3,2.6-1.9,4.5-1.9
		c1.8,0,3.2,0.5,4.2,1.6c1,1.1,1.5,2.6,1.5,4.4v1.5h-9c0,1.3,0.4,2.3,1.1,3c0.7,0.7,1.6,1.1,2.8,1.1c0.8,0,1.5-0.1,2.2-0.2
		s1.4-0.4,2.2-0.7v2.3c-0.7,0.3-1.4,0.6-2.1,0.7S642.3,197.1,641.4,197.1z M640.9,185.3c-0.9,0-1.6,0.3-2.2,0.9s-0.9,1.4-1,2.5h6.1
		c0-1.1-0.3-2-0.8-2.5C642.5,185.6,641.8,185.3,640.9,185.3z"/>
	<path class="st2" d="M658.9,193c0,1.3-0.5,2.3-1.4,3s-2.3,1.1-4.1,1.1c-1.8,0-3.2-0.3-4.3-0.8v-2.5c1.6,0.7,3.1,1.1,4.4,1.1
		c1.8,0,2.6-0.5,2.6-1.6c0-0.3-0.1-0.6-0.3-0.9c-0.2-0.2-0.5-0.5-1-0.7s-1.1-0.5-1.9-0.8c-1.5-0.6-2.6-1.2-3.1-1.8s-0.8-1.4-0.8-2.3
		c0-1.2,0.5-2,1.4-2.7c0.9-0.6,2.2-1,3.8-1c1.6,0,3.1,0.3,4.5,1l-0.9,2.2c-1.5-0.6-2.7-0.9-3.7-0.9c-1.5,0-2.3,0.4-2.3,1.3
		c0,0.4,0.2,0.8,0.6,1.1c0.4,0.3,1.2,0.7,2.6,1.2c1.1,0.4,1.9,0.8,2.4,1.2c0.5,0.4,0.9,0.8,1.1,1.2S658.9,192.3,658.9,193z"/>
	<path class="st2" d="M673.3,196.8h-2.9v-8.3c0-1-0.2-1.8-0.6-2.3c-0.4-0.5-1-0.8-1.8-0.8c-1.1,0-1.9,0.4-2.4,1.1
		c-0.5,0.7-0.8,1.9-0.8,3.6v6.7H662v-13.4h2.2l0.4,1.8h0.1c0.4-0.6,0.9-1.1,1.6-1.5s1.5-0.5,2.3-0.5c2.1,0,3.4,0.7,4.1,2.1h0.2
		c0.4-0.7,1-1.2,1.7-1.6c0.7-0.4,1.5-0.6,2.5-0.6c1.6,0,2.8,0.4,3.5,1.2c0.7,0.8,1.1,2,1.1,3.7v8.8h-2.9v-8.3c0-1-0.2-1.8-0.6-2.3
		c-0.4-0.5-1-0.8-1.8-0.8c-1.1,0-1.9,0.3-2.4,1c-0.5,0.7-0.8,1.8-0.8,3.2V196.8z"/>
	<path class="st2" d="M694.2,196.8l-0.6-1.9h-0.1c-0.6,0.8-1.3,1.4-2,1.7c-0.7,0.3-1.5,0.4-2.5,0.4c-1.3,0-2.4-0.4-3.1-1.1
		s-1.1-1.7-1.1-3c0-1.4,0.5-2.4,1.5-3.1c1-0.7,2.6-1.1,4.7-1.2l2.3-0.1v-0.7c0-0.9-0.2-1.5-0.6-1.9c-0.4-0.4-1-0.6-1.9-0.6
		c-0.7,0-1.3,0.1-2,0.3c-0.6,0.2-1.2,0.4-1.8,0.7l-0.9-2c0.7-0.4,1.5-0.7,2.4-0.9c0.9-0.2,1.7-0.3,2.5-0.3c1.7,0,3,0.4,3.9,1.1
		c0.9,0.7,1.3,1.9,1.3,3.5v9.1H694.2z M689.9,194.9c1,0,1.9-0.3,2.5-0.9c0.6-0.6,0.9-1.4,0.9-2.4v-1.2l-1.7,0.1
		c-1.3,0-2.3,0.3-2.9,0.7c-0.6,0.4-0.9,1-0.9,1.8c0,0.6,0.2,1.1,0.5,1.4S689.2,194.9,689.9,194.9z"/>
	<path class="st2" d="M715.1,196.8l-0.6-1.9h-0.1c-0.6,0.8-1.3,1.4-2,1.7c-0.7,0.3-1.5,0.4-2.5,0.4c-1.3,0-2.4-0.4-3.1-1.1
		s-1.1-1.7-1.1-3c0-1.4,0.5-2.4,1.5-3.1c1-0.7,2.6-1.1,4.7-1.2l2.3-0.1v-0.7c0-0.9-0.2-1.5-0.6-1.9c-0.4-0.4-1-0.6-1.9-0.6
		c-0.7,0-1.3,0.1-2,0.3c-0.6,0.2-1.2,0.4-1.8,0.7l-0.9-2c0.7-0.4,1.5-0.7,2.4-0.9c0.9-0.2,1.7-0.3,2.5-0.3c1.7,0,3,0.4,3.9,1.1
		c0.9,0.7,1.3,1.9,1.3,3.5v9.1H715.1z M710.8,194.9c1,0,1.9-0.3,2.5-0.9c0.6-0.6,0.9-1.4,0.9-2.4v-1.2l-1.7,0.1
		c-1.3,0-2.3,0.3-2.9,0.7c-0.6,0.4-0.9,1-0.9,1.8c0,0.6,0.2,1.1,0.5,1.4S710.1,194.9,710.8,194.9z"/>
	<path class="st2" d="M733,190.1c0,2.2-0.6,3.9-1.7,5.1c-1.1,1.2-2.7,1.8-4.7,1.8c-1.3,0-2.4-0.3-3.3-0.9c-1-0.6-1.7-1.4-2.2-2.4
		c-0.5-1.1-0.8-2.3-0.8-3.7c0-2.2,0.6-3.9,1.7-5.1c1.1-1.2,2.7-1.8,4.7-1.8c1.9,0,3.5,0.6,4.6,1.9C732.5,186.3,733,188,733,190.1z
		 M723.3,190.1c0,3.1,1.1,4.7,3.4,4.7c2.3,0,3.4-1.6,3.4-4.7c0-3.1-1.1-4.6-3.4-4.6c-1.2,0-2.1,0.4-2.6,1.2
		C723.5,187.5,723.3,188.6,723.3,190.1z"/>
	<path class="st2" d="M749.6,183.1c0.6,0,1,0,1.4,0.1l-0.3,2.7c-0.4-0.1-0.8-0.1-1.3-0.1c-1.1,0-2.1,0.4-2.8,1.1
		c-0.7,0.7-1.1,1.7-1.1,2.9v7h-2.9v-13.4h2.2l0.4,2.4h0.1c0.4-0.8,1-1.4,1.7-1.9C748,183.4,748.8,183.1,749.6,183.1z"/>
	<path class="st2" d="M759.4,197.1c-2.1,0-3.7-0.6-4.9-1.8s-1.8-2.9-1.8-5c0-2.2,0.5-3.9,1.6-5.2c1.1-1.3,2.6-1.9,4.5-1.9
		c1.8,0,3.2,0.5,4.2,1.6c1,1.1,1.5,2.6,1.5,4.4v1.5h-9c0,1.3,0.4,2.3,1.1,3c0.7,0.7,1.6,1.1,2.8,1.1c0.8,0,1.5-0.1,2.2-0.2
		s1.4-0.4,2.2-0.7v2.3c-0.7,0.3-1.4,0.6-2.1,0.7S760.3,197.1,759.4,197.1z M758.9,185.3c-0.9,0-1.6,0.3-2.2,0.9s-0.9,1.4-1,2.5h6.1
		c0-1.1-0.3-2-0.8-2.5C760.5,185.6,759.8,185.3,758.9,185.3z"/>
	<path class="st2" d="M772.4,197.1c-1.7,0-3-0.6-3.9-1.8c-0.9-1.2-1.4-2.9-1.4-5.1c0-2.2,0.5-3.9,1.4-5.1c1-1.2,2.3-1.8,4-1.8
		c1.8,0,3.1,0.7,4,2h0.1c-0.1-1-0.2-1.7-0.2-2.3v-4.9h2.9v18.9H777l-0.5-1.8h-0.1C775.5,196.4,774.2,197.1,772.4,197.1z
		 M773.2,194.8c1.2,0,2-0.3,2.6-1c0.5-0.7,0.8-1.7,0.8-3.2v-0.4c0-1.7-0.3-2.9-0.8-3.6c-0.6-0.7-1.4-1.1-2.6-1.1
		c-1,0-1.8,0.4-2.3,1.2c-0.5,0.8-0.8,2-0.8,3.5c0,1.5,0.3,2.6,0.8,3.4C771.3,194.4,772.1,194.8,773.2,194.8z"/>
	<path class="st2" d="M795.3,190.1c0,2.2-0.6,3.9-1.7,5.1c-1.1,1.2-2.7,1.8-4.7,1.8c-1.3,0-2.4-0.3-3.3-0.9c-1-0.6-1.7-1.4-2.2-2.4
		c-0.5-1.1-0.8-2.3-0.8-3.7c0-2.2,0.6-3.9,1.7-5.1c1.1-1.2,2.7-1.8,4.7-1.8c1.9,0,3.5,0.6,4.6,1.9
		C794.7,186.3,795.3,188,795.3,190.1z M785.5,190.1c0,3.1,1.1,4.7,3.4,4.7c2.3,0,3.4-1.6,3.4-4.7c0-3.1-1.1-4.6-3.4-4.6
		c-1.2,0-2.1,0.4-2.6,1.2C785.8,187.5,785.5,188.6,785.5,190.1z"/>
	<path class="st2" d="M805.4,183.1c0.6,0,1,0,1.4,0.1l-0.3,2.7c-0.4-0.1-0.8-0.1-1.3-0.1c-1.1,0-2.1,0.4-2.8,1.1
		c-0.7,0.7-1.1,1.7-1.1,2.9v7h-2.9v-13.4h2.2l0.4,2.4h0.1c0.4-0.8,1-1.4,1.7-1.9C803.8,183.4,804.6,183.1,805.4,183.1z"/>
	<path class="st2" d="M820.3,197.1c-1.7,0-3-0.6-3.9-1.8c-0.9-1.2-1.4-2.9-1.4-5.1c0-2.2,0.5-3.9,1.4-5.1c1-1.2,2.3-1.8,4-1.8
		c1.8,0,3.1,0.7,4,2h0.1c-0.1-1-0.2-1.7-0.2-2.3v-4.9h2.9v18.9H825l-0.5-1.8h-0.1C823.4,196.4,822.1,197.1,820.3,197.1z
		 M821.1,194.8c1.2,0,2-0.3,2.6-1c0.5-0.7,0.8-1.7,0.8-3.2v-0.4c0-1.7-0.3-2.9-0.8-3.6c-0.6-0.7-1.4-1.1-2.6-1.1
		c-1,0-1.8,0.4-2.3,1.2c-0.5,0.8-0.8,2-0.8,3.5c0,1.5,0.3,2.6,0.8,3.4C819.2,194.4,820,194.8,821.1,194.8z"/>
	<path class="st2" d="M837.1,197.1c-2.1,0-3.7-0.6-4.9-1.8s-1.8-2.9-1.8-5c0-2.2,0.5-3.9,1.6-5.2c1.1-1.3,2.6-1.9,4.5-1.9
		c1.8,0,3.2,0.5,4.2,1.6c1,1.1,1.5,2.6,1.5,4.4v1.5h-9c0,1.3,0.4,2.3,1.1,3c0.7,0.7,1.6,1.1,2.8,1.1c0.8,0,1.5-0.1,2.2-0.2
		s1.4-0.4,2.2-0.7v2.3c-0.7,0.3-1.4,0.6-2.1,0.7S838.1,197.1,837.1,197.1z M836.6,185.3c-0.9,0-1.6,0.3-2.2,0.9s-0.9,1.4-1,2.5h6.1
		c0-1.1-0.3-2-0.8-2.5C838.2,185.6,837.5,185.3,836.6,185.3z"/>
	<path class="st2" d="M848.5,196.8h-2.9v-18.9h2.9V196.8z"/>
	<path class="st2" d="M861,196.8l-0.6-1.9h-0.1c-0.6,0.8-1.3,1.4-2,1.7c-0.7,0.3-1.5,0.4-2.5,0.4c-1.3,0-2.4-0.4-3.1-1.1
		s-1.1-1.7-1.1-3c0-1.4,0.5-2.4,1.5-3.1c1-0.7,2.6-1.1,4.7-1.2l2.3-0.1v-0.7c0-0.9-0.2-1.5-0.6-1.9c-0.4-0.4-1-0.6-1.9-0.6
		c-0.7,0-1.3,0.1-2,0.3c-0.6,0.2-1.2,0.4-1.8,0.7l-0.9-2c0.7-0.4,1.5-0.7,2.4-0.9c0.9-0.2,1.7-0.3,2.5-0.3c1.7,0,3,0.4,3.9,1.1
		c0.9,0.7,1.3,1.9,1.3,3.5v9.1H861z M856.7,194.9c1,0,1.9-0.3,2.5-0.9c0.6-0.6,0.9-1.4,0.9-2.4v-1.2l-1.7,0.1
		c-1.3,0-2.3,0.3-2.9,0.7c-0.6,0.4-0.9,1-0.9,1.8c0,0.6,0.2,1.1,0.5,1.4S856,194.9,856.7,194.9z"/>
	<path class="st2" d="M870,194.2c-0.4,1.5-1.1,3.4-2.1,5.8h-2.1c0.6-2.2,1-4.2,1.3-6.1h2.8L870,194.2z"/>
	<path class="st2" d="M885.5,197.1c-2,0-3.6-0.6-4.6-1.8c-1.1-1.2-1.6-2.9-1.6-5.1c0-2.3,0.6-4,1.7-5.2s2.7-1.8,4.8-1.8
		c1.4,0,2.7,0.3,3.8,0.8l-0.9,2.3c-1.2-0.5-2.2-0.7-3-0.7c-2.3,0-3.5,1.5-3.5,4.6c0,1.5,0.3,2.6,0.9,3.4c0.6,0.8,1.4,1.1,2.5,1.1
		c1.3,0,2.5-0.3,3.6-0.9v2.5c-0.5,0.3-1.1,0.5-1.6,0.6C887,197,886.3,197.1,885.5,197.1z"/>
	<path class="st2" d="M898.3,197.1c-2.1,0-3.7-0.6-4.9-1.8s-1.8-2.9-1.8-5c0-2.2,0.5-3.9,1.6-5.2c1.1-1.3,2.6-1.9,4.5-1.9
		c1.8,0,3.2,0.5,4.2,1.6c1,1.1,1.5,2.6,1.5,4.4v1.5h-9c0,1.3,0.4,2.3,1.1,3c0.7,0.7,1.6,1.1,2.8,1.1c0.8,0,1.5-0.1,2.2-0.2
		s1.4-0.4,2.2-0.7v2.3c-0.7,0.3-1.4,0.6-2.1,0.7S899.2,197.1,898.3,197.1z M897.8,185.3c-0.9,0-1.6,0.3-2.2,0.9s-0.9,1.4-1,2.5h6.1
		c0-1.1-0.3-2-0.8-2.5C899.4,185.6,898.7,185.3,897.8,185.3z"/>
	<path class="st2" d="M913.6,183.1c0.6,0,1,0,1.4,0.1l-0.3,2.7c-0.4-0.1-0.8-0.1-1.3-0.1c-1.1,0-2.1,0.4-2.8,1.1
		c-0.7,0.7-1.1,1.7-1.1,2.9v7h-2.9v-13.4h2.2l0.4,2.4h0.1c0.4-0.8,1-1.4,1.7-1.9C912,183.4,912.8,183.1,913.6,183.1z"/>
	<path class="st2" d="M922.9,197.1c-2,0-3.6-0.6-4.6-1.8c-1.1-1.2-1.6-2.9-1.6-5.1c0-2.3,0.6-4,1.7-5.2s2.7-1.8,4.8-1.8
		c1.4,0,2.7,0.3,3.8,0.8l-0.9,2.3c-1.2-0.5-2.2-0.7-3-0.7c-2.3,0-3.5,1.5-3.5,4.6c0,1.5,0.3,2.6,0.9,3.4c0.6,0.8,1.4,1.1,2.5,1.1
		c1.3,0,2.5-0.3,3.6-0.9v2.5c-0.5,0.3-1.1,0.5-1.6,0.6C924.4,197,923.7,197.1,922.9,197.1z"/>
	<path class="st2" d="M938.2,196.8l-0.6-1.9h-0.1c-0.6,0.8-1.3,1.4-2,1.7c-0.7,0.3-1.5,0.4-2.5,0.4c-1.3,0-2.4-0.4-3.1-1.1
		s-1.1-1.7-1.1-3c0-1.4,0.5-2.4,1.5-3.1c1-0.7,2.6-1.1,4.7-1.2l2.3-0.1v-0.7c0-0.9-0.2-1.5-0.6-1.9c-0.4-0.4-1-0.6-1.9-0.6
		c-0.7,0-1.3,0.1-2,0.3c-0.6,0.2-1.2,0.4-1.8,0.7l-0.9-2c0.7-0.4,1.5-0.7,2.4-0.9c0.9-0.2,1.7-0.3,2.5-0.3c1.7,0,3,0.4,3.9,1.1
		c0.9,0.7,1.3,1.9,1.3,3.5v9.1H938.2z M934,194.9c1,0,1.9-0.3,2.5-0.9c0.6-0.6,0.9-1.4,0.9-2.4v-1.2l-1.7,0.1
		c-1.3,0-2.3,0.3-2.9,0.7c-0.6,0.4-0.9,1-0.9,1.8c0,0.6,0.2,1.1,0.5,1.4S933.3,194.9,934,194.9z"/>
	<path class="st2" d="M955.3,197.1c-1.7,0-3-0.6-3.9-1.8c-0.9-1.2-1.4-2.9-1.4-5.1c0-2.2,0.5-3.9,1.4-5.1c1-1.2,2.3-1.8,4-1.8
		c1.8,0,3.1,0.7,4,2h0.1c-0.1-1-0.2-1.7-0.2-2.3v-4.9h2.9v18.9h-2.2l-0.5-1.8h-0.1C958.4,196.4,957,197.1,955.3,197.1z M956,194.8
		c1.2,0,2-0.3,2.6-1c0.5-0.7,0.8-1.7,0.8-3.2v-0.4c0-1.7-0.3-2.9-0.8-3.6c-0.6-0.7-1.4-1.1-2.6-1.1c-1,0-1.8,0.4-2.3,1.2
		c-0.5,0.8-0.8,2-0.8,3.5c0,1.5,0.3,2.6,0.8,3.4C954.2,194.4,955,194.8,956,194.8z"/>
	<path class="st2" d="M972.1,197.1c-2.1,0-3.7-0.6-4.9-1.8s-1.8-2.9-1.8-5c0-2.2,0.5-3.9,1.6-5.2c1.1-1.3,2.6-1.9,4.5-1.9
		c1.8,0,3.2,0.5,4.2,1.6c1,1.1,1.5,2.6,1.5,4.4v1.5h-9c0,1.3,0.4,2.3,1.1,3c0.7,0.7,1.6,1.1,2.8,1.1c0.8,0,1.5-0.1,2.2-0.2
		s1.4-0.4,2.2-0.7v2.3c-0.7,0.3-1.4,0.6-2.1,0.7S973,197.1,972.1,197.1z M971.6,185.3c-0.9,0-1.6,0.3-2.2,0.9s-0.9,1.4-1,2.5h6.1
		c0-1.1-0.3-2-0.8-2.5C973.2,185.6,972.5,185.3,971.6,185.3z"/>
	<path class="st2" d="M478.7,234.4l-0.4-1.8h-0.1c-0.4,0.6-1,1.1-1.7,1.5s-1.6,0.5-2.5,0.5c-1.6,0-2.8-0.4-3.6-1.2s-1.2-2-1.2-3.7
		V221h2.9v8.3c0,1,0.2,1.8,0.6,2.3c0.4,0.5,1.1,0.8,2,0.8c1.2,0,2.1-0.4,2.6-1.1c0.6-0.7,0.8-1.9,0.8-3.6V221h2.9v13.4H478.7z"/>
	<path class="st2" d="M496.4,234.4h-2.9v-8.3c0-1-0.2-1.8-0.6-2.3c-0.4-0.5-1-0.8-1.8-0.8c-1.1,0-1.9,0.4-2.4,1.1
		c-0.5,0.7-0.8,1.9-0.8,3.6v6.7H485V221h2.2l0.4,1.8h0.1c0.4-0.6,0.9-1.1,1.6-1.5s1.5-0.5,2.3-0.5c2.1,0,3.4,0.7,4.1,2.1h0.2
		c0.4-0.7,1-1.2,1.7-1.6c0.7-0.4,1.5-0.6,2.5-0.6c1.6,0,2.8,0.4,3.5,1.2c0.7,0.8,1.1,2,1.1,3.7v8.8H502v-8.3c0-1-0.2-1.8-0.6-2.3
		c-0.4-0.5-1-0.8-1.8-0.8c-1.1,0-1.9,0.3-2.4,1c-0.5,0.7-0.8,1.8-0.8,3.2V234.4z"/>
	<path class="st2" d="M520.7,234.7c-2,0-3.6-0.6-4.6-1.8c-1.1-1.2-1.6-2.9-1.6-5.1c0-2.3,0.6-4,1.7-5.2s2.7-1.8,4.8-1.8
		c1.4,0,2.7,0.3,3.8,0.8l-0.9,2.3c-1.2-0.5-2.2-0.7-3-0.7c-2.3,0-3.5,1.5-3.5,4.6c0,1.5,0.3,2.6,0.9,3.4c0.6,0.8,1.4,1.1,2.5,1.1
		c1.3,0,2.5-0.3,3.6-0.9v2.5c-0.5,0.3-1.1,0.5-1.6,0.6C522.3,234.6,521.6,234.7,520.7,234.7z"/>
	<path class="st2" d="M533.5,234.7c-2.1,0-3.7-0.6-4.9-1.8s-1.8-2.9-1.8-5c0-2.2,0.5-3.9,1.6-5.2c1.1-1.3,2.6-1.9,4.5-1.9
		c1.8,0,3.2,0.5,4.2,1.6c1,1.1,1.5,2.6,1.5,4.4v1.5h-9c0,1.3,0.4,2.3,1.1,3c0.7,0.7,1.6,1.1,2.8,1.1c0.8,0,1.5-0.1,2.2-0.2
		s1.4-0.4,2.2-0.7v2.3c-0.7,0.3-1.4,0.6-2.1,0.7S534.4,234.7,533.5,234.7z M533,222.9c-0.9,0-1.6,0.3-2.2,0.9s-0.9,1.4-1,2.5h6.1
		c0-1.1-0.3-2-0.8-2.5C534.6,223.2,533.9,222.9,533,222.9z"/>
	<path class="st2" d="M553.8,234.4h-2.9v-8.3c0-1-0.2-1.8-0.6-2.3s-1.1-0.8-2-0.8c-1.2,0-2.1,0.4-2.6,1.1c-0.6,0.7-0.8,1.9-0.8,3.6
		v6.7H542V221h2.2l0.4,1.8h0.1c0.4-0.6,1-1.1,1.7-1.5c0.7-0.3,1.6-0.5,2.5-0.5c3.2,0,4.8,1.6,4.8,4.9V234.4z"/>
	<path class="st2" d="M562.8,232.3c0.7,0,1.4-0.1,2.1-0.3v2.2c-0.3,0.1-0.7,0.3-1.2,0.3c-0.5,0.1-1,0.1-1.5,0.1
		c-2.7,0-4.1-1.4-4.1-4.3v-7.2h-1.8v-1.3l2-1l1-2.8h1.8v3h3.8v2.2h-3.8v7.2c0,0.7,0.2,1.2,0.5,1.5S562.2,232.3,562.8,232.3z"/>
	<path class="st2" d="M567.4,219.3V219c0.5-0.6,0.9-1.2,1.4-1.9s0.9-1.3,1.2-1.8h3.3v0.3c-0.4,0.5-1.1,1.1-1.9,1.9s-1.5,1.4-2.1,1.8
		H567.4z M570.4,234.4h-2.9V221h2.9V234.4z"/>
	<path class="st2" d="M585.8,234.4h-2.9v-8.3c0-1-0.2-1.8-0.6-2.3c-0.4-0.5-1-0.8-1.8-0.8c-1.1,0-1.9,0.4-2.4,1.1
		c-0.5,0.7-0.8,1.9-0.8,3.6v6.7h-2.9V221h2.2l0.4,1.8h0.1c0.4-0.6,0.9-1.1,1.6-1.5s1.5-0.5,2.3-0.5c2.1,0,3.4,0.7,4.1,2.1h0.2
		c0.4-0.7,1-1.2,1.7-1.6c0.7-0.4,1.5-0.6,2.5-0.6c1.6,0,2.8,0.4,3.5,1.2c0.7,0.8,1.1,2,1.1,3.7v8.8h-2.9v-8.3c0-1-0.2-1.8-0.6-2.3
		c-0.4-0.5-1-0.8-1.8-0.8c-1.1,0-1.9,0.3-2.4,1c-0.5,0.7-0.8,1.8-0.8,3.2V234.4z"/>
	<path class="st2" d="M604.2,234.7c-2.1,0-3.7-0.6-4.9-1.8s-1.8-2.9-1.8-5c0-2.2,0.5-3.9,1.6-5.2c1.1-1.3,2.6-1.9,4.5-1.9
		c1.8,0,3.2,0.5,4.2,1.6c1,1.1,1.5,2.6,1.5,4.4v1.5h-9c0,1.3,0.4,2.3,1.1,3c0.7,0.7,1.6,1.1,2.8,1.1c0.8,0,1.5-0.1,2.2-0.2
		s1.4-0.4,2.2-0.7v2.3c-0.7,0.3-1.4,0.6-2.1,0.7S605.1,234.7,604.2,234.7z M603.6,222.9c-0.9,0-1.6,0.3-2.2,0.9s-0.9,1.4-1,2.5h6.1
		c0-1.1-0.3-2-0.8-2.5C605.2,223.2,604.5,222.9,603.6,222.9z"/>
	<path class="st2" d="M617.6,232.3c0.7,0,1.4-0.1,2.1-0.3v2.2c-0.3,0.1-0.7,0.3-1.2,0.3c-0.5,0.1-1,0.1-1.5,0.1
		c-2.7,0-4.1-1.4-4.1-4.3v-7.2h-1.8v-1.3l2-1l1-2.8h1.8v3h3.8v2.2h-3.8v7.2c0,0.7,0.2,1.2,0.5,1.5S617.1,232.3,617.6,232.3z"/>
	<path class="st2" d="M629.2,220.7c0.6,0,1,0,1.4,0.1l-0.3,2.7c-0.4-0.1-0.8-0.1-1.3-0.1c-1.1,0-2.1,0.4-2.8,1.1
		c-0.7,0.7-1.1,1.7-1.1,2.9v7h-2.9V221h2.2l0.4,2.4h0.1c0.4-0.8,1-1.4,1.7-1.9C627.6,221,628.4,220.7,629.2,220.7z"/>
	<path class="st2" d="M645.1,227.7c0,2.2-0.6,3.9-1.7,5.1c-1.1,1.2-2.7,1.8-4.7,1.8c-1.3,0-2.4-0.3-3.3-0.9c-1-0.6-1.7-1.4-2.2-2.4
		c-0.5-1.1-0.8-2.3-0.8-3.7c0-2.2,0.6-3.9,1.7-5.1c1.1-1.2,2.7-1.8,4.7-1.8c1.9,0,3.5,0.6,4.6,1.9
		C644.5,223.9,645.1,225.5,645.1,227.7z M635.3,227.7c0,3.1,1.1,4.7,3.4,4.7c2.3,0,3.4-1.6,3.4-4.7c0-3.1-1.1-4.6-3.4-4.6
		c-1.2,0-2.1,0.4-2.6,1.2C635.5,225,635.3,226.2,635.3,227.7z"/>
	<path class="st2" d="M663.2,234.4l-0.6-1.9h-0.1c-0.6,0.8-1.3,1.4-2,1.7c-0.7,0.3-1.5,0.4-2.5,0.4c-1.3,0-2.4-0.4-3.1-1.1
		s-1.1-1.7-1.1-3c0-1.4,0.5-2.4,1.5-3.1c1-0.7,2.6-1.1,4.7-1.2l2.3-0.1v-0.7c0-0.9-0.2-1.5-0.6-1.9c-0.4-0.4-1-0.6-1.9-0.6
		c-0.7,0-1.3,0.1-2,0.3c-0.6,0.2-1.2,0.4-1.8,0.7l-0.9-2c0.7-0.4,1.5-0.7,2.4-0.9c0.9-0.2,1.7-0.3,2.5-0.3c1.7,0,3,0.4,3.9,1.1
		c0.9,0.7,1.3,1.9,1.3,3.5v9.1H663.2z M659,232.5c1,0,1.9-0.3,2.5-0.9c0.6-0.6,0.9-1.4,0.9-2.4V228l-1.7,0.1c-1.3,0-2.3,0.3-2.9,0.7
		c-0.6,0.4-0.9,1-0.9,1.8c0,0.6,0.2,1.1,0.5,1.4S658.2,232.5,659,232.5z"/>
	<path class="st2" d="M674.7,234.7c-2,0-3.6-0.6-4.6-1.8c-1.1-1.2-1.6-2.9-1.6-5.1c0-2.3,0.6-4,1.7-5.2s2.7-1.8,4.8-1.8
		c1.4,0,2.7,0.3,3.8,0.8l-0.9,2.3c-1.2-0.5-2.2-0.7-3-0.7c-2.3,0-3.5,1.5-3.5,4.6c0,1.5,0.3,2.6,0.9,3.4c0.6,0.8,1.4,1.1,2.5,1.1
		c1.3,0,2.5-0.3,3.6-0.9v2.5c-0.5,0.3-1.1,0.5-1.6,0.6C676.2,234.6,675.5,234.7,674.7,234.7z"/>
	<path class="st2" d="M681.4,217.4c0-0.5,0.1-0.9,0.4-1.2s0.7-0.4,1.2-0.4c0.5,0,0.9,0.1,1.2,0.4c0.3,0.3,0.4,0.7,0.4,1.2
		c0,0.5-0.1,0.9-0.4,1.1c-0.3,0.3-0.7,0.4-1.2,0.4c-0.5,0-0.9-0.1-1.2-0.4S681.4,217.9,681.4,217.4z M684.4,234.4h-2.9V221h2.9
		V234.4z"/>
	<path class="st2" d="M699.8,234.4H697v-8.3c0-1-0.2-1.8-0.6-2.3c-0.4-0.5-1-0.8-1.8-0.8c-1.1,0-1.9,0.4-2.4,1.1
		c-0.5,0.7-0.8,1.9-0.8,3.6v6.7h-2.9V221h2.2l0.4,1.8h0.1c0.4-0.6,0.9-1.1,1.6-1.5s1.5-0.5,2.3-0.5c2.1,0,3.4,0.7,4.1,2.1h0.2
		c0.4-0.7,1-1.2,1.7-1.6c0.7-0.4,1.5-0.6,2.5-0.6c1.6,0,2.8,0.4,3.5,1.2c0.7,0.8,1.1,2,1.1,3.7v8.8h-2.9v-8.3c0-1-0.2-1.8-0.6-2.3
		c-0.4-0.5-1-0.8-1.8-0.8c-1.1,0-1.9,0.3-2.4,1c-0.5,0.7-0.8,1.8-0.8,3.2V234.4z"/>
	<path class="st2" d="M720.7,234.4l-0.6-1.9H720c-0.6,0.8-1.3,1.4-2,1.7c-0.7,0.3-1.5,0.4-2.5,0.4c-1.3,0-2.4-0.4-3.1-1.1
		s-1.1-1.7-1.1-3c0-1.4,0.5-2.4,1.5-3.1c1-0.7,2.6-1.1,4.7-1.2l2.3-0.1v-0.7c0-0.9-0.2-1.5-0.6-1.9c-0.4-0.4-1-0.6-1.9-0.6
		c-0.7,0-1.3,0.1-2,0.3c-0.6,0.2-1.2,0.4-1.8,0.7l-0.9-2c0.7-0.4,1.5-0.7,2.4-0.9c0.9-0.2,1.7-0.3,2.5-0.3c1.7,0,3,0.4,3.9,1.1
		c0.9,0.7,1.3,1.9,1.3,3.5v9.1H720.7z M716.5,232.5c1,0,1.9-0.3,2.5-0.9c0.6-0.6,0.9-1.4,0.9-2.4V228l-1.7,0.1
		c-1.3,0-2.3,0.3-2.9,0.7c-0.6,0.4-0.9,1-0.9,1.8c0,0.6,0.2,1.1,0.5,1.4S715.7,232.5,716.5,232.5z"/>
	<path class="st2" d="M737.7,234.7c-1.7,0-3-0.6-3.9-1.8c-0.9-1.2-1.4-2.9-1.4-5.1c0-2.2,0.5-3.9,1.4-5.1c1-1.2,2.3-1.8,4-1.8
		c1.8,0,3.1,0.7,4,2h0.1c-0.1-1-0.2-1.7-0.2-2.3v-4.9h2.9v18.9h-2.2l-0.5-1.8h-0.1C740.8,234,739.5,234.7,737.7,234.7z M738.5,232.3
		c1.2,0,2-0.3,2.6-1c0.5-0.7,0.8-1.7,0.8-3.2v-0.4c0-1.7-0.3-2.9-0.8-3.6c-0.6-0.7-1.4-1.1-2.6-1.1c-1,0-1.8,0.4-2.3,1.2
		c-0.5,0.8-0.8,2-0.8,3.5c0,1.5,0.3,2.6,0.8,3.4C736.7,232,737.4,232.3,738.5,232.3z"/>
	<path class="st2" d="M757.1,234.4l-0.6-1.9h-0.1c-0.6,0.8-1.3,1.4-2,1.7c-0.7,0.3-1.5,0.4-2.5,0.4c-1.3,0-2.4-0.4-3.1-1.1
		s-1.1-1.7-1.1-3c0-1.4,0.5-2.4,1.5-3.1c1-0.7,2.6-1.1,4.7-1.2l2.3-0.1v-0.7c0-0.9-0.2-1.5-0.6-1.9c-0.4-0.4-1-0.6-1.9-0.6
		c-0.7,0-1.3,0.1-2,0.3c-0.6,0.2-1.2,0.4-1.8,0.7l-0.9-2c0.7-0.4,1.5-0.7,2.4-0.9c0.9-0.2,1.7-0.3,2.5-0.3c1.7,0,3,0.4,3.9,1.1
		c0.9,0.7,1.3,1.9,1.3,3.5v9.1H757.1z M752.9,232.5c1,0,1.9-0.3,2.5-0.9c0.6-0.6,0.9-1.4,0.9-2.4V228l-1.7,0.1
		c-1.3,0-2.3,0.3-2.9,0.7c-0.6,0.4-0.9,1-0.9,1.8c0,0.6,0.2,1.1,0.5,1.4S752.1,232.5,752.9,232.5z"/>
	<path class="st2" d="M772.2,230.6c0,1.3-0.5,2.3-1.4,3s-2.3,1.1-4.1,1.1c-1.8,0-3.2-0.3-4.3-0.8v-2.5c1.6,0.7,3.1,1.1,4.4,1.1
		c1.8,0,2.6-0.5,2.6-1.6c0-0.3-0.1-0.6-0.3-0.9c-0.2-0.2-0.5-0.5-1-0.7s-1.1-0.5-1.9-0.8c-1.5-0.6-2.6-1.2-3.1-1.8s-0.8-1.4-0.8-2.3
		c0-1.2,0.5-2,1.4-2.7c0.9-0.6,2.2-1,3.8-1c1.6,0,3.1,0.3,4.5,1l-0.9,2.2c-1.5-0.6-2.7-0.9-3.7-0.9c-1.5,0-2.3,0.4-2.3,1.3
		c0,0.4,0.2,0.8,0.6,1.1c0.4,0.3,1.2,0.7,2.6,1.2c1.1,0.4,1.9,0.8,2.4,1.2c0.5,0.4,0.9,0.8,1.1,1.2S772.2,229.9,772.2,230.6z"/>
	<path class="st2" d="M790.8,230.6c0,1.3-0.5,2.3-1.4,3s-2.3,1.1-4.1,1.1c-1.8,0-3.2-0.3-4.3-0.8v-2.5c1.6,0.7,3.1,1.1,4.4,1.1
		c1.8,0,2.6-0.5,2.6-1.6c0-0.3-0.1-0.6-0.3-0.9c-0.2-0.2-0.5-0.5-1-0.7s-1.1-0.5-1.9-0.8c-1.5-0.6-2.6-1.2-3.1-1.8s-0.8-1.4-0.8-2.3
		c0-1.2,0.5-2,1.4-2.7c0.9-0.6,2.2-1,3.8-1c1.6,0,3.1,0.3,4.5,1l-0.9,2.2c-1.5-0.6-2.7-0.9-3.7-0.9c-1.5,0-2.3,0.4-2.3,1.3
		c0,0.4,0.2,0.8,0.6,1.1c0.4,0.3,1.2,0.7,2.6,1.2c1.1,0.4,1.9,0.8,2.4,1.2c0.5,0.4,0.9,0.8,1.1,1.2S790.8,229.9,790.8,230.6z"/>
	<path class="st2" d="M805.8,227.7c0,2.2-0.6,3.9-1.7,5.1c-1.1,1.2-2.7,1.8-4.7,1.8c-1.3,0-2.4-0.3-3.3-0.9c-1-0.6-1.7-1.4-2.2-2.4
		c-0.5-1.1-0.8-2.3-0.8-3.7c0-2.2,0.6-3.9,1.7-5.1c1.1-1.2,2.7-1.8,4.7-1.8c1.9,0,3.5,0.6,4.6,1.9
		C805.2,223.9,805.8,225.5,805.8,227.7z M796,227.7c0,3.1,1.1,4.7,3.4,4.7c2.3,0,3.4-1.6,3.4-4.7c0-3.1-1.1-4.6-3.4-4.6
		c-1.2,0-2.1,0.4-2.6,1.2C796.2,225,796,226.2,796,227.7z"/>
	<path class="st2" d="M815.9,220.7c1.7,0,3,0.6,3.9,1.8s1.4,2.9,1.4,5.1c0,2.2-0.5,3.9-1.4,5.1c-0.9,1.2-2.3,1.8-3.9,1.8
		c-1.7,0-3-0.6-4-1.8h-0.2l-0.5,1.6H809v-18.9h2.9v4.5c0,0.3,0,0.8,0,1.5s-0.1,1.1-0.1,1.3h0.1C812.8,221.4,814.1,220.7,815.9,220.7
		z M815.2,223.1c-1.2,0-2,0.3-2.5,1c-0.5,0.7-0.8,1.8-0.8,3.4v0.2c0,1.6,0.3,2.8,0.8,3.6s1.4,1.1,2.5,1.1c1,0,1.8-0.4,2.3-1.2
		c0.5-0.8,0.8-2,0.8-3.5C818.3,224.6,817.3,223.1,815.2,223.1z"/>
	<path class="st2" d="M831.4,220.7c0.6,0,1,0,1.4,0.1l-0.3,2.7c-0.4-0.1-0.8-0.1-1.3-0.1c-1.1,0-2.1,0.4-2.8,1.1
		c-0.7,0.7-1.1,1.7-1.1,2.9v7h-2.9V221h2.2l0.4,2.4h0.1c0.4-0.8,1-1.4,1.7-1.9C829.8,221,830.5,220.7,831.4,220.7z"/>
	<path class="st2" d="M843.7,234.4l-0.6-1.9H843c-0.6,0.8-1.3,1.4-2,1.7c-0.7,0.3-1.5,0.4-2.5,0.4c-1.3,0-2.4-0.4-3.1-1.1
		s-1.1-1.7-1.1-3c0-1.4,0.5-2.4,1.5-3.1c1-0.7,2.6-1.1,4.7-1.2l2.3-0.1v-0.7c0-0.9-0.2-1.5-0.6-1.9c-0.4-0.4-1-0.6-1.9-0.6
		c-0.7,0-1.3,0.1-2,0.3c-0.6,0.2-1.2,0.4-1.8,0.7l-0.9-2c0.7-0.4,1.5-0.7,2.4-0.9c0.9-0.2,1.7-0.3,2.5-0.3c1.7,0,3,0.4,3.9,1.1
		c0.9,0.7,1.3,1.9,1.3,3.5v9.1H843.7z M839.4,232.5c1,0,1.9-0.3,2.5-0.9c0.6-0.6,0.9-1.4,0.9-2.4V228l-1.7,0.1
		c-1.3,0-2.3,0.3-2.9,0.7c-0.6,0.4-0.9,1-0.9,1.8c0,0.6,0.2,1.1,0.5,1.4S838.7,232.5,839.4,232.5z"/>
	<path class="st2" d="M861.5,234.4h-2.9v-8.3c0-1-0.2-1.8-0.6-2.3s-1.1-0.8-2-0.8c-1.2,0-2.1,0.4-2.6,1.1c-0.6,0.7-0.8,1.9-0.8,3.6
		v6.7h-2.9V221h2.2l0.4,1.8h0.1c0.4-0.6,1-1.1,1.7-1.5c0.7-0.3,1.6-0.5,2.5-0.5c3.2,0,4.8,1.6,4.8,4.9V234.4z"/>
	<path class="st2" d="M870.9,234.7c-2,0-3.6-0.6-4.6-1.8c-1.1-1.2-1.6-2.9-1.6-5.1c0-2.3,0.6-4,1.7-5.2s2.7-1.8,4.8-1.8
		c1.4,0,2.7,0.3,3.8,0.8l-0.9,2.3c-1.2-0.5-2.2-0.7-3-0.7c-2.3,0-3.5,1.5-3.5,4.6c0,1.5,0.3,2.6,0.9,3.4c0.6,0.8,1.4,1.1,2.5,1.1
		c1.3,0,2.5-0.3,3.6-0.9v2.5c-0.5,0.3-1.1,0.5-1.6,0.6C872.5,234.6,871.8,234.7,870.9,234.7z"/>
	<path class="st2" d="M883.7,234.7c-2.1,0-3.7-0.6-4.9-1.8s-1.8-2.9-1.8-5c0-2.2,0.5-3.9,1.6-5.2c1.1-1.3,2.6-1.9,4.5-1.9
		c1.8,0,3.2,0.5,4.2,1.6c1,1.1,1.5,2.6,1.5,4.4v1.5h-9c0,1.3,0.4,2.3,1.1,3c0.7,0.7,1.6,1.1,2.8,1.1c0.8,0,1.5-0.1,2.2-0.2
		s1.4-0.4,2.2-0.7v2.3c-0.7,0.3-1.4,0.6-2.1,0.7S884.6,234.7,883.7,234.7z M883.2,222.9c-0.9,0-1.6,0.3-2.2,0.9s-0.9,1.4-1,2.5h6.1
		c0-1.1-0.3-2-0.8-2.5C884.8,223.2,884.1,222.9,883.2,222.9z"/>
	<path class="st2" d="M895,234.4h-2.9v-18.9h2.9V234.4z"/>
	<path class="st2" d="M910.9,234.4h-2.9v-8.3c0-1-0.2-1.8-0.6-2.3s-1.1-0.8-2-0.8c-1.2,0-2.1,0.4-2.6,1.1c-0.6,0.7-0.8,1.9-0.8,3.6
		v6.7h-2.9v-18.9h2.9v4.8c0,0.8,0,1.6-0.1,2.5h0.2c0.4-0.6,0.9-1.2,1.6-1.5c0.7-0.4,1.5-0.5,2.4-0.5c3.3,0,4.9,1.6,4.9,4.9V234.4z"
		/>
	<path class="st2" d="M923.3,234.4l-0.6-1.9h-0.1c-0.6,0.8-1.3,1.4-2,1.7c-0.7,0.3-1.5,0.4-2.5,0.4c-1.3,0-2.4-0.4-3.1-1.1
		s-1.1-1.7-1.1-3c0-1.4,0.5-2.4,1.5-3.1c1-0.7,2.6-1.1,4.7-1.2l2.3-0.1v-0.7c0-0.9-0.2-1.5-0.6-1.9c-0.4-0.4-1-0.6-1.9-0.6
		c-0.7,0-1.3,0.1-2,0.3c-0.6,0.2-1.2,0.4-1.8,0.7l-0.9-2c0.7-0.4,1.5-0.7,2.4-0.9c0.9-0.2,1.7-0.3,2.5-0.3c1.7,0,3,0.4,3.9,1.1
		c0.9,0.7,1.3,1.9,1.3,3.5v9.1H923.3z M919.1,232.5c1,0,1.9-0.3,2.5-0.9c0.6-0.6,0.9-1.4,0.9-2.4V228l-1.7,0.1
		c-1.3,0-2.3,0.3-2.9,0.7c-0.6,0.4-0.9,1-0.9,1.8c0,0.6,0.2,1.1,0.5,1.4S918.4,232.5,919.1,232.5z"/>
	<path class="st2" d="M938.4,230.6c0,1.3-0.5,2.3-1.4,3s-2.3,1.1-4.1,1.1c-1.8,0-3.2-0.3-4.3-0.8v-2.5c1.6,0.7,3.1,1.1,4.4,1.1
		c1.8,0,2.6-0.5,2.6-1.6c0-0.3-0.1-0.6-0.3-0.9c-0.2-0.2-0.5-0.5-1-0.7s-1.1-0.5-1.9-0.8c-1.5-0.6-2.6-1.2-3.1-1.8s-0.8-1.4-0.8-2.3
		c0-1.2,0.5-2,1.4-2.7c0.9-0.6,2.2-1,3.8-1c1.6,0,3.1,0.3,4.5,1l-0.9,2.2c-1.5-0.6-2.7-0.9-3.7-0.9c-1.5,0-2.3,0.4-2.3,1.3
		c0,0.4,0.2,0.8,0.6,1.1c0.4,0.3,1.2,0.7,2.6,1.2c1.1,0.4,1.9,0.8,2.4,1.2c0.5,0.4,0.9,0.8,1.1,1.2S938.4,229.9,938.4,230.6z"/>
	<path class="st2" d="M953.8,234.7c-2.1,0-3.7-0.6-4.9-1.8s-1.8-2.9-1.8-5c0-2.2,0.5-3.9,1.6-5.2c1.1-1.3,2.6-1.9,4.5-1.9
		c1.8,0,3.2,0.5,4.2,1.6c1,1.1,1.5,2.6,1.5,4.4v1.5h-9c0,1.3,0.4,2.3,1.1,3c0.7,0.7,1.6,1.1,2.8,1.1c0.8,0,1.5-0.1,2.2-0.2
		s1.4-0.4,2.2-0.7v2.3c-0.7,0.3-1.4,0.6-2.1,0.7S954.7,234.7,953.8,234.7z M953.3,222.9c-0.9,0-1.6,0.3-2.2,0.9s-0.9,1.4-1,2.5h6.1
		c0-1.1-0.3-2-0.8-2.5C954.9,223.2,954.2,222.9,953.3,222.9z"/>
	<path class="st2" d="M473.8,272.2c-1.7,0-3-0.6-3.9-1.8c-0.9-1.2-1.4-2.9-1.4-5.1c0-2.2,0.5-3.9,1.4-5.1c1-1.2,2.3-1.8,4-1.8
		c1.8,0,3.1,0.7,4,2h0.1c-0.1-1-0.2-1.7-0.2-2.3v-4.9h2.9V272h-2.2l-0.5-1.8h-0.1C476.9,271.6,475.5,272.2,473.8,272.2z
		 M474.5,269.9c1.2,0,2-0.3,2.6-1c0.5-0.7,0.8-1.7,0.8-3.2v-0.4c0-1.7-0.3-2.9-0.8-3.6s-1.4-1.1-2.6-1.1c-1,0-1.8,0.4-2.3,1.2
		c-0.5,0.8-0.8,2-0.8,3.5c0,1.5,0.3,2.6,0.8,3.4C472.7,269.5,473.5,269.9,474.5,269.9z"/>
	<path class="st2" d="M493.2,272l-0.6-1.9h-0.1c-0.6,0.8-1.3,1.4-2,1.7c-0.7,0.3-1.5,0.4-2.5,0.4c-1.3,0-2.4-0.4-3.1-1.1
		s-1.1-1.7-1.1-3c0-1.4,0.5-2.4,1.5-3.1c1-0.7,2.6-1.1,4.7-1.2l2.3-0.1v-0.7c0-0.9-0.2-1.5-0.6-1.9c-0.4-0.4-1-0.6-1.9-0.6
		c-0.7,0-1.3,0.1-2,0.3c-0.6,0.2-1.2,0.4-1.8,0.7l-0.9-2c0.7-0.4,1.5-0.7,2.4-0.9c0.9-0.2,1.7-0.3,2.5-0.3c1.7,0,3,0.4,3.9,1.1
		c0.9,0.7,1.3,1.9,1.3,3.5v9.1H493.2z M488.9,270c1,0,1.9-0.3,2.5-0.9s0.9-1.4,0.9-2.4v-1.2l-1.7,0.1c-1.3,0-2.3,0.3-2.9,0.7
		c-0.6,0.4-0.9,1-0.9,1.8c0,0.6,0.2,1.1,0.5,1.4S488.2,270,488.9,270z"/>
	<path class="st2" d="M508.2,268.2c0,1.3-0.5,2.3-1.4,3c-1,0.7-2.3,1.1-4.1,1.1c-1.8,0-3.2-0.3-4.3-0.8V269c1.6,0.7,3.1,1.1,4.4,1.1
		c1.8,0,2.6-0.5,2.6-1.6c0-0.3-0.1-0.6-0.3-0.9c-0.2-0.2-0.5-0.5-1-0.7s-1.1-0.5-1.9-0.8c-1.5-0.6-2.6-1.2-3.1-1.8s-0.8-1.4-0.8-2.3
		c0-1.2,0.5-2,1.4-2.7c0.9-0.6,2.2-1,3.8-1c1.6,0,3.1,0.3,4.5,1l-0.9,2.2c-1.5-0.6-2.7-0.9-3.7-0.9c-1.5,0-2.3,0.4-2.3,1.3
		c0,0.4,0.2,0.8,0.6,1.1c0.4,0.3,1.2,0.7,2.6,1.2c1.1,0.4,1.9,0.8,2.4,1.2c0.5,0.4,0.9,0.8,1.1,1.2S508.2,267.5,508.2,268.2z"/>
	<path class="st2" d="M529.7,265.2c0,2.2-0.6,3.9-1.7,5.1c-1.1,1.2-2.7,1.8-4.7,1.8c-1.3,0-2.4-0.3-3.3-0.9s-1.7-1.4-2.2-2.4
		c-0.5-1.1-0.8-2.3-0.8-3.7c0-2.2,0.6-3.9,1.7-5.1c1.1-1.2,2.7-1.8,4.7-1.8c1.9,0,3.5,0.6,4.6,1.9
		C529.1,261.4,529.7,263.1,529.7,265.2z M519.9,265.2c0,3.1,1.1,4.7,3.4,4.7c2.3,0,3.4-1.6,3.4-4.7c0-3.1-1.1-4.6-3.4-4.6
		c-1.2,0-2.1,0.4-2.6,1.2C520.2,262.6,519.9,263.8,519.9,265.2z"/>
	<path class="st2" d="M539.8,258.3c0.6,0,1,0,1.4,0.1l-0.3,2.7c-0.4-0.1-0.8-0.1-1.3-0.1c-1.1,0-2.1,0.4-2.8,1.1s-1.1,1.7-1.1,2.9v7
		H533v-13.4h2.2l0.4,2.4h0.1c0.4-0.8,1-1.4,1.7-1.9S539,258.3,539.8,258.3z"/>
	<path class="st2" d="M549.6,272.2c-2.1,0-3.7-0.6-4.9-1.8c-1.2-1.2-1.8-2.9-1.8-5c0-2.2,0.5-3.9,1.6-5.2s2.6-1.9,4.5-1.9
		c1.8,0,3.2,0.5,4.2,1.6c1,1.1,1.5,2.6,1.5,4.4v1.5h-9c0,1.3,0.4,2.3,1.1,3c0.7,0.7,1.6,1.1,2.8,1.1c0.8,0,1.5-0.1,2.2-0.2
		c0.7-0.1,1.4-0.4,2.2-0.7v2.3c-0.7,0.3-1.4,0.6-2.1,0.7S550.5,272.2,549.6,272.2z M549.1,260.5c-0.9,0-1.6,0.3-2.2,0.9
		c-0.5,0.6-0.9,1.4-1,2.5h6.1c0-1.1-0.3-2-0.8-2.5S550,260.5,549.1,260.5z"/>
	<path class="st2" d="M560.9,272H558v-18.9h2.9V272z"/>
	<path class="st2" d="M576.8,272h-2.9v-8.3c0-1-0.2-1.8-0.6-2.3s-1.1-0.8-2-0.8c-1.2,0-2.1,0.4-2.6,1.1c-0.6,0.7-0.8,1.9-0.8,3.6
		v6.7H565v-18.9h2.9v4.8c0,0.8,0,1.6-0.1,2.5h0.2c0.4-0.6,0.9-1.1,1.6-1.5c0.7-0.4,1.5-0.5,2.4-0.5c3.3,0,4.9,1.6,4.9,4.9V272z"/>
	<path class="st2" d="M589.2,272l-0.6-1.9h-0.1c-0.6,0.8-1.3,1.4-2,1.7c-0.7,0.3-1.5,0.4-2.5,0.4c-1.3,0-2.4-0.4-3.1-1.1
		s-1.1-1.7-1.1-3c0-1.4,0.5-2.4,1.5-3.1c1-0.7,2.6-1.1,4.7-1.2l2.3-0.1v-0.7c0-0.9-0.2-1.5-0.6-1.9c-0.4-0.4-1-0.6-1.9-0.6
		c-0.7,0-1.3,0.1-2,0.3c-0.6,0.2-1.2,0.4-1.8,0.7l-0.9-2c0.7-0.4,1.5-0.7,2.4-0.9c0.9-0.2,1.7-0.3,2.5-0.3c1.7,0,3,0.4,3.9,1.1
		c0.9,0.7,1.3,1.9,1.3,3.5v9.1H589.2z M584.9,270c1,0,1.9-0.3,2.5-0.9s0.9-1.4,0.9-2.4v-1.2l-1.7,0.1c-1.3,0-2.3,0.3-2.9,0.7
		c-0.6,0.4-0.9,1-0.9,1.8c0,0.6,0.2,1.1,0.5,1.4S584.2,270,584.9,270z"/>
	<path class="st2" d="M604.2,268.2c0,1.3-0.5,2.3-1.4,3c-1,0.7-2.3,1.1-4.1,1.1c-1.8,0-3.2-0.3-4.3-0.8V269c1.6,0.7,3.1,1.1,4.4,1.1
		c1.8,0,2.6-0.5,2.6-1.6c0-0.3-0.1-0.6-0.3-0.9c-0.2-0.2-0.5-0.5-1-0.7s-1.1-0.5-1.9-0.8c-1.5-0.6-2.6-1.2-3.1-1.8s-0.8-1.4-0.8-2.3
		c0-1.2,0.5-2,1.4-2.7c0.9-0.6,2.2-1,3.8-1c1.6,0,3.1,0.3,4.5,1l-0.9,2.2c-1.5-0.6-2.7-0.9-3.7-0.9c-1.5,0-2.3,0.4-2.3,1.3
		c0,0.4,0.2,0.8,0.6,1.1c0.4,0.3,1.2,0.7,2.6,1.2c1.1,0.4,1.9,0.8,2.4,1.2c0.5,0.4,0.9,0.8,1.1,1.2S604.2,267.5,604.2,268.2z"/>
	<path class="st2" d="M606.9,270.5c0-0.6,0.2-1,0.5-1.4c0.3-0.3,0.8-0.5,1.3-0.5c0.6,0,1,0.2,1.3,0.5s0.5,0.8,0.5,1.3
		c0,0.6-0.2,1-0.5,1.4c-0.3,0.3-0.8,0.5-1.3,0.5s-1-0.2-1.3-0.5S606.9,271.1,606.9,270.5z"/>
	<path class="st2" d="M481.4,347.2l-1.4-4.6h-7l-1.4,4.6h-4.4l6.8-19.3h5l6.8,19.3H481.4z M479,339.2c-1.3-4.1-2-6.5-2.2-7
		c-0.2-0.5-0.3-1-0.3-1.3c-0.3,1.1-1.1,3.9-2.5,8.3H479z"/>
	<path class="st2" d="M501.4,347.2h-4v-8.6c0-1.1-0.2-1.9-0.6-2.4c-0.4-0.5-1-0.8-1.8-0.8c-1.1,0-1.9,0.4-2.4,1.1
		c-0.5,0.7-0.7,2-0.7,3.7v6.9h-4v-14.7h3.1l0.5,1.9h0.2c0.4-0.7,1.1-1.2,1.8-1.6c0.8-0.4,1.7-0.5,2.7-0.5c1.7,0,3,0.5,3.9,1.4
		c0.9,0.9,1.3,2.3,1.3,4V347.2z"/>
	<path class="st2" d="M518.8,339.8c0,2.4-0.6,4.3-1.9,5.6c-1.3,1.3-3,2-5.3,2c-1.4,0-2.7-0.3-3.7-0.9c-1.1-0.6-1.9-1.5-2.5-2.7
		s-0.9-2.5-0.9-4c0-2.4,0.6-4.3,1.9-5.6c1.3-1.3,3-2,5.3-2c1.4,0,2.6,0.3,3.7,0.9s1.9,1.5,2.5,2.6S518.8,338.3,518.8,339.8z
		 M508.7,339.8c0,1.5,0.2,2.5,0.7,3.3c0.5,0.7,1.3,1.1,2.3,1.1c1.1,0,1.8-0.4,2.3-1.1c0.5-0.7,0.7-1.8,0.7-3.3
		c0-1.5-0.2-2.5-0.7-3.3c-0.5-0.7-1.2-1.1-2.3-1.1c-1.1,0-1.8,0.4-2.3,1.1C508.9,337.3,508.7,338.3,508.7,339.8z"/>
	<path class="st2" d="M528.3,344.2c0.7,0,1.5-0.2,2.5-0.5v3c-1,0.4-2.2,0.7-3.7,0.7c-1.6,0-2.8-0.4-3.5-1.2c-0.7-0.8-1.1-2-1.1-3.6
		v-7.1h-1.9v-1.7l2.2-1.3l1.2-3.1h2.6v3.1h4.1v3h-4.1v7.1c0,0.6,0.2,1,0.5,1.3C527.4,344.1,527.8,344.2,528.3,344.2z"/>
	<path class="st2" d="M540.4,347.4c-2.4,0-4.2-0.7-5.5-2c-1.3-1.3-2-3.1-2-5.5c0-2.5,0.6-4.4,1.8-5.7c1.2-1.3,2.9-2,5.1-2
		c2.1,0,3.7,0.6,4.8,1.8s1.7,2.8,1.7,4.9v1.9H537c0,1.1,0.4,2,1,2.7c0.6,0.6,1.5,1,2.6,1c0.9,0,1.7-0.1,2.5-0.3s1.6-0.5,2.5-0.9v3.1
		c-0.7,0.4-1.4,0.6-2.2,0.8C542.6,347.3,541.6,347.4,540.4,347.4z M539.9,335.1c-0.8,0-1.5,0.3-2,0.8c-0.5,0.5-0.8,1.3-0.8,2.3h5.6
		c0-1-0.3-1.8-0.8-2.3C541.4,335.3,540.7,335.1,539.9,335.1z"/>
	<path class="st2" d="M566,347.2l-0.8-2h-0.1c-0.7,0.8-1.4,1.4-2.1,1.8s-1.6,0.5-2.8,0.5c-1.4,0-2.5-0.4-3.3-1.2s-1.2-2-1.2-3.4
		c0-1.6,0.5-2.7,1.6-3.4c1.1-0.7,2.7-1.1,4.9-1.2l2.5-0.1v-0.6c0-1.5-0.8-2.2-2.3-2.2c-1.2,0-2.5,0.4-4.1,1.1l-1.3-2.7
		c1.7-0.9,3.6-1.3,5.6-1.3c2,0,3.5,0.4,4.5,1.3c1,0.9,1.6,2.2,1.6,3.9v9.8H566z M564.8,340.4l-1.5,0.1c-1.2,0-2,0.2-2.6,0.6
		c-0.6,0.4-0.9,1-0.9,1.8c0,1.1,0.6,1.7,1.9,1.7c0.9,0,1.7-0.3,2.2-0.8c0.6-0.5,0.8-1.2,0.8-2.1V340.4z"/>
	<path class="st2" d="M593,347.2h-4v-8.6c0-1.1-0.2-1.9-0.5-2.4c-0.4-0.5-0.9-0.8-1.7-0.8c-1,0-1.8,0.4-2.2,1.1
		c-0.5,0.8-0.7,2-0.7,3.7v6.9h-4v-14.7h3.1l0.5,1.9h0.2c0.4-0.7,1-1.2,1.7-1.6c0.7-0.4,1.6-0.6,2.6-0.6c2.2,0,3.7,0.7,4.5,2.2h0.4
		c0.4-0.7,1-1.2,1.7-1.6c0.8-0.4,1.6-0.6,2.6-0.6c1.7,0,2.9,0.4,3.8,1.3s1.3,2.2,1.3,4.1v9.6h-4v-8.6c0-1.1-0.2-1.9-0.5-2.4
		s-0.9-0.8-1.7-0.8c-1,0-1.7,0.4-2.2,1c-0.5,0.7-0.7,1.8-0.7,3.3V347.2z"/>
	<path class="st2" d="M612.9,347.4c-2.4,0-4.2-0.7-5.5-2c-1.3-1.3-2-3.1-2-5.5c0-2.5,0.6-4.4,1.8-5.7c1.2-1.3,2.9-2,5.1-2
		c2.1,0,3.7,0.6,4.8,1.8s1.7,2.8,1.7,4.9v1.9h-9.5c0,1.1,0.4,2,1,2.7c0.6,0.6,1.5,1,2.6,1c0.9,0,1.7-0.1,2.5-0.3s1.6-0.5,2.5-0.9
		v3.1c-0.7,0.4-1.4,0.6-2.2,0.8C615,347.3,614,347.4,612.9,347.4z M612.3,335.1c-0.8,0-1.5,0.3-2,0.8c-0.5,0.5-0.8,1.3-0.8,2.3h5.6
		c0-1-0.3-1.8-0.8-2.3C613.8,335.3,613.2,335.1,612.3,335.1z"/>
	<path class="st2" d="M626.8,347.4c-1.7,0-3.1-0.7-4.1-2c-1-1.3-1.5-3.2-1.5-5.6c0-2.4,0.5-4.3,1.5-5.6c1-1.3,2.4-2,4.1-2
		c1.8,0,3.3,0.7,4.2,2.2h0.1c-0.2-1.1-0.3-2.1-0.3-2.9v-4.7h4v20.4h-3.1l-0.8-1.9h-0.2C630,346.7,628.6,347.4,626.8,347.4z
		 M628.2,344.2c1,0,1.8-0.3,2.2-0.9c0.5-0.6,0.7-1.6,0.8-3v-0.4c0-1.6-0.2-2.7-0.7-3.4c-0.5-0.7-1.3-1-2.4-1c-0.9,0-1.6,0.4-2.1,1.1
		s-0.7,1.9-0.7,3.3s0.2,2.5,0.7,3.2C626.5,343.9,627.2,344.2,628.2,344.2z"/>
	<path class="st2" d="M639,328.7c0-1.3,0.7-2,2.2-2s2.2,0.7,2.2,2c0,0.6-0.2,1.1-0.5,1.4c-0.4,0.3-0.9,0.5-1.6,0.5
		C639.7,330.7,639,330,639,328.7z M643.1,347.2h-4v-14.7h4V347.2z"/>
	<path class="st2" d="M652,347.4c-1.7,0-3.1-0.7-4.1-2c-1-1.3-1.5-3.2-1.5-5.6c0-2.4,0.5-4.3,1.5-5.6c1-1.3,2.4-2,4.1-2
		c1.8,0,3.3,0.7,4.2,2.2h0.1c-0.2-1.1-0.3-2.1-0.3-2.9v-4.7h4v20.4h-3.1l-0.8-1.9h-0.2C655.2,346.7,653.8,347.4,652,347.4z
		 M653.4,344.2c1,0,1.8-0.3,2.2-0.9c0.5-0.6,0.7-1.6,0.8-3v-0.4c0-1.6-0.2-2.7-0.7-3.4c-0.5-0.7-1.3-1-2.4-1c-0.9,0-1.6,0.4-2.1,1.1
		s-0.7,1.9-0.7,3.3s0.2,2.5,0.7,3.2C651.7,343.9,652.4,344.2,653.4,344.2z"/>
	<path class="st2" d="M673.6,347.2l-0.8-2h-0.1c-0.7,0.8-1.4,1.4-2.1,1.8s-1.6,0.5-2.8,0.5c-1.4,0-2.5-0.4-3.3-1.2s-1.2-2-1.2-3.4
		c0-1.6,0.5-2.7,1.6-3.4c1.1-0.7,2.7-1.1,4.9-1.2l2.5-0.1v-0.6c0-1.5-0.8-2.2-2.3-2.2c-1.2,0-2.5,0.4-4.1,1.1l-1.3-2.7
		c1.7-0.9,3.6-1.3,5.6-1.3c2,0,3.5,0.4,4.5,1.3c1,0.9,1.6,2.2,1.6,3.9v9.8H673.6z M672.5,340.4l-1.5,0.1c-1.2,0-2,0.2-2.6,0.6
		c-0.6,0.4-0.9,1-0.9,1.8c0,1.1,0.6,1.7,1.9,1.7c0.9,0,1.7-0.3,2.2-0.8c0.6-0.5,0.8-1.2,0.8-2.1V340.4z"/>
	<path class="st2" d="M694.2,347.4c-2.4,0-4.2-0.7-5.5-2c-1.3-1.3-2-3.1-2-5.5c0-2.5,0.6-4.4,1.8-5.7c1.2-1.3,2.9-2,5.1-2
		c2.1,0,3.7,0.6,4.8,1.8s1.7,2.8,1.7,4.9v1.9h-9.5c0,1.1,0.4,2,1,2.7c0.6,0.6,1.5,1,2.6,1c0.9,0,1.7-0.1,2.5-0.3s1.6-0.5,2.5-0.9
		v3.1c-0.7,0.4-1.4,0.6-2.2,0.8C696.3,347.3,695.3,347.4,694.2,347.4z M693.6,335.1c-0.8,0-1.5,0.3-2,0.8c-0.5,0.5-0.8,1.3-0.8,2.3
		h5.6c0-1-0.3-1.8-0.8-2.3C695.1,335.3,694.5,335.1,693.6,335.1z"/>
	<path class="st2" d="M716.3,347.4c-4.6,0-6.8-2.5-6.8-7.5c0-2.5,0.6-4.4,1.9-5.7c1.2-1.3,3-2,5.3-2c1.7,0,3.2,0.3,4.6,1l-1.2,3.1
		c-0.6-0.3-1.2-0.5-1.8-0.6c-0.5-0.2-1.1-0.2-1.6-0.2c-2.1,0-3.1,1.5-3.1,4.4c0,2.9,1,4.3,3.1,4.3c0.8,0,1.5-0.1,2.1-0.3
		c0.7-0.2,1.3-0.5,2-1v3.4c-0.6,0.4-1.3,0.7-2,0.9S717.4,347.4,716.3,347.4z"/>
	<path class="st2" d="M737.5,339.8c0,2.4-0.6,4.3-1.9,5.6c-1.3,1.3-3,2-5.3,2c-1.4,0-2.7-0.3-3.7-0.9c-1.1-0.6-1.9-1.5-2.5-2.7
		s-0.9-2.5-0.9-4c0-2.4,0.6-4.3,1.9-5.6c1.3-1.3,3-2,5.3-2c1.4,0,2.6,0.3,3.7,0.9s1.9,1.5,2.5,2.6S737.5,338.3,737.5,339.8z
		 M727.4,339.8c0,1.5,0.2,2.5,0.7,3.3c0.5,0.7,1.3,1.1,2.3,1.1c1.1,0,1.8-0.4,2.3-1.1c0.5-0.7,0.7-1.8,0.7-3.3
		c0-1.5-0.2-2.5-0.7-3.3c-0.5-0.7-1.2-1.1-2.3-1.1c-1.1,0-1.8,0.4-2.3,1.1C727.6,337.3,727.4,338.3,727.4,339.8z"/>
	<path class="st2" d="M754.4,347.2h-4v-8.6c0-1.1-0.2-1.9-0.6-2.4c-0.4-0.5-1-0.8-1.8-0.8c-1.1,0-1.9,0.4-2.4,1.1
		c-0.5,0.7-0.7,2-0.7,3.7v6.9h-4v-14.7h3.1l0.5,1.9h0.2c0.4-0.7,1.1-1.2,1.8-1.6c0.8-0.4,1.7-0.5,2.7-0.5c1.7,0,3,0.5,3.9,1.4
		c0.9,0.9,1.3,2.3,1.3,4V347.2z"/>
	<path class="st2" d="M766.6,335.5h-3.5v11.7h-4v-11.7h-2.2v-1.9l2.2-1.1v-1.1c0-1.7,0.4-2.9,1.2-3.7c0.8-0.8,2.1-1.2,3.9-1.2
		c1.4,0,2.6,0.2,3.7,0.6l-1,2.9c-0.8-0.3-1.5-0.4-2.2-0.4c-0.6,0-1,0.2-1.2,0.5s-0.4,0.8-0.4,1.3v0.9h3.5V335.5z M768.7,328.7
		c0-1.3,0.7-2,2.2-2c1.5,0,2.2,0.7,2.2,2c0,0.6-0.2,1.1-0.5,1.4c-0.4,0.3-0.9,0.5-1.6,0.5C769.5,330.7,768.7,330,768.7,328.7z
		 M772.9,347.2h-4v-14.7h4V347.2z"/>
	<path class="st2" d="M785.3,332.2c0.5,0,1,0,1.4,0.1l-0.3,3.8c-0.3-0.1-0.7-0.1-1.2-0.1c-1.3,0-2.3,0.3-3,1
		c-0.7,0.7-1.1,1.6-1.1,2.8v7.5h-4v-14.7h3l0.6,2.5h0.2c0.5-0.8,1.1-1.5,1.8-2C783.5,332.5,784.4,332.2,785.3,332.2z"/>
	<path class="st2" d="M798.6,347.2l-0.8-2h-0.1c-0.7,0.8-1.4,1.4-2.1,1.8s-1.6,0.5-2.8,0.5c-1.4,0-2.5-0.4-3.3-1.2s-1.2-2-1.2-3.4
		c0-1.6,0.5-2.7,1.6-3.4c1.1-0.7,2.7-1.1,4.9-1.2l2.5-0.1v-0.6c0-1.5-0.8-2.2-2.3-2.2c-1.2,0-2.5,0.4-4.1,1.1l-1.3-2.7
		c1.7-0.9,3.6-1.3,5.6-1.3c2,0,3.5,0.4,4.5,1.3c1,0.9,1.6,2.2,1.6,3.9v9.8H798.6z M797.4,340.4l-1.5,0.1c-1.2,0-2,0.2-2.6,0.6
		c-0.6,0.4-0.9,1-0.9,1.8c0,1.1,0.6,1.7,1.9,1.7c0.9,0,1.7-0.3,2.2-0.8c0.6-0.5,0.8-1.2,0.8-2.1V340.4z"/>
	<path class="st2" d="M821.8,347.2l-0.8-2h-0.1c-0.7,0.8-1.4,1.4-2.1,1.8s-1.6,0.5-2.8,0.5c-1.4,0-2.5-0.4-3.3-1.2s-1.2-2-1.2-3.4
		c0-1.6,0.5-2.7,1.6-3.4c1.1-0.7,2.7-1.1,4.9-1.2l2.5-0.1v-0.6c0-1.5-0.8-2.2-2.3-2.2c-1.2,0-2.5,0.4-4.1,1.1l-1.3-2.7
		c1.7-0.9,3.6-1.3,5.6-1.3c2,0,3.5,0.4,4.5,1.3c1,0.9,1.6,2.2,1.6,3.9v9.8H821.8z M820.6,340.4l-1.5,0.1c-1.2,0-2,0.2-2.6,0.6
		c-0.6,0.4-0.9,1-0.9,1.8c0,1.1,0.6,1.7,1.9,1.7c0.9,0,1.7-0.3,2.2-0.8c0.6-0.5,0.8-1.2,0.8-2.1V340.4z"/>
	<path class="st2" d="M843.4,347.2h-4.1v-15.8h-5.2V328h14.5v3.4h-5.2V347.2z"/>
	<path class="st2" d="M860.6,347.2l-0.8-2h-0.1c-0.7,0.8-1.4,1.4-2.1,1.8s-1.6,0.5-2.8,0.5c-1.4,0-2.5-0.4-3.3-1.2s-1.2-2-1.2-3.4
		c0-1.6,0.5-2.7,1.6-3.4c1.1-0.7,2.7-1.1,4.9-1.2l2.5-0.1v-0.6c0-1.5-0.8-2.2-2.3-2.2c-1.2,0-2.5,0.4-4.1,1.1l-1.3-2.7
		c1.7-0.9,3.6-1.3,5.6-1.3c2,0,3.5,0.4,4.5,1.3c1,0.9,1.6,2.2,1.6,3.9v9.8H860.6z M859.4,340.4l-1.5,0.1c-1.2,0-2,0.2-2.6,0.6
		c-0.6,0.4-0.9,1-0.9,1.8c0,1.1,0.6,1.7,1.9,1.7c0.9,0,1.7-0.3,2.2-0.8c0.6-0.5,0.8-1.2,0.8-2.1V340.4z"/>
	<path class="st2" d="M875.7,332.2c1.7,0,3.1,0.7,4.1,2s1.5,3.2,1.5,5.6c0,2.4-0.5,4.3-1.5,5.6c-1,1.3-2.4,2-4.1,2
		c-1.7,0-3.1-0.6-4.1-1.9h-0.3l-0.7,1.6h-3.1v-20.4h4v4.7c0,0.6-0.1,1.6-0.2,2.9h0.2C872.4,332.9,873.8,332.2,875.7,332.2z
		 M874.4,335.4c-1,0-1.7,0.3-2.2,0.9c-0.5,0.6-0.7,1.6-0.7,3v0.4c0,1.6,0.2,2.7,0.7,3.4c0.5,0.7,1.2,1,2.2,1c0.8,0,1.5-0.4,2-1.1
		c0.5-0.8,0.7-1.9,0.7-3.3c0-1.4-0.2-2.5-0.7-3.2C875.9,335.8,875.2,335.4,874.4,335.4z"/>
	<path class="st2" d="M891.1,347.4c-2.4,0-4.2-0.7-5.5-2c-1.3-1.3-2-3.1-2-5.5c0-2.5,0.6-4.4,1.8-5.7c1.2-1.3,2.9-2,5.1-2
		c2.1,0,3.7,0.6,4.8,1.8s1.7,2.8,1.7,4.9v1.9h-9.5c0,1.1,0.4,2,1,2.7c0.6,0.6,1.5,1,2.6,1c0.9,0,1.7-0.1,2.5-0.3s1.6-0.5,2.5-0.9
		v3.1c-0.7,0.4-1.4,0.6-2.2,0.8C893.3,347.3,892.3,347.4,891.1,347.4z M890.6,335.1c-0.8,0-1.5,0.3-2,0.8c-0.5,0.5-0.8,1.3-0.8,2.3
		h5.6c0-1-0.3-1.8-0.8-2.3C892.1,335.3,891.4,335.1,890.6,335.1z"/>
	<path class="st2" d="M904.4,347.2h-4v-20.4h4V347.2z"/>
	<path class="st2" d="M917.9,347.2l-0.8-2H917c-0.7,0.8-1.4,1.4-2.1,1.8s-1.6,0.5-2.8,0.5c-1.4,0-2.5-0.4-3.3-1.2s-1.2-2-1.2-3.4
		c0-1.6,0.5-2.7,1.6-3.4c1.1-0.7,2.7-1.1,4.9-1.2l2.5-0.1v-0.6c0-1.5-0.8-2.2-2.3-2.2c-1.2,0-2.5,0.4-4.1,1.1l-1.3-2.7
		c1.7-0.9,3.6-1.3,5.6-1.3c2,0,3.5,0.4,4.5,1.3c1,0.9,1.6,2.2,1.6,3.9v9.8H917.9z M916.7,340.4l-1.5,0.1c-1.2,0-2,0.2-2.6,0.6
		c-0.6,0.4-0.9,1-0.9,1.8c0,1.1,0.6,1.7,1.9,1.7c0.9,0,1.7-0.3,2.2-0.8c0.6-0.5,0.8-1.2,0.8-2.1V340.4z"/>
	<path class="st2" d="M473.9,385c-1.7,0-3.1-0.7-4.1-2c-1-1.3-1.5-3.2-1.5-5.6c0-2.4,0.5-4.3,1.5-5.6c1-1.3,2.4-2,4.1-2
		c1.8,0,3.3,0.7,4.2,2.2h0.1c-0.2-1.1-0.3-2.1-0.3-2.9v-4.7h4v20.4h-3.1l-0.8-1.9h-0.2C477.2,384.3,475.8,385,473.9,385z
		 M475.4,381.8c1,0,1.8-0.3,2.2-0.9c0.5-0.6,0.7-1.6,0.8-3v-0.4c0-1.6-0.2-2.7-0.7-3.4c-0.5-0.7-1.3-1-2.4-1c-0.9,0-1.6,0.4-2.1,1.1
		s-0.7,1.9-0.7,3.3s0.2,2.5,0.7,3.2C473.7,381.5,474.4,381.8,475.4,381.8z"/>
	<path class="st2" d="M492.9,385c-2.4,0-4.2-0.7-5.5-2c-1.3-1.3-2-3.1-2-5.5c0-2.5,0.6-4.4,1.8-5.7c1.2-1.3,2.9-2,5.1-2
		c2.1,0,3.7,0.6,4.8,1.8s1.7,2.8,1.7,4.9v1.9h-9.5c0,1.1,0.4,2,1,2.7c0.6,0.6,1.5,1,2.6,1c0.9,0,1.7-0.1,2.5-0.3s1.6-0.5,2.5-0.9
		v3.1c-0.7,0.4-1.4,0.6-2.2,0.8C495.1,384.9,494.1,385,492.9,385z M492.4,372.7c-0.8,0-1.5,0.3-2,0.8c-0.5,0.5-0.8,1.3-0.8,2.3h5.6
		c0-1-0.3-1.8-0.8-2.3C493.9,372.9,493.2,372.7,492.4,372.7z"/>
	<path class="st2" d="M516.9,384.8h-4.1V369h-5.2v-3.4h14.5v3.4h-5.2V384.8z"/>
	<path class="st2" d="M534,384.8l-0.8-2h-0.1c-0.7,0.8-1.4,1.4-2.1,1.8s-1.6,0.5-2.8,0.5c-1.4,0-2.5-0.4-3.3-1.2s-1.2-2-1.2-3.4
		c0-1.6,0.5-2.7,1.6-3.4c1.1-0.7,2.7-1.1,4.9-1.2l2.5-0.1V375c0-1.5-0.8-2.2-2.3-2.2c-1.2,0-2.5,0.4-4.1,1.1l-1.3-2.7
		c1.7-0.9,3.6-1.3,5.6-1.3c2,0,3.5,0.4,4.5,1.3c1,0.9,1.6,2.2,1.6,3.9v9.8H534z M532.9,378l-1.5,0.1c-1.2,0-2,0.2-2.6,0.6
		c-0.6,0.4-0.9,1-0.9,1.8c0,1.1,0.6,1.7,1.9,1.7c0.9,0,1.7-0.3,2.2-0.8c0.6-0.5,0.8-1.2,0.8-2.1V378z"/>
	<path class="st2" d="M554.1,384.8h-4v-8.6c0-1.1-0.2-1.9-0.5-2.4c-0.4-0.5-0.9-0.8-1.7-0.8c-1,0-1.8,0.4-2.2,1.1
		c-0.5,0.8-0.7,2-0.7,3.7v6.9h-4v-14.7h3.1l0.5,1.9h0.2c0.4-0.7,1-1.2,1.7-1.6c0.7-0.4,1.6-0.6,2.6-0.6c2.2,0,3.7,0.7,4.5,2.2h0.4
		c0.4-0.7,1-1.2,1.7-1.6c0.8-0.4,1.6-0.6,2.6-0.6c1.7,0,2.9,0.4,3.8,1.3s1.3,2.2,1.3,4.1v9.6h-4v-8.6c0-1.1-0.2-1.9-0.5-2.4
		s-0.9-0.8-1.7-0.8c-1,0-1.7,0.4-2.2,1c-0.5,0.7-0.7,1.8-0.7,3.3V384.8z"/>
	<path class="st2" d="M576.6,384.8l-0.8-2h-0.1c-0.7,0.8-1.4,1.4-2.1,1.8s-1.6,0.5-2.8,0.5c-1.4,0-2.5-0.4-3.3-1.2s-1.2-2-1.2-3.4
		c0-1.6,0.5-2.7,1.6-3.4c1.1-0.7,2.7-1.1,4.9-1.2l2.5-0.1V375c0-1.5-0.8-2.2-2.3-2.2c-1.2,0-2.5,0.4-4.1,1.1l-1.3-2.7
		c1.7-0.9,3.6-1.3,5.6-1.3c2,0,3.5,0.4,4.5,1.3c1,0.9,1.6,2.2,1.6,3.9v9.8H576.6z M575.5,378l-1.5,0.1c-1.2,0-2,0.2-2.6,0.6
		c-0.6,0.4-0.9,1-0.9,1.8c0,1.1,0.6,1.7,1.9,1.7c0.9,0,1.7-0.3,2.2-0.8c0.6-0.5,0.8-1.2,0.8-2.1V378z"/>
	<path class="st2" d="M597.1,384.8h-4v-8.6c0-1.1-0.2-1.9-0.6-2.4c-0.4-0.5-1-0.8-1.8-0.8c-1.1,0-1.9,0.4-2.4,1.1
		c-0.5,0.7-0.7,2-0.7,3.7v6.9h-4v-14.7h3.1l0.5,1.9h0.2c0.4-0.7,1.1-1.2,1.8-1.6c0.8-0.4,1.7-0.5,2.7-0.5c1.7,0,3,0.5,3.9,1.4
		c0.9,0.9,1.3,2.3,1.3,4V384.8z"/>
	<path class="st2" d="M614.8,384.8h-4v-8.6c0-2.1-0.8-3.2-2.4-3.2c-1.1,0-1.9,0.4-2.4,1.1c-0.5,0.8-0.7,2-0.7,3.7v6.9h-4v-20.4h4
		v4.2c0,0.3,0,1.1-0.1,2.3L605,372h0.2c0.9-1.4,2.3-2.2,4.3-2.2c1.7,0,3,0.5,3.9,1.4c0.9,0.9,1.3,2.3,1.3,4V384.8z"/>
	<path class="st2" d="M632.2,377.4c0,2.4-0.6,4.3-1.9,5.6c-1.3,1.3-3,2-5.3,2c-1.4,0-2.7-0.3-3.7-0.9c-1.1-0.6-1.9-1.5-2.5-2.7
		s-0.9-2.5-0.9-4c0-2.4,0.6-4.3,1.9-5.6c1.3-1.3,3-2,5.3-2c1.4,0,2.6,0.3,3.7,0.9s1.9,1.5,2.5,2.6S632.2,375.9,632.2,377.4z
		 M622.1,377.4c0,1.5,0.2,2.5,0.7,3.3c0.5,0.7,1.3,1.1,2.3,1.1c1.1,0,1.8-0.4,2.3-1.1c0.5-0.7,0.7-1.8,0.7-3.3
		c0-1.5-0.2-2.5-0.7-3.3c-0.5-0.7-1.2-1.1-2.3-1.1c-1.1,0-1.8,0.4-2.3,1.1C622.3,374.8,622.1,375.9,622.1,377.4z"/>
	<path class="st2" d="M645.7,380.4c0,1.5-0.5,2.7-1.6,3.4s-2.6,1.2-4.7,1.2c-1.1,0-2-0.1-2.7-0.2c-0.8-0.1-1.5-0.4-2.1-0.6v-3.3
		c0.7,0.3,1.6,0.6,2.5,0.9c0.9,0.2,1.8,0.4,2.5,0.4c1.5,0,2.2-0.4,2.2-1.3c0-0.3-0.1-0.6-0.3-0.8c-0.2-0.2-0.5-0.4-1-0.7
		s-1.1-0.5-1.9-0.9c-1.1-0.5-2-0.9-2.5-1.3c-0.5-0.4-0.9-0.9-1.2-1.4c-0.2-0.5-0.4-1.2-0.4-1.9c0-1.3,0.5-2.3,1.5-3
		c1-0.7,2.4-1.1,4.3-1.1c1.8,0,3.5,0.4,5.2,1.2l-1.2,2.9c-0.7-0.3-1.4-0.6-2.1-0.8c-0.6-0.2-1.3-0.3-2-0.3c-1.2,0-1.8,0.3-1.8,1
		c0,0.4,0.2,0.7,0.6,0.9s1.2,0.7,2.5,1.2c1.1,0.5,2,0.9,2.5,1.3c0.5,0.4,0.9,0.9,1.2,1.4C645.6,379,645.7,379.7,645.7,380.4z"/>
	<path class="st2" d="M648.3,382.9c0-0.7,0.2-1.3,0.6-1.7s1-0.6,1.7-0.6c0.7,0,1.3,0.2,1.7,0.6c0.4,0.4,0.6,0.9,0.6,1.7
		c0,0.7-0.2,1.2-0.6,1.6c-0.4,0.4-1,0.6-1.7,0.6c-0.7,0-1.3-0.2-1.7-0.6C648.5,384.1,648.3,383.6,648.3,382.9z"/>
</g>
<g>
	<path class="st2" d="M1006.9,53.8h-8.2l-5.1-8.2l-5,8.2h-8l8.7-13.4l-8.2-12.8h7.8l4.7,8.1l4.5-8.1h8.1L998,41L1006.9,53.8z"/>
</g>
<rect class="st4" width="1037" height="512"/>
</svg>
