<?xml version="1.0" encoding="utf-8"?>
<!-- Generator: Adobe Illustrator 23.0.3, SVG Export Plug-In . SVG Version: 6.00 Build 0)  -->
<svg version="1.1" id="Layer_1" xmlns="http://www.w3.org/2000/svg" xmlns:xlink="http://www.w3.org/1999/xlink" x="0px" y="0px"
	 viewBox="0 0 1037 381.4" style="enable-background:new 0 0 1037 381.4;" xml:space="preserve">
<style type="text/css">
	.st0{fill:#FFFFFF;stroke:#9D9D9C;stroke-miterlimit:10;}
	.st1{fill:#E62A44;}
	.st2{fill:#D5D7D8;}
	.st3{fill:#444444;}
</style>
<rect x="1.8" y="1.7" class="st0" width="1033.4" height="377.8"/>
<g>
	<g>
		<path class="st1" d="M349.2,211.1L349.2,211.1C349.3,211.2,349.2,211.2,349.2,211.1z"/>
		<path class="st1" d="M166.1,247.3c1.5-5.9,5.1-32.9,2.8-35.4c-3-2.2-7.5-6.6-12.7-14.6c-35.5-55.2-6.8-102.9,3.1-106.6
			c3.1-8.5,11.8-20.5,26.4-26.4c8.6-4.4,18.2-7.6,28.4-9.3c16.3-4.3,31.4-5.1,38.3-5.1c17.4,0,56,10.6,69.6,15.9
			c10.3,4,3.7,16.7-0.1,22.6c3.7,4.5,6.2,10.6,8.2,17.2c4.4,14.5,7.8,16.8,9.3,19.8c1.5,3.1,4.9,14.1,2.7,17.3
			c-3.4,5.2-3,11.4-1,13.9s9.2,11.5,10.5,14.1c4.1,8.4,11.6,14.4,9.3,18.6c-2.3,4.1-5.3,5.7-13.1,9.8c-3.1,1.7-1.8,5.3-1.5,7.4
			c0.3,2.1,2.5,4.4,2.9,4.7c-0.3-0.2,1.3,5-2.6,7.3c-3.2,1.8-4,3.4-4,3.4s5,4.8,4.5,6c-0.8,1.7-4.4,5.3-5.7,6.7
			c-2.3,2.7-4.4,4.5-1.8,7.6c2.7,3.1,3.5,11.2-0.3,14.3c-3.8,3.1-11.2,10.1-29.8,7.8c-18.6-2.3-36.4,3.3-39.7,8.2
			c-3.4,4.9-16,55.9-16,55.9H145c0,0,7.1-27.7,10.6-40.1C159.3,274.6,163.9,256.4,166.1,247.3z"/>
	</g>
</g>
<g>
	<path class="st2" d="M94.9,86.9c1.6,0.7,3.7,1,5.9,1c2.2,0,4.3-0.4,5.9-1c1.8-0.8,2.9-1.9,2.9-3.2s-1-2.4-2.9-3.2
		c-1.6-0.7-3.7-1-5.9-1c-2.2,0-4.3,0.4-5.9,1c-1.8,0.8-2.9,1.9-2.9,3.2S93.1,86.1,94.9,86.9z M100.8,81.4c4.4,0,6.7,1.5,6.7,2.2
		c0,0.8-2.4,2.2-6.7,2.2c-4.4,0-6.7-1.5-6.7-2.2C94.1,82.9,96.5,81.4,100.8,81.4z"/>
	<path class="st2" d="M121.6,90.9v-7.2l0,0v-0.1c0-2.7-2.3-5-6.4-6.8c-3.8-1.6-8.9-2.5-14.4-2.5c-5.4,0-10.5,0.9-14.4,2.5
		C82.3,78.6,80,81,80,83.7v19c0,2.7,2.3,5,6.4,6.8c3.8,1.6,8.9,2.5,14.4,2.5h237.6V90.9H121.6z M87.2,78.7c3.6-1.5,8.4-2.4,13.6-2.4
		c5.1,0,10,0.8,13.6,2.4c3.3,1.4,5.2,3.2,5.2,4.9c0,1.8-1.9,3.5-5.2,4.9c-3.6,1.5-8.4,2.4-13.6,2.4c-5.1,0-10-0.8-13.6-2.4
		c-3.3-1.4-5.2-3.2-5.2-4.9C82.1,81.9,83.9,80.1,87.2,78.7z M119.6,87.7v3.1H114c0.5-0.2,0.8-0.3,1.2-0.5
		C117,89.6,118.5,88.8,119.6,87.7z M336.4,110H100.8c-5.1,0-10-0.8-13.6-2.4c-3.3-1.4-5.2-3.2-5.2-4.9V87.8l0,0l0.1,0.1
		c1.2,1.1,2.7,1.9,4.3,2.6c3.8,1.6,8.9,2.5,14.4,2.5h235.6L336.4,110L336.4,110z"/>
	<rect x="133" y="100.7" class="st2" width="2.1" height="7.7"/>
	<rect x="128.2" y="103.5" class="st2" width="2.1" height="4.9"/>
	<rect x="122.7" y="100.7" class="st2" width="2.1" height="7.7"/>
	<rect x="118" y="103.5" class="st2" width="2.1" height="4.9"/>
	<rect x="112.5" y="100.7" class="st2" width="2.1" height="7.7"/>
	<rect x="107.8" y="103.5" class="st2" width="2.1" height="4.9"/>
	<rect x="153.4" y="100.7" class="st2" width="2.1" height="7.7"/>
	<rect x="148.7" y="103.5" class="st2" width="2.1" height="4.9"/>
	<rect x="143.2" y="100.7" class="st2" width="2.1" height="7.7"/>
	<rect x="138.5" y="103.5" class="st2" width="2.1" height="4.9"/>
	<rect x="133" y="100.7" class="st2" width="2.1" height="7.7"/>
	<rect x="128.2" y="103.5" class="st2" width="2.1" height="4.9"/>
	<rect x="174" y="100.7" class="st2" width="2.1" height="7.7"/>
	<rect x="169.2" y="103.5" class="st2" width="2.1" height="4.9"/>
	<rect x="163.8" y="100.7" class="st2" width="2.1" height="7.7"/>
	<rect x="158.9" y="103.5" class="st2" width="2.1" height="4.9"/>
	<rect x="153.4" y="100.7" class="st2" width="2.1" height="7.7"/>
	<rect x="148.7" y="103.5" class="st2" width="2.1" height="4.9"/>
	<rect x="194.5" y="100.7" class="st2" width="2.1" height="7.7"/>
	<rect x="189.7" y="103.5" class="st2" width="2.1" height="4.9"/>
	<rect x="184.2" y="100.7" class="st2" width="2.1" height="7.7"/>
	<rect x="179.4" y="103.5" class="st2" width="2.1" height="4.9"/>
	<rect x="174" y="100.7" class="st2" width="2.1" height="7.7"/>
	<rect x="169.2" y="103.5" class="st2" width="2.1" height="4.9"/>
	<rect x="214.9" y="100.7" class="st2" width="2.1" height="7.7"/>
	<rect x="210.1" y="103.5" class="st2" width="2.1" height="4.9"/>
	<rect x="204.7" y="100.7" class="st2" width="2.1" height="7.7"/>
	<rect x="199.9" y="103.5" class="st2" width="2.1" height="4.9"/>
	<rect x="194.5" y="100.7" class="st2" width="2.1" height="7.7"/>
	<rect x="189.7" y="103.5" class="st2" width="2.1" height="4.9"/>
	<rect x="235.4" y="100.7" class="st2" width="2.1" height="7.7"/>
	<rect x="230.7" y="103.5" class="st2" width="2.1" height="4.9"/>
	<rect x="225.2" y="100.7" class="st2" width="2.1" height="7.7"/>
	<rect x="220.4" y="103.5" class="st2" width="2.1" height="4.9"/>
	<rect x="214.9" y="100.7" class="st2" width="2.1" height="7.7"/>
	<rect x="210.1" y="103.5" class="st2" width="2.1" height="4.9"/>
	<rect x="255.9" y="100.7" class="st2" width="2.1" height="7.7"/>
	<rect x="251.1" y="103.5" class="st2" width="2.1" height="4.9"/>
	<rect x="245.6" y="100.7" class="st2" width="2.1" height="7.7"/>
	<rect x="240.9" y="103.5" class="st2" width="2.1" height="4.9"/>
	<rect x="235.4" y="100.7" class="st2" width="2.1" height="7.7"/>
	<rect x="230.7" y="103.5" class="st2" width="2.1" height="4.9"/>
	<rect x="276.4" y="100.7" class="st2" width="2.1" height="7.7"/>
	<rect x="271.6" y="103.5" class="st2" width="2.1" height="4.9"/>
	<rect x="266.1" y="100.7" class="st2" width="2.1" height="7.7"/>
	<rect x="261.4" y="103.5" class="st2" width="2.1" height="4.9"/>
	<rect x="255.9" y="100.7" class="st2" width="2.1" height="7.7"/>
	<rect x="251.1" y="103.5" class="st2" width="2.1" height="4.9"/>
	<rect x="296.8" y="100.7" class="st2" width="2.1" height="7.7"/>
	<rect x="292.1" y="103.5" class="st2" width="2.1" height="4.9"/>
	<rect x="286.6" y="100.7" class="st2" width="2.1" height="7.7"/>
	<rect x="281.9" y="103.5" class="st2" width="2.1" height="4.9"/>
	<rect x="276.4" y="100.7" class="st2" width="2.1" height="7.7"/>
	<rect x="271.6" y="103.5" class="st2" width="2.1" height="4.9"/>
	<rect x="317.3" y="100.7" class="st2" width="2.1" height="7.7"/>
	<rect x="312.6" y="103.5" class="st2" width="2.1" height="4.9"/>
	<rect x="307.1" y="100.7" class="st2" width="2.1" height="7.7"/>
	<rect x="302.3" y="103.5" class="st2" width="2.1" height="4.9"/>
	<rect x="296.8" y="100.7" class="st2" width="2.1" height="7.7"/>
	<rect x="292.1" y="103.5" class="st2" width="2.1" height="4.9"/>
	<rect x="327.5" y="100.7" class="st2" width="2.1" height="7.7"/>
	<rect x="322.8" y="103.5" class="st2" width="2.1" height="4.9"/>
	<rect x="332.1" y="103.5" class="st2" width="2.1" height="4.9"/>
	<rect x="317.3" y="100.7" class="st2" width="2.1" height="7.7"/>
	<rect x="312.6" y="103.5" class="st2" width="2.1" height="4.9"/>
	<rect x="102.3" y="100.7" class="st2" width="2.1" height="7.7"/>
	<rect x="97.5" y="103.5" class="st2" width="2.1" height="4.9"/>
	<rect x="92.1" y="100.2" class="st2" width="2.1" height="7.7"/>
	<rect x="87.5" y="101.4" class="st2" width="2.1" height="4.9"/>
</g>
<g>
	<path class="st3" d="M460.7,89.7l-5.2-14.8l0,0c0.1,2.2,0.2,4.3,0.2,6.2v8.6h-2.6V71.9h4.1l4.9,14.1h0.1l5.1-14.1h4.1v17.8h-2.9
		v-8.8c0-0.9,0-2,0.1-3.5c0-1.4,0.1-2.3,0.1-2.6h-0.1l-5.3,14.8h-2.6V89.7z"/>
	<path class="st3" d="M481.6,90c-2.1,0-3.7-0.6-4.9-1.8s-1.8-2.9-1.8-5c0-2.2,0.5-3.9,1.6-5.2s2.6-1.9,4.5-1.9
		c1.8,0,3.2,0.5,4.2,1.6s1.5,2.6,1.5,4.4v1.5h-9c0,1.3,0.4,2.3,1.1,3s1.6,1.1,2.8,1.1c0.8,0,1.5-0.1,2.2-0.2s1.4-0.4,2.2-0.7v2.3
		c-0.7,0.3-1.4,0.6-2.1,0.7S482.5,90,481.6,90z M481.1,78.2c-0.9,0-1.6,0.3-2.2,0.9s-0.9,1.4-1,2.5h6.1c0-1.1-0.3-2-0.8-2.5
		C482.7,78.5,482,78.2,481.1,78.2z"/>
	<path class="st3" d="M495.5,90c-2,0-3.6-0.6-4.6-1.8c-1.1-1.2-1.6-2.9-1.6-5.1c0-2.3,0.6-4,1.7-5.2s2.7-1.8,4.8-1.8
		c1.4,0,2.7,0.3,3.8,0.8l-0.9,2.3c-1.2-0.5-2.2-0.7-3-0.7c-2.3,0-3.5,1.5-3.5,4.6c0,1.5,0.3,2.6,0.9,3.4c0.6,0.8,1.4,1.1,2.5,1.1
		c1.3,0,2.5-0.3,3.6-0.9v2.5c-0.5,0.3-1.1,0.5-1.6,0.6C497,89.9,496.3,90,495.5,90z M497.5,93c0,1.8-1.2,2.7-3.7,2.7
		c-0.5,0-1-0.1-1.5-0.2v-1.7c0.4,0.1,0.9,0.2,1.5,0.2c0.4,0,0.8-0.1,1-0.2c0.3-0.1,0.4-0.4,0.4-0.7c0-0.7-0.7-1.1-2.2-1.3l1-2h1.8
		l-0.5,1.1c0.6,0.2,1.2,0.4,1.5,0.8C497.3,92,497.5,92.5,497.5,93z"/>
	<path class="st3" d="M510.8,89.7l-0.6-1.9h-0.1c-0.6,0.8-1.3,1.4-2,1.7s-1.5,0.4-2.5,0.4c-1.3,0-2.4-0.4-3.1-1.1s-1.1-1.7-1.1-3
		c0-1.4,0.5-2.4,1.5-3.1c1-0.7,2.6-1.1,4.7-1.2l2.3-0.1v-0.7c0-0.9-0.2-1.5-0.6-1.9c-0.4-0.4-1-0.6-1.9-0.6c-0.7,0-1.3,0.1-2,0.3
		c-0.6,0.2-1.2,0.4-1.8,0.7l-0.9-2c0.7-0.4,1.5-0.7,2.4-0.9s1.7-0.3,2.5-0.3c1.7,0,3,0.4,3.9,1.1c0.9,0.7,1.3,1.9,1.3,3.5v9.1H510.8
		z M506.5,87.8c1,0,1.9-0.3,2.5-0.9c0.6-0.6,0.9-1.4,0.9-2.4v-1.2l-1.7,0.1c-1.3,0-2.3,0.3-2.9,0.7c-0.6,0.4-0.9,1-0.9,1.8
		c0,0.6,0.2,1.1,0.5,1.4S505.8,87.8,506.5,87.8z"/>
	<path class="st3" d="M531.7,89.7l-0.6-1.9H531c-0.6,0.8-1.3,1.4-2,1.7c-0.7,0.3-1.5,0.4-2.5,0.4c-1.3,0-2.4-0.4-3.1-1.1
		s-1.1-1.7-1.1-3c0-1.4,0.5-2.4,1.5-3.1c1-0.7,2.6-1.1,4.7-1.2l2.3-0.1v-0.7c0-0.9-0.2-1.5-0.6-1.9s-1-0.6-1.9-0.6
		c-0.7,0-1.3,0.1-2,0.3c-0.6,0.2-1.2,0.4-1.8,0.7l-0.9-2c0.7-0.4,1.5-0.7,2.4-0.9s1.7-0.3,2.5-0.3c1.7,0,3,0.4,3.9,1.1
		c0.9,0.7,1.3,1.9,1.3,3.5v9.1H531.7z M527.4,87.8c1,0,1.9-0.3,2.5-0.9c0.6-0.6,0.9-1.4,0.9-2.4v-1.2l-1.7,0.1
		c-1.3,0-2.3,0.3-2.9,0.7c-0.6,0.4-0.9,1-0.9,1.8c0,0.6,0.2,1.1,0.5,1.4C526.1,87.6,526.7,87.8,527.4,87.8z"/>
	<path class="st3" d="M553.2,85.9c0,1.3-0.5,2.3-1.4,3s-2.3,1.1-4.1,1.1c-1.8,0-3.2-0.3-4.3-0.8v-2.5c1.6,0.7,3.1,1.1,4.4,1.1
		c1.8,0,2.6-0.5,2.6-1.6c0-0.3-0.1-0.6-0.3-0.9c-0.2-0.2-0.5-0.5-1-0.7s-1.1-0.5-1.9-0.8c-1.5-0.6-2.6-1.2-3.1-1.8s-0.8-1.4-0.8-2.3
		c0-1.2,0.5-2,1.4-2.7c0.9-0.6,2.2-1,3.8-1s3.1,0.3,4.5,1l-0.9,2.2c-1.5-0.6-2.7-0.9-3.7-0.9c-1.5,0-2.3,0.4-2.3,1.3
		c0,0.4,0.2,0.8,0.6,1.1c0.4,0.3,1.2,0.7,2.6,1.2c1.1,0.4,1.9,0.8,2.4,1.2s0.9,0.8,1.1,1.2S553.2,85.3,553.2,85.9z"/>
	<path class="st3" d="M565.8,89.7l-0.4-1.8h-0.1c-0.4,0.6-1,1.1-1.7,1.5c-0.7,0.4-1.6,0.5-2.5,0.5c-1.6,0-2.8-0.4-3.6-1.2
		c-0.8-0.8-1.2-2-1.2-3.7v-8.8h2.9v8.3c0,1,0.2,1.8,0.6,2.3c0.4,0.5,1.1,0.8,2,0.8c1.2,0,2.1-0.4,2.6-1.1c0.6-0.7,0.8-1.9,0.8-3.6
		v-6.7h2.9v13.4h-2.3V89.7z"/>
	<path class="st3" d="M580.5,89.7l-0.6-1.9h-0.1c-0.6,0.8-1.3,1.4-2,1.7c-0.7,0.3-1.5,0.4-2.5,0.4c-1.3,0-2.4-0.4-3.1-1.1
		s-1.1-1.7-1.1-3c0-1.4,0.5-2.4,1.5-3.1c1-0.7,2.6-1.1,4.7-1.2l2.3-0.1v-0.7c0-0.9-0.2-1.5-0.6-1.9c-0.4-0.4-1-0.6-1.9-0.6
		c-0.7,0-1.3,0.1-2,0.3c-0.6,0.2-1.2,0.4-1.8,0.7l-0.9-2c0.7-0.4,1.5-0.7,2.4-0.9s1.7-0.3,2.5-0.3c1.7,0,3,0.4,3.9,1.1
		c0.9,0.7,1.3,1.9,1.3,3.5v9.1H580.5z M576.3,87.8c1,0,1.9-0.3,2.5-0.9c0.6-0.6,0.9-1.4,0.9-2.4v-1.2l-1.7,0.1
		c-1.3,0-2.3,0.3-2.9,0.7s-0.9,1-0.9,1.8c0,0.6,0.2,1.1,0.5,1.4C575,87.6,575.5,87.8,576.3,87.8z"/>
	<path class="st3" d="M598.4,90c-2,0-3.6-0.6-4.6-1.8c-1.1-1.2-1.6-2.9-1.6-5.1c0-2.3,0.6-4,1.7-5.2c1.1-1.2,2.7-1.8,4.8-1.8
		c1.4,0,2.7,0.3,3.8,0.8l-0.9,2.3c-1.2-0.5-2.2-0.7-3-0.7c-2.3,0-3.5,1.5-3.5,4.6c0,1.5,0.3,2.6,0.9,3.4c0.6,0.8,1.4,1.1,2.5,1.1
		c1.3,0,2.5-0.3,3.6-0.9v2.5c-0.5,0.3-1.1,0.5-1.6,0.6C599.9,89.9,599.2,90,598.4,90z"/>
	<path class="st3" d="M613.7,89.7l-0.6-1.9H613c-0.6,0.8-1.3,1.4-2,1.7c-0.7,0.3-1.5,0.4-2.5,0.4c-1.3,0-2.4-0.4-3.1-1.1
		s-1.1-1.7-1.1-3c0-1.4,0.5-2.4,1.5-3.1c1-0.7,2.6-1.1,4.7-1.2l2.3-0.1v-0.7c0-0.9-0.2-1.5-0.6-1.9s-1-0.6-1.9-0.6
		c-0.7,0-1.3,0.1-2,0.3c-0.6,0.2-1.2,0.4-1.8,0.7l-0.9-2c0.7-0.4,1.5-0.7,2.4-0.9s1.7-0.3,2.5-0.3c1.7,0,3,0.4,3.9,1.1
		c0.9,0.7,1.3,1.9,1.3,3.5v9.1H613.7z M609.5,87.8c1,0,1.9-0.3,2.5-0.9c0.6-0.6,0.9-1.4,0.9-2.4v-1.2l-1.7,0.1
		c-1.3,0-2.3,0.3-2.9,0.7c-0.6,0.4-0.9,1-0.9,1.8c0,0.6,0.2,1.1,0.5,1.4C608.2,87.6,608.8,87.8,609.5,87.8z"/>
	<path class="st3" d="M626.6,76.1c1.7,0,3,0.6,3.9,1.8s1.4,2.9,1.4,5.1c0,2.2-0.5,3.9-1.4,5.1c-0.9,1.2-2.3,1.8-3.9,1.8
		c-1.7,0-3-0.6-4-1.8h-0.2l-0.5,1.6h-2.1V70.8h2.9v4.5c0,0.3,0,0.8,0,1.5s-0.1,1.1-0.1,1.3h0.1C623.5,76.7,624.9,76.1,626.6,76.1z
		 M625.9,78.4c-1.2,0-2,0.3-2.5,1s-0.8,1.8-0.8,3.4V83c0,1.6,0.3,2.8,0.8,3.6s1.4,1.1,2.5,1.1c1,0,1.8-0.4,2.3-1.2s0.8-2,0.8-3.5
		C629,79.9,628,78.4,625.9,78.4z"/>
	<path class="st3" d="M641.1,90c-2.1,0-3.7-0.6-4.9-1.8c-1.2-1.2-1.8-2.9-1.8-5c0-2.2,0.5-3.9,1.6-5.2s2.6-1.9,4.5-1.9
		c1.8,0,3.2,0.5,4.2,1.6s1.5,2.6,1.5,4.4v1.5h-9c0,1.3,0.4,2.3,1.1,3s1.6,1.1,2.8,1.1c0.8,0,1.5-0.1,2.2-0.2
		c0.7-0.1,1.4-0.4,2.2-0.7v2.3c-0.7,0.3-1.4,0.6-2.1,0.7S642.1,90,641.1,90z M640.6,78.2c-0.9,0-1.6,0.3-2.2,0.9
		c-0.6,0.6-0.9,1.4-1,2.5h6.1c0-1.1-0.3-2-0.8-2.5C642.2,78.5,641.5,78.2,640.6,78.2z"/>
	<path class="st3" d="M655,90c-2,0-3.6-0.6-4.6-1.8c-1.1-1.2-1.6-2.9-1.6-5.1c0-2.3,0.6-4,1.7-5.2c1.1-1.2,2.7-1.8,4.8-1.8
		c1.4,0,2.7,0.3,3.8,0.8l-0.9,2.3c-1.2-0.5-2.2-0.7-3-0.7c-2.3,0-3.5,1.5-3.5,4.6c0,1.5,0.3,2.6,0.9,3.4c0.6,0.8,1.4,1.1,2.5,1.1
		c1.3,0,2.5-0.3,3.6-0.9v2.5c-0.5,0.3-1.1,0.5-1.6,0.6C656.6,89.9,655.9,90,655,90z M657.1,93c0,1.8-1.2,2.7-3.7,2.7
		c-0.5,0-1-0.1-1.5-0.2v-1.7c0.4,0.1,0.9,0.2,1.5,0.2c0.4,0,0.8-0.1,1-0.2c0.3-0.1,0.4-0.4,0.4-0.7c0-0.7-0.7-1.1-2.2-1.3l1-2h1.8
		l-0.5,1.1c0.6,0.2,1.2,0.4,1.5,0.8C656.9,92,657.1,92.5,657.1,93z"/>
	<path class="st3" d="M670.3,89.7l-0.6-1.9h-0.1c-0.6,0.8-1.3,1.4-2,1.7c-0.7,0.3-1.5,0.4-2.5,0.4c-1.3,0-2.4-0.4-3.1-1.1
		s-1.1-1.7-1.1-3c0-1.4,0.5-2.4,1.5-3.1c1-0.7,2.6-1.1,4.7-1.2l2.3-0.1v-0.7c0-0.9-0.2-1.5-0.6-1.9s-1-0.6-1.9-0.6
		c-0.7,0-1.3,0.1-2,0.3c-0.6,0.2-1.2,0.4-1.8,0.7l-0.9-2c0.7-0.4,1.5-0.7,2.4-0.9s1.7-0.3,2.5-0.3c1.7,0,3,0.4,3.9,1.1
		c0.9,0.7,1.3,1.9,1.3,3.5v9.1H670.3z M666.1,87.8c1,0,1.9-0.3,2.5-0.9c0.6-0.6,0.9-1.4,0.9-2.4v-1.2l-1.7,0.1
		c-1.3,0-2.3,0.3-2.9,0.7c-0.6,0.4-0.9,1-0.9,1.8c0,0.6,0.2,1.1,0.5,1.4C664.8,87.6,665.4,87.8,666.1,87.8z"/>
	<path class="st3" d="M688.3,90c-2,0-3.6-0.6-4.6-1.8c-1.1-1.2-1.6-2.9-1.6-5.1c0-2.3,0.6-4,1.7-5.2c1.1-1.2,2.7-1.8,4.8-1.8
		c1.4,0,2.7,0.3,3.8,0.8l-0.9,2.3c-1.2-0.5-2.2-0.7-3-0.7c-2.3,0-3.5,1.5-3.5,4.6c0,1.5,0.3,2.6,0.9,3.4c0.6,0.8,1.4,1.1,2.5,1.1
		c1.3,0,2.5-0.3,3.6-0.9v2.5c-0.5,0.3-1.1,0.5-1.6,0.6C689.8,89.9,689.1,90,688.3,90z"/>
	<path class="st3" d="M707.1,83c0,2.2-0.6,3.9-1.7,5.1c-1.1,1.2-2.7,1.8-4.7,1.8c-1.3,0-2.4-0.3-3.3-0.9c-1-0.6-1.7-1.4-2.2-2.4
		c-0.5-1.1-0.8-2.3-0.8-3.7c0-2.2,0.6-3.9,1.7-5.1c1.1-1.2,2.7-1.8,4.7-1.8c1.9,0,3.5,0.6,4.6,1.9C706.5,79.2,707.1,80.9,707.1,83z
		 M697.3,83c0,3.1,1.1,4.7,3.4,4.7s3.4-1.6,3.4-4.7c0-3.1-1.1-4.6-3.4-4.6c-1.2,0-2.1,0.4-2.6,1.2S697.3,81.5,697.3,83z"/>
	<path class="st3" d="M721.7,89.7h-2.9v-8.3c0-1-0.2-1.8-0.6-2.3s-1-0.8-1.8-0.8c-1.1,0-1.9,0.4-2.4,1.1c-0.5,0.7-0.8,1.9-0.8,3.6
		v6.7h-2.9V76.3h2.2l0.4,1.8h0.1c0.4-0.6,0.9-1.1,1.6-1.5s1.5-0.5,2.3-0.5c2.1,0,3.4,0.7,4.1,2.1h0.2c0.4-0.7,1-1.2,1.7-1.6
		c0.7-0.4,1.5-0.6,2.5-0.6c1.6,0,2.8,0.4,3.5,1.2c0.7,0.8,1.1,2,1.1,3.7v8.8h-2.9v-8.3c0-1-0.2-1.8-0.6-2.3s-1-0.8-1.8-0.8
		c-1.1,0-1.9,0.3-2.4,1s-0.8,1.8-0.8,3.2v7.2L721.7,89.7L721.7,89.7z"/>
	<path class="st3" d="M750.1,89.7l-0.4-1.8h-0.2c-0.4,0.6-1,1.1-1.7,1.5c-0.7,0.4-1.6,0.5-2.5,0.5c-1.6,0-2.8-0.4-3.6-1.2
		c-0.8-0.8-1.2-2-1.2-3.7v-8.8h2.9v8.3c0,1,0.2,1.8,0.6,2.3s1.1,0.8,2,0.8c1.2,0,2.1-0.4,2.6-1.1c0.6-0.7,0.8-1.9,0.8-3.6v-6.7h2.9
		v13.4h-2.2V89.7z"/>
	<path class="st3" d="M767.7,89.7h-2.9v-8.3c0-1-0.2-1.8-0.6-2.3s-1-0.8-1.8-0.8c-1.1,0-1.9,0.4-2.4,1.1c-0.5,0.7-0.8,1.9-0.8,3.6
		v6.7h-2.9V76.3h2.2l0.4,1.8h0.1c0.4-0.6,0.9-1.1,1.6-1.5s1.5-0.5,2.3-0.5c2.1,0,3.4,0.7,4.1,2.1h0.2c0.4-0.7,1-1.2,1.7-1.6
		c0.7-0.4,1.5-0.6,2.5-0.6c1.6,0,2.8,0.4,3.5,1.2c0.7,0.8,1.1,2,1.1,3.7v8.8h-2.9v-8.3c0-1-0.2-1.8-0.6-2.3s-1-0.8-1.8-0.8
		c-1.1,0-1.9,0.3-2.4,1s-0.8,1.8-0.8,3.2v7.2L767.7,89.7L767.7,89.7z"/>
	<path class="st3" d="M788.6,89.7l-0.6-1.9h-0.1c-0.6,0.8-1.3,1.4-2,1.7c-0.7,0.3-1.5,0.4-2.5,0.4c-1.3,0-2.4-0.4-3.1-1.1
		s-1.1-1.7-1.1-3c0-1.4,0.5-2.4,1.5-3.1c1-0.7,2.6-1.1,4.7-1.2l2.3-0.1v-0.7c0-0.9-0.2-1.5-0.6-1.9c-0.4-0.4-1-0.6-1.9-0.6
		c-0.7,0-1.3,0.1-2,0.3c-0.6,0.2-1.2,0.4-1.8,0.7l-0.9-2c0.7-0.4,1.5-0.7,2.4-0.9s1.7-0.3,2.5-0.3c1.7,0,3,0.4,3.9,1.1
		c0.9,0.7,1.3,1.9,1.3,3.5v9.1H788.6z M784.4,87.8c1,0,1.9-0.3,2.5-0.9c0.6-0.6,0.9-1.4,0.9-2.4v-1.2l-1.7,0.1
		c-1.3,0-2.3,0.3-2.9,0.7c-0.6,0.4-0.9,1-0.9,1.8c0,0.6,0.2,1.1,0.5,1.4C783.1,87.6,783.7,87.8,784.4,87.8z"/>
	<path class="st3" d="M807.9,78.5h-3.3v11.3h-2.9V78.5h-2.2v-1.3l2.2-0.9v-0.9c0-1.6,0.4-2.8,1.1-3.5s1.9-1.1,3.4-1.1
		c1,0,2,0.2,3,0.5l-0.8,2.2c-0.7-0.2-1.4-0.3-2-0.3s-1.1,0.2-1.4,0.6c-0.3,0.4-0.4,1-0.4,1.8v0.9h3.3L807.9,78.5L807.9,78.5z
		 M810,72.7c0-0.5,0.1-0.9,0.4-1.2s0.7-0.4,1.2-0.4s0.9,0.1,1.2,0.4c0.3,0.3,0.4,0.7,0.4,1.2s-0.1,0.9-0.4,1.1
		c-0.3,0.3-0.7,0.4-1.2,0.4s-0.9-0.1-1.2-0.4C810.1,73.5,810,73.2,810,72.7z M813,89.7h-2.9V76.3h2.9V89.7z"/>
	<path class="st3" d="M822.1,87.7c0.7,0,1.4-0.1,2.1-0.3v2.2c-0.3,0.1-0.7,0.3-1.2,0.3c-0.5,0.1-1,0.1-1.5,0.1
		c-2.7,0-4.1-1.4-4.1-4.3v-7.2h-1.9v-1.3l2-1l1-2.8h1.8v3h3.8v2.2h-3.8v7.2c0,0.7,0.2,1.2,0.5,1.5C821.1,87.6,821.5,87.7,822.1,87.7
		z"/>
	<path class="st3" d="M835.3,89.7l-0.6-1.9h-0.1c-0.6,0.8-1.3,1.4-2,1.7c-0.7,0.3-1.5,0.4-2.5,0.4c-1.3,0-2.4-0.4-3.1-1.1
		s-1.1-1.7-1.1-3c0-1.4,0.5-2.4,1.5-3.1c1-0.7,2.6-1.1,4.7-1.2l2.3-0.1v-0.7c0-0.9-0.2-1.5-0.6-1.9s-1-0.6-1.9-0.6
		c-0.7,0-1.3,0.1-2,0.3c-0.6,0.2-1.2,0.4-1.8,0.7l-0.9-2c0.7-0.4,1.5-0.7,2.4-0.9s1.7-0.3,2.5-0.3c1.7,0,3,0.4,3.9,1.1
		c0.9,0.7,1.3,1.9,1.3,3.5v9.1H835.3z M831,87.8c1,0,1.9-0.3,2.5-0.9c0.6-0.6,0.9-1.4,0.9-2.4v-1.2l-1.7,0.1c-1.3,0-2.3,0.3-2.9,0.7
		c-0.6,0.4-0.9,1-0.9,1.8c0,0.6,0.2,1.1,0.5,1.4C829.7,87.6,830.3,87.8,831,87.8z"/>
	<path class="st3" d="M859.1,89.7h-2.9v-8.3c0-1-0.2-1.8-0.6-2.3c-0.4-0.5-1-0.8-1.8-0.8c-1.1,0-1.9,0.4-2.4,1.1
		c-0.5,0.7-0.8,1.9-0.8,3.6v6.7h-2.9V76.3h2.2l0.4,1.8h0.1c0.4-0.6,0.9-1.1,1.6-1.5s1.5-0.5,2.3-0.5c2.1,0,3.4,0.7,4.1,2.1h0.2
		c0.4-0.7,1-1.2,1.7-1.6c0.7-0.4,1.5-0.6,2.5-0.6c1.6,0,2.8,0.4,3.5,1.2c0.7,0.8,1.1,2,1.1,3.7v8.8h-2.9v-8.3c0-1-0.2-1.8-0.6-2.3
		c-0.4-0.5-1-0.8-1.8-0.8c-1.1,0-1.9,0.3-2.4,1s-0.8,1.8-0.8,3.2v7.2L859.1,89.7L859.1,89.7z"/>
	<path class="st3" d="M877.4,90c-2.1,0-3.7-0.6-4.9-1.8c-1.2-1.2-1.8-2.9-1.8-5c0-2.2,0.5-3.9,1.6-5.2s2.6-1.9,4.5-1.9
		c1.8,0,3.2,0.5,4.2,1.6s1.5,2.6,1.5,4.4v1.5h-9c0,1.3,0.4,2.3,1.1,3s1.6,1.1,2.8,1.1c0.8,0,1.5-0.1,2.2-0.2
		c0.7-0.1,1.4-0.4,2.2-0.7v2.3c-0.7,0.3-1.4,0.6-2.1,0.7S878.4,90,877.4,90z M876.9,78.2c-0.9,0-1.6,0.3-2.2,0.9
		c-0.6,0.6-0.9,1.4-1,2.5h6.1c0-1.1-0.3-2-0.8-2.5C878.5,78.5,877.8,78.2,876.9,78.2z M875.1,74.7v-0.3c0.5-0.6,0.9-1.2,1.4-1.9
		s0.9-1.3,1.2-1.8h3.3V71c-0.4,0.5-1.1,1.1-1.9,1.9c-0.8,0.8-1.5,1.4-2.1,1.8H875.1z"/>
	<path class="st3" d="M890.9,87.7c0.7,0,1.4-0.1,2.1-0.3v2.2c-0.3,0.1-0.7,0.3-1.2,0.3c-0.5,0.1-1,0.1-1.5,0.1
		c-2.7,0-4.1-1.4-4.1-4.3v-7.2h-1.8v-1.3l2-1l1-2.8h1.8v3h3.8v2.2h-3.8v7.2c0,0.7,0.2,1.2,0.5,1.5C890,87.6,890.4,87.7,890.9,87.7z"
		/>
	<path class="st3" d="M902.5,76.1c0.6,0,1,0,1.4,0.1l-0.3,2.7c-0.4-0.1-0.8-0.1-1.3-0.1c-1.1,0-2.1,0.4-2.8,1.1
		c-0.7,0.7-1.1,1.7-1.1,2.9v7h-2.9V76.4h2.2l0.4,2.4h0.1c0.4-0.8,1-1.4,1.7-1.9C900.9,76.3,901.7,76.1,902.5,76.1z"/>
	<path class="st3" d="M906.3,72.7c0-0.5,0.1-0.9,0.4-1.2s0.7-0.4,1.2-0.4s0.9,0.1,1.2,0.4c0.3,0.3,0.4,0.7,0.4,1.2s-0.1,0.9-0.4,1.1
		c-0.3,0.3-0.7,0.4-1.2,0.4s-0.9-0.1-1.2-0.4C906.4,73.5,906.3,73.2,906.3,72.7z M909.3,89.7h-2.9V76.3h2.9V89.7z"/>
	<path class="st3" d="M918.8,90c-2,0-3.6-0.6-4.6-1.8c-1.1-1.2-1.6-2.9-1.6-5.1c0-2.3,0.6-4,1.7-5.2c1.1-1.2,2.7-1.8,4.8-1.8
		c1.4,0,2.7,0.3,3.8,0.8l-0.9,2.3c-1.2-0.5-2.2-0.7-3-0.7c-2.3,0-3.5,1.5-3.5,4.6c0,1.5,0.3,2.6,0.9,3.4c0.6,0.8,1.4,1.1,2.5,1.1
		c1.3,0,2.5-0.3,3.6-0.9v2.5c-0.5,0.3-1.1,0.5-1.6,0.6C920.3,89.9,919.6,90,918.8,90z"/>
	<path class="st3" d="M934.1,89.7l-0.6-1.9h-0.1c-0.6,0.8-1.3,1.4-2,1.7c-0.7,0.3-1.5,0.4-2.5,0.4c-1.3,0-2.4-0.4-3.1-1.1
		s-1.1-1.7-1.1-3c0-1.4,0.5-2.4,1.5-3.1c1-0.7,2.6-1.1,4.7-1.2l2.3-0.1v-0.7c0-0.9-0.2-1.5-0.6-1.9c-0.4-0.4-1-0.6-1.9-0.6
		c-0.7,0-1.3,0.1-2,0.3c-0.6,0.2-1.2,0.4-1.8,0.7l-0.9-2c0.7-0.4,1.5-0.7,2.4-0.9s1.7-0.3,2.5-0.3c1.7,0,3,0.4,3.9,1.1
		c0.9,0.7,1.3,1.9,1.3,3.5v9.1H934.1z M929.8,87.8c1,0,1.9-0.3,2.5-0.9c0.6-0.6,0.9-1.4,0.9-2.4v-1.2l-1.7,0.1
		c-1.3,0-2.3,0.3-2.9,0.7s-0.9,1-0.9,1.8c0,0.6,0.2,1.1,0.5,1.4C928.5,87.6,929.1,87.8,929.8,87.8z"/>
	<path class="st3" d="M943.1,87.1c-0.4,1.5-1.1,3.4-2.1,5.8h-2.1c0.6-2.2,1-4.2,1.3-6.1h2.8L943.1,87.1z"/>
	<path class="st3" d="M459.6,127.6c-1.7,0-3-0.6-4-1.8h-0.2c0.1,1.1,0.2,1.8,0.2,2.1v5.5h-2.9V114h2.3c0.1,0.3,0.2,0.9,0.4,1.8h0.1
		c0.9-1.4,2.2-2,4-2c1.7,0,3,0.6,3.9,1.8s1.4,2.9,1.4,5.1c0,2.2-0.5,3.9-1.4,5.1S461.2,127.6,459.6,127.6z M458.9,116
		c-1.1,0-2,0.3-2.5,1s-0.8,1.7-0.8,3.2v0.4c0,1.6,0.3,2.8,0.8,3.6s1.4,1.1,2.5,1.1c1,0,1.8-0.4,2.3-1.2s0.8-2,0.8-3.5
		s-0.3-2.6-0.8-3.4C460.7,116.4,459.9,116,458.9,116z"/>
	<path class="st3" d="M476.7,127.3l-0.6-1.9H476c-0.6,0.8-1.3,1.4-2,1.7s-1.5,0.4-2.5,0.4c-1.3,0-2.4-0.4-3.1-1.1s-1.1-1.7-1.1-3
		c0-1.4,0.5-2.4,1.5-3.1c1-0.7,2.6-1.1,4.7-1.2l2.3-0.1v-0.7c0-0.9-0.2-1.5-0.6-1.9s-1-0.6-1.9-0.6c-0.7,0-1.3,0.1-2,0.3
		c-0.6,0.2-1.2,0.4-1.8,0.7l-0.9-2c0.7-0.4,1.5-0.7,2.4-0.9s1.7-0.3,2.5-0.3c1.7,0,3,0.4,3.9,1.1c0.9,0.7,1.3,1.9,1.3,3.5v9.1H476.7
		z M472.4,125.4c1,0,1.9-0.3,2.5-0.9c0.6-0.6,0.9-1.4,0.9-2.4v-1.2l-1.7,0.1c-1.3,0-2.3,0.3-2.9,0.7s-0.9,1-0.9,1.8
		c0,0.6,0.2,1.1,0.5,1.4S471.7,125.4,472.4,125.4z"/>
	<path class="st3" d="M491.7,123.5c0,1.3-0.5,2.3-1.4,3s-2.3,1.1-4.1,1.1c-1.8,0-3.2-0.3-4.3-0.8v-2.5c1.6,0.7,3.1,1.1,4.4,1.1
		c1.8,0,2.6-0.5,2.6-1.6c0-0.3-0.1-0.6-0.3-0.9c-0.2-0.2-0.5-0.5-1-0.7s-1.1-0.5-1.9-0.8c-1.5-0.6-2.6-1.2-3.1-1.8s-0.8-1.4-0.8-2.3
		c0-1.2,0.5-2,1.4-2.7c0.9-0.6,2.2-1,3.8-1c1.6,0,3.1,0.3,4.5,1l-0.9,2.2c-1.5-0.6-2.7-0.9-3.7-0.9c-1.5,0-2.3,0.4-2.3,1.3
		c0,0.4,0.2,0.8,0.6,1.1s1.2,0.7,2.6,1.2c1.1,0.4,1.9,0.8,2.4,1.2s0.9,0.8,1.1,1.2S491.7,122.8,491.7,123.5z"/>
	<path class="st3" d="M503.8,123.5c0,1.3-0.5,2.3-1.4,3s-2.3,1.1-4.1,1.1s-3.2-0.3-4.3-0.8v-2.5c1.6,0.7,3.1,1.1,4.4,1.1
		c1.8,0,2.6-0.5,2.6-1.6c0-0.3-0.1-0.6-0.3-0.9c-0.2-0.2-0.5-0.5-1-0.7s-1.1-0.5-1.9-0.8c-1.5-0.6-2.6-1.2-3.1-1.8s-0.8-1.4-0.8-2.3
		c0-1.2,0.5-2,1.4-2.7c0.9-0.6,2.2-1,3.8-1s3.1,0.3,4.5,1l-0.9,2.2c-1.5-0.6-2.7-0.9-3.7-0.9c-1.5,0-2.3,0.4-2.3,1.3
		c0,0.4,0.2,0.8,0.6,1.1c0.4,0.3,1.2,0.7,2.6,1.2c1.1,0.4,1.9,0.8,2.4,1.2s0.9,0.8,1.1,1.2S503.8,122.8,503.8,123.5z"/>
	<path class="st3" d="M515.3,127.3l-0.6-1.9h-0.1c-0.6,0.8-1.3,1.4-2,1.7c-0.7,0.3-1.5,0.4-2.5,0.4c-1.3,0-2.4-0.4-3.1-1.1
		s-1.1-1.7-1.1-3c0-1.4,0.5-2.4,1.5-3.1c1-0.7,2.6-1.1,4.7-1.2l2.3-0.1v-0.7c0-0.9-0.2-1.5-0.6-1.9s-1-0.6-1.9-0.6
		c-0.7,0-1.3,0.1-2,0.3c-0.6,0.2-1.2,0.4-1.8,0.7l-0.9-2c0.7-0.4,1.5-0.7,2.4-0.9s1.7-0.3,2.5-0.3c1.7,0,3,0.4,3.9,1.1
		c0.9,0.7,1.3,1.9,1.3,3.5v9.1H515.3z M511.1,125.4c1,0,1.9-0.3,2.5-0.9c0.6-0.6,0.9-1.4,0.9-2.4v-1.2l-1.7,0.1
		c-1.3,0-2.3,0.3-2.9,0.7c-0.6,0.4-0.9,1-0.9,1.8c0,0.6,0.2,1.1,0.5,1.4S510.4,125.4,511.1,125.4z"/>
	<path class="st3" d="M533.2,127.3h-2.9V119c0-1-0.2-1.8-0.6-2.3c-0.4-0.5-1.1-0.8-2-0.8c-1.2,0-2.1,0.4-2.6,1.1
		c-0.6,0.7-0.8,1.9-0.8,3.6v6.7h-2.9v-13.4h2.2l0.4,1.8h0.1c0.4-0.6,1-1.1,1.7-1.5c0.7-0.3,1.6-0.5,2.5-0.5c3.2,0,4.8,1.6,4.8,4.9
		L533.2,127.3L533.2,127.3z"/>
	<path class="st3" d="M541.7,127.6c-1.7,0-3-0.6-3.9-1.8s-1.4-2.9-1.4-5.1c0-2.2,0.5-3.9,1.4-5.1c1-1.2,2.3-1.8,4-1.8
		c1.8,0,3.1,0.7,4,2h0.1c-0.1-1-0.2-1.7-0.2-2.3v-4.9h2.9v18.9h-2.2l-0.5-1.8h-0.1C544.8,126.9,543.5,127.6,541.7,127.6z
		 M542.5,125.3c1.2,0,2-0.3,2.6-1c0.5-0.7,0.8-1.7,0.8-3.2v-0.4c0-1.7-0.3-2.9-0.8-3.6c-0.6-0.7-1.4-1.1-2.6-1.1
		c-1,0-1.8,0.4-2.3,1.2s-0.8,2-0.8,3.5s0.3,2.6,0.8,3.4C540.6,124.9,541.4,125.3,542.5,125.3z"/>
	<path class="st3" d="M564.6,120.6c0,2.2-0.6,3.9-1.7,5.1c-1.1,1.2-2.7,1.8-4.7,1.8c-1.3,0-2.4-0.3-3.3-0.9c-1-0.6-1.7-1.4-2.2-2.4
		c-0.5-1.1-0.8-2.3-0.8-3.7c0-2.2,0.6-3.9,1.7-5.1c1.1-1.2,2.7-1.8,4.7-1.8c1.9,0,3.5,0.6,4.6,1.9
		C564,116.8,564.6,118.5,564.6,120.6z M554.8,120.6c0,3.1,1.1,4.7,3.4,4.7s3.4-1.6,3.4-4.7c0-3.1-1.1-4.6-3.4-4.6
		c-1.2,0-2.1,0.4-2.6,1.2S554.8,119.1,554.8,120.6z"/>
	<path class="st3" d="M582.7,127.3l-0.6-1.9H582c-0.6,0.8-1.3,1.4-2,1.7c-0.7,0.3-1.5,0.4-2.5,0.4c-1.3,0-2.4-0.4-3.1-1.1
		s-1.1-1.7-1.1-3c0-1.4,0.5-2.4,1.5-3.1c1-0.7,2.6-1.1,4.7-1.2l2.3-0.1v-0.7c0-0.9-0.2-1.5-0.6-1.9c-0.4-0.4-1-0.6-1.9-0.6
		c-0.7,0-1.3,0.1-2,0.3c-0.6,0.2-1.2,0.4-1.8,0.7l-0.9-2c0.7-0.4,1.5-0.7,2.4-0.9s1.7-0.3,2.5-0.3c1.7,0,3,0.4,3.9,1.1
		c0.9,0.7,1.3,1.9,1.3,3.5v9.1H582.7z M578.5,125.4c1,0,1.9-0.3,2.5-0.9c0.6-0.6,0.9-1.4,0.9-2.4v-1.2l-1.7,0.1
		c-1.3,0-2.3,0.3-2.9,0.7c-0.6,0.4-0.9,1-0.9,1.8c0,0.6,0.2,1.1,0.5,1.4C577.2,125.2,577.8,125.4,578.5,125.4z"/>
	<path class="st3" d="M606.6,127.3h-2.9V119c0-1-0.2-1.8-0.6-2.3c-0.4-0.5-1-0.8-1.8-0.8c-1.1,0-1.9,0.4-2.4,1.1
		c-0.5,0.7-0.8,1.9-0.8,3.6v6.7h-2.9v-13.4h2.2l0.4,1.8h0.1c0.4-0.6,0.9-1.1,1.6-1.5s1.5-0.5,2.3-0.5c2.1,0,3.4,0.7,4.1,2.1h0.2
		c0.4-0.7,1-1.2,1.7-1.6c0.7-0.4,1.5-0.6,2.5-0.6c1.6,0,2.8,0.4,3.5,1.2c0.7,0.8,1.1,2,1.1,3.7v8.8H612V119c0-1-0.2-1.8-0.6-2.3
		c-0.4-0.5-1-0.8-1.8-0.8c-1.1,0-1.9,0.3-2.4,1s-0.8,1.8-0.8,3.2v7.2L606.6,127.3L606.6,127.3z"/>
	<path class="st3" d="M624.9,127.6c-2.1,0-3.7-0.6-4.9-1.8c-1.2-1.2-1.8-2.9-1.8-5c0-2.2,0.5-3.9,1.6-5.2s2.6-1.9,4.5-1.9
		c1.8,0,3.2,0.5,4.2,1.6s1.5,2.6,1.5,4.4v1.5h-9c0,1.3,0.4,2.3,1.1,3s1.6,1.1,2.8,1.1c0.8,0,1.5-0.1,2.2-0.2
		c0.7-0.1,1.4-0.4,2.2-0.7v2.3c-0.7,0.3-1.4,0.6-2.1,0.7S625.8,127.6,624.9,127.6z M624.4,115.8c-0.9,0-1.6,0.3-2.2,0.9
		c-0.6,0.6-0.9,1.4-1,2.5h6.1c0-1.1-0.3-2-0.8-2.5C626,116.1,625.3,115.8,624.4,115.8z"/>
	<path class="st3" d="M642.4,123.5c0,1.3-0.5,2.3-1.4,3s-2.3,1.1-4.1,1.1c-1.8,0-3.2-0.3-4.3-0.8v-2.5c1.6,0.7,3.1,1.1,4.4,1.1
		c1.8,0,2.6-0.5,2.6-1.6c0-0.3-0.1-0.6-0.3-0.9c-0.2-0.2-0.5-0.5-1-0.7s-1.1-0.5-1.9-0.8c-1.5-0.6-2.6-1.2-3.1-1.8s-0.8-1.4-0.8-2.3
		c0-1.2,0.5-2,1.4-2.7c0.9-0.6,2.2-1,3.8-1s3.1,0.3,4.5,1l-0.9,2.2c-1.5-0.6-2.7-0.9-3.7-0.9c-1.5,0-2.3,0.4-2.3,1.3
		c0,0.4,0.2,0.8,0.6,1.1s1.2,0.7,2.6,1.2c1.1,0.4,1.9,0.8,2.4,1.2s0.9,0.8,1.1,1.2S642.4,122.8,642.4,123.5z"/>
	<path class="st3" d="M656.8,127.3h-2.9V119c0-1-0.2-1.8-0.6-2.3s-1-0.8-1.8-0.8c-1.1,0-1.9,0.4-2.4,1.1c-0.5,0.7-0.8,1.9-0.8,3.6
		v6.7h-2.8v-13.4h2.2l0.4,1.8h0.1c0.4-0.6,0.9-1.1,1.6-1.5s1.5-0.5,2.3-0.5c2.1,0,3.4,0.7,4.1,2.1h0.2c0.4-0.7,1-1.2,1.7-1.6
		c0.7-0.4,1.5-0.6,2.5-0.6c1.6,0,2.8,0.4,3.5,1.2c0.7,0.8,1.1,2,1.1,3.7v8.8h-2.9V119c0-1-0.2-1.8-0.6-2.3c-0.4-0.5-1-0.8-1.8-0.8
		c-1.1,0-1.9,0.3-2.4,1s-0.8,1.8-0.8,3.2L656.8,127.3L656.8,127.3L656.8,127.3z"/>
	<path class="st3" d="M677.7,127.3l-0.6-1.9H677c-0.6,0.8-1.3,1.4-2,1.7c-0.7,0.3-1.5,0.4-2.5,0.4c-1.3,0-2.4-0.4-3.1-1.1
		s-1.1-1.7-1.1-3c0-1.4,0.5-2.4,1.5-3.1c1-0.7,2.6-1.1,4.7-1.2l2.3-0.1v-0.7c0-0.9-0.2-1.5-0.6-1.9c-0.4-0.4-1-0.6-1.9-0.6
		c-0.7,0-1.3,0.1-2,0.3c-0.6,0.2-1.2,0.4-1.8,0.7l-0.9-2c0.7-0.4,1.5-0.7,2.4-0.9s1.7-0.3,2.5-0.3c1.7,0,3,0.4,3.9,1.1
		c0.9,0.7,1.3,1.9,1.3,3.5v9.1H677.7z M673.4,125.4c1,0,1.9-0.3,2.5-0.9c0.6-0.6,0.9-1.4,0.9-2.4v-1.2l-1.7,0.1
		c-1.3,0-2.3,0.3-2.9,0.7c-0.6,0.4-0.9,1-0.9,1.8c0,0.6,0.2,1.1,0.5,1.4C672.1,125.2,672.7,125.4,673.4,125.4z"/>
	<path class="st3" d="M698.6,127.3l-0.6-1.9h-0.1c-0.6,0.8-1.3,1.4-2,1.7c-0.7,0.3-1.5,0.4-2.5,0.4c-1.3,0-2.4-0.4-3.1-1.1
		s-1.1-1.7-1.1-3c0-1.4,0.5-2.4,1.5-3.1c1-0.7,2.6-1.1,4.7-1.2l2.3-0.1v-0.7c0-0.9-0.2-1.5-0.6-1.9c-0.4-0.4-1-0.6-1.9-0.6
		c-0.7,0-1.3,0.1-2,0.3c-0.6,0.2-1.2,0.4-1.8,0.7l-0.9-2c0.7-0.4,1.5-0.7,2.4-0.9s1.7-0.3,2.5-0.3c1.7,0,3,0.4,3.9,1.1
		c0.9,0.7,1.3,1.9,1.3,3.5v9.1H698.6z M694.3,125.4c1,0,1.9-0.3,2.5-0.9c0.6-0.6,0.9-1.4,0.9-2.4v-1.2L696,121
		c-1.3,0-2.3,0.3-2.9,0.7s-0.9,1-0.9,1.8c0,0.6,0.2,1.1,0.5,1.4C693,125.2,693.6,125.4,694.3,125.4z"/>
	<path class="st3" d="M716.5,120.6c0,2.2-0.6,3.9-1.7,5.1c-1.1,1.2-2.7,1.8-4.7,1.8c-1.3,0-2.4-0.3-3.3-0.9c-1-0.6-1.7-1.4-2.2-2.4
		c-0.5-1.1-0.8-2.3-0.8-3.7c0-2.2,0.6-3.9,1.7-5.1c1.1-1.2,2.7-1.8,4.7-1.8c1.9,0,3.5,0.6,4.6,1.9
		C716,116.8,716.5,118.5,716.5,120.6z M706.8,120.6c0,3.1,1.1,4.7,3.4,4.7s3.4-1.6,3.4-4.7c0-3.1-1.1-4.6-3.4-4.6
		c-1.2,0-2.1,0.4-2.6,1.2C707,118,706.8,119.1,706.8,120.6z"/>
	<path class="st3" d="M733.1,113.6c0.6,0,1,0,1.4,0.1l-0.3,2.7c-0.4-0.1-0.8-0.1-1.3-0.1c-1.1,0-2.1,0.4-2.8,1.1
		c-0.7,0.7-1.1,1.7-1.1,2.9v7h-2.9v-13.4h2.2l0.4,2.4h0.1c0.4-0.8,1-1.4,1.7-1.9C731.5,113.9,732.3,113.6,733.1,113.6z"/>
	<path class="st3" d="M742.9,127.6c-2.1,0-3.7-0.6-4.9-1.8c-1.2-1.2-1.8-2.9-1.8-5c0-2.2,0.5-3.9,1.6-5.2s2.6-1.9,4.5-1.9
		c1.8,0,3.2,0.5,4.2,1.6s1.5,2.6,1.5,4.4v1.5h-9c0,1.3,0.4,2.3,1.1,3s1.6,1.1,2.8,1.1c0.8,0,1.5-0.1,2.2-0.2
		c0.7-0.1,1.4-0.4,2.2-0.7v2.3c-0.7,0.3-1.4,0.6-2.1,0.7S743.8,127.6,742.9,127.6z M742.4,115.8c-0.9,0-1.6,0.3-2.2,0.9
		c-0.6,0.6-0.9,1.4-1,2.5h6.1c0-1.1-0.3-2-0.8-2.5C744,116.1,743.3,115.8,742.4,115.8z"/>
	<path class="st3" d="M755.9,127.6c-1.7,0-3-0.6-3.9-1.8s-1.4-2.9-1.4-5.1c0-2.2,0.5-3.9,1.4-5.1c1-1.2,2.3-1.8,4-1.8
		c1.8,0,3.1,0.7,4,2h0.1c-0.1-1-0.2-1.7-0.2-2.3v-4.9h2.9v18.9h-2.3l-0.5-1.8h-0.1C759,126.9,757.7,127.6,755.9,127.6z M756.7,125.3
		c1.2,0,2-0.3,2.6-1c0.5-0.7,0.8-1.7,0.8-3.2v-0.4c0-1.7-0.3-2.9-0.8-3.6c-0.6-0.7-1.4-1.1-2.6-1.1c-1,0-1.8,0.4-2.3,1.2
		s-0.8,2-0.8,3.5s0.3,2.6,0.8,3.4C754.8,124.9,755.6,125.3,756.7,125.3z"/>
	<path class="st3" d="M778.8,120.6c0,2.2-0.6,3.9-1.7,5.1c-1.1,1.2-2.7,1.8-4.7,1.8c-1.3,0-2.4-0.3-3.3-0.9c-1-0.6-1.7-1.4-2.2-2.4
		c-0.5-1.1-0.8-2.3-0.8-3.7c0-2.2,0.6-3.9,1.7-5.1c1.1-1.2,2.7-1.8,4.7-1.8c1.9,0,3.5,0.6,4.6,1.9S778.8,118.5,778.8,120.6z
		 M769,120.6c0,3.1,1.1,4.7,3.4,4.7c2.3,0,3.4-1.6,3.4-4.7c0-3.1-1.1-4.6-3.4-4.6c-1.2,0-2.1,0.4-2.6,1.2
		C769.3,118,769,119.1,769,120.6z"/>
	<path class="st3" d="M788.9,113.6c0.6,0,1,0,1.4,0.1l-0.3,2.7c-0.4-0.1-0.8-0.1-1.3-0.1c-1.1,0-2.1,0.4-2.8,1.1
		c-0.7,0.7-1.1,1.7-1.1,2.9v7h-2.9v-13.4h2.2l0.4,2.4h0.1c0.4-0.8,1-1.4,1.7-1.9C787.3,113.9,788.1,113.6,788.9,113.6z"/>
	<path class="st3" d="M803.8,127.6c-1.7,0-3-0.6-3.9-1.8s-1.4-2.9-1.4-5.1c0-2.2,0.5-3.9,1.4-5.1c1-1.2,2.3-1.8,4-1.8
		c1.8,0,3.1,0.7,4,2h0.1c-0.1-1-0.2-1.7-0.2-2.3v-4.9h2.9v18.9h-2.2l-0.5-1.8h-0.1C806.9,126.9,805.6,127.6,803.8,127.6z
		 M804.6,125.3c1.2,0,2-0.3,2.6-1c0.5-0.7,0.8-1.7,0.8-3.2v-0.4c0-1.7-0.3-2.9-0.8-3.6c-0.6-0.7-1.4-1.1-2.6-1.1
		c-1,0-1.8,0.4-2.3,1.2s-0.8,2-0.8,3.5s0.3,2.6,0.8,3.4C802.7,124.9,803.5,125.3,804.6,125.3z"/>
	<path class="st3" d="M820.6,127.6c-2.1,0-3.7-0.6-4.9-1.8c-1.2-1.2-1.8-2.9-1.8-5c0-2.2,0.5-3.9,1.6-5.2s2.6-1.9,4.5-1.9
		c1.8,0,3.2,0.5,4.2,1.6s1.5,2.6,1.5,4.4v1.5h-9c0,1.3,0.4,2.3,1.1,3s1.6,1.1,2.8,1.1c0.8,0,1.5-0.1,2.2-0.2
		c0.7-0.1,1.4-0.4,2.2-0.7v2.3c-0.7,0.3-1.4,0.6-2.1,0.7S821.6,127.6,820.6,127.6z M820.1,115.8c-0.9,0-1.6,0.3-2.2,0.9
		c-0.6,0.6-0.9,1.4-1,2.5h6.1c0-1.1-0.3-2-0.8-2.5C821.7,116.1,821,115.8,820.1,115.8z"/>
	<path class="st3" d="M832,127.3h-2.9v-18.9h2.9V127.3z"/>
	<path class="st3" d="M844.5,127.3l-0.6-1.9h-0.1c-0.6,0.8-1.3,1.4-2,1.7c-0.7,0.3-1.5,0.4-2.5,0.4c-1.3,0-2.4-0.4-3.1-1.1
		s-1.1-1.7-1.1-3c0-1.4,0.5-2.4,1.5-3.1c1-0.7,2.6-1.1,4.7-1.2l2.3-0.1v-0.7c0-0.9-0.2-1.5-0.6-1.9c-0.4-0.4-1-0.6-1.9-0.6
		c-0.7,0-1.3,0.1-2,0.3c-0.6,0.2-1.2,0.4-1.8,0.7l-0.9-2c0.7-0.4,1.5-0.7,2.4-0.9s1.7-0.3,2.5-0.3c1.7,0,3,0.4,3.9,1.1
		c0.9,0.7,1.3,1.9,1.3,3.5v9.1H844.5z M840.2,125.4c1,0,1.9-0.3,2.5-0.9c0.6-0.6,0.9-1.4,0.9-2.4v-1.2l-1.7,0.1
		c-1.3,0-2.3,0.3-2.9,0.7s-0.9,1-0.9,1.8c0,0.6,0.2,1.1,0.5,1.4C838.9,125.2,839.5,125.4,840.2,125.4z"/>
	<path class="st3" d="M853.5,124.7c-0.4,1.5-1.1,3.4-2.1,5.8h-2.1c0.6-2.2,1-4.2,1.3-6.1h2.8L853.5,124.7z"/>
	<path class="st3" d="M869,127.6c-2,0-3.6-0.6-4.6-1.8c-1.1-1.2-1.6-2.9-1.6-5.1c0-2.3,0.6-4,1.7-5.2c1.1-1.2,2.7-1.8,4.8-1.8
		c1.4,0,2.7,0.3,3.8,0.8l-0.9,2.3c-1.2-0.5-2.2-0.7-3-0.7c-2.3,0-3.5,1.5-3.5,4.6c0,1.5,0.3,2.6,0.9,3.4c0.6,0.8,1.4,1.1,2.5,1.1
		c1.3,0,2.5-0.3,3.6-0.9v2.5c-0.5,0.3-1.1,0.5-1.6,0.6C870.5,127.5,869.8,127.6,869,127.6z"/>
	<path class="st3" d="M881.8,127.6c-2.1,0-3.7-0.6-4.9-1.8c-1.2-1.2-1.8-2.9-1.8-5c0-2.2,0.5-3.9,1.6-5.2s2.6-1.9,4.5-1.9
		c1.8,0,3.2,0.5,4.2,1.6s1.5,2.6,1.5,4.4v1.5h-9c0,1.3,0.4,2.3,1.1,3c0.7,0.7,1.6,1.1,2.8,1.1c0.8,0,1.5-0.1,2.2-0.2
		c0.7-0.1,1.4-0.4,2.2-0.7v2.3c-0.7,0.3-1.4,0.6-2.1,0.7S882.7,127.6,881.8,127.6z M881.3,115.8c-0.9,0-1.6,0.3-2.2,0.9
		c-0.6,0.6-0.9,1.4-1,2.5h6.1c0-1.1-0.3-2-0.8-2.5C882.9,116.1,882.2,115.8,881.3,115.8z"/>
	<path class="st3" d="M897.1,113.6c0.6,0,1,0,1.4,0.1l-0.3,2.7c-0.4-0.1-0.8-0.1-1.3-0.1c-1.1,0-2.1,0.4-2.8,1.1
		c-0.7,0.7-1.1,1.7-1.1,2.9v7h-2.9v-13.4h2.2l0.4,2.4h0.1c0.4-0.8,1-1.4,1.7-1.9C895.5,113.9,896.3,113.6,897.1,113.6z"/>
	<path class="st3" d="M906.4,127.6c-2,0-3.6-0.6-4.6-1.8c-1.1-1.2-1.6-2.9-1.6-5.1c0-2.3,0.6-4,1.7-5.2c1.1-1.2,2.7-1.8,4.8-1.8
		c1.4,0,2.7,0.3,3.8,0.8l-0.9,2.3c-1.2-0.5-2.2-0.7-3-0.7c-2.3,0-3.5,1.5-3.5,4.6c0,1.5,0.3,2.6,0.9,3.4c0.6,0.8,1.4,1.1,2.5,1.1
		c1.3,0,2.5-0.3,3.6-0.9v2.5c-0.5,0.3-1.1,0.5-1.6,0.6C907.9,127.5,907.2,127.6,906.4,127.6z"/>
	<path class="st3" d="M921.7,127.3l-0.6-1.9H921c-0.6,0.8-1.3,1.4-2,1.7c-0.7,0.3-1.5,0.4-2.5,0.4c-1.3,0-2.4-0.4-3.1-1.1
		s-1.1-1.7-1.1-3c0-1.4,0.5-2.4,1.5-3.1c1-0.7,2.6-1.1,4.7-1.2l2.3-0.1v-0.7c0-0.9-0.2-1.5-0.6-1.9c-0.4-0.4-1-0.6-1.9-0.6
		c-0.7,0-1.3,0.1-2,0.3c-0.6,0.2-1.2,0.4-1.8,0.7l-0.9-2c0.7-0.4,1.5-0.7,2.4-0.9s1.7-0.3,2.5-0.3c1.7,0,3,0.4,3.9,1.1
		c0.9,0.7,1.3,1.9,1.3,3.5v9.1H921.7z M917.5,125.4c1,0,1.9-0.3,2.5-0.9c0.6-0.6,0.9-1.4,0.9-2.4v-1.2l-1.7,0.1
		c-1.3,0-2.3,0.3-2.9,0.7c-0.6,0.4-0.9,1-0.9,1.8c0,0.6,0.2,1.1,0.5,1.4C916.2,125.2,916.8,125.4,917.5,125.4z"/>
	<path class="st3" d="M938.8,127.6c-1.7,0-3-0.6-3.9-1.8s-1.4-2.9-1.4-5.1c0-2.2,0.5-3.9,1.4-5.1c1-1.2,2.3-1.8,4-1.8
		c1.8,0,3.1,0.7,4,2h0.1c-0.1-1-0.2-1.7-0.2-2.3v-4.9h2.9v18.9h-2.2l-0.5-1.8h-0.1C941.9,126.9,940.5,127.6,938.8,127.6z
		 M939.5,125.3c1.2,0,2-0.3,2.6-1c0.5-0.7,0.8-1.7,0.8-3.2v-0.4c0-1.7-0.3-2.9-0.8-3.6c-0.6-0.7-1.4-1.1-2.6-1.1
		c-1,0-1.8,0.4-2.3,1.2s-0.8,2-0.8,3.5s0.3,2.6,0.8,3.4C937.7,124.9,938.5,125.3,939.5,125.3z"/>
	<path class="st3" d="M955.6,127.6c-2.1,0-3.7-0.6-4.9-1.8c-1.2-1.2-1.8-2.9-1.8-5c0-2.2,0.5-3.9,1.6-5.2s2.6-1.9,4.5-1.9
		c1.8,0,3.2,0.5,4.2,1.6s1.5,2.6,1.5,4.4v1.5h-9c0,1.3,0.4,2.3,1.1,3s1.6,1.1,2.8,1.1c0.8,0,1.5-0.1,2.2-0.2
		c0.7-0.1,1.4-0.4,2.2-0.7v2.3c-0.7,0.3-1.4,0.6-2.1,0.7S956.5,127.6,955.6,127.6z M955.1,115.8c-0.9,0-1.6,0.3-2.2,0.9
		c-0.6,0.6-0.9,1.4-1,2.5h6.1c0-1.1-0.3-2-0.8-2.5C956.7,116.1,956,115.8,955.1,115.8z"/>
	<path class="st3" d="M462.2,164.9l-0.4-1.8h-0.1c-0.4,0.6-1,1.1-1.7,1.5s-1.6,0.5-2.5,0.5c-1.6,0-2.8-0.4-3.6-1.2s-1.2-2-1.2-3.7
		v-8.7h2.9v8.3c0,1,0.2,1.8,0.6,2.3s1.1,0.8,2,0.8c1.2,0,2.1-0.4,2.6-1.1c0.6-0.7,0.8-1.9,0.8-3.6v-6.7h2.9v13.4H462.2z"/>
	<path class="st3" d="M479.9,164.9H477v-8.3c0-1-0.2-1.8-0.6-2.3s-1-0.8-1.8-0.8c-1.1,0-1.9,0.4-2.4,1.1c-0.5,0.7-0.8,1.9-0.8,3.6
		v6.7h-2.9v-13.4h2.2l0.4,1.8h0.1c0.4-0.6,0.9-1.1,1.6-1.5s1.5-0.5,2.3-0.5c2.1,0,3.4,0.7,4.1,2.1h0.2c0.4-0.7,1-1.2,1.7-1.6
		c0.7-0.4,1.5-0.6,2.5-0.6c1.6,0,2.8,0.4,3.5,1.2s1.1,2,1.1,3.7v8.8h-2.7v-8.3c0-1-0.2-1.8-0.6-2.3s-1-0.8-1.8-0.8
		c-1.1,0-1.9,0.3-2.4,1s-0.8,1.8-0.8,3.2L479.9,164.9L479.9,164.9z"/>
	<path class="st3" d="M504.2,165.2c-2,0-3.6-0.6-4.6-1.8c-1.1-1.2-1.6-2.9-1.6-5.1c0-2.3,0.6-4,1.7-5.2s2.7-1.8,4.8-1.8
		c1.4,0,2.7,0.3,3.8,0.8l-0.9,2.3c-1.2-0.5-2.2-0.7-3-0.7c-2.3,0-3.5,1.5-3.5,4.6c0,1.5,0.3,2.6,0.9,3.4c0.6,0.8,1.4,1.1,2.5,1.1
		c1.3,0,2.5-0.3,3.6-0.9v2.5c-0.5,0.3-1.1,0.5-1.6,0.6C505.8,165.1,505.1,165.2,504.2,165.2z"/>
	<path class="st3" d="M517,165.2c-2.1,0-3.7-0.6-4.9-1.8c-1.2-1.2-1.8-2.9-1.8-5c0-2.2,0.5-3.9,1.6-5.2c1.1-1.3,2.6-1.9,4.5-1.9
		c1.8,0,3.2,0.5,4.2,1.6s1.5,2.6,1.5,4.4v1.5h-9c0,1.3,0.4,2.3,1.1,3s1.6,1.1,2.8,1.1c0.8,0,1.5-0.1,2.2-0.2
		c0.7-0.1,1.4-0.4,2.2-0.7v2.3c-0.7,0.3-1.4,0.6-2.1,0.7S517.9,165.2,517,165.2z M516.5,153.4c-0.9,0-1.6,0.3-2.2,0.9
		c-0.6,0.6-0.9,1.4-1,2.5h6.1c0-1.1-0.3-2-0.8-2.5C518.1,153.7,517.4,153.4,516.5,153.4z"/>
	<path class="st3" d="M537.3,164.9h-2.9v-8.3c0-1-0.2-1.8-0.6-2.3c-0.4-0.5-1.1-0.8-2-0.8c-1.2,0-2.1,0.4-2.6,1.1
		c-0.6,0.7-0.8,1.9-0.8,3.6v6.7h-2.9v-13.4h2.2l0.4,1.8h0.1c0.4-0.6,1-1.1,1.7-1.5c0.7-0.3,1.6-0.5,2.5-0.5c3.2,0,4.8,1.6,4.8,4.9
		L537.3,164.9L537.3,164.9z"/>
	<path class="st3" d="M546.3,162.8c0.7,0,1.4-0.1,2.1-0.3v2.2c-0.3,0.1-0.7,0.3-1.2,0.3c-0.5,0.1-1,0.1-1.5,0.1
		c-2.7,0-4.1-1.4-4.1-4.3v-7.2h-1.8v-1.3l2-1l1-2.8h1.8v3h3.8v2.2h-3.8v7.2c0,0.7,0.2,1.2,0.5,1.5
		C545.4,162.7,545.7,162.8,546.3,162.8z"/>
	<path class="st3" d="M550.9,149.8v-0.3c0.5-0.6,0.9-1.2,1.4-1.9s0.9-1.3,1.2-1.8h3.3v0.3c-0.4,0.5-1.1,1.1-1.9,1.9
		s-1.5,1.4-2.1,1.8H550.9z M553.9,164.9H551v-13.4h2.9V164.9z"/>
	<path class="st3" d="M569.3,164.9h-2.9v-8.3c0-1-0.2-1.8-0.6-2.3s-1-0.8-1.8-0.8c-1.1,0-1.9,0.4-2.4,1.1c-0.5,0.7-0.8,1.9-0.8,3.6
		v6.7h-2.9v-13.4h2.2l0.4,1.8h0.1c0.4-0.6,0.9-1.1,1.6-1.5s1.5-0.5,2.3-0.5c2.1,0,3.4,0.7,4.1,2.1h0.2c0.4-0.7,1-1.2,1.7-1.6
		c0.7-0.4,1.5-0.6,2.5-0.6c1.6,0,2.8,0.4,3.5,1.2c0.7,0.8,1.1,2,1.1,3.7v8.8h-2.9v-8.3c0-1-0.2-1.8-0.6-2.3s-1-0.8-1.8-0.8
		c-1.1,0-1.9,0.3-2.4,1s-0.8,1.8-0.8,3.2v7.2L569.3,164.9L569.3,164.9z"/>
	<path class="st3" d="M587.7,165.2c-2.1,0-3.7-0.6-4.9-1.8c-1.2-1.2-1.8-2.9-1.8-5c0-2.2,0.5-3.9,1.6-5.2s2.6-1.9,4.5-1.9
		c1.8,0,3.2,0.5,4.2,1.6s1.5,2.6,1.5,4.4v1.5h-9c0,1.3,0.4,2.3,1.1,3c0.7,0.7,1.6,1.1,2.8,1.1c0.8,0,1.5-0.1,2.2-0.2
		c0.7-0.1,1.4-0.4,2.2-0.7v2.3c-0.7,0.3-1.4,0.6-2.1,0.7S588.6,165.2,587.7,165.2z M587.1,153.4c-0.9,0-1.6,0.3-2.2,0.9
		c-0.6,0.6-0.9,1.4-1,2.5h6.1c0-1.1-0.3-2-0.8-2.5C588.7,153.7,588,153.4,587.1,153.4z"/>
	<path class="st3" d="M601.1,162.8c0.7,0,1.4-0.1,2.1-0.3v2.2c-0.3,0.1-0.7,0.3-1.2,0.3c-0.5,0.1-1,0.1-1.5,0.1
		c-2.7,0-4.1-1.4-4.1-4.3v-7.2h-1.8v-1.3l2-1l1-2.8h1.8v3h3.8v2.2h-3.8v7.2c0,0.7,0.2,1.2,0.5,1.5
		C600.2,162.7,600.6,162.8,601.1,162.8z"/>
	<path class="st3" d="M612.7,151.2c0.6,0,1,0,1.4,0.1l-0.3,2.7c-0.4-0.1-0.8-0.1-1.3-0.1c-1.1,0-2.1,0.4-2.8,1.1
		c-0.7,0.7-1.1,1.7-1.1,2.9v7h-2.9v-13.4h2.2l0.4,2.4h0.1c0.4-0.8,1-1.4,1.7-1.9C611.1,151.5,611.9,151.2,612.7,151.2z"/>
	<path class="st3" d="M628.6,158.2c0,2.2-0.6,3.9-1.7,5.1c-1.1,1.2-2.7,1.8-4.7,1.8c-1.3,0-2.4-0.3-3.3-0.9c-1-0.6-1.7-1.4-2.2-2.4
		c-0.5-1.1-0.8-2.3-0.8-3.7c0-2.2,0.6-3.9,1.7-5.1c1.1-1.2,2.7-1.8,4.7-1.8c1.9,0,3.5,0.6,4.6,1.9C628,154.4,628.6,156,628.6,158.2z
		 M618.8,158.2c0,3.1,1.1,4.7,3.4,4.7s3.4-1.6,3.4-4.7c0-3.1-1.1-4.6-3.4-4.6c-1.2,0-2.1,0.4-2.6,1.2
		C619,155.5,618.8,156.7,618.8,158.2z"/>
	<path class="st3" d="M646.7,164.9l-0.6-1.9H646c-0.6,0.8-1.3,1.4-2,1.7c-0.7,0.3-1.5,0.4-2.5,0.4c-1.3,0-2.4-0.4-3.1-1.1
		s-1.1-1.7-1.1-3c0-1.4,0.5-2.4,1.5-3.1c1-0.7,2.6-1.1,4.7-1.2l2.3-0.1v-0.7c0-0.9-0.2-1.5-0.6-1.9s-1-0.6-1.9-0.6
		c-0.7,0-1.3,0.1-2,0.3c-0.6,0.2-1.2,0.4-1.8,0.7l-0.9-2c0.7-0.4,1.5-0.7,2.4-0.9s1.7-0.3,2.5-0.3c1.7,0,3,0.4,3.9,1.1
		c0.9,0.7,1.3,1.9,1.3,3.5v9.1H646.7z M642.5,163c1,0,1.9-0.3,2.5-0.9c0.6-0.6,0.9-1.4,0.9-2.4v-1.2l-1.7,0.1
		c-1.3,0-2.3,0.3-2.9,0.7c-0.6,0.4-0.9,1-0.9,1.8c0,0.6,0.2,1.1,0.5,1.4C641.2,162.8,641.7,163,642.5,163z"/>
	<path class="st3" d="M658.2,165.2c-2,0-3.6-0.6-4.6-1.8c-1.1-1.2-1.6-2.9-1.6-5.1c0-2.3,0.6-4,1.7-5.2c1.1-1.2,2.7-1.8,4.8-1.8
		c1.4,0,2.7,0.3,3.8,0.8l-0.9,2.3c-1.2-0.5-2.2-0.7-3-0.7c-2.3,0-3.5,1.5-3.5,4.6c0,1.5,0.3,2.6,0.9,3.4c0.6,0.8,1.4,1.1,2.5,1.1
		c1.3,0,2.5-0.3,3.6-0.9v2.5c-0.5,0.3-1.1,0.5-1.6,0.6C659.7,165.1,659,165.2,658.2,165.2z"/>
	<path class="st3" d="M664.9,147.9c0-0.5,0.1-0.9,0.4-1.2s0.7-0.4,1.2-0.4s0.9,0.1,1.2,0.4c0.3,0.3,0.4,0.7,0.4,1.2
		s-0.1,0.9-0.4,1.1c-0.3,0.3-0.7,0.4-1.2,0.4s-0.9-0.1-1.2-0.4C665,148.7,664.9,148.4,664.9,147.9z M667.9,164.9H665v-13.4h2.9
		V164.9z"/>
	<path class="st3" d="M683.3,164.9h-2.8v-8.3c0-1-0.2-1.8-0.6-2.3c-0.4-0.5-1-0.8-1.8-0.8c-1.1,0-1.9,0.4-2.4,1.1
		c-0.5,0.7-0.8,1.9-0.8,3.6v6.7H672v-13.4h2.2l0.4,1.8h0.1c0.4-0.6,0.9-1.1,1.6-1.5s1.5-0.5,2.3-0.5c2.1,0,3.4,0.7,4.1,2.1h0.2
		c0.4-0.7,1-1.2,1.7-1.6c0.7-0.4,1.5-0.6,2.5-0.6c1.6,0,2.8,0.4,3.5,1.2c0.7,0.8,1.1,2,1.1,3.7v8.8h-2.9v-8.3c0-1-0.2-1.8-0.6-2.3
		c-0.4-0.5-1-0.8-1.8-0.8c-1.1,0-1.9,0.3-2.4,1s-0.8,1.8-0.8,3.2L683.3,164.9L683.3,164.9L683.3,164.9z"/>
	<path class="st3" d="M704.2,164.9l-0.6-1.9h-0.1c-0.6,0.8-1.3,1.4-2,1.7c-0.7,0.3-1.5,0.4-2.5,0.4c-1.3,0-2.4-0.4-3.1-1.1
		s-1.1-1.7-1.1-3c0-1.4,0.5-2.4,1.5-3.1c1-0.7,2.6-1.1,4.7-1.2l2.3-0.1v-0.7c0-0.9-0.2-1.5-0.6-1.9c-0.4-0.4-1-0.6-1.9-0.6
		c-0.7,0-1.3,0.1-2,0.3c-0.6,0.2-1.2,0.4-1.8,0.7l-0.9-2c0.7-0.4,1.5-0.7,2.4-0.9s1.7-0.3,2.5-0.3c1.7,0,3,0.4,3.9,1.1
		c0.9,0.7,1.3,1.9,1.3,3.5v9.1H704.2z M700,163c1,0,1.9-0.3,2.5-0.9c0.6-0.6,0.9-1.4,0.9-2.4v-1.2l-1.7,0.1c-1.3,0-2.3,0.3-2.9,0.7
		c-0.6,0.4-0.9,1-0.9,1.8c0,0.6,0.2,1.1,0.5,1.4C698.7,162.8,699.2,163,700,163z"/>
	<path class="st3" d="M721.2,165.2c-1.7,0-3-0.6-3.9-1.8s-1.4-2.9-1.4-5.1c0-2.2,0.5-3.9,1.4-5.1c1-1.2,2.3-1.8,4-1.8
		c1.8,0,3.1,0.7,4,2h0.1c-0.1-1-0.2-1.7-0.2-2.3v-4.9h2.9v18.9h-2.2l-0.5-1.8h-0.1C724.3,164.5,723,165.2,721.2,165.2z M722,162.8
		c1.2,0,2-0.3,2.6-1c0.5-0.7,0.8-1.7,0.8-3.2v-0.4c0-1.7-0.3-2.9-0.8-3.6c-0.6-0.7-1.4-1.1-2.6-1.1c-1,0-1.8,0.4-2.3,1.2
		s-0.8,2-0.8,3.5s0.3,2.6,0.8,3.4C720.2,162.5,720.9,162.8,722,162.8z"/>
	<path class="st3" d="M740.6,164.9L740,163h-0.1c-0.6,0.8-1.3,1.4-2,1.7c-0.7,0.3-1.5,0.4-2.5,0.4c-1.3,0-2.4-0.4-3.1-1.1
		s-1.1-1.7-1.1-3c0-1.4,0.5-2.4,1.5-3.1c1-0.7,2.6-1.1,4.7-1.2l2.3-0.1v-0.7c0-0.9-0.2-1.5-0.6-1.9c-0.4-0.4-1-0.6-1.9-0.6
		c-0.7,0-1.3,0.1-2,0.3c-0.6,0.2-1.2,0.4-1.8,0.7l-0.9-2c0.7-0.4,1.5-0.7,2.4-0.9s1.7-0.3,2.5-0.3c1.7,0,3,0.4,3.9,1.1
		c0.9,0.7,1.3,1.9,1.3,3.5v9.1H740.6z M736.4,163c1,0,1.9-0.3,2.5-0.9c0.6-0.6,0.9-1.4,0.9-2.4v-1.2l-1.7,0.1
		c-1.3,0-2.3,0.3-2.9,0.7c-0.6,0.4-0.9,1-0.9,1.8c0,0.6,0.2,1.1,0.5,1.4C735.1,162.8,735.6,163,736.4,163z"/>
	<path class="st3" d="M755.7,161.1c0,1.3-0.5,2.3-1.4,3s-2.3,1.1-4.1,1.1c-1.8,0-3.2-0.3-4.3-0.8v-2.5c1.6,0.7,3.1,1.1,4.4,1.1
		c1.8,0,2.6-0.5,2.6-1.6c0-0.3-0.1-0.6-0.3-0.9c-0.2-0.2-0.5-0.5-1-0.7s-1.1-0.5-1.9-0.8c-1.5-0.6-2.6-1.2-3.1-1.8s-0.8-1.4-0.8-2.3
		c0-1.2,0.5-2,1.4-2.7c0.9-0.6,2.2-1,3.8-1s3.1,0.3,4.5,1l-0.9,2.2c-1.5-0.6-2.7-0.9-3.7-0.9c-1.5,0-2.3,0.4-2.3,1.3
		c0,0.4,0.2,0.8,0.6,1.1c0.4,0.3,1.2,0.7,2.6,1.2c1.1,0.4,1.9,0.8,2.4,1.2s0.9,0.8,1.1,1.2S755.7,160.4,755.7,161.1z"/>
	<path class="st3" d="M774.3,161.1c0,1.3-0.5,2.3-1.4,3s-2.3,1.1-4.1,1.1c-1.8,0-3.2-0.3-4.3-0.8v-2.5c1.6,0.7,3.1,1.1,4.4,1.1
		c1.8,0,2.6-0.5,2.6-1.6c0-0.3-0.1-0.6-0.3-0.9c-0.2-0.2-0.5-0.5-1-0.7s-1.1-0.5-1.9-0.8c-1.5-0.6-2.6-1.2-3.1-1.8s-0.8-1.4-0.8-2.3
		c0-1.2,0.5-2,1.4-2.7c0.9-0.6,2.2-1,3.8-1s3.1,0.3,4.5,1l-0.9,2.2c-1.5-0.6-2.7-0.9-3.7-0.9c-1.5,0-2.3,0.4-2.3,1.3
		c0,0.4,0.2,0.8,0.6,1.1c0.4,0.3,1.2,0.7,2.6,1.2c1.1,0.4,1.9,0.8,2.4,1.2s0.9,0.8,1.1,1.2S774.3,160.4,774.3,161.1z"/>
	<path class="st3" d="M789.3,158.2c0,2.2-0.6,3.9-1.7,5.1c-1.1,1.2-2.7,1.8-4.7,1.8c-1.3,0-2.4-0.3-3.3-0.9c-1-0.6-1.7-1.4-2.2-2.4
		c-0.5-1.1-0.8-2.3-0.8-3.7c0-2.2,0.6-3.9,1.7-5.1c1.1-1.2,2.7-1.8,4.7-1.8c1.9,0,3.5,0.6,4.6,1.9S789.3,156,789.3,158.2z
		 M779.5,158.2c0,3.1,1.1,4.7,3.4,4.7c2.3,0,3.4-1.6,3.4-4.7c0-3.1-1.1-4.6-3.4-4.6c-1.2,0-2.1,0.4-2.6,1.2
		C779.7,155.5,779.5,156.7,779.5,158.2z"/>
	<path class="st3" d="M799.4,151.2c1.7,0,3,0.6,3.9,1.8s1.4,2.9,1.4,5.1c0,2.2-0.5,3.9-1.4,5.1c-0.9,1.2-2.3,1.8-3.9,1.8
		c-1.7,0-3-0.6-4-1.8h-0.2l-0.5,1.6h-2.2v-18.9h2.9v4.5c0,0.3,0,0.8,0,1.5s-0.1,1.1-0.1,1.3h0.1
		C796.3,151.9,797.6,151.2,799.4,151.2z M798.7,153.6c-1.2,0-2,0.3-2.5,1s-0.8,1.8-0.8,3.4v0.2c0,1.6,0.3,2.8,0.8,3.6
		s1.4,1.1,2.5,1.1c1,0,1.8-0.4,2.3-1.2s0.8-2,0.8-3.5C801.8,155.1,800.8,153.6,798.7,153.6z"/>
	<path class="st3" d="M814.9,151.2c0.6,0,1,0,1.4,0.1L816,154c-0.4-0.1-0.8-0.1-1.3-0.1c-1.1,0-2.1,0.4-2.8,1.1
		c-0.7,0.7-1.1,1.7-1.1,2.9v7h-2.9v-13.4h2.2l0.4,2.4h0.1c0.4-0.8,1-1.4,1.7-1.9C813.3,151.5,814,151.2,814.9,151.2z"/>
	<path class="st3" d="M827.2,164.9l-0.6-1.9h-0.1c-0.6,0.8-1.3,1.4-2,1.7c-0.7,0.3-1.5,0.4-2.5,0.4c-1.3,0-2.4-0.4-3.1-1.1
		s-1.1-1.7-1.1-3c0-1.4,0.5-2.4,1.5-3.1c1-0.7,2.6-1.1,4.7-1.2l2.3-0.1v-0.7c0-0.9-0.2-1.5-0.6-1.9c-0.4-0.4-1-0.6-1.9-0.6
		c-0.7,0-1.3,0.1-2,0.3c-0.6,0.2-1.2,0.4-1.8,0.7l-0.9-2c0.7-0.4,1.5-0.7,2.4-0.9s1.7-0.3,2.5-0.3c1.7,0,3,0.4,3.9,1.1
		c0.9,0.7,1.3,1.9,1.3,3.5v9.1H827.2z M822.9,163c1,0,1.9-0.3,2.5-0.9c0.6-0.6,0.9-1.4,0.9-2.4v-1.2l-1.7,0.1
		c-1.3,0-2.3,0.3-2.9,0.7c-0.6,0.4-0.9,1-0.9,1.8c0,0.6,0.2,1.1,0.5,1.4C821.6,162.8,822.2,163,822.9,163z"/>
	<path class="st3" d="M845,164.9h-2.9v-8.3c0-1-0.2-1.8-0.6-2.3c-0.4-0.5-1.1-0.8-2-0.8c-1.2,0-2.1,0.4-2.6,1.1
		c-0.6,0.7-0.8,1.9-0.8,3.6v6.7h-2.9v-13.4h2.2l0.4,1.8h0.1c0.4-0.6,1-1.1,1.7-1.5c0.7-0.3,1.6-0.5,2.5-0.5c3.2,0,4.8,1.6,4.8,4.9
		L845,164.9L845,164.9z"/>
	<path class="st3" d="M854.4,165.2c-2,0-3.6-0.6-4.6-1.8c-1.1-1.2-1.6-2.9-1.6-5.1c0-2.3,0.6-4,1.7-5.2c1.1-1.2,2.7-1.8,4.8-1.8
		c1.4,0,2.7,0.3,3.8,0.8l-0.9,2.3c-1.2-0.5-2.2-0.7-3-0.7c-2.3,0-3.5,1.5-3.5,4.6c0,1.5,0.3,2.6,0.9,3.4c0.6,0.8,1.4,1.1,2.5,1.1
		c1.3,0,2.5-0.3,3.6-0.9v2.5c-0.5,0.3-1.1,0.5-1.6,0.6C856,165.1,855.3,165.2,854.4,165.2z"/>
	<path class="st3" d="M867.2,165.2c-2.1,0-3.7-0.6-4.9-1.8c-1.2-1.2-1.8-2.9-1.8-5c0-2.2,0.5-3.9,1.6-5.2s2.6-1.9,4.5-1.9
		c1.8,0,3.2,0.5,4.2,1.6s1.5,2.6,1.5,4.4v1.5h-9c0,1.3,0.4,2.3,1.1,3c0.7,0.7,1.6,1.1,2.8,1.1c0.8,0,1.5-0.1,2.2-0.2
		c0.7-0.1,1.4-0.4,2.2-0.7v2.3c-0.7,0.3-1.4,0.6-2.1,0.7S868.1,165.2,867.2,165.2z M866.7,153.4c-0.9,0-1.6,0.3-2.2,0.9
		c-0.6,0.6-0.9,1.4-1,2.5h6.1c0-1.1-0.3-2-0.8-2.5C868.3,153.7,867.6,153.4,866.7,153.4z"/>
	<path class="st3" d="M878.5,164.9h-2.9V146h2.9V164.9z"/>
	<path class="st3" d="M894.4,164.9h-2.9v-8.3c0-1-0.2-1.8-0.6-2.3c-0.4-0.5-1.1-0.8-2-0.8c-1.2,0-2.1,0.4-2.6,1.1
		c-0.6,0.7-0.8,1.9-0.8,3.6v6.7h-2.9V146h2.9v4.8c0,0.8,0,1.6-0.1,2.5h0.2c0.4-0.6,0.9-1.2,1.6-1.5c0.7-0.4,1.5-0.5,2.4-0.5
		c3.3,0,4.9,1.6,4.9,4.9v8.7H894.4z"/>
	<path class="st3" d="M906.8,164.9l-0.6-1.9h-0.1c-0.6,0.8-1.3,1.4-2,1.7c-0.7,0.3-1.5,0.4-2.5,0.4c-1.3,0-2.4-0.4-3.1-1.1
		s-1.1-1.7-1.1-3c0-1.4,0.5-2.4,1.5-3.1c1-0.7,2.6-1.1,4.7-1.2l2.3-0.1v-0.7c0-0.9-0.2-1.5-0.6-1.9s-1-0.6-1.9-0.6
		c-0.7,0-1.3,0.1-2,0.3c-0.6,0.2-1.2,0.4-1.8,0.7l-0.9-2c0.7-0.4,1.5-0.7,2.4-0.9s1.7-0.3,2.5-0.3c1.7,0,3,0.4,3.9,1.1
		c0.9,0.7,1.3,1.9,1.3,3.5v9.1H906.8z M902.6,163c1,0,1.9-0.3,2.5-0.9c0.6-0.6,0.9-1.4,0.9-2.4v-1.2l-1.7,0.1
		c-1.3,0-2.3,0.3-2.9,0.7c-0.6,0.4-0.9,1-0.9,1.8c0,0.6,0.2,1.1,0.5,1.4C901.3,162.8,901.9,163,902.6,163z"/>
	<path class="st3" d="M921.9,161.1c0,1.3-0.5,2.3-1.4,3s-2.3,1.1-4.1,1.1c-1.8,0-3.2-0.3-4.3-0.8v-2.5c1.6,0.7,3.1,1.1,4.4,1.1
		c1.8,0,2.6-0.5,2.6-1.6c0-0.3-0.1-0.6-0.3-0.9c-0.2-0.2-0.5-0.5-1-0.7s-1.1-0.5-1.9-0.8c-1.5-0.6-2.6-1.2-3.1-1.8s-0.8-1.4-0.8-2.3
		c0-1.2,0.5-2,1.4-2.7c0.9-0.6,2.2-1,3.8-1s3.1,0.3,4.5,1l-0.9,2.2c-1.5-0.6-2.7-0.9-3.7-0.9c-1.5,0-2.3,0.4-2.3,1.3
		c0,0.4,0.2,0.8,0.6,1.1s1.2,0.7,2.6,1.2c1.1,0.4,1.9,0.8,2.4,1.2s0.9,0.8,1.1,1.2S921.9,160.4,921.9,161.1z"/>
	<path class="st3" d="M937.3,165.2c-2.1,0-3.7-0.6-4.9-1.8c-1.2-1.2-1.8-2.9-1.8-5c0-2.2,0.5-3.9,1.6-5.2s2.6-1.9,4.5-1.9
		c1.8,0,3.2,0.5,4.2,1.6s1.5,2.6,1.5,4.4v1.5h-9c0,1.3,0.4,2.3,1.1,3c0.7,0.7,1.6,1.1,2.8,1.1c0.8,0,1.5-0.1,2.2-0.2
		c0.7-0.1,1.4-0.4,2.2-0.7v2.3c-0.7,0.3-1.4,0.6-2.1,0.7S938.2,165.2,937.3,165.2z M936.8,153.4c-0.9,0-1.6,0.3-2.2,0.9
		c-0.6,0.6-0.9,1.4-1,2.5h6.1c0-1.1-0.3-2-0.8-2.5C938.4,153.7,937.7,153.4,936.8,153.4z"/>
	<path class="st3" d="M457.3,202.7c-1.7,0-3-0.6-3.9-1.8c-0.9-1.2-1.4-2.9-1.4-5.1s0.5-3.9,1.4-5.1c1-1.2,2.3-1.8,4-1.8
		c1.8,0,3.1,0.7,4,2h0.1c-0.1-1-0.2-1.7-0.2-2.3v-4.9h2.9v18.8H462l-0.5-1.8h-0.1C460.4,202.1,459,202.7,457.3,202.7z M458,200.4
		c1.2,0,2-0.3,2.6-1c0.5-0.7,0.8-1.7,0.8-3.2v-0.4c0-1.7-0.3-2.9-0.8-3.6s-1.4-1.1-2.6-1.1c-1,0-1.8,0.4-2.3,1.2
		c-0.5,0.8-0.8,2-0.8,3.5s0.3,2.6,0.8,3.4C456.2,200,457,200.4,458,200.4z"/>
	<path class="st3" d="M476.7,202.5l-0.6-1.9H476c-0.6,0.8-1.3,1.4-2,1.7c-0.7,0.3-1.5,0.4-2.5,0.4c-1.3,0-2.4-0.4-3.1-1.1
		s-1.1-1.7-1.1-3c0-1.4,0.5-2.4,1.5-3.1s2.6-1.1,4.7-1.2l2.3-0.1v-0.7c0-0.9-0.2-1.5-0.6-1.9s-1-0.6-1.9-0.6c-0.7,0-1.3,0.1-2,0.3
		c-0.6,0.2-1.2,0.4-1.8,0.7l-0.9-2c0.7-0.4,1.5-0.7,2.4-0.9c0.9-0.2,1.7-0.3,2.5-0.3c1.7,0,3,0.4,3.9,1.1s1.3,1.9,1.3,3.5v9.1
		L476.7,202.5L476.7,202.5z M472.4,200.5c1,0,1.9-0.3,2.5-0.9s0.9-1.4,0.9-2.4V196l-1.7,0.1c-1.3,0-2.3,0.3-2.9,0.7
		c-0.6,0.4-0.9,1-0.9,1.8c0,0.6,0.2,1.1,0.5,1.4S471.7,200.5,472.4,200.5z"/>
	<path class="st3" d="M491.7,198.7c0,1.3-0.5,2.3-1.4,3c-1,0.7-2.3,1.1-4.1,1.1c-1.8,0-3.2-0.3-4.3-0.8v-2.5
		c1.6,0.7,3.1,1.1,4.4,1.1c1.8,0,2.6-0.5,2.6-1.6c0-0.3-0.1-0.6-0.3-0.9c-0.2-0.2-0.5-0.5-1-0.7s-1.1-0.5-1.9-0.8
		c-1.5-0.6-2.6-1.2-3.1-1.8s-0.8-1.4-0.8-2.3c0-1.2,0.5-2,1.4-2.7c0.9-0.6,2.2-1,3.8-1c1.6,0,3.1,0.3,4.5,1l-0.9,2.2
		c-1.5-0.6-2.7-0.9-3.7-0.9c-1.5,0-2.3,0.4-2.3,1.3c0,0.4,0.2,0.8,0.6,1.1c0.4,0.3,1.2,0.7,2.6,1.2c1.1,0.4,1.9,0.8,2.4,1.2
		c0.5,0.4,0.9,0.8,1.1,1.2S491.7,198,491.7,198.7z"/>
	<path class="st3" d="M513.2,195.7c0,2.2-0.6,3.9-1.7,5.1c-1.1,1.2-2.7,1.8-4.7,1.8c-1.3,0-2.4-0.3-3.3-0.9s-1.7-1.4-2.2-2.4
		c-0.5-1.1-0.8-2.3-0.8-3.7c0-2.2,0.6-3.9,1.7-5.1c1.1-1.2,2.7-1.8,4.7-1.8c1.9,0,3.5,0.6,4.6,1.9
		C512.6,191.9,513.2,193.6,513.2,195.7z M503.4,195.7c0,3.1,1.1,4.7,3.4,4.7c2.3,0,3.4-1.6,3.4-4.7s-1.1-4.6-3.4-4.6
		c-1.2,0-2.1,0.4-2.6,1.2C503.7,193.1,503.4,194.3,503.4,195.7z"/>
	<path class="st3" d="M523.3,188.8c0.6,0,1,0,1.4,0.1l-0.3,2.7c-0.4-0.1-0.8-0.1-1.3-0.1c-1.1,0-2.1,0.4-2.8,1.1
		c-0.7,0.7-1.1,1.7-1.1,2.9v7h-2.7v-13.4h2.2l0.4,2.4h0.1c0.4-0.8,1-1.4,1.7-1.9C521.6,189.1,522.5,188.8,523.3,188.8z"/>
	<path class="st3" d="M533.1,202.7c-2.1,0-3.7-0.6-4.9-1.8c-1.2-1.2-1.8-2.9-1.8-5c0-2.2,0.5-3.9,1.6-5.2s2.6-1.9,4.5-1.9
		c1.8,0,3.2,0.5,4.2,1.6s1.5,2.6,1.5,4.4v1.5h-9c0,1.3,0.4,2.3,1.1,3s1.6,1.1,2.8,1.1c0.8,0,1.5-0.1,2.2-0.2
		c0.7-0.1,1.4-0.4,2.2-0.7v2.3c-0.7,0.3-1.4,0.6-2.1,0.7S534,202.7,533.1,202.7z M532.6,191c-0.9,0-1.6,0.3-2.2,0.9
		c-0.5,0.6-0.9,1.4-1,2.5h6.1c0-1.1-0.3-2-0.8-2.5S533.5,191,532.6,191z"/>
	<path class="st3" d="M544.4,202.5h-2.9v-18.9h2.9V202.5z"/>
	<path class="st3" d="M560.3,202.5h-2.9v-8.3c0-1-0.2-1.8-0.6-2.3c-0.4-0.5-1.1-0.8-2-0.8c-1.2,0-2.1,0.4-2.6,1.1
		c-0.6,0.7-0.8,1.9-0.8,3.6v6.7h-2.9v-18.9h2.9v4.8c0,0.8,0,1.6-0.1,2.5h0.2c0.4-0.6,0.9-1.1,1.6-1.5c0.7-0.4,1.5-0.5,2.4-0.5
		c3.3,0,4.9,1.6,4.9,4.9v8.7L560.3,202.5L560.3,202.5z"/>
	<path class="st3" d="M572.7,202.5l-0.6-1.9H572c-0.6,0.8-1.3,1.4-2,1.7c-0.7,0.3-1.5,0.4-2.5,0.4c-1.3,0-2.4-0.4-3.1-1.1
		s-1.1-1.7-1.1-3c0-1.4,0.5-2.4,1.5-3.1s2.6-1.1,4.7-1.2l2.3-0.1v-0.7c0-0.9-0.2-1.5-0.6-1.9s-1-0.6-1.9-0.6c-0.7,0-1.3,0.1-2,0.3
		c-0.6,0.2-1.2,0.4-1.8,0.7l-0.9-2c0.7-0.4,1.5-0.7,2.4-0.9c0.9-0.2,1.7-0.3,2.5-0.3c1.7,0,3,0.4,3.9,1.1s1.3,1.9,1.3,3.5v9.1
		L572.7,202.5L572.7,202.5z M568.4,200.5c1,0,1.9-0.3,2.5-0.9s0.9-1.4,0.9-2.4V196l-1.7,0.1c-1.3,0-2.3,0.3-2.9,0.7
		c-0.6,0.4-0.9,1-0.9,1.8c0,0.6,0.2,1.1,0.5,1.4C567.1,200.3,567.7,200.5,568.4,200.5z"/>
	<path class="st3" d="M587.7,198.7c0,1.3-0.5,2.3-1.4,3c-1,0.7-2.3,1.1-4.1,1.1c-1.8,0-3.2-0.3-4.3-0.8v-2.5
		c1.6,0.7,3.1,1.1,4.4,1.1c1.8,0,2.6-0.5,2.6-1.6c0-0.3-0.1-0.6-0.3-0.9c-0.2-0.2-0.5-0.5-1-0.7s-1.1-0.5-1.9-0.8
		c-1.5-0.6-2.6-1.2-3.1-1.8s-0.8-1.4-0.8-2.3c0-1.2,0.5-2,1.4-2.7c0.9-0.6,2.2-1,3.8-1s3.1,0.3,4.5,1l-0.9,2.2
		c-1.5-0.6-2.7-0.9-3.7-0.9c-1.5,0-2.3,0.4-2.3,1.3c0,0.4,0.2,0.8,0.6,1.1c0.4,0.3,1.2,0.7,2.6,1.2c1.1,0.4,1.9,0.8,2.4,1.2
		c0.5,0.4,0.9,0.8,1.1,1.2S587.7,198,587.7,198.7z"/>
	<path class="st3" d="M590.4,201c0-0.6,0.2-1,0.5-1.4c0.3-0.3,0.8-0.5,1.3-0.5c0.6,0,1,0.2,1.3,0.5c0.3,0.3,0.5,0.8,0.5,1.3
		c0,0.6-0.2,1-0.5,1.4c-0.3,0.3-0.8,0.5-1.3,0.5s-1-0.2-1.3-0.5C590.6,202,590.4,201.6,590.4,201z"/>
	<path class="st3" d="M464.9,277.7l-1.4-4.6h-7l-1.4,4.6h-4.4l6.8-19.3h5l6.8,19.3H464.9z M462.5,269.7c-1.3-4.1-2-6.5-2.2-7
		s-0.3-1-0.3-1.3c-0.3,1.1-1.1,3.9-2.5,8.3H462.5z"/>
	<path class="st3" d="M484.9,277.7h-4v-8.6c0-1.1-0.2-1.9-0.6-2.4s-1-0.8-1.8-0.8c-1.1,0-1.9,0.4-2.4,1.1s-0.7,2-0.7,3.7v6.9h-4
		v-14.7h3.1l0.5,1.9h0.2c0.4-0.7,1.1-1.2,1.8-1.6c0.8-0.4,1.7-0.5,2.7-0.5c1.7,0,3,0.5,3.9,1.4s1.3,2.3,1.3,4V277.7z"/>
	<path class="st3" d="M502.3,270.3c0,2.4-0.6,4.3-1.9,5.6c-1.3,1.3-3,2-5.3,2c-1.4,0-2.7-0.3-3.7-0.9c-1.1-0.6-1.9-1.5-2.5-2.7
		s-0.9-2.5-0.9-4c0-2.4,0.6-4.3,1.9-5.6c1.3-1.3,3-2,5.3-2c1.4,0,2.6,0.3,3.7,0.9s1.9,1.5,2.5,2.6S502.3,268.8,502.3,270.3z
		 M492.2,270.3c0,1.5,0.2,2.5,0.7,3.3c0.5,0.7,1.3,1.1,2.3,1.1c1.1,0,1.8-0.4,2.3-1.1s0.7-1.8,0.7-3.3s-0.2-2.5-0.7-3.3
		c-0.5-0.7-1.2-1.1-2.3-1.1c-1.1,0-1.8,0.4-2.3,1.1C492.4,267.8,492.2,268.8,492.2,270.3z"/>
	<path class="st3" d="M511.8,274.7c0.7,0,1.5-0.2,2.5-0.5v3c-1,0.4-2.2,0.7-3.7,0.7c-1.6,0-2.8-0.4-3.5-1.2c-0.7-0.8-1.1-2-1.1-3.6
		V266h-1.9v-1.7l2.2-1.3l1.2-3.1h2.6v3.1h4.1v3h-4.1v7.1c0,0.6,0.2,1,0.5,1.3C510.9,274.6,511.3,274.7,511.8,274.7z"/>
	<path class="st3" d="M523.9,277.9c-2.4,0-4.2-0.7-5.5-2c-1.3-1.3-2-3.1-2-5.5c0-2.5,0.6-4.4,1.8-5.7c1.2-1.3,2.9-2,5.1-2
		c2.1,0,3.7,0.6,4.8,1.8s1.7,2.8,1.7,4.9v1.9h-9.3c0,1.1,0.4,2,1,2.7c0.6,0.6,1.5,1,2.6,1c0.9,0,1.7-0.1,2.5-0.3
		c0.8-0.2,1.6-0.5,2.5-0.9v3.1c-0.7,0.4-1.4,0.6-2.2,0.8C526.1,277.8,525.1,277.9,523.9,277.9z M523.4,265.6c-0.8,0-1.5,0.3-2,0.8
		s-0.8,1.3-0.8,2.3h5.6c0-1-0.3-1.8-0.8-2.3C524.9,265.8,524.2,265.6,523.4,265.6z"/>
	<path class="st3" d="M549.5,277.7l-0.8-2h-0.1c-0.7,0.8-1.4,1.4-2.1,1.8s-1.6,0.5-2.8,0.5c-1.4,0-2.5-0.4-3.3-1.2
		c-0.8-0.8-1.2-2-1.2-3.4c0-1.6,0.5-2.7,1.6-3.4c1.1-0.7,2.7-1.1,4.9-1.2l2.5-0.1v-0.6c0-1.5-0.8-2.2-2.3-2.2
		c-1.2,0-2.5,0.4-4.1,1.1l-1.3-2.7c1.7-0.9,3.6-1.3,5.6-1.3s3.5,0.4,4.5,1.3s1.6,2.2,1.6,3.9v9.8h-2.7V277.7z M548.3,270.9l-1.5,0.1
		c-1.2,0-2,0.2-2.6,0.6s-0.9,1-0.9,1.8c0,1.1,0.6,1.7,1.9,1.7c0.9,0,1.7-0.3,2.2-0.8c0.6-0.5,0.8-1.2,0.8-2.1L548.3,270.9
		L548.3,270.9z"/>
	<path class="st3" d="M576.5,277.7h-4v-8.6c0-1.1-0.2-1.9-0.5-2.4c-0.4-0.5-0.9-0.8-1.7-0.8c-1,0-1.8,0.4-2.2,1.1
		c-0.5,0.8-0.7,2-0.7,3.7v6.9h-4v-14.7h3.1l0.5,1.9h0.2c0.4-0.7,1-1.2,1.7-1.6c0.7-0.4,1.6-0.6,2.6-0.6c2.2,0,3.7,0.7,4.5,2.2h0.4
		c0.4-0.7,1-1.2,1.7-1.6c0.8-0.4,1.6-0.6,2.6-0.6c1.7,0,2.9,0.4,3.8,1.3c0.9,0.9,1.3,2.2,1.3,4.1v9.6h-4V269c0-1.1-0.2-1.9-0.5-2.4
		c-0.3-0.5-0.9-0.8-1.7-0.8c-1,0-1.7,0.4-2.2,1c-0.5,0.7-0.7,1.8-0.7,3.3v7.6H576.5z"/>
	<path class="st3" d="M596.4,277.9c-2.4,0-4.2-0.7-5.5-2c-1.3-1.3-2-3.1-2-5.5c0-2.5,0.6-4.4,1.8-5.7c1.2-1.3,2.9-2,5.1-2
		c2.1,0,3.7,0.6,4.8,1.8s1.7,2.8,1.7,4.9v1.9h-9.5c0,1.1,0.4,2,1,2.7c0.6,0.6,1.5,1,2.6,1c0.9,0,1.7-0.1,2.5-0.3
		c0.8-0.2,1.6-0.5,2.5-0.9v3.1c-0.7,0.4-1.4,0.6-2.2,0.8C598.5,277.8,597.5,277.9,596.4,277.9z M595.8,265.6c-0.8,0-1.5,0.3-2,0.8
		s-0.8,1.3-0.8,2.3h5.6c0-1-0.3-1.8-0.8-2.3C597.3,265.8,596.7,265.6,595.8,265.6z"/>
	<path class="st3" d="M610.3,277.9c-1.7,0-3.1-0.7-4.1-2s-1.5-3.2-1.5-5.6s0.5-4.3,1.5-5.6c1-1.3,2.4-2,4.1-2c1.8,0,3.3,0.7,4.2,2.2
		h0.1c-0.2-1.1-0.3-2.1-0.3-2.9v-4.7h4v20.4h-3.1l-0.8-1.9h-0.2C613.5,277.2,612.1,277.9,610.3,277.9z M611.7,274.7
		c1,0,1.8-0.3,2.2-0.9c0.5-0.6,0.7-1.6,0.8-3v-0.4c0-1.6-0.2-2.7-0.7-3.4c-0.5-0.7-1.3-1-2.4-1c-0.9,0-1.6,0.4-2.1,1.1
		s-0.7,1.9-0.7,3.3s0.2,2.5,0.7,3.2C610,274.4,610.7,274.7,611.7,274.7z"/>
	<path class="st3" d="M622.5,259.2c0-1.3,0.7-2,2.2-2s2.2,0.7,2.2,2c0,0.6-0.2,1.1-0.5,1.4c-0.4,0.3-0.9,0.5-1.6,0.5
		C623.2,261.2,622.5,260.5,622.5,259.2z M626.6,277.7h-4V263h4V277.7z"/>
	<path class="st3" d="M635.5,277.9c-1.7,0-3.1-0.7-4.1-2s-1.5-3.2-1.5-5.6s0.5-4.3,1.5-5.6c1-1.3,2.4-2,4.1-2c1.8,0,3.3,0.7,4.2,2.2
		h0.1c-0.2-1.1-0.3-2.1-0.3-2.9v-4.7h4v20.4h-3.1l-0.8-1.9h-0.2C638.7,277.2,637.3,277.9,635.5,277.9z M636.9,274.7
		c1,0,1.8-0.3,2.2-0.9c0.5-0.6,0.7-1.6,0.8-3v-0.4c0-1.6-0.2-2.7-0.7-3.4c-0.5-0.7-1.3-1-2.4-1c-0.9,0-1.6,0.4-2.1,1.1
		s-0.7,1.9-0.7,3.3s0.2,2.5,0.7,3.2C635.2,274.4,635.9,274.7,636.9,274.7z"/>
	<path class="st3" d="M657.1,277.7l-0.8-2h-0.1c-0.7,0.8-1.4,1.4-2.1,1.8s-1.6,0.5-2.8,0.5c-1.4,0-2.5-0.4-3.3-1.2
		c-0.8-0.8-1.2-2-1.2-3.4c0-1.6,0.5-2.7,1.6-3.4c1.1-0.7,2.7-1.1,4.9-1.2l2.5-0.1v-0.6c0-1.5-0.8-2.2-2.3-2.2
		c-1.2,0-2.5,0.4-4.1,1.1l-1.3-2.7c1.7-0.9,3.6-1.3,5.6-1.3s3.5,0.4,4.5,1.3s1.6,2.2,1.6,3.9v9.8h-2.7V277.7L657.1,277.7z
		 M656,270.9l-1.5,0.1c-1.2,0-2,0.2-2.6,0.6s-0.9,1-0.9,1.8c0,1.1,0.6,1.7,1.9,1.7c0.9,0,1.7-0.3,2.2-0.8c0.6-0.5,0.8-1.2,0.8-2.1
		L656,270.9L656,270.9z"/>
	<path class="st3" d="M677.7,277.9c-2.4,0-4.2-0.7-5.5-2c-1.3-1.3-2-3.1-2-5.5c0-2.5,0.6-4.4,1.8-5.7c1.2-1.3,2.9-2,5.1-2
		c2.1,0,3.7,0.6,4.8,1.8s1.7,2.8,1.7,4.9v1.9h-9.5c0,1.1,0.4,2,1,2.7c0.6,0.6,1.5,1,2.6,1c0.9,0,1.7-0.1,2.5-0.3
		c0.8-0.2,1.6-0.5,2.5-0.9v3.1c-0.7,0.4-1.4,0.6-2.2,0.8C679.8,277.8,678.8,277.9,677.7,277.9z M677.1,265.6c-0.8,0-1.5,0.3-2,0.8
		s-0.8,1.3-0.8,2.3h5.6c0-1-0.3-1.8-0.8-2.3C678.6,265.8,678,265.6,677.1,265.6z"/>
	<path class="st3" d="M699.8,277.9c-4.6,0-6.8-2.5-6.8-7.5c0-2.5,0.6-4.4,1.9-5.7c1.2-1.3,3-2,5.3-2c1.7,0,3.2,0.3,4.6,1l-1.2,3.1
		c-0.6-0.3-1.2-0.5-1.8-0.6c-0.5-0.2-1.1-0.2-1.6-0.2c-2.1,0-3.1,1.5-3.1,4.4s1,4.3,3.1,4.3c0.8,0,1.5-0.1,2.1-0.3
		c0.7-0.2,1.3-0.5,2-1v3.4c-0.6,0.4-1.3,0.7-2,0.9C701.6,277.9,700.9,277.9,699.8,277.9z"/>
	<path class="st3" d="M721,270.3c0,2.4-0.6,4.3-1.9,5.6c-1.3,1.3-3,2-5.3,2c-1.4,0-2.7-0.3-3.7-0.9c-1.1-0.6-1.9-1.5-2.5-2.7
		s-0.9-2.5-0.9-4c0-2.4,0.6-4.3,1.9-5.6c1.3-1.3,3-2,5.3-2c1.4,0,2.6,0.3,3.7,0.9c1.1,0.6,1.9,1.5,2.5,2.6S721,268.8,721,270.3z
		 M710.9,270.3c0,1.5,0.2,2.5,0.7,3.3c0.5,0.7,1.3,1.1,2.3,1.1c1.1,0,1.8-0.4,2.3-1.1s0.7-1.8,0.7-3.3s-0.2-2.5-0.7-3.3
		c-0.5-0.7-1.2-1.1-2.3-1.1s-1.8,0.4-2.3,1.1C711.1,267.8,710.9,268.8,710.9,270.3z"/>
	<path class="st3" d="M737.9,277.7h-4v-8.6c0-1.1-0.2-1.9-0.6-2.4c-0.4-0.5-1-0.8-1.8-0.8c-1.1,0-1.9,0.4-2.4,1.1s-0.7,2-0.7,3.7
		v6.9h-4v-14.7h3.1l0.5,1.9h0.2c0.4-0.7,1.1-1.2,1.8-1.6c0.8-0.4,1.7-0.5,2.7-0.5c1.7,0,3,0.5,3.9,1.4s1.3,2.3,1.3,4V277.7z"/>
	<path class="st3" d="M750.1,266h-3.5v11.7h-4V266h-2.2v-1.9l2.2-1.1v-1.1c0-1.7,0.4-2.9,1.2-3.7c0.8-0.8,2.1-1.2,3.9-1.2
		c1.4,0,2.6,0.2,3.7,0.6l-1,2.9c-0.8-0.3-1.5-0.4-2.2-0.4c-0.6,0-1,0.2-1.2,0.5c-0.2,0.3-0.4,0.8-0.4,1.3v0.9h3.5V266z M752.2,259.2
		c0-1.3,0.7-2,2.2-2s2.2,0.7,2.2,2c0,0.6-0.2,1.1-0.5,1.4c-0.4,0.3-0.9,0.5-1.6,0.5C753,261.2,752.2,260.5,752.2,259.2z
		 M756.4,277.7h-4V263h4V277.7z"/>
	<path class="st3" d="M768.8,262.7c0.5,0,1,0,1.4,0.1l-0.3,3.8c-0.3-0.1-0.7-0.1-1.2-0.1c-1.3,0-2.3,0.3-3,1
		c-0.7,0.7-1.1,1.6-1.1,2.8v7.5h-4v-14.7h3l0.6,2.5h0.2c0.5-0.8,1.1-1.5,1.8-2C767,263,767.9,262.7,768.8,262.7z"/>
	<path class="st3" d="M782.1,277.7l-0.8-2h-0.1c-0.7,0.8-1.4,1.4-2.1,1.8s-1.6,0.5-2.8,0.5c-1.4,0-2.5-0.4-3.3-1.2
		c-0.8-0.8-1.2-2-1.2-3.4c0-1.6,0.5-2.7,1.6-3.4c1.1-0.7,2.7-1.1,4.9-1.2l2.5-0.1v-0.6c0-1.5-0.8-2.2-2.3-2.2
		c-1.2,0-2.5,0.4-4.1,1.1l-1.3-2.7c1.7-0.9,3.6-1.3,5.6-1.3s3.5,0.4,4.5,1.3s1.6,2.2,1.6,3.9v9.8h-2.7V277.7L782.1,277.7z
		 M780.9,270.9l-1.5,0.1c-1.2,0-2,0.2-2.6,0.6s-0.9,1-0.9,1.8c0,1.1,0.6,1.7,1.9,1.7c0.9,0,1.7-0.3,2.2-0.8c0.6-0.5,0.8-1.2,0.8-2.1
		L780.9,270.9L780.9,270.9z"/>
	<path class="st3" d="M805.3,277.7l-0.8-2h-0.1c-0.7,0.8-1.4,1.4-2.1,1.8s-1.6,0.5-2.8,0.5c-1.4,0-2.5-0.4-3.3-1.2
		c-0.8-0.8-1.2-2-1.2-3.4c0-1.6,0.5-2.7,1.6-3.4c1.1-0.7,2.7-1.1,4.9-1.2l2.5-0.1v-0.6c0-1.5-0.8-2.2-2.3-2.2
		c-1.2,0-2.5,0.4-4.1,1.1l-1.3-2.7c1.7-0.9,3.6-1.3,5.6-1.3s3.5,0.4,4.5,1.3s1.6,2.2,1.6,3.9v9.8h-2.7L805.3,277.7L805.3,277.7z
		 M804.1,270.9l-1.5,0.1c-1.2,0-2,0.2-2.6,0.6s-0.9,1-0.9,1.8c0,1.1,0.6,1.7,1.9,1.7c0.9,0,1.7-0.3,2.2-0.8c0.6-0.5,0.8-1.2,0.8-2.1
		L804.1,270.9L804.1,270.9z"/>
	<path class="st3" d="M826.9,277.7h-4.1v-15.8h-5.2v-3.4h14.5v3.4h-5.2V277.7z"/>
	<path class="st3" d="M844.1,277.7l-0.8-2h-0.1c-0.7,0.8-1.4,1.4-2.1,1.8s-1.6,0.5-2.8,0.5c-1.4,0-2.5-0.4-3.3-1.2
		c-0.8-0.8-1.2-2-1.2-3.4c0-1.6,0.5-2.7,1.6-3.4c1.1-0.7,2.7-1.1,4.9-1.2l2.5-0.1v-0.6c0-1.5-0.8-2.2-2.3-2.2
		c-1.2,0-2.5,0.4-4.1,1.1l-1.3-2.7c1.7-0.9,3.6-1.3,5.6-1.3s3.5,0.4,4.5,1.3s1.6,2.2,1.6,3.9v9.8h-2.7V277.7L844.1,277.7z
		 M842.9,270.9l-1.5,0.1c-1.2,0-2,0.2-2.6,0.6s-0.9,1-0.9,1.8c0,1.1,0.6,1.7,1.9,1.7c0.9,0,1.7-0.3,2.2-0.8c0.6-0.5,0.8-1.2,0.8-2.1
		L842.9,270.9L842.9,270.9z"/>
	<path class="st3" d="M859.2,262.7c1.7,0,3.1,0.7,4.1,2s1.5,3.2,1.5,5.6s-0.5,4.3-1.5,5.6c-1,1.3-2.4,2-4.1,2s-3.1-0.6-4.1-1.9h-0.3
		l-0.7,1.6H851v-20.4h4v4.7c0,0.6-0.1,1.6-0.2,2.9h0.2C855.9,263.4,857.3,262.7,859.2,262.7z M857.9,265.9c-1,0-1.7,0.3-2.2,0.9
		s-0.7,1.6-0.7,3v0.4c0,1.6,0.2,2.7,0.7,3.4c0.5,0.7,1.2,1,2.2,1c0.8,0,1.5-0.4,2-1.1c0.5-0.8,0.7-1.9,0.7-3.3s-0.2-2.5-0.7-3.2
		C859.4,266.3,858.7,265.9,857.9,265.9z"/>
	<path class="st3" d="M874.6,277.9c-2.4,0-4.2-0.7-5.5-2c-1.3-1.3-2-3.1-2-5.5c0-2.5,0.6-4.4,1.8-5.7c1.2-1.3,2.9-2,5.1-2
		c2.1,0,3.7,0.6,4.8,1.8s1.7,2.8,1.7,4.9v1.9H871c0,1.1,0.4,2,1,2.7c0.6,0.6,1.5,1,2.6,1c0.9,0,1.7-0.1,2.5-0.3
		c0.8-0.2,1.6-0.5,2.5-0.9v3.1c-0.7,0.4-1.4,0.6-2.2,0.8C876.8,277.8,875.8,277.9,874.6,277.9z M874.1,265.6c-0.8,0-1.5,0.3-2,0.8
		s-0.8,1.3-0.8,2.3h5.6c0-1-0.3-1.8-0.8-2.3C875.6,265.8,874.9,265.6,874.1,265.6z"/>
	<path class="st3" d="M887.9,277.7h-4v-20.4h4V277.7z"/>
	<path class="st3" d="M901.4,277.7l-0.8-2h-0.1c-0.7,0.8-1.4,1.4-2.1,1.8s-1.6,0.5-2.8,0.5c-1.4,0-2.5-0.4-3.3-1.2
		c-0.8-0.8-1.2-2-1.2-3.4c0-1.6,0.5-2.7,1.6-3.4c1.1-0.7,2.7-1.1,4.9-1.2l2.5-0.1v-0.6c0-1.5-0.8-2.2-2.3-2.2
		c-1.2,0-2.5,0.4-4.1,1.1l-1.3-2.7c1.7-0.9,3.6-1.3,5.6-1.3s3.5,0.4,4.5,1.3s1.6,2.2,1.6,3.9v9.8h-2.7V277.7z M900.2,270.9l-1.5,0.1
		c-1.2,0-2,0.2-2.6,0.6s-0.9,1-0.9,1.8c0,1.1,0.6,1.7,1.9,1.7c0.9,0,1.7-0.3,2.2-0.8c0.6-0.5,0.8-1.2,0.8-2.1L900.2,270.9
		L900.2,270.9z"/>
	<path class="st3" d="M457.4,315.5c-1.7,0-3.1-0.7-4.1-2s-1.5-3.2-1.5-5.6s0.5-4.3,1.5-5.6c1-1.3,2.4-2,4.1-2c1.8,0,3.3,0.7,4.2,2.2
		h0.1c-0.2-1.1-0.3-2.1-0.3-2.9v-4.7h4v20.4h-3.1l-0.8-1.9h-0.2C460.7,314.8,459.3,315.5,457.4,315.5z M458.9,312.3
		c1,0,1.8-0.3,2.2-0.9c0.5-0.6,0.7-1.6,0.8-3V308c0-1.6-0.2-2.7-0.7-3.4c-0.5-0.7-1.3-1-2.4-1c-0.9,0-1.6,0.4-2.1,1.1
		s-0.7,1.9-0.7,3.3s0.2,2.5,0.7,3.2C457.2,312,457.9,312.3,458.9,312.3z"/>
	<path class="st3" d="M476.4,315.5c-2.4,0-4.2-0.7-5.5-2s-2-3.1-2-5.5c0-2.5,0.6-4.4,1.8-5.7c1.2-1.3,2.9-2,5.1-2
		c2.1,0,3.7,0.6,4.8,1.8s1.7,2.8,1.7,4.9v1.9h-9.5c0,1.1,0.4,2,1,2.7c0.6,0.6,1.5,1,2.6,1c0.9,0,1.7-0.1,2.5-0.3s1.6-0.5,2.5-0.9
		v3.1c-0.7,0.4-1.4,0.6-2.2,0.8C478.6,315.4,477.6,315.5,476.4,315.5z M475.9,303.2c-0.8,0-1.5,0.3-2,0.8s-0.8,1.3-0.8,2.3h5.6
		c0-1-0.3-1.8-0.8-2.3C477.4,303.4,476.7,303.2,475.9,303.2z"/>
	<path class="st3" d="M500.4,315.3h-4.1v-15.8h-5.2v-3.4h14.5v3.4h-5.2V315.3z"/>
	<path class="st3" d="M517.5,315.3l-0.8-2h-0.1c-0.7,0.8-1.4,1.4-2.1,1.8s-1.6,0.5-2.8,0.5c-1.4,0-2.5-0.4-3.3-1.2s-1.2-2-1.2-3.4
		c0-1.6,0.5-2.7,1.6-3.4c1.1-0.7,2.7-1.1,4.9-1.2l2.5-0.1v-0.8c0-1.5-0.8-2.2-2.3-2.2c-1.2,0-2.5,0.4-4.1,1.1l-1.3-2.7
		c1.7-0.9,3.6-1.3,5.6-1.3s3.5,0.4,4.5,1.3s1.6,2.2,1.6,3.9v9.8L517.5,315.3L517.5,315.3z M516.4,308.5l-1.5,0.1
		c-1.2,0-2,0.2-2.6,0.6c-0.6,0.4-0.9,1-0.9,1.8c0,1.1,0.6,1.7,1.9,1.7c0.9,0,1.7-0.3,2.2-0.8c0.6-0.5,0.8-1.2,0.8-2.1L516.4,308.5
		L516.4,308.5z"/>
	<path class="st3" d="M537.6,315.3h-4v-8.6c0-1.1-0.2-1.9-0.5-2.4c-0.4-0.5-0.9-0.8-1.7-0.8c-1,0-1.8,0.4-2.2,1.1
		c-0.5,0.8-0.7,2-0.7,3.7v6.9h-4v-14.7h3.1l0.5,1.9h0.2c0.4-0.7,1-1.2,1.7-1.6c0.7-0.4,1.6-0.6,2.6-0.6c2.2,0,3.7,0.7,4.5,2.2h0.4
		c0.4-0.7,1-1.2,1.7-1.6c0.8-0.4,1.6-0.6,2.6-0.6c1.7,0,2.9,0.4,3.8,1.3c0.9,0.9,1.3,2.2,1.3,4.1v9.6h-4v-8.6c0-1.1-0.2-1.9-0.5-2.4
		c-0.3-0.5-0.9-0.8-1.7-0.8c-1,0-1.7,0.4-2.2,1c-0.5,0.7-0.7,1.8-0.7,3.3v7.6H537.6z"/>
	<path class="st3" d="M560.1,315.3l-0.8-2h-0.1c-0.7,0.8-1.4,1.4-2.1,1.8s-1.6,0.5-2.8,0.5c-1.4,0-2.5-0.4-3.3-1.2
		c-0.8-0.8-1.2-2-1.2-3.4c0-1.6,0.5-2.7,1.6-3.4c1.1-0.7,2.7-1.1,4.9-1.2l2.5-0.1v-0.8c0-1.5-0.8-2.2-2.3-2.2
		c-1.2,0-2.5,0.4-4.1,1.1l-1.3-2.7c1.7-0.9,3.6-1.3,5.6-1.3s3.5,0.4,4.5,1.3s1.6,2.2,1.6,3.9v9.8L560.1,315.3L560.1,315.3z
		 M559,308.5l-1.5,0.1c-1.2,0-2,0.2-2.6,0.6s-0.9,1-0.9,1.8c0,1.1,0.6,1.7,1.9,1.7c0.9,0,1.7-0.3,2.2-0.8c0.6-0.5,0.8-1.2,0.8-2.1
		L559,308.5L559,308.5z"/>
	<path class="st3" d="M580.6,315.3h-4v-8.6c0-1.1-0.2-1.9-0.6-2.4c-0.4-0.5-1-0.8-1.8-0.8c-1.1,0-1.9,0.4-2.4,1.1s-0.7,2-0.7,3.7
		v6.9h-4v-14.7h3.1l0.5,1.9h0.2c0.4-0.7,1.1-1.2,1.8-1.6c0.8-0.4,1.7-0.5,2.7-0.5c1.7,0,3,0.5,3.9,1.4s1.3,2.3,1.3,4V315.3z"/>
	<path class="st3" d="M598.3,315.3h-4v-8.6c0-2.1-0.8-3.2-2.4-3.2c-1.1,0-1.9,0.4-2.4,1.1c-0.5,0.8-0.7,2-0.7,3.7v6.9h-4v-20.4h4
		v4.2c0,0.3,0,1.1-0.1,2.3l-0.2,1.2h0.2c0.9-1.4,2.3-2.2,4.3-2.2c1.7,0,3,0.5,3.9,1.4s1.3,2.3,1.3,4L598.3,315.3L598.3,315.3z"/>
	<path class="st3" d="M615.7,307.9c0,2.4-0.6,4.3-1.9,5.6c-1.3,1.3-3,2-5.3,2c-1.4,0-2.7-0.3-3.7-0.9c-1.1-0.6-1.9-1.5-2.5-2.7
		s-0.9-2.5-0.9-4c0-2.4,0.6-4.3,1.9-5.6c1.3-1.3,3-2,5.3-2c1.4,0,2.6,0.3,3.7,0.9c1.1,0.6,1.9,1.5,2.5,2.6S615.7,306.4,615.7,307.9z
		 M605.6,307.9c0,1.5,0.2,2.5,0.7,3.3c0.5,0.7,1.3,1.1,2.3,1.1c1.1,0,1.8-0.4,2.3-1.1s0.7-1.8,0.7-3.3s-0.2-2.5-0.7-3.3
		c-0.5-0.7-1.2-1.1-2.3-1.1s-1.8,0.4-2.3,1.1C605.8,305.3,605.6,306.4,605.6,307.9z"/>
	<path class="st3" d="M629.2,310.9c0,1.5-0.5,2.7-1.6,3.4s-2.6,1.2-4.7,1.2c-1.1,0-2-0.1-2.7-0.2c-0.8-0.1-1.5-0.4-2.1-0.6v-3.3
		c0.7,0.3,1.6,0.6,2.5,0.9c0.9,0.2,1.8,0.4,2.5,0.4c1.5,0,2.2-0.4,2.2-1.3c0-0.3-0.1-0.6-0.3-0.8c-0.2-0.2-0.5-0.4-1-0.7
		s-1.1-0.5-1.9-0.9c-1.1-0.5-2-0.9-2.5-1.3s-0.9-0.9-1.2-1.4c-0.2-0.5-0.4-1.2-0.4-1.9c0-1.3,0.5-2.3,1.5-3s2.4-1.1,4.3-1.1
		c1.8,0,3.5,0.4,5.2,1.2l-1.2,2.9c-0.7-0.3-1.4-0.6-2.1-0.8c-0.6-0.2-1.3-0.3-2-0.3c-1.2,0-1.8,0.3-1.8,1c0,0.4,0.2,0.7,0.6,0.9
		c0.4,0.2,1.2,0.7,2.5,1.2c1.1,0.5,2,0.9,2.5,1.3s0.9,0.9,1.2,1.4C629.1,309.5,629.2,310.2,629.2,310.9z"/>
	<path class="st3" d="M631.8,313.4c0-0.7,0.2-1.3,0.6-1.7c0.4-0.4,1-0.6,1.7-0.6c0.7,0,1.3,0.2,1.7,0.6s0.6,0.9,0.6,1.7
		c0,0.7-0.2,1.2-0.6,1.6s-1,0.6-1.7,0.6c-0.7,0-1.3-0.2-1.7-0.6C632,314.6,631.8,314.1,631.8,313.4z"/>
</g>
<g>
	<path class="st3" d="M1017.1,45.9h-8.2l-5.1-8.2l-5,8.2h-8l8.7-13.4l-8.2-12.8h7.8l4.7,8.1l4.5-8.1h8.1l-8.2,13.4L1017.1,45.9z"/>
</g>
</svg>
