<?xml version="1.0" encoding="utf-8"?>
<!-- Generator: Adobe Illustrator 23.0.3, SVG Export Plug-In . SVG Version: 6.00 Build 0)  -->
<svg version="1.1" id="Layer_1" xmlns="http://www.w3.org/2000/svg" xmlns:xlink="http://www.w3.org/1999/xlink" x="0px" y="0px"
	 viewBox="0 0 1037 512" style="enable-background:new 0 0 1037 512;" xml:space="preserve">
<style type="text/css">
	.st0{fill:#E62A44;}
	.st1{fill:#D5D7D8;}
	.st2{fill:#444444;}
	.st3{fill:none;stroke:#E62A44;stroke-miterlimit:10;}
	.st4{fill:none;stroke:#444444;stroke-miterlimit:10;}
</style>
<g>
	<g>
		<path class="st2" d="M92,269.3l-5.2-14.9h-0.1c0.1,2.2,0.2,4.3,0.2,6.2v8.7h-2.7v-17.9h4.1l5,14.2h0.1l5.1-14.2h4.1v17.9h-2.8
			v-8.8c0-0.9,0-2,0.1-3.5s0.1-2.3,0.1-2.6h-0.1l-5.4,14.9H92z"/>
		<path class="st2" d="M112.9,269.5c-2.1,0-3.7-0.6-4.9-1.8c-1.2-1.2-1.8-2.9-1.8-5.1c0-2.2,0.5-3.9,1.7-5.2
			c1.1-1.3,2.6-1.9,4.5-1.9c1.8,0,3.2,0.5,4.2,1.6c1,1.1,1.6,2.6,1.6,4.5v1.6h-9c0,1.3,0.4,2.3,1.1,3c0.7,0.7,1.6,1.1,2.8,1.1
			c0.8,0,1.5-0.1,2.2-0.2c0.7-0.2,1.4-0.4,2.2-0.8v2.3c-0.7,0.3-1.4,0.6-2.1,0.7S113.9,269.5,112.9,269.5z M112.4,257.7
			c-0.9,0-1.6,0.3-2.2,0.9s-0.9,1.4-1,2.5h6.1c0-1.1-0.3-2-0.8-2.5S113.3,257.7,112.4,257.7z"/>
		<path class="st2" d="M126,269.5c-1.7,0-3-0.6-4-1.8c-0.9-1.2-1.4-2.9-1.4-5.2c0-2.2,0.5-3.9,1.4-5.2c1-1.2,2.3-1.9,4-1.9
			c1.8,0,3.1,0.7,4.1,2h0.1c-0.1-1-0.2-1.7-0.2-2.3v-4.9h2.9v19h-2.3l-0.5-1.8h-0.1C129.2,268.9,127.8,269.5,126,269.5z
			 M126.8,267.2c1.2,0,2-0.3,2.6-1c0.5-0.7,0.8-1.7,0.8-3.2v-0.4c0-1.7-0.3-2.9-0.8-3.6c-0.6-0.7-1.4-1.1-2.6-1.1
			c-1,0-1.8,0.4-2.3,1.2c-0.5,0.8-0.8,2-0.8,3.5c0,1.5,0.3,2.6,0.8,3.4C124.9,266.8,125.7,267.2,126.8,267.2z"/>
		<path class="st2" d="M136.9,252.2c0-0.5,0.1-0.9,0.4-1.2c0.3-0.3,0.7-0.4,1.2-0.4c0.5,0,0.9,0.1,1.2,0.4c0.3,0.3,0.4,0.7,0.4,1.2
			c0,0.5-0.1,0.9-0.4,1.2s-0.7,0.4-1.2,0.4c-0.5,0-0.9-0.1-1.2-0.4S136.9,252.7,136.9,252.2z M140,269.3h-2.9v-13.5h2.9V269.3z"/>
		<path class="st2" d="M148.6,269.5c-1.7,0-3-0.6-4-1.8c-0.9-1.2-1.4-2.9-1.4-5.2c0-2.2,0.5-3.9,1.4-5.2c1-1.2,2.3-1.9,4-1.9
			c1.8,0,3.1,0.7,4.1,2h0.1c-0.1-1-0.2-1.7-0.2-2.3v-4.9h2.9v19h-2.3l-0.5-1.8h-0.1C151.8,268.9,150.4,269.5,148.6,269.5z
			 M149.4,267.2c1.2,0,2-0.3,2.6-1c0.5-0.7,0.8-1.7,0.8-3.2v-0.4c0-1.7-0.3-2.9-0.8-3.6c-0.6-0.7-1.4-1.1-2.6-1.1
			c-1,0-1.8,0.4-2.3,1.2c-0.5,0.8-0.8,2-0.8,3.5c0,1.5,0.3,2.6,0.8,3.4C147.5,266.8,148.3,267.2,149.4,267.2z"/>
		<path class="st2" d="M168.1,269.3l-0.6-1.9h-0.1c-0.7,0.8-1.3,1.4-2,1.7c-0.7,0.3-1.5,0.4-2.5,0.4c-1.3,0-2.4-0.4-3.1-1.1
			c-0.7-0.7-1.1-1.7-1.1-3c0-1.4,0.5-2.4,1.6-3.2c1-0.7,2.6-1.1,4.7-1.2l2.3-0.1v-0.7c0-0.9-0.2-1.5-0.6-1.9c-0.4-0.4-1-0.6-1.9-0.6
			c-0.7,0-1.4,0.1-2,0.3s-1.2,0.4-1.8,0.7l-0.9-2.1c0.7-0.4,1.5-0.7,2.4-0.9c0.9-0.2,1.7-0.3,2.5-0.3c1.7,0,3,0.4,3.9,1.1
			c0.9,0.8,1.3,1.9,1.3,3.5v9.1H168.1z M163.9,267.3c1,0,1.9-0.3,2.5-0.9s0.9-1.4,0.9-2.5v-1.2l-1.7,0.1c-1.4,0-2.3,0.3-3,0.7
			c-0.6,0.4-0.9,1-0.9,1.9c0,0.6,0.2,1.1,0.5,1.4C162.6,267.2,163.1,267.3,163.9,267.3z"/>
		<path class="st2" d="M186.6,269.5c-2.1,0-3.7-0.6-4.9-1.8c-1.2-1.2-1.8-2.9-1.8-5.1c0-2.2,0.5-3.9,1.7-5.2
			c1.1-1.3,2.6-1.9,4.5-1.9c1.8,0,3.2,0.5,4.2,1.6c1,1.1,1.6,2.6,1.6,4.5v1.6h-9c0,1.3,0.4,2.3,1.1,3c0.7,0.7,1.6,1.1,2.8,1.1
			c0.8,0,1.5-0.1,2.2-0.2c0.7-0.2,1.4-0.4,2.2-0.8v2.3c-0.7,0.3-1.4,0.6-2.1,0.7S187.5,269.5,186.6,269.5z M186.1,257.7
			c-0.9,0-1.6,0.3-2.2,0.9s-0.9,1.4-1,2.5h6.1c0-1.1-0.3-2-0.8-2.5S187,257.7,186.1,257.7z"/>
		<path class="st2" d="M206.6,269.3h-2.9V261c0-1-0.2-1.8-0.6-2.3s-1-0.8-1.8-0.8c-1.1,0-1.9,0.4-2.4,1.1c-0.5,0.7-0.8,1.9-0.8,3.6
			v6.7h-2.9v-13.5h2.2l0.4,1.8h0.1c0.4-0.6,0.9-1.1,1.6-1.5c0.7-0.4,1.5-0.5,2.4-0.5c2.1,0,3.5,0.7,4.1,2.1h0.2
			c0.4-0.7,1-1.2,1.7-1.6s1.6-0.6,2.5-0.6c1.6,0,2.8,0.4,3.5,1.2c0.7,0.8,1.1,2.1,1.1,3.7v8.8h-2.9V261c0-1-0.2-1.8-0.6-2.3
			s-1-0.8-1.8-0.8c-1.1,0-1.9,0.3-2.5,1s-0.8,1.8-0.8,3.2V269.3z"/>
		<path class="st2" d="M231.1,269.5c-2,0-3.6-0.6-4.7-1.8c-1.1-1.2-1.6-2.9-1.6-5.1c0-2.3,0.6-4,1.7-5.2s2.7-1.8,4.8-1.8
			c1.4,0,2.7,0.3,3.9,0.8l-0.9,2.3c-1.2-0.5-2.2-0.7-3-0.7c-2.3,0-3.5,1.6-3.5,4.7c0,1.5,0.3,2.7,0.9,3.4s1.4,1.1,2.6,1.1
			c1.3,0,2.5-0.3,3.6-1v2.5c-0.5,0.3-1.1,0.5-1.6,0.6C232.6,269.5,231.9,269.5,231.1,269.5z"/>
		<path class="st2" d="M249.4,269.3h-2.9V261c0-1-0.2-1.8-0.6-2.3s-1-0.8-1.8-0.8c-1.1,0-1.9,0.4-2.4,1.1c-0.5,0.7-0.8,1.9-0.8,3.6
			v6.7H238v-13.5h2.2l0.4,1.8h0.1c0.4-0.6,0.9-1.1,1.6-1.5c0.7-0.4,1.5-0.5,2.4-0.5c2.1,0,3.5,0.7,4.1,2.1h0.2
			c0.4-0.7,1-1.2,1.7-1.6s1.6-0.6,2.5-0.6c1.6,0,2.8,0.4,3.5,1.2c0.7,0.8,1.1,2.1,1.1,3.7v8.8h-2.9V261c0-1-0.2-1.8-0.6-2.3
			s-1-0.8-1.8-0.8c-1.1,0-1.9,0.3-2.5,1s-0.8,1.8-0.8,3.2V269.3z"/>
	</g>
	<g>
		<path class="st2" d="M308.9,257.5c2.1,0,3.7,0.6,5,1.7c1.2,1.1,1.8,2.6,1.8,4.5c0,2.2-0.7,3.9-2.1,5.2c-1.4,1.2-3.4,1.9-5.9,1.9
			c-2.3,0-4.1-0.4-5.5-1.1v-3c0.8,0.4,1.6,0.8,2.6,1s1.9,0.4,2.8,0.4c1.5,0,2.6-0.3,3.4-1c0.8-0.7,1.2-1.7,1.2-3
			c0-2.5-1.6-3.7-4.7-3.7c-0.4,0-1,0-1.6,0.1c-0.7,0.1-1.2,0.2-1.7,0.3l-1.5-0.9l0.8-10.1h10.8v3h-7.8l-0.5,5.1
			c0.3-0.1,0.7-0.1,1.2-0.2C307.6,257.5,308.2,257.5,308.9,257.5z"/>
		<path class="st2" d="M331.8,254.5c0,1.3-0.4,2.4-1.1,3.3c-0.8,0.9-1.8,1.5-3.2,1.8v0.1c1.7,0.2,2.9,0.7,3.7,1.6
			c0.8,0.8,1.2,1.9,1.2,3.3c0,2-0.7,3.5-2.1,4.6s-3.4,1.6-6,1.6c-2.3,0-4.2-0.4-5.8-1.1v-3c0.9,0.4,1.8,0.8,2.8,1
			c1,0.2,1.9,0.4,2.8,0.4c1.6,0,2.8-0.3,3.6-0.9c0.8-0.6,1.2-1.5,1.2-2.8c0-1.1-0.4-1.9-1.3-2.4c-0.9-0.5-2.3-0.8-4.1-0.8h-1.8v-2.7
			h1.8c3.3,0,5-1.1,5-3.4c0-0.9-0.3-1.6-0.9-2.1s-1.4-0.7-2.6-0.7c-0.8,0-1.5,0.1-2.3,0.3c-0.7,0.2-1.6,0.7-2.6,1.3l-1.6-2.3
			c1.9-1.4,4.1-2.1,6.6-2.1c2.1,0,3.7,0.4,4.9,1.3C331.2,251.7,331.8,252.9,331.8,254.5z"/>
		<path class="st2" d="M334.8,264.1v-2.8h7.3v2.8H334.8z"/>
		<path class="st2" d="M351.4,257.5c2.1,0,3.7,0.6,5,1.7c1.2,1.1,1.8,2.6,1.8,4.5c0,2.2-0.7,3.9-2.1,5.2c-1.4,1.2-3.4,1.9-5.9,1.9
			c-2.3,0-4.1-0.4-5.5-1.1v-3c0.8,0.4,1.6,0.8,2.6,1s1.9,0.4,2.8,0.4c1.5,0,2.6-0.3,3.4-1c0.8-0.7,1.2-1.7,1.2-3
			c0-2.5-1.6-3.7-4.7-3.7c-0.4,0-1,0-1.6,0.1c-0.7,0.1-1.2,0.2-1.7,0.3l-1.5-0.9l0.8-10.1h10.8v3H349l-0.5,5.1
			c0.3-0.1,0.7-0.1,1.2-0.2C350.2,257.5,350.8,257.5,351.4,257.5z"/>
		<path class="st2" d="M375.8,265.9H373v4.5h-3.2v-4.5h-9.5v-2.6l9.5-13.7h3.2v13.5h2.8V265.9z M369.8,263.2V258
			c0-1.9,0-3.4,0.1-4.6h-0.1c-0.3,0.6-0.7,1.4-1.2,2.3l-5.2,7.5H369.8z"/>
	</g>
	<g>
		<path class="st2" d="M415.8,257.5c2.1,0,3.7,0.6,5,1.7c1.2,1.1,1.8,2.6,1.8,4.5c0,2.2-0.7,3.9-2.1,5.2c-1.4,1.2-3.4,1.9-5.9,1.9
			c-2.3,0-4.1-0.4-5.5-1.1v-3c0.8,0.4,1.6,0.8,2.6,1s1.9,0.4,2.8,0.4c1.5,0,2.6-0.3,3.4-1c0.8-0.7,1.2-1.7,1.2-3
			c0-2.5-1.6-3.7-4.7-3.7c-0.4,0-1,0-1.6,0.1c-0.7,0.1-1.2,0.2-1.7,0.3l-1.5-0.9l0.8-10.1h10.8v3h-7.8l-0.5,5.1
			c0.3-0.1,0.7-0.1,1.2-0.2C414.5,257.5,415.1,257.5,415.8,257.5z"/>
		<path class="st2" d="M432.4,257.5c2.1,0,3.7,0.6,5,1.7c1.2,1.1,1.8,2.6,1.8,4.5c0,2.2-0.7,3.9-2.1,5.2c-1.4,1.2-3.4,1.9-5.9,1.9
			c-2.3,0-4.1-0.4-5.5-1.1v-3c0.8,0.4,1.6,0.8,2.6,1s1.9,0.4,2.8,0.4c1.5,0,2.6-0.3,3.4-1c0.8-0.7,1.2-1.7,1.2-3
			c0-2.5-1.6-3.7-4.7-3.7c-0.4,0-1,0-1.6,0.1c-0.7,0.1-1.2,0.2-1.7,0.3l-1.5-0.9l0.8-10.1h10.8v3h-7.8l-0.5,5.1
			c0.3-0.1,0.7-0.1,1.2-0.2C431.1,257.5,431.7,257.5,432.4,257.5z"/>
		<path class="st2" d="M441.6,264.1v-2.8h7.3v2.8H441.6z"/>
		<path class="st2" d="M458.3,257.5c2.1,0,3.7,0.6,5,1.7c1.2,1.1,1.8,2.6,1.8,4.5c0,2.2-0.7,3.9-2.1,5.2c-1.4,1.2-3.4,1.9-5.9,1.9
			c-2.3,0-4.1-0.4-5.5-1.1v-3c0.8,0.4,1.6,0.8,2.6,1s1.9,0.4,2.8,0.4c1.5,0,2.6-0.3,3.4-1c0.8-0.7,1.2-1.7,1.2-3
			c0-2.5-1.6-3.7-4.7-3.7c-0.4,0-1,0-1.6,0.1c-0.7,0.1-1.2,0.2-1.7,0.3l-1.5-0.9l0.8-10.1h10.8v3h-7.8l-0.5,5.1
			c0.3-0.1,0.7-0.1,1.2-0.2C457,257.5,457.6,257.5,458.3,257.5z"/>
		<path class="st2" d="M467.9,261.6c0-8.1,3.3-12.2,9.9-12.2c1,0,1.9,0.1,2.6,0.2v2.8c-0.7-0.2-1.6-0.3-2.5-0.3
			c-2.2,0-3.9,0.6-5,1.8c-1.1,1.2-1.7,3.1-1.8,5.7h0.2c0.4-0.8,1.1-1.4,1.9-1.8c0.8-0.4,1.8-0.6,2.8-0.6c1.9,0,3.3,0.6,4.4,1.7
			c1,1.2,1.6,2.7,1.6,4.7c0,2.2-0.6,3.9-1.8,5.2c-1.2,1.3-2.9,1.9-5,1.9c-1.5,0-2.8-0.4-3.9-1.1c-1.1-0.7-1.9-1.8-2.5-3.1
			C468.2,265.2,467.9,263.5,467.9,261.6z M475.1,268c1.1,0,2-0.4,2.6-1.1c0.6-0.7,0.9-1.8,0.9-3.2c0-1.2-0.3-2.1-0.9-2.8
			c-0.6-0.7-1.5-1-2.6-1c-0.7,0-1.4,0.2-2,0.5s-1.1,0.7-1.4,1.3c-0.3,0.5-0.5,1.1-0.5,1.6c0,1.3,0.4,2.5,1.1,3.4S474,268,475.1,268z
			"/>
	</g>
	<g>
		<path class="st2" d="M522.9,257.5c2.1,0,3.7,0.6,5,1.7c1.2,1.1,1.8,2.6,1.8,4.5c0,2.2-0.7,3.9-2.1,5.2c-1.4,1.2-3.4,1.9-5.9,1.9
			c-2.3,0-4.1-0.4-5.5-1.1v-3c0.8,0.4,1.6,0.8,2.6,1s1.9,0.4,2.8,0.4c1.5,0,2.6-0.3,3.4-1c0.8-0.7,1.2-1.7,1.2-3
			c0-2.5-1.6-3.7-4.7-3.7c-0.4,0-1,0-1.6,0.1c-0.7,0.1-1.2,0.2-1.7,0.3l-1.5-0.9l0.8-10.1h10.8v3h-7.8l-0.5,5.1
			c0.3-0.1,0.7-0.1,1.2-0.2C521.6,257.5,522.2,257.5,522.9,257.5z"/>
		<path class="st2" d="M534.8,270.5l8.2-17.8h-10.8v-2.9h14.3v2.3l-8.2,18.4H534.8z"/>
		<path class="st2" d="M548.8,264.1v-2.8h7.3v2.8H548.8z"/>
		<path class="st2" d="M565.4,257.5c2.1,0,3.7,0.6,5,1.7c1.2,1.1,1.8,2.6,1.8,4.5c0,2.2-0.7,3.9-2.1,5.2c-1.4,1.2-3.4,1.9-5.9,1.9
			c-2.3,0-4.1-0.4-5.5-1.1v-3c0.8,0.4,1.6,0.8,2.6,1s1.9,0.4,2.8,0.4c1.5,0,2.6-0.3,3.4-1c0.8-0.7,1.2-1.7,1.2-3
			c0-2.5-1.6-3.7-4.7-3.7c-0.4,0-1,0-1.6,0.1c-0.7,0.1-1.2,0.2-1.7,0.3l-1.5-0.9l0.8-10.1h10.8v3h-7.8l-0.5,5.1
			c0.3-0.1,0.7-0.1,1.2-0.2C564.1,257.5,564.7,257.5,565.4,257.5z"/>
		<path class="st2" d="M582,249.4c2,0,3.5,0.5,4.7,1.4s1.7,2.1,1.7,3.6c0,2.1-1.3,3.8-3.8,5.1c1.6,0.8,2.8,1.7,3.5,2.6
			c0.7,0.9,1,1.9,1,3c0,1.7-0.6,3.1-1.9,4.1s-3,1.5-5.1,1.5c-2.3,0-4-0.5-5.2-1.4s-1.9-2.3-1.9-4.1c0-1.2,0.3-2.2,1-3.1
			c0.6-0.9,1.7-1.7,3.2-2.5c-1.3-0.8-2.2-1.6-2.7-2.4c-0.5-0.8-0.8-1.8-0.8-2.8c0-1.5,0.6-2.7,1.8-3.6
			C578.5,249.9,580.1,249.4,582,249.4z M578.1,265.1c0,1,0.3,1.7,1,2.3s1.6,0.8,2.8,0.8c1.2,0,2.2-0.3,2.8-0.8c0.7-0.6,1-1.3,1-2.3
			c0-0.8-0.3-1.5-0.9-2.1c-0.6-0.6-1.6-1.2-2.8-1.8l-0.4-0.2c-1.2,0.5-2.1,1.2-2.7,1.8C578.4,263.5,578.1,264.2,578.1,265.1z
			 M581.9,252c-0.9,0-1.7,0.2-2.3,0.7s-0.9,1.1-0.9,1.9c0,0.5,0.1,0.9,0.3,1.3s0.5,0.7,0.9,1.1c0.4,0.3,1.1,0.7,2,1.1
			c1.1-0.5,1.9-1,2.4-1.6s0.7-1.2,0.7-1.9c0-0.8-0.3-1.4-0.9-1.9C583.7,252.2,582.9,252,581.9,252z"/>
	</g>
	<g>
		<path class="st2" d="M629.6,257.5c2.1,0,3.7,0.6,5,1.7c1.2,1.1,1.8,2.6,1.8,4.5c0,2.2-0.7,3.9-2.1,5.2c-1.4,1.2-3.4,1.9-5.9,1.9
			c-2.3,0-4.1-0.4-5.5-1.1v-3c0.8,0.4,1.6,0.8,2.6,1s1.9,0.4,2.8,0.4c1.5,0,2.6-0.3,3.4-1c0.8-0.7,1.2-1.7,1.2-3
			c0-2.5-1.6-3.7-4.7-3.7c-0.4,0-1,0-1.6,0.1c-0.7,0.1-1.2,0.2-1.7,0.3l-1.5-0.9l0.8-10.1H635v3h-7.8l-0.5,5.1
			c0.3-0.1,0.7-0.1,1.2-0.2C628.4,257.5,629,257.5,629.6,257.5z"/>
		<path class="st2" d="M653.2,258.6c0,4.1-0.8,7.1-2.5,9.2c-1.6,2-4.1,3-7.4,3c-1.3,0-2.2-0.1-2.7-0.2v-2.8c0.8,0.2,1.7,0.4,2.5,0.4
			c2.3,0,3.9-0.6,5-1.8c1.1-1.2,1.7-3.1,1.8-5.7h-0.2c-0.6,0.9-1.2,1.5-2,1.8c-0.8,0.4-1.7,0.6-2.8,0.6c-1.8,0-3.3-0.6-4.3-1.7
			s-1.6-2.7-1.6-4.7c0-2.2,0.6-3.9,1.8-5.2c1.2-1.3,2.9-1.9,5-1.9c1.5,0,2.8,0.4,3.9,1.1c1.1,0.7,1.9,1.8,2.5,3.1
			S653.2,256.6,653.2,258.6z M646,252.2c-1.2,0-2,0.4-2.7,1.1c-0.6,0.8-0.9,1.8-0.9,3.2c0,1.2,0.3,2.1,0.9,2.8s1.4,1,2.6,1
			c1.1,0,2.1-0.3,2.8-1c0.8-0.7,1.1-1.5,1.1-2.4c0-0.8-0.2-1.6-0.5-2.4c-0.3-0.7-0.8-1.3-1.4-1.7C647.4,252.4,646.8,252.2,646,252.2
			z"/>
		<path class="st2" d="M655.5,264.1v-2.8h7.3v2.8H655.5z"/>
		<path class="st2" d="M665.2,261.6c0-8.1,3.3-12.2,9.9-12.2c1,0,1.9,0.1,2.6,0.2v2.8c-0.7-0.2-1.6-0.3-2.5-0.3
			c-2.2,0-3.9,0.6-5,1.8c-1.1,1.2-1.7,3.1-1.8,5.7h0.2c0.4-0.8,1.1-1.4,1.9-1.8c0.8-0.4,1.8-0.6,2.8-0.6c1.9,0,3.3,0.6,4.4,1.7
			c1,1.2,1.6,2.7,1.6,4.7c0,2.2-0.6,3.9-1.8,5.2c-1.2,1.3-2.9,1.9-5,1.9c-1.5,0-2.8-0.4-3.9-1.1c-1.1-0.7-1.9-1.8-2.5-3.1
			C665.5,265.2,665.2,263.5,665.2,261.6z M672.4,268c1.1,0,2-0.4,2.6-1.1c0.6-0.7,0.9-1.8,0.9-3.2c0-1.2-0.3-2.1-0.9-2.8
			c-0.6-0.7-1.5-1-2.6-1c-0.7,0-1.4,0.2-2,0.5s-1.1,0.7-1.4,1.3c-0.3,0.5-0.5,1.1-0.5,1.6c0,1.3,0.4,2.5,1.1,3.4
			S671.3,268,672.4,268z"/>
		<path class="st2" d="M695.8,260.1c0,3.6-0.6,6.3-1.7,8c-1.2,1.8-2.9,2.6-5.3,2.6c-2.3,0-4.1-0.9-5.2-2.7c-1.2-1.8-1.8-4.5-1.8-7.9
			c0-3.7,0.6-6.4,1.7-8.1c1.2-1.7,2.9-2.6,5.3-2.6c2.3,0,4.1,0.9,5.3,2.7C695.2,253.9,695.8,256.6,695.8,260.1z M685.1,260.1
			c0,2.8,0.3,4.8,0.9,6.1c0.6,1.2,1.5,1.8,2.8,1.8c1.3,0,2.2-0.6,2.8-1.8c0.6-1.2,0.9-3.2,0.9-6c0-2.8-0.3-4.8-0.9-6
			c-0.6-1.2-1.5-1.9-2.8-1.9c-1.3,0-2.2,0.6-2.8,1.8S685.1,257.2,685.1,260.1z"/>
	</g>
	<g>
		<path class="st2" d="M729.2,261.6c0-8.1,3.3-12.2,9.9-12.2c1,0,1.9,0.1,2.6,0.2v2.8c-0.7-0.2-1.6-0.3-2.5-0.3
			c-2.2,0-3.9,0.6-5,1.8c-1.1,1.2-1.7,3.1-1.8,5.7h0.2c0.4-0.8,1.1-1.4,1.9-1.8c0.8-0.4,1.8-0.6,2.8-0.6c1.9,0,3.3,0.6,4.4,1.7
			c1,1.2,1.6,2.7,1.6,4.7c0,2.2-0.6,3.9-1.8,5.2c-1.2,1.3-2.9,1.9-5,1.9c-1.5,0-2.8-0.4-3.9-1.1c-1.1-0.7-1.9-1.8-2.5-3.1
			C729.5,265.2,729.2,263.5,729.2,261.6z M736.5,268c1.1,0,2-0.4,2.6-1.1c0.6-0.7,0.9-1.8,0.9-3.2c0-1.2-0.3-2.1-0.9-2.8
			c-0.6-0.7-1.5-1-2.6-1c-0.7,0-1.4,0.2-2,0.5s-1.1,0.7-1.4,1.3c-0.3,0.5-0.5,1.1-0.5,1.6c0,1.3,0.4,2.5,1.1,3.4
			S735.3,268,736.5,268z"/>
		<path class="st2" d="M755.5,270.5h-3.3v-13.4c0-1.6,0-2.9,0.1-3.8c-0.2,0.2-0.5,0.5-0.8,0.8c-0.3,0.3-1.4,1.1-3.2,2.6l-1.7-2.1
			l6.1-4.8h2.8V270.5z"/>
		<path class="st2" d="M762.1,264.1v-2.8h7.3v2.8H762.1z"/>
		<path class="st2" d="M771.7,261.6c0-8.1,3.3-12.2,9.9-12.2c1,0,1.9,0.1,2.6,0.2v2.8c-0.7-0.2-1.6-0.3-2.5-0.3
			c-2.2,0-3.9,0.6-5,1.8c-1.1,1.2-1.7,3.1-1.8,5.7h0.2c0.4-0.8,1.1-1.4,1.9-1.8c0.8-0.4,1.8-0.6,2.8-0.6c1.9,0,3.3,0.6,4.4,1.7
			c1,1.2,1.6,2.7,1.6,4.7c0,2.2-0.6,3.9-1.8,5.2c-1.2,1.3-2.9,1.9-5,1.9c-1.5,0-2.8-0.4-3.9-1.1c-1.1-0.7-1.9-1.8-2.5-3.1
			C772,265.2,771.7,263.5,771.7,261.6z M779,268c1.1,0,2-0.4,2.6-1.1c0.6-0.7,0.9-1.8,0.9-3.2c0-1.2-0.3-2.1-0.9-2.8
			c-0.6-0.7-1.5-1-2.6-1c-0.7,0-1.4,0.2-2,0.5s-1.1,0.7-1.4,1.3c-0.3,0.5-0.5,1.1-0.5,1.6c0,1.3,0.4,2.5,1.1,3.4S777.9,268,779,268z
			"/>
		<path class="st2" d="M802.3,270.5h-14.1v-2.5l5.3-5.4c1.6-1.6,2.6-2.8,3.1-3.4c0.5-0.7,0.9-1.3,1.1-1.9c0.2-0.6,0.4-1.2,0.4-1.9
			c0-0.9-0.3-1.7-0.8-2.2c-0.6-0.5-1.3-0.8-2.3-0.8c-0.8,0-1.6,0.1-2.3,0.4c-0.7,0.3-1.6,0.8-2.6,1.6l-1.8-2.2
			c1.2-1,2.3-1.7,3.4-2.1c1.1-0.4,2.2-0.6,3.5-0.6c1.9,0,3.5,0.5,4.6,1.5c1.2,1,1.7,2.4,1.7,4.1c0,0.9-0.2,1.8-0.5,2.7
			c-0.3,0.8-0.9,1.7-1.5,2.6s-1.9,2.1-3.5,3.6l-3.6,3.5v0.1h9.8V270.5z"/>
	</g>
	<g>
		<path class="st2" d="M864.6,261.6c0-8.1,3.3-12.2,9.9-12.2c1,0,1.9,0.1,2.6,0.2v2.8c-0.7-0.2-1.6-0.3-2.5-0.3
			c-2.2,0-3.9,0.6-5,1.8c-1.1,1.2-1.7,3.1-1.8,5.7h0.2c0.4-0.8,1.1-1.4,1.9-1.8c0.8-0.4,1.8-0.6,2.8-0.6c1.9,0,3.3,0.6,4.4,1.7
			c1,1.2,1.6,2.7,1.6,4.7c0,2.2-0.6,3.9-1.8,5.2c-1.2,1.3-2.9,1.9-5,1.9c-1.5,0-2.8-0.4-3.9-1.1c-1.1-0.7-1.9-1.8-2.5-3.1
			C864.9,265.2,864.6,263.5,864.6,261.6z M871.9,268c1.1,0,2-0.4,2.6-1.1c0.6-0.7,0.9-1.8,0.9-3.2c0-1.2-0.3-2.1-0.9-2.8
			c-0.6-0.7-1.5-1-2.6-1c-0.7,0-1.4,0.2-2,0.5s-1.1,0.7-1.4,1.3c-0.3,0.5-0.5,1.1-0.5,1.6c0,1.3,0.4,2.5,1.1,3.4
			S870.7,268,871.9,268z"/>
		<path class="st2" d="M894.4,254.5c0,1.3-0.4,2.4-1.1,3.3c-0.8,0.9-1.8,1.5-3.2,1.8v0.1c1.7,0.2,2.9,0.7,3.7,1.6
			c0.8,0.8,1.2,1.9,1.2,3.3c0,2-0.7,3.5-2.1,4.6s-3.4,1.6-6,1.6c-2.3,0-4.2-0.4-5.8-1.1v-3c0.9,0.4,1.8,0.8,2.8,1
			c1,0.2,1.9,0.4,2.8,0.4c1.6,0,2.8-0.3,3.6-0.9c0.8-0.6,1.2-1.5,1.2-2.8c0-1.1-0.4-1.9-1.3-2.4c-0.9-0.5-2.3-0.8-4.1-0.8h-1.8v-2.7
			h1.8c3.3,0,5-1.1,5-3.4c0-0.9-0.3-1.6-0.9-2.1s-1.4-0.7-2.6-0.7c-0.8,0-1.5,0.1-2.3,0.3c-0.7,0.2-1.6,0.7-2.6,1.3l-1.6-2.3
			c1.9-1.4,4.1-2.1,6.6-2.1c2.1,0,3.7,0.4,4.9,1.3C893.9,251.7,894.4,252.9,894.4,254.5z"/>
		<path class="st2" d="M897.5,264.1v-2.8h7.3v2.8H897.5z"/>
		<path class="st2" d="M907.2,261.6c0-8.1,3.3-12.2,9.9-12.2c1,0,1.9,0.1,2.6,0.2v2.8c-0.7-0.2-1.6-0.3-2.5-0.3
			c-2.2,0-3.9,0.6-5,1.8c-1.1,1.2-1.7,3.1-1.8,5.7h0.2c0.4-0.8,1.1-1.4,1.9-1.8c0.8-0.4,1.8-0.6,2.8-0.6c1.9,0,3.3,0.6,4.4,1.7
			c1,1.2,1.6,2.7,1.6,4.7c0,2.2-0.6,3.9-1.8,5.2c-1.2,1.3-2.9,1.9-5,1.9c-1.5,0-2.8-0.4-3.9-1.1c-1.1-0.7-1.9-1.8-2.5-3.1
			C907.5,265.2,907.2,263.5,907.2,261.6z M914.4,268c1.1,0,2-0.4,2.6-1.1c0.6-0.7,0.9-1.8,0.9-3.2c0-1.2-0.3-2.1-0.9-2.8
			c-0.6-0.7-1.5-1-2.6-1c-0.7,0-1.4,0.2-2,0.5s-1.1,0.7-1.4,1.3c-0.3,0.5-0.5,1.1-0.5,1.6c0,1.3,0.4,2.5,1.1,3.4
			S913.3,268,914.4,268z"/>
		<path class="st2" d="M938.5,265.9h-2.8v4.5h-3.2v-4.5H923v-2.6l9.5-13.7h3.2v13.5h2.8V265.9z M932.4,263.2V258
			c0-1.9,0-3.4,0.1-4.6h-0.1c-0.3,0.6-0.7,1.4-1.2,2.3l-5.2,7.5H932.4z"/>
	</g>
	<g>
		<path class="st2" d="M71.5,164.1h10.5v13.7c-1.7,0.6-3.3,0.9-4.8,1.2c-1.5,0.2-3,0.3-4.6,0.3c-4,0-7-1.2-9.1-3.5
			c-2.1-2.3-3.1-5.7-3.1-10.1c0-4.3,1.2-7.6,3.7-10c2.4-2.4,5.8-3.6,10.1-3.6c2.7,0,5.3,0.5,7.8,1.6l-1.9,4.5c-1.9-1-3.9-1.4-6-1.4
			c-2.4,0-4.4,0.8-5.8,2.4c-1.5,1.6-2.2,3.8-2.2,6.5c0,2.9,0.6,5,1.8,6.6s2.9,2.3,5.1,2.3c1.2,0,2.3-0.1,3.6-0.4v-5.5h-5V164.1z"/>
		<path class="st2" d="M109.7,152.6v17.1c0,1.9-0.4,3.7-1.3,5.1c-0.9,1.5-2.1,2.6-3.8,3.4s-3.6,1.2-5.8,1.2c-3.4,0-6-0.9-7.9-2.6
			c-1.9-1.7-2.8-4.1-2.8-7.1v-17h5.6v16.1c0,2,0.4,3.5,1.2,4.5c0.8,0.9,2.2,1.4,4.1,1.4c1.8,0,3.2-0.5,4-1.4c0.8-1,1.2-2.5,1.2-4.5
			v-16.1H109.7z"/>
		<path class="st2" d="M116.1,178.9v-26.4h5.6v26.4H116.1z"/>
		<path class="st2" d="M144.5,178.9l-1.9-6.3H133l-1.9,6.3h-6l9.3-26.5h6.8l9.3,26.5H144.5z M141.2,168c-1.8-5.7-2.8-8.9-3-9.6
			s-0.4-1.3-0.5-1.8c-0.4,1.5-1.5,5.3-3.4,11.4H141.2z"/>
		<path class="st2" d="M185.3,165.5c0,4.3-1.2,7.7-3.7,10s-6,3.5-10.7,3.5h-7.5v-26.4h8.3c4.3,0,7.6,1.1,10,3.4
			C184.1,158.2,185.3,161.4,185.3,165.5z M179.5,165.6c0-5.7-2.5-8.5-7.5-8.5h-3v17.2h2.4C176.8,174.3,179.5,171.4,179.5,165.6z"/>
		<path class="st2" d="M205.9,178.9h-15.2v-26.4h15.2v4.6h-9.6v5.8h8.9v4.6h-8.9v6.8h9.6V178.9z"/>
		<path class="st2" d="M231.2,178.9h-5.6v-21.7h-7.2v-4.7h19.9v4.7h-7.2V178.9z"/>
		<path class="st2" d="M258.5,178.9l-1.9-6.3H247l-1.9,6.3h-6l9.3-26.5h6.8l9.3,26.5H258.5z M255.3,168c-1.8-5.7-2.8-8.9-3-9.6
			s-0.4-1.3-0.5-1.8c-0.4,1.5-1.5,5.3-3.4,11.4H255.3z"/>
		<path class="st2" d="M279,178.9l-6.3-20.7h-0.2c0.2,4.2,0.3,7,0.3,8.4v12.3h-5v-26.4h7.6l6.2,20.2h0.1l6.6-20.2h7.6v26.4h-5.2
			v-12.5c0-0.6,0-1.3,0-2c0-0.8,0.1-2.8,0.2-6.1h-0.2l-6.8,20.6H279z"/>
		<path class="st2" d="M318.8,178.9l-1.9-6.3h-9.6l-1.9,6.3h-6l9.3-26.5h6.8l9.3,26.5H318.8z M315.6,168c-1.8-5.7-2.8-8.9-3-9.6
			s-0.4-1.3-0.5-1.8c-0.4,1.5-1.5,5.3-3.4,11.4H315.6z"/>
		<path class="st2" d="M351.5,178.9h-7.1L333,159h-0.2c0.2,3.5,0.3,6,0.3,7.5v12.4h-5v-26.4h7l11.4,19.7h0.1
			c-0.2-3.4-0.3-5.8-0.3-7.3v-12.5h5V178.9z"/>
		<path class="st2" d="M379.8,178.9h-5.6v-11.4h-10.4v11.4h-5.6v-26.4h5.6v10.3h10.4v-10.3h5.6V178.9z"/>
		<path class="st2" d="M410.3,165.7c0,4.4-1.1,7.7-3.2,10.1s-5.3,3.5-9.3,3.5c-4,0-7.1-1.2-9.3-3.5c-2.2-2.3-3.2-5.7-3.2-10.1
			s1.1-7.7,3.3-10.1c2.2-2.3,5.3-3.5,9.3-3.5c4.1,0,7.1,1.2,9.3,3.5C409.3,158,410.3,161.3,410.3,165.7z M391.1,165.7
			c0,2.9,0.6,5.2,1.7,6.7c1.1,1.5,2.8,2.2,5,2.2c4.5,0,6.7-3,6.7-8.9c0-5.9-2.2-8.9-6.7-8.9c-2.2,0-3.9,0.7-5,2.2
			C391.7,160.5,391.1,162.8,391.1,165.7z"/>
		<path class="st2" d="M431.4,171.6c0,2.4-0.9,4.3-2.6,5.6c-1.7,1.4-4.1,2.1-7.1,2.1c-2.8,0-5.3-0.5-7.5-1.6v-5.2
			c1.8,0.8,3.3,1.4,4.5,1.7c1.2,0.3,2.4,0.5,3.4,0.5c1.2,0,2.2-0.2,2.8-0.7s1-1.2,1-2.1c0-0.5-0.1-1-0.4-1.4
			c-0.3-0.4-0.7-0.8-1.3-1.2c-0.6-0.4-1.7-1-3.4-1.8c-1.6-0.8-2.8-1.5-3.6-2.2c-0.8-0.7-1.4-1.5-1.9-2.4c-0.5-0.9-0.7-2-0.7-3.2
			c0-2.3,0.8-4.2,2.4-5.5c1.6-1.3,3.8-2,6.6-2c1.4,0,2.7,0.2,3.9,0.5c1.2,0.3,2.5,0.8,3.9,1.4l-1.8,4.3c-1.4-0.6-2.6-1-3.5-1.2
			c-0.9-0.2-1.8-0.3-2.7-0.3c-1.1,0-1.9,0.2-2.4,0.7c-0.6,0.5-0.8,1.1-0.8,1.9c0,0.5,0.1,0.9,0.3,1.3c0.2,0.4,0.6,0.7,1.1,1.1
			c0.5,0.3,1.7,1,3.5,1.8c2.5,1.2,4.2,2.4,5.1,3.5C430.9,168.4,431.4,169.9,431.4,171.6z"/>
	</g>
	<g>
		<path class="st0" d="M473.5,170.2v-1.3c0-1.2,0.2-2.2,0.7-3c0.5-0.9,1.4-1.8,2.7-2.7c1.3-0.9,2.1-1.6,2.5-2.2
			c0.4-0.6,0.6-1.2,0.6-1.9c0-0.8-0.3-1.4-0.9-1.8c-0.6-0.4-1.4-0.6-2.4-0.6c-1.8,0-3.9,0.6-6.2,1.8l-2-3.9c2.7-1.5,5.5-2.3,8.5-2.3
			c2.5,0,4.4,0.6,5.9,1.8c1.5,1.2,2.2,2.8,2.2,4.8c0,1.3-0.3,2.5-0.9,3.4c-0.6,1-1.7,2-3.4,3.2c-1.2,0.9-1.9,1.5-2.2,1.9
			c-0.3,0.4-0.5,1-0.5,1.7v1.1H473.5z M472.9,176.4c0-1,0.3-1.8,0.8-2.3c0.5-0.5,1.3-0.8,2.4-0.8c1,0,1.8,0.3,2.3,0.8
			c0.5,0.5,0.8,1.3,0.8,2.3c0,0.9-0.3,1.7-0.8,2.2s-1.3,0.8-2.3,0.8c-1,0-1.8-0.3-2.3-0.8C473.2,178.1,472.9,177.3,472.9,176.4z"/>
	</g>
	<circle class="st3" cx="476.5" cy="167.1" r="22.4"/>
	<g>
		<path class="st2" d="M112.3,339.4h-2.9V324h-5.3v-2.5h13.4v2.5h-5.3V339.4z"/>
		<path class="st2" d="M128.4,339.4l-0.6-1.9h-0.1c-0.7,0.8-1.3,1.4-2,1.7c-0.7,0.3-1.5,0.4-2.5,0.4c-1.3,0-2.4-0.4-3.1-1.1
			c-0.7-0.7-1.1-1.7-1.1-3c0-1.4,0.5-2.4,1.6-3.2c1-0.7,2.6-1.1,4.7-1.2l2.3-0.1v-0.7c0-0.9-0.2-1.5-0.6-1.9c-0.4-0.4-1-0.6-1.9-0.6
			c-0.7,0-1.4,0.1-2,0.3s-1.2,0.4-1.8,0.7l-0.9-2.1c0.7-0.4,1.5-0.7,2.4-0.9c0.9-0.2,1.7-0.3,2.5-0.3c1.7,0,3,0.4,3.9,1.1
			c0.9,0.8,1.3,1.9,1.3,3.5v9.1H128.4z M124.1,337.4c1,0,1.9-0.3,2.5-0.9s0.9-1.4,0.9-2.5v-1.2l-1.7,0.1c-1.4,0-2.3,0.3-3,0.7
			c-0.6,0.4-0.9,1-0.9,1.9c0,0.6,0.2,1.1,0.5,1.4C122.9,337.3,123.4,337.4,124.1,337.4z"/>
		<path class="st2" d="M145.9,339.4H143v-8.3c0-1-0.2-1.8-0.6-2.3s-1-0.8-1.8-0.8c-1.1,0-1.9,0.4-2.4,1.1c-0.5,0.7-0.8,1.9-0.8,3.6
			v6.7h-2.9v-13.5h2.2l0.4,1.8h0.1c0.4-0.6,0.9-1.1,1.6-1.5c0.7-0.4,1.5-0.5,2.4-0.5c2.1,0,3.5,0.7,4.1,2.1h0.2
			c0.4-0.7,1-1.2,1.7-1.6s1.6-0.6,2.5-0.6c1.6,0,2.8,0.4,3.5,1.2c0.7,0.8,1.1,2.1,1.1,3.7v8.8h-2.9v-8.3c0-1-0.2-1.8-0.6-2.3
			s-1-0.8-1.8-0.8c-1.1,0-1.9,0.3-2.5,1s-0.8,1.8-0.8,3.2V339.4z"/>
		<path class="st2" d="M166.9,339.4l-0.6-1.9h-0.1c-0.7,0.8-1.3,1.4-2,1.7c-0.7,0.3-1.5,0.4-2.5,0.4c-1.3,0-2.4-0.4-3.1-1.1
			c-0.7-0.7-1.1-1.7-1.1-3c0-1.4,0.5-2.4,1.6-3.2c1-0.7,2.6-1.1,4.7-1.2l2.3-0.1v-0.7c0-0.9-0.2-1.5-0.6-1.9c-0.4-0.4-1-0.6-1.9-0.6
			c-0.7,0-1.4,0.1-2,0.3s-1.2,0.4-1.8,0.7l-0.9-2.1c0.7-0.4,1.5-0.7,2.4-0.9c0.9-0.2,1.7-0.3,2.5-0.3c1.7,0,3,0.4,3.9,1.1
			c0.9,0.8,1.3,1.9,1.3,3.5v9.1H166.9z M162.6,337.4c1,0,1.9-0.3,2.5-0.9s0.9-1.4,0.9-2.5v-1.2l-1.7,0.1c-1.4,0-2.3,0.3-3,0.7
			c-0.6,0.4-0.9,1-0.9,1.9c0,0.6,0.2,1.1,0.5,1.4C161.4,337.3,161.9,337.4,162.6,337.4z"/>
		<path class="st2" d="M184.9,339.4H182v-8.3c0-1-0.2-1.8-0.6-2.3s-1.1-0.8-2-0.8c-1.2,0-2.1,0.4-2.7,1.1c-0.6,0.7-0.8,1.9-0.8,3.6
			v6.7H173v-13.5h2.2l0.4,1.8h0.1c0.4-0.6,1-1.1,1.7-1.5s1.6-0.5,2.5-0.5c3.2,0,4.9,1.7,4.9,5V339.4z"/>
		<path class="st2" d="M200.8,339.4h-2.9v-8.3c0-1-0.2-1.8-0.6-2.3s-1.1-0.8-2-0.8c-1.2,0-2.1,0.4-2.7,1.1c-0.6,0.7-0.9,1.9-0.9,3.6
			v6.7h-2.9v-19h2.9v4.8c0,0.8,0,1.6-0.1,2.5h0.2c0.4-0.7,0.9-1.2,1.6-1.5c0.7-0.4,1.5-0.5,2.4-0.5c3.3,0,4.9,1.7,4.9,5V339.4z"/>
		<path class="st2" d="M216.8,332.6c0,2.2-0.6,3.9-1.7,5.2c-1.1,1.2-2.7,1.9-4.7,1.9c-1.3,0-2.4-0.3-3.4-0.9c-1-0.6-1.7-1.4-2.2-2.5
			c-0.5-1.1-0.8-2.3-0.8-3.7c0-2.2,0.6-3.9,1.7-5.1c1.1-1.2,2.7-1.8,4.8-1.8c2,0,3.5,0.6,4.6,1.9
			C216.2,328.8,216.8,330.5,216.8,332.6z M206.9,332.6c0,3.1,1.2,4.7,3.5,4.7c2.3,0,3.4-1.6,3.4-4.7c0-3.1-1.2-4.6-3.5-4.6
			c-1.2,0-2.1,0.4-2.6,1.2C207.2,330,206.9,331.1,206.9,332.6z"/>
		<path class="st2" d="M229.2,335.6c0,1.3-0.5,2.3-1.4,3c-1,0.7-2.3,1.1-4.1,1.1c-1.8,0-3.2-0.3-4.3-0.8v-2.5
			c1.6,0.7,3.1,1.1,4.4,1.1c1.8,0,2.7-0.5,2.7-1.6c0-0.3-0.1-0.6-0.3-0.9c-0.2-0.2-0.5-0.5-1-0.7c-0.4-0.2-1.1-0.5-1.9-0.8
			c-1.6-0.6-2.6-1.2-3.2-1.8c-0.6-0.6-0.8-1.4-0.8-2.3c0-1.2,0.5-2.1,1.4-2.7s2.2-1,3.8-1c1.6,0,3.1,0.3,4.5,1l-0.9,2.2
			c-1.5-0.6-2.7-0.9-3.7-0.9c-1.5,0-2.3,0.4-2.3,1.3c0,0.4,0.2,0.8,0.6,1.1c0.4,0.3,1.3,0.7,2.6,1.2c1.1,0.4,1.9,0.8,2.4,1.2
			c0.5,0.4,0.9,0.8,1.1,1.2C229.1,334.3,229.2,334.9,229.2,335.6z"/>
	</g>
	<g>
		<path class="st2" d="M315.1,326.8c0,1.9-0.6,3.4-1.9,4.4c-1.3,1-3.1,1.5-5.4,1.5h-1.9v6.9h-3v-18.4h5.3c2.3,0,4,0.5,5.2,1.4
			C314.5,323.5,315.1,324.9,315.1,326.8z M305.9,330.2h1.6c1.5,0,2.7-0.3,3.4-0.8c0.7-0.5,1.1-1.4,1.1-2.5c0-1.1-0.3-1.8-1-2.4
			s-1.7-0.8-3-0.8h-2.1V330.2z"/>
		<path class="st2" d="M331,326.8c0,1.9-0.6,3.4-1.9,4.4c-1.3,1-3.1,1.5-5.4,1.5h-1.9v6.9h-3v-18.4h5.3c2.3,0,4,0.5,5.2,1.4
			C330.4,323.5,331,324.9,331,326.8z M321.8,330.2h1.6c1.5,0,2.7-0.3,3.4-0.8c0.7-0.5,1.1-1.4,1.1-2.5c0-1.1-0.3-1.8-1-2.4
			s-1.7-0.8-3-0.8h-2.1V330.2z"/>
		<path class="st2" d="M333.1,334v-2.5h6.5v2.5H333.1z"/>
		<path class="st2" d="M356.5,339.6h-3.5l-4.6-7.5l-4.7,7.5h-3.2l6.1-9.6l-5.7-8.9h3.4l4.3,7l4.3-7h3.3l-5.8,8.9L356.5,339.6z"/>
		<path class="st2" d="M369.6,334.6c0,1.6-0.6,2.9-1.8,3.9c-1.2,0.9-2.8,1.4-4.9,1.4c-2.1,0-3.8-0.3-5.1-1v-2.9
			c0.8,0.4,1.7,0.7,2.7,0.9c0.9,0.2,1.8,0.3,2.6,0.3c1.2,0,2.1-0.2,2.6-0.7c0.6-0.5,0.9-1.1,0.9-1.8c0-0.7-0.3-1.3-0.8-1.8
			c-0.5-0.5-1.6-1-3.2-1.7c-1.7-0.7-2.9-1.5-3.6-2.3c-0.7-0.9-1-1.9-1-3.2c0-1.5,0.5-2.8,1.6-3.6c1.1-0.9,2.6-1.3,4.4-1.3
			c1.8,0,3.5,0.4,5.3,1.2l-1,2.5c-1.6-0.7-3.1-1-4.4-1c-1,0-1.7,0.2-2.2,0.6c-0.5,0.4-0.8,1-0.8,1.7c0,0.5,0.1,0.9,0.3,1.2
			c0.2,0.3,0.5,0.7,1,1c0.5,0.3,1.3,0.7,2.5,1.2c1.4,0.6,2.3,1.1,3,1.6c0.6,0.5,1.1,1,1.4,1.7C369.5,333.1,369.6,333.8,369.6,334.6z
			"/>
	</g>
	<g>
		<path class="st2" d="M446.4,326.8c0,1.9-0.6,3.4-1.9,4.4c-1.3,1-3.1,1.5-5.4,1.5h-1.9v6.9h-3v-18.4h5.3c2.3,0,4,0.5,5.2,1.4
			C445.9,323.5,446.4,324.9,446.4,326.8z M437.2,330.2h1.6c1.5,0,2.7-0.3,3.4-0.8c0.7-0.5,1.1-1.4,1.1-2.5c0-1.1-0.3-1.8-1-2.4
			s-1.7-0.8-3-0.8h-2.1V330.2z"/>
		<path class="st2" d="M448.6,334v-2.5h6.5v2.5H448.6z"/>
		<path class="st2" d="M469.1,334.6c0,1.6-0.6,2.9-1.8,3.9c-1.2,0.9-2.8,1.4-4.9,1.4c-2.1,0-3.8-0.3-5.1-1v-2.9
			c0.8,0.4,1.7,0.7,2.7,0.9c0.9,0.2,1.8,0.3,2.6,0.3c1.2,0,2.1-0.2,2.6-0.7c0.6-0.5,0.9-1.1,0.9-1.8c0-0.7-0.3-1.3-0.8-1.8
			c-0.5-0.5-1.6-1-3.2-1.7c-1.7-0.7-2.9-1.5-3.6-2.3c-0.7-0.9-1-1.9-1-3.2c0-1.5,0.5-2.8,1.6-3.6c1.1-0.9,2.6-1.3,4.4-1.3
			c1.8,0,3.5,0.4,5.3,1.2l-1,2.5c-1.6-0.7-3.1-1-4.4-1c-1,0-1.7,0.2-2.2,0.6c-0.5,0.4-0.8,1-0.8,1.7c0,0.5,0.1,0.9,0.3,1.2
			c0.2,0.3,0.5,0.7,1,1c0.5,0.3,1.3,0.7,2.5,1.2c1.4,0.6,2.3,1.1,3,1.6c0.6,0.5,1.1,1,1.4,1.7C468.9,333.1,469.1,333.8,469.1,334.6z
			"/>
	</g>
	<g>
		<path class="st2" d="M538.6,339.6l-5.3-15.4h-0.1c0.1,2.3,0.2,4.4,0.2,6.4v9h-2.7v-18.4h4.2l5.1,14.7h0.1l5.3-14.7h4.3v18.4h-2.9
			v-9.1c0-0.9,0-2.1,0.1-3.6c0-1.5,0.1-2.4,0.1-2.7h-0.1l-5.5,15.4H538.6z"/>
		<path class="st2" d="M553,334v-2.5h6.5v2.5H553z"/>
		<path class="st2" d="M570.8,339.6l-5.3-15.4h-0.1c0.1,2.3,0.2,4.4,0.2,6.4v9h-2.7v-18.4h4.2l5.1,14.7h0.1l5.3-14.7h4.3v18.4h-2.9
			v-9.1c0-0.9,0-2.1,0.1-3.6c0-1.5,0.1-2.4,0.1-2.7H579l-5.5,15.4H570.8z"/>
	</g>
	<g>
		<path class="st2" d="M647.2,329.6h6.8v9.3c-1.1,0.4-2.2,0.6-3.2,0.8s-2.1,0.2-3.3,0.2c-2.8,0-4.9-0.8-6.5-2.5
			c-1.5-1.7-2.3-4-2.3-7c0-3,0.9-5.3,2.6-7c1.7-1.7,4.1-2.5,7-2.5c1.9,0,3.8,0.4,5.5,1.1l-1.1,2.5c-1.5-0.7-3-1-4.5-1
			c-2,0-3.5,0.6-4.7,1.9c-1.1,1.2-1.7,2.9-1.7,5.1c0,2.3,0.5,4,1.5,5.1s2.5,1.8,4.4,1.8c1,0,2-0.1,3.1-0.4v-4.8h-3.8V329.6z"/>
		<path class="st2" d="M656.9,334v-2.5h6.5v2.5H656.9z"/>
		<path class="st2" d="M666.8,339.6v-18.4h3V337h7.8v2.6H666.8z"/>
	</g>
	<g>
		<path class="st2" d="M738.5,329.6h6.8v9.3c-1.1,0.4-2.2,0.6-3.2,0.8s-2.1,0.2-3.3,0.2c-2.8,0-4.9-0.8-6.5-2.5
			c-1.5-1.7-2.3-4-2.3-7c0-3,0.9-5.3,2.6-7c1.7-1.7,4.1-2.5,7-2.5c1.9,0,3.8,0.4,5.5,1.1l-1.1,2.5c-1.5-0.7-3-1-4.5-1
			c-2,0-3.5,0.6-4.7,1.9c-1.1,1.2-1.7,2.9-1.7,5.1c0,2.3,0.5,4,1.5,5.1s2.5,1.8,4.4,1.8c1,0,2-0.1,3.1-0.4v-4.8h-3.8V329.6z"/>
		<path class="st2" d="M757.3,329.6h6.8v9.3c-1.1,0.4-2.2,0.6-3.2,0.8s-2.1,0.2-3.3,0.2c-2.8,0-4.9-0.8-6.5-2.5
			c-1.5-1.7-2.3-4-2.3-7c0-3,0.9-5.3,2.6-7c1.7-1.7,4.1-2.5,7-2.5c1.9,0,3.8,0.4,5.5,1.1l-1.1,2.5c-1.5-0.7-3-1-4.5-1
			c-2,0-3.5,0.6-4.7,1.9c-1.1,1.2-1.7,2.9-1.7,5.1c0,2.3,0.5,4,1.5,5.1s2.5,1.8,4.4,1.8c1,0,2-0.1,3.1-0.4v-4.8h-3.8V329.6z"/>
		<path class="st2" d="M767,334v-2.5h6.5v2.5H767z"/>
		<path class="st2" d="M790.4,339.6h-3.5l-4.6-7.5l-4.7,7.5h-3.2l6.1-9.6l-5.7-8.9h3.4l4.3,7l4.3-7h3.3l-5.8,8.9L790.4,339.6z"/>
		<path class="st2" d="M792.9,339.6v-18.4h3V337h7.8v2.6H792.9z"/>
	</g>
	<g>
		<path class="st2" d="M856.2,329.6h6.8v9.3c-1.1,0.4-2.2,0.6-3.2,0.8s-2.1,0.2-3.3,0.2c-2.8,0-4.9-0.8-6.5-2.5
			c-1.5-1.7-2.3-4-2.3-7c0-3,0.9-5.3,2.6-7c1.7-1.7,4.1-2.5,7-2.5c1.9,0,3.8,0.4,5.5,1.1l-1.1,2.5c-1.5-0.7-3-1-4.5-1
			c-2,0-3.5,0.6-4.7,1.9c-1.1,1.2-1.7,2.9-1.7,5.1c0,2.3,0.5,4,1.5,5.1s2.5,1.8,4.4,1.8c1,0,2-0.1,3.1-0.4v-4.8h-3.8V329.6z"/>
		<path class="st2" d="M875,329.6h6.8v9.3c-1.1,0.4-2.2,0.6-3.2,0.8s-2.1,0.2-3.3,0.2c-2.8,0-4.9-0.8-6.5-2.5c-1.5-1.7-2.3-4-2.3-7
			c0-3,0.9-5.3,2.6-7c1.7-1.7,4.1-2.5,7-2.5c1.9,0,3.8,0.4,5.5,1.1l-1.1,2.5c-1.5-0.7-3-1-4.5-1c-2,0-3.5,0.6-4.7,1.9
			c-1.1,1.2-1.7,2.9-1.7,5.1c0,2.3,0.5,4,1.5,5.1s2.5,1.8,4.4,1.8c1,0,2-0.1,3.1-0.4v-4.8H875V329.6z"/>
		<path class="st2" d="M893.7,329.6h6.8v9.3c-1.1,0.4-2.2,0.6-3.2,0.8s-2.1,0.2-3.3,0.2c-2.8,0-4.9-0.8-6.5-2.5
			c-1.5-1.7-2.3-4-2.3-7c0-3,0.9-5.3,2.6-7c1.7-1.7,4.1-2.5,7-2.5c1.9,0,3.8,0.4,5.5,1.1l-1.1,2.5c-1.5-0.7-3-1-4.5-1
			c-2,0-3.5,0.6-4.7,1.9c-1.1,1.2-1.7,2.9-1.7,5.1c0,2.3,0.5,4,1.5,5.1s2.5,1.8,4.4,1.8c1,0,2-0.1,3.1-0.4v-4.8h-3.8V329.6z"/>
		<path class="st2" d="M903.4,334v-2.5h6.5v2.5H903.4z"/>
		<path class="st2" d="M923.7,325.4c0,1.2-0.3,2.1-1,2.9c-0.7,0.8-1.6,1.3-2.9,1.6v0.1c1.5,0.2,2.6,0.6,3.3,1.4
			c0.7,0.7,1.1,1.7,1.1,2.9c0,1.8-0.6,3.1-1.9,4.1s-3,1.4-5.3,1.4c-2,0-3.8-0.3-5.2-1v-2.6c0.8,0.4,1.6,0.7,2.5,0.9
			c0.9,0.2,1.7,0.3,2.5,0.3c1.4,0,2.5-0.3,3.2-0.8c0.7-0.5,1.1-1.3,1.1-2.5c0-1-0.4-1.7-1.2-2.2c-0.8-0.5-2-0.7-3.7-0.7h-1.6v-2.4
			h1.6c2.9,0,4.4-1,4.4-3.1c0-0.8-0.3-1.4-0.8-1.8c-0.5-0.4-1.3-0.6-2.3-0.6c-0.7,0-1.4,0.1-2,0.3s-1.4,0.6-2.3,1.2l-1.5-2.1
			c1.7-1.2,3.7-1.9,5.9-1.9c1.9,0,3.3,0.4,4.4,1.2C923.2,322.9,923.7,324,923.7,325.4z"/>
		<path class="st2" d="M941.6,339.6h-3.5l-4.6-7.5l-4.7,7.5h-3.2l6.1-9.6l-5.7-8.9h3.4l4.3,7l4.3-7h3.3l-5.8,8.9L941.6,339.6z"/>
		<path class="st2" d="M944,339.6v-18.4h3V337h7.8v2.6H944z"/>
	</g>
	<rect x="59.9" y="227" class="st4" width="217" height="70.1"/>
	<rect x="276.9" y="227" class="st4" width="114.6" height="70.1"/>
	<rect x="391.5" y="227" class="st4" width="106.8" height="70.1"/>
	<rect x="498.3" y="227" class="st4" width="106.8" height="70.1"/>
	<rect x="605.1" y="227" class="st4" width="106.8" height="70.1"/>
	<rect x="712" y="227" class="st4" width="106.8" height="70.1"/>
	<rect x="818.8" y="227" class="st4" width="160" height="70.1"/>
	<g>
		<rect x="59.9" y="297.2" class="st4" width="217" height="70.1"/>
		<rect x="276.9" y="297.2" class="st4" width="114.6" height="70.1"/>
		<rect x="391.5" y="297.2" class="st4" width="106.8" height="70.1"/>
		<rect x="498.3" y="297.2" class="st4" width="106.8" height="70.1"/>
		<rect x="605.1" y="297.2" class="st4" width="106.8" height="70.1"/>
		<rect x="712" y="297.2" class="st4" width="106.8" height="70.1"/>
		<rect x="818.8" y="297.2" class="st4" width="160" height="70.1"/>
	</g>
</g>
</svg>
